<svg width="411" height="782" viewBox="0 0 411 782" fill="none" xmlns="http://www.w3.org/2000/svg">
<path opacity="0.53" d="M409.49 662.897C408.426 660.828 406.206 659.732 404.048 660.006L372.729 541.592C372.851 541.531 373.003 541.47 373.124 541.409C375.77 540.07 376.803 536.844 375.465 534.196C374.583 532.431 372.851 531.397 370.996 531.275L361.6 400.018C362.056 399.926 362.512 399.774 362.968 399.561C365.614 398.222 366.648 394.996 365.31 392.349C363.972 389.701 360.749 388.666 358.103 390.005C357.374 390.37 356.796 390.888 356.34 391.466L275.975 343.534C276.583 342.134 276.583 340.46 275.823 338.969C274.486 336.322 271.262 335.287 268.617 336.626C268.07 336.9 267.583 337.265 267.188 337.691L215.588 299.498C216.439 298.007 216.531 296.12 215.679 294.476C215.071 293.259 214.037 292.407 212.882 291.92L234.896 204.486C235.9 204.608 236.964 204.425 237.937 203.938C240.582 202.599 241.616 199.373 240.278 196.726C239.153 194.535 236.721 193.439 234.41 193.926L212.274 130.108C212.274 130.108 212.304 130.108 212.304 130.078C214.949 128.739 215.983 125.513 214.646 122.865C213.308 120.217 210.085 119.183 207.439 120.522C206.01 121.252 205.067 122.5 204.703 123.93L121.51 113.218C121.51 112.396 121.328 111.574 120.933 110.783C119.595 108.136 116.372 107.101 113.726 108.44C111.081 109.779 110.047 113.005 111.385 115.652C111.446 115.744 111.507 115.835 111.537 115.957L-22.6165 220.707L-23.0117 220.372L-23.2246 221.194L-25.4137 222.898L-23.559 222.502L-48.4315 319.614C-49.4653 319.492 -50.5295 319.644 -51.5026 320.162C-53.5398 321.196 -54.6041 323.327 -54.3912 325.457L-131.776 343.534C-131.837 343.352 -131.928 343.169 -132.019 342.986C-133.357 340.339 -136.58 339.304 -139.225 340.643C-141.627 341.86 -142.692 344.66 -141.871 347.125L-357.027 328.713C-357.057 327.983 -357.24 327.222 -357.605 326.522C-358.943 323.875 -362.166 322.84 -364.811 324.179C-367.456 325.518 -368.49 328.744 -367.152 331.391C-366.635 332.396 -365.845 333.157 -364.933 333.674L-429.09 500.629C-430.276 500.325 -431.584 500.446 -432.769 501.055C-433.864 501.603 -434.655 502.485 -435.172 503.52L-507.022 479.813C-506.809 478.687 -506.931 477.469 -507.509 476.374C-508.847 473.726 -512.07 472.691 -514.715 474.031C-516.57 474.974 -517.634 476.83 -517.634 478.748L-586.018 486.995C-586.109 486.63 -586.261 486.234 -586.444 485.869C-587.782 483.221 -591.005 482.187 -593.65 483.526C-596.296 484.865 -597.329 488.091 -595.992 490.738C-595.87 490.951 -595.779 491.134 -595.657 491.316L-688.488 573.516C-690.069 572.116 -692.411 571.751 -694.417 572.785C-697.063 574.124 -698.097 577.35 -696.759 579.998C-695.877 581.702 -694.205 582.737 -692.411 582.889L-689.066 653.95C-689.644 654.041 -690.252 654.193 -690.799 654.498C-693.232 655.745 -694.296 658.576 -693.414 661.071L-733.763 677.353C-735.436 677.14 -737.047 677.718 -738.203 678.844L-809.293 623.152C-809.02 622.695 -808.807 622.178 -808.685 621.63C-808.046 618.77 -809.84 615.909 -812.699 615.239C-814.827 614.752 -816.925 615.604 -818.141 617.248L-832.037 610.979L-909.178 576.163C-908.601 573.333 -910.395 570.564 -913.223 569.925C-916.081 569.286 -918.939 571.081 -919.608 573.942C-919.79 574.763 -919.76 575.616 -919.577 576.376L-999.364 605.47C-1000.06 604.162 -1001.31 603.157 -1002.86 602.792L-998.391 553.856L-1116.06 542.596C-1116.16 540.222 -1117.8 538.122 -1120.2 537.574C-1121.48 537.27 -1122.72 537.483 -1123.79 538.001L-1161.8 482.217C-1161.01 481.517 -1160.4 480.543 -1160.15 479.417C-1159.52 476.556 -1161.31 473.696 -1164.17 473.026C-1165.51 472.722 -1166.84 472.965 -1167.94 473.574L-1233.65 385.045C-1232.92 384.345 -1232.4 383.432 -1232.16 382.397C-1231.52 379.536 -1233.31 376.676 -1236.17 376.006C-1239.03 375.367 -1241.89 377.163 -1242.56 380.023C-1242.83 381.149 -1242.68 382.275 -1242.28 383.249L-1305.16 419.982C-1305.89 419.038 -1306.96 418.308 -1308.2 418.034C-1310.73 417.456 -1313.22 418.764 -1314.25 421.047L-1481.09 370.133L-1481.31 370.772C-1480.91 368.976 -1481.46 367.181 -1482.64 365.933L-1439.32 312.675C-1438.83 312.98 -1438.28 313.223 -1437.7 313.345C-1434.85 313.984 -1431.99 312.188 -1431.32 309.328C-1430.68 306.467 -1432.47 303.606 -1435.33 302.937C-1437.04 302.541 -1438.71 303.028 -1439.92 304.063L-1549.11 203.543C-1548.78 203.025 -1548.51 202.447 -1548.35 201.778C-1547.87 199.647 -1548.75 197.547 -1550.39 196.3L-1518.52 142.19C-1518.31 142.281 -1518.1 142.342 -1517.89 142.373C-1515.03 143.012 -1512.17 141.216 -1511.5 138.355C-1510.86 135.495 -1512.66 132.634 -1515.51 131.965C-1517.03 131.63 -1518.59 131.965 -1519.77 132.817L-1647.78 8.52859C-1647.36 7.95036 -1647.02 7.28084 -1646.84 6.52002C-1646.2 3.65932 -1648 0.798627 -1650.85 0.129103C-1653.71 -0.509989 -1656.57 1.28555 -1657.24 4.14625C-1657.76 6.39828 -1656.75 8.65032 -1654.9 9.8372L-1706.28 120.461C-1706.44 120.43 -1706.56 120.37 -1706.71 120.339C-1709.57 119.7 -1712.43 121.496 -1713.1 124.356C-1713.52 126.274 -1712.88 128.191 -1711.55 129.439L-1787.87 235.893C-1788.29 235.68 -1788.72 235.497 -1789.2 235.376C-1792.06 234.706 -1794.92 236.532 -1795.59 239.393C-1796.23 242.253 -1794.43 245.114 -1791.57 245.784C-1790.78 245.966 -1790.02 245.966 -1789.29 245.784L-1758.31 333.704C-1759.68 334.404 -1760.74 335.682 -1761.11 337.295C-1761.75 340.156 -1759.95 343.017 -1757.09 343.686C-1756.49 343.808 -1755.91 343.839 -1755.33 343.778L-1740.13 405.891C-1741.74 406.5 -1742.99 407.9 -1743.41 409.695C-1743.72 411.004 -1743.5 412.343 -1742.89 413.439L-1815.41 466.331C-1816.11 465.601 -1817.03 465.053 -1818.09 464.809C-1820.95 464.17 -1823.81 465.966 -1824.47 468.827C-1825.02 471.231 -1823.87 473.605 -1821.77 474.731L-1845.46 537.696H-1845.49C-1848.34 537.057 -1851.2 538.853 -1851.87 541.713C-1852.51 544.574 -1850.72 547.435 -1847.86 548.104C-1846.31 548.469 -1844.79 548.104 -1843.57 547.222L-1786.71 608.453C-1787.23 609.061 -1787.62 609.822 -1787.8 610.674C-1788.44 613.535 -1786.65 616.396 -1783.79 617.065C-1780.93 617.704 -1778.07 615.909 -1777.41 613.048C-1777.38 612.926 -1777.38 612.835 -1777.34 612.713L-1607.98 618.039L-1607.89 618.557L-1607.22 618.07L-1604.45 618.161L-1606.13 617.278L-1525.27 558.817C-1524.58 559.577 -1523.63 560.125 -1522.57 560.369C-1520.35 560.856 -1518.16 559.912 -1516.97 558.147L-1446.25 593.632C-1446.31 593.815 -1446.37 593.997 -1446.4 594.21C-1447.04 597.101 -1445.24 599.932 -1442.39 600.601C-1439.77 601.21 -1437.19 599.749 -1436.24 597.314L-1283.27 748.566C-1283.73 749.144 -1284.06 749.844 -1284.21 750.605C-1284.85 753.466 -1283.06 756.326 -1280.2 756.996C-1277.34 757.635 -1274.48 755.839 -1273.81 752.979C-1273.57 751.883 -1273.69 750.788 -1274.06 749.814L-1118.71 662.928C-1117.98 663.902 -1116.92 664.662 -1115.61 664.936C-1114.42 665.21 -1113.24 665.058 -1112.2 664.571L-1072.31 728.541C-1073.19 729.271 -1073.86 730.276 -1074.13 731.493C-1074.77 734.354 -1072.98 737.214 -1070.12 737.884C-1068.11 738.341 -1066.14 737.58 -1064.89 736.119L-1007.3 773.399C-1007.45 773.764 -1007.6 774.13 -1007.7 774.525C-1008.33 777.416 -1006.54 780.247 -1003.68 780.916C-1000.82 781.555 -997.965 779.76 -997.296 776.899C-997.236 776.686 -997.205 776.473 -997.205 776.26L-873.846 772.547C-873.512 774.647 -871.961 776.412 -869.772 776.899C-866.913 777.538 -864.055 775.743 -863.386 772.882C-862.961 770.995 -863.569 769.139 -864.846 767.891L-822.185 711.346C-821.669 711.681 -821.121 711.925 -820.513 712.046C-817.868 712.655 -815.253 711.164 -814.341 708.699L-743.706 731.371C-743.737 731.493 -743.767 731.584 -743.797 731.706C-744.436 734.597 -742.642 737.427 -739.784 738.097C-737.899 738.523 -736.044 737.884 -734.797 736.606C-733.794 735.723 -733.186 734.476 -733.064 733.167L-642.453 730.458C-642.361 731.006 -642.209 731.523 -641.936 732.041C-640.598 734.688 -637.375 735.723 -634.729 734.384C-632.783 733.41 -631.719 731.371 -631.81 729.332L-617.063 725.224L-535.209 702.521C-533.841 705.077 -530.678 706.051 -528.063 704.743C-525.418 703.404 -524.384 700.178 -525.722 697.53C-526.117 696.769 -526.665 696.13 -527.303 695.643L-484.4 621.904C-483.031 622.452 -481.42 622.452 -479.991 621.721L-452.047 662.38L-353.986 595.427C-352.405 597.193 -349.79 597.771 -347.571 596.645C-346.415 596.067 -345.564 595.093 -345.077 593.997L-279.916 612.622C-280.068 613.687 -279.916 614.813 -279.399 615.848C-278.061 618.496 -274.838 619.53 -272.193 618.191C-270.977 617.552 -270.095 616.518 -269.639 615.331L-162.121 641.442C-162.243 642.446 -162.061 643.481 -161.574 644.455C-160.236 647.103 -157.013 648.137 -154.368 646.798C-151.722 645.459 -150.689 642.233 -152.026 639.586C-152.543 638.551 -153.364 637.76 -154.337 637.273L-129.222 568.403C-128.036 568.677 -126.789 568.525 -125.634 567.947C-123.323 566.76 -122.228 564.142 -122.897 561.738L38.5614 493.782L38.2878 493.142C39.1393 494.786 40.7203 495.821 42.4231 496.034L43.1528 565.025C42.5751 565.116 42.0278 565.268 41.4806 565.542C38.8352 566.881 37.8013 570.107 39.1392 572.755C40.4771 575.403 43.7002 576.437 46.3455 575.098C47.8962 574.307 48.8997 572.877 49.1733 571.264L197.983 578.629C198.043 579.268 198.226 579.876 198.53 580.454C199.533 582.402 201.54 583.498 203.608 583.376L213.733 645.642C213.52 645.733 213.338 645.794 213.125 645.916C210.48 647.255 209.446 650.481 210.784 653.128C212.122 655.776 215.345 656.811 217.99 655.472C219.389 654.741 220.362 653.493 220.727 652.094L399.334 665.758C399.365 666.488 399.547 667.219 399.912 667.919C401.25 670.566 404.473 671.601 407.119 670.262C409.764 668.771 410.828 665.545 409.49 662.897ZM358.59 399.774C359.107 399.987 359.685 400.109 360.232 400.139L369.627 531.397C369.171 531.488 368.715 531.64 368.259 531.853C367.529 532.218 366.921 532.766 366.435 533.375L304.527 497.494L358.59 399.774ZM206.162 299.346C206.557 300.106 207.105 300.715 207.713 301.202L181.685 347.399L202.604 290.581L206.466 293.928C205.463 295.541 205.28 297.58 206.162 299.346ZM224.436 405.465C224.163 405.617 223.919 405.77 223.676 405.952L182.111 358.751C182.992 357.746 183.448 356.438 183.418 355.129L217.625 350.047L225.288 405.13C224.984 405.222 224.71 405.313 224.436 405.465ZM229.028 415.143L260.225 461.979L224.497 415.052C225.865 415.721 227.508 415.812 229.028 415.143ZM221.609 411.247L190.32 370.163L222.673 406.896C221.7 408.113 221.304 409.695 221.609 411.247ZM183.236 353.76C183.144 353.425 183.023 353.09 182.871 352.786C182.475 352.025 181.958 351.416 181.32 350.929L208.959 301.871C209.598 302.145 210.297 302.267 211.027 302.267L217.473 348.677L183.236 353.76ZM179.283 350.016C178.31 349.803 177.246 349.834 176.242 350.199L98.219 201.047L98.3103 200.56C98.4319 200.469 98.5231 200.378 98.6143 200.317L201.51 289.668L179.283 350.016ZM175.026 350.838C174.63 351.112 174.266 351.447 173.962 351.812L78.3636 291.524L94.7223 201.656C95.4216 201.717 96.1211 201.625 96.8204 201.382L175.026 350.838ZM69.6672 362.463C70.2146 361.703 70.5491 360.79 70.6403 359.846L172.776 356.133C172.867 356.651 173.019 357.168 173.293 357.685C173.353 357.807 173.414 357.898 173.475 357.99L114.487 404.43L69.6672 362.463ZM151.552 440.98C151.187 441.498 150.913 442.076 150.731 442.685L84.4146 433.25C84.4146 432.429 84.2321 431.546 83.8368 430.755C83.776 430.633 83.7151 430.542 83.6543 430.451L114.426 406.226L151.552 440.98ZM-43.9618 323.144L45.6462 277.525C46.2544 278.408 47.1057 279.077 48.0482 279.442L29.9563 348.19L-43.7185 325.822C-43.5665 324.94 -43.6577 324.027 -43.9618 323.144ZM49.3861 279.808C49.6902 279.838 50.0247 279.868 50.3287 279.838L63.7076 354.216C63.434 354.307 63.1603 354.399 62.8866 354.551C61.64 355.19 60.7583 356.225 60.3021 357.412L31.2335 348.586L49.3861 279.808ZM51.6666 279.595C51.9403 279.503 52.214 279.412 52.4877 279.26C53.1566 278.925 53.7344 278.438 54.1904 277.89L76.8433 292.163L65.5929 353.942C65.4408 353.942 65.2583 353.942 65.1062 353.942L51.6666 279.595ZM78.0898 292.985L173.232 352.968C172.989 353.516 172.806 354.125 172.745 354.733L70.61 358.446C70.5188 357.929 70.3666 357.412 70.093 356.894C69.4241 355.555 68.2687 354.642 66.9308 354.216L78.0898 292.985ZM77.1168 290.733L54.9202 276.734C55.5891 275.304 55.6196 273.569 54.829 272.047C54.4641 271.317 53.9169 270.678 53.3087 270.221L64.407 250.927L92.9587 201.199C93.0803 201.26 93.2324 201.291 93.354 201.352L77.1168 290.733ZM52.1228 269.552C50.7241 268.974 49.1124 268.974 47.653 269.734C45.4332 270.86 44.3387 273.356 44.8556 275.699L25.1827 259.661L91.5599 200.378C91.6207 200.439 91.712 200.499 91.7728 200.56L52.1228 269.552ZM44.0345 276.795L-44.5698 321.927L24.1488 260.574L44.0345 276.795ZM-44.1138 327.161L29.5916 349.529L8.18542 430.785C7.36438 430.694 6.51306 430.755 5.72241 431.059L-45.9686 329.383C-45.1476 328.805 -44.5092 328.013 -44.1138 327.161ZM30.8989 349.925L59.998 358.751C59.8763 359.755 60.0588 360.79 60.5453 361.763C60.819 362.281 61.184 362.768 61.5792 363.163L10.1315 431.424C9.91858 431.303 9.73608 431.211 9.4928 431.12L30.8989 349.925ZM62.9475 364.107C63.2212 364.229 63.4948 364.35 63.7988 364.442L52.2748 433.95L12.8376 435.198C12.7465 434.65 12.5942 434.133 12.3207 433.616C12.047 433.098 11.7126 432.611 11.3174 432.216L62.9475 364.107ZM53.3998 435.32L73.8938 434.681C73.985 435.016 74.1067 435.35 74.2891 435.655C74.6539 436.385 75.1708 436.963 75.7789 437.45L45.6157 485.839C45.4333 485.747 45.251 485.686 45.0685 485.595L53.3998 435.32ZM73.7113 433.281L53.6432 433.92L65.1367 364.685C65.5016 364.685 65.8666 364.685 66.2314 364.624L77.1777 428.199C76.9952 428.259 76.8129 428.351 76.6305 428.442C74.7452 429.385 73.6809 431.303 73.7113 433.281ZM67.5693 364.198C67.6301 364.168 67.691 364.137 67.7518 364.107C68.1167 363.924 68.4205 363.711 68.7246 363.468L113.392 405.283L82.7726 429.385C81.6476 428.29 80.0663 427.742 78.4852 427.894L67.5693 364.198ZM84.2017 434.65L150.549 444.054C150.549 444.906 150.731 445.758 151.126 446.55C151.339 446.945 151.582 447.31 151.856 447.645L121.632 481.7L83.0461 436.781C83.5935 436.172 83.9888 435.442 84.2017 434.65ZM115.52 405.374L174.357 359.055C174.874 359.572 175.482 359.938 176.151 360.211L156.539 438.82C155.535 438.698 154.471 438.881 153.498 439.367C153.133 439.55 152.829 439.763 152.525 440.007L115.52 405.374ZM177.458 360.546C178.462 360.668 179.526 360.485 180.499 359.998C180.59 359.968 180.651 359.907 180.742 359.877L269.164 476.009C268.678 476.465 268.282 476.983 267.979 477.591L161.13 445.028C161.312 443.932 161.161 442.776 160.613 441.711C160.005 440.493 158.971 439.611 157.785 439.154L177.458 360.546ZM160.765 446.337L267.553 478.9C267.31 480.056 267.462 481.274 268.009 482.4C268.313 483.008 268.708 483.495 269.164 483.921L245.417 517.58L160.4 447.006C160.552 446.763 160.644 446.55 160.765 446.337ZM282.695 543.874C282.604 543.448 282.452 543.022 282.239 542.596C281.844 541.835 281.296 541.196 280.627 540.709L303.858 498.712L365.766 534.562C365.522 535.14 365.37 535.779 365.37 536.418L282.695 543.874ZM361.813 538.153L210.906 575.555L272.904 547.83C274.333 550.204 277.374 551.087 279.898 549.809C281.692 548.896 282.756 547.13 282.817 545.244L361.813 538.153ZM279.411 540.07C278.895 539.857 278.347 539.735 277.769 539.705L273.969 485.169C274.394 485.078 274.79 484.926 275.185 484.743C275.915 484.378 276.523 483.83 277.009 483.221L302.642 498.073L279.411 540.07ZM276.401 539.796C275.945 539.887 275.489 540.04 275.033 540.253C274.577 540.496 274.181 540.77 273.816 541.105L246.481 518.432L270.289 484.682C270.989 485.047 271.779 485.26 272.6 485.291L276.401 539.796ZM245.69 519.558L272.935 542.17C272.114 543.448 271.871 545.061 272.327 546.552L208.047 575.281C207.804 574.855 207.5 574.429 207.166 574.094L245.69 519.558ZM208.716 577.502L365.705 538.579C365.766 538.731 365.827 538.914 365.918 539.066C365.948 539.127 365.979 539.157 366.009 539.218L273.117 607.509L208.473 579.481C208.686 578.872 208.747 578.172 208.716 577.502ZM357.221 398.983C357.282 399.013 357.343 399.074 357.374 399.105L303.311 496.825L277.708 482.004C278.286 480.604 278.286 478.961 277.557 477.5C277.435 477.226 277.252 476.983 277.07 476.739L357.221 398.983ZM356.249 398.009L276.097 475.765C275.306 475.126 274.364 474.761 273.391 474.639L272.54 405.678L355.336 396.122C355.427 396.518 355.58 396.883 355.762 397.248C355.914 397.522 356.096 397.766 356.249 398.009ZM273.512 346.212C274.212 345.847 274.82 345.33 275.276 344.751L355.64 392.683C355.367 393.322 355.215 394.022 355.215 394.722L272.57 404.278L271.87 346.73C272.418 346.638 272.965 346.486 273.512 346.212ZM272.023 474.639C271.536 474.7 271.05 474.852 270.594 475.065L230.183 414.443C231.46 413.439 232.16 411.917 232.19 410.334L271.171 405.83L272.023 474.639ZM268.8 346.273C269.316 346.517 269.894 346.699 270.472 346.76L271.171 404.461L232.038 408.965C231.947 408.569 231.795 408.204 231.612 407.839C231.278 407.169 230.822 406.622 230.305 406.165L268.8 346.273ZM267.644 345.512L229.149 405.404C228.359 405.039 227.507 404.857 226.656 404.887L218.994 349.834L265.941 342.865C266.032 343.199 266.154 343.504 266.306 343.839C266.641 344.508 267.097 345.086 267.644 345.512ZM213.368 301.719C213.916 301.445 214.402 301.08 214.798 300.654L266.397 338.847C265.941 339.669 265.729 340.613 265.729 341.556L218.781 348.525L212.335 302.145C212.699 301.993 213.034 301.871 213.368 301.719ZM211.574 291.616C210.571 291.494 209.507 291.676 208.534 292.163C208.108 292.376 207.743 292.65 207.409 292.955L203.152 289.242L231.764 211.607L211.574 291.616ZM202.027 288.268L99.5265 199.282C99.9521 198.643 100.226 197.882 100.347 197.121L230.244 199.799C230.305 200.439 230.487 201.047 230.792 201.656C231.308 202.691 232.129 203.482 233.072 203.969L202.027 288.268ZM99.9218 194.109L168.488 151.746L230.822 196.634C230.518 197.182 230.335 197.76 230.244 198.369L100.347 195.691C100.317 195.174 100.165 194.626 99.9218 194.109ZM211.027 130.595L233.163 194.413H233.133C232.555 194.717 232.068 195.082 231.673 195.539L169.796 150.985L205.828 128.739C207.044 130.291 209.081 130.991 211.027 130.595ZM121.419 114.648L204.611 125.361C204.611 126.091 204.763 126.852 205.098 127.552L168.58 150.103L120.963 115.835C121.146 115.439 121.297 115.044 121.419 114.648ZM118.683 118.057C119.26 117.752 119.747 117.387 120.173 116.931L167.303 150.894L100.043 192.435L115.824 118.635C116.767 118.696 117.771 118.513 118.683 118.057ZM112.48 117.083C113.057 117.631 113.726 118.057 114.456 118.331L98.6447 192.343C97.0332 190.913 94.6615 190.487 92.6243 191.552C90.6174 192.556 89.5531 194.656 89.7052 196.756L-19.7278 220.311L112.48 117.083ZM90.0092 198.095C90.1005 198.308 90.1613 198.521 90.283 198.734C90.4045 198.947 90.4957 199.13 90.6478 199.313L24.0879 258.748L-20.9745 221.985L90.0092 198.095ZM-22.0995 222.837L23.0542 259.691L-45.4822 320.892C-45.9382 320.496 -46.4552 320.192 -47.0024 319.979L-22.0995 222.837ZM-50.8032 329.992C-49.6782 330.387 -48.401 330.418 -47.2152 329.992L4.47583 431.668C4.05017 431.942 3.68518 432.307 3.35071 432.672L-77.3481 381.971L-50.8032 329.992ZM2.19543 436.72L-63.6348 453.58L-82.9733 458.54L-117.758 467.457C-117.758 467.457 -117.758 467.427 -117.789 467.427C-118.275 466.483 -119.005 465.753 -119.856 465.235L-77.9867 383.188L2.59045 433.829C2.22559 434.742 2.07373 435.746 2.19543 436.72ZM-131.38 344.904L-53.996 326.826C-53.9351 327.009 -53.8439 327.192 -53.7526 327.374C-53.3269 328.196 -52.7188 328.866 -52.0194 329.352L-78.4731 381.21L-131.836 347.673C-131.441 346.821 -131.289 345.878 -131.38 344.904ZM-134.269 350.229C-133.6 349.895 -133.022 349.408 -132.566 348.86L-79.1117 382.458L-121.073 464.718C-121.559 464.596 -122.076 464.505 -122.593 464.535L-124.934 443.719L-135.424 350.686C-135.029 350.534 -134.634 350.412 -134.269 350.229ZM-136.793 350.808L-126.424 442.898L-123.961 464.688C-124.296 464.779 -124.63 464.901 -124.965 465.083C-125.877 465.54 -126.607 466.24 -127.093 467.061L-171.061 450.475L-137.735 350.686C-137.431 350.747 -137.097 350.808 -136.793 350.808ZM-322.364 424.973C-322.09 424.973 -321.847 424.973 -321.573 424.942L-308.772 476.922L-299.923 512.802C-300.076 512.863 -300.258 512.924 -300.41 513.015C-301.9 513.776 -302.873 515.115 -303.207 516.637L-336.776 513.593L-322.364 424.973ZM-338.175 513.441L-424.894 505.62C-424.925 504.859 -425.107 504.098 -425.472 503.398C-425.533 503.277 -425.594 503.155 -425.654 503.064L-325.921 423.481C-325.283 424.09 -324.553 424.516 -323.732 424.76L-338.175 513.441ZM-307.616 475.887L-320.265 424.608C-320.113 424.547 -319.931 424.486 -319.779 424.394C-319.08 424.029 -318.502 423.542 -318.046 422.995L-247.746 466.27L-294.755 513.532C-295.849 512.711 -297.217 512.315 -298.616 512.467L-307.616 475.887ZM-220.624 434.498C-220.624 435.289 -220.441 436.111 -220.046 436.872C-219.863 437.207 -219.681 437.511 -219.438 437.815L-246.743 465.266L-317.316 421.838C-317.194 421.595 -317.103 421.321 -317.042 421.047L-220.624 434.498ZM-317.012 418.308L-266.781 398.374L-220.015 431.911C-220.228 432.307 -220.38 432.703 -220.471 433.129L-316.83 419.677C-316.83 419.221 -316.89 418.764 -317.012 418.308ZM-218.465 438.759C-217.188 439.672 -215.546 440.037 -213.995 439.641L-191.281 497.494C-191.585 497.951 -191.829 498.438 -191.981 498.955L-245.526 465.996L-218.465 438.759ZM-246.53 467.001L-192.224 500.416C-192.224 500.751 -192.193 501.116 -192.133 501.451L-292.808 516.302C-292.9 515.967 -293.021 515.663 -293.173 515.328C-293.325 515.024 -293.508 514.75 -293.721 514.476L-246.53 467.001ZM-292.626 517.702L-225.641 507.811L-191.707 502.79C-191.677 502.851 -191.646 502.911 -191.616 502.972C-191.342 503.49 -191.038 503.916 -190.643 504.311L-239.992 567.794L-293.508 520.776C-292.93 519.862 -292.626 518.767 -292.626 517.702ZM-212.687 439.124C-211.775 438.607 -211.045 437.876 -210.589 437.024L-172.764 451.297L-187.45 495.212C-188.089 495.273 -188.697 495.455 -189.305 495.76C-189.639 495.912 -189.943 496.125 -190.247 496.368L-212.687 439.124ZM-171.487 451.784L-127.64 468.34C-127.914 469.222 -127.944 470.196 -127.701 471.109L-182.311 497.707C-183.163 496.368 -184.5 495.486 -185.99 495.242L-171.487 451.784ZM-181.764 498.986L-127.215 472.418C-126.546 473.635 -125.451 474.517 -124.235 474.944L-139.195 550.143L-182.737 503.946C-181.612 502.577 -181.247 500.72 -181.764 498.986ZM-139.681 349.895C-139.469 350.047 -139.256 350.169 -139.012 350.26L-172.338 449.989L-210.073 435.746C-209.768 434.529 -209.89 433.22 -210.498 432.003C-210.681 431.637 -210.924 431.303 -211.167 430.998L-139.681 349.895ZM-141.11 348.464C-140.989 348.647 -140.867 348.799 -140.715 348.951L-212.201 430.055C-213.782 428.959 -215.88 428.716 -217.704 429.659C-218.282 429.964 -218.769 430.329 -219.194 430.785L-265.23 397.766L-141.11 348.464ZM-357.027 330.113L-144.425 348.312L-266.537 396.792L-357.513 331.513C-357.301 331.087 -357.149 330.6 -357.027 330.113ZM-358.365 332.639L-268.088 397.4L-317.498 417.03C-318.715 414.808 -321.33 413.804 -323.701 414.504L-359.49 333.583C-359.064 333.309 -358.669 332.974 -358.365 332.639ZM-363.534 334.191C-362.622 334.404 -361.679 334.404 -360.767 334.13L-324.979 415.052C-327.35 416.482 -328.262 419.525 -326.955 422.051C-326.894 422.173 -326.833 422.295 -326.772 422.386L-426.506 501.968C-426.871 501.633 -427.266 501.329 -427.661 501.116L-363.534 334.191ZM-434.989 508.268C-434.533 509.15 -433.864 509.85 -433.104 510.337L-446.604 539.127L-506.201 506.959C-506.049 506.594 -505.958 506.198 -505.897 505.803L-435.567 506.502C-435.445 507.081 -435.293 507.689 -434.989 508.268ZM-509.698 483.586C-508.603 483.039 -507.813 482.156 -507.296 481.121L-435.445 504.829C-435.476 504.92 -435.476 505.011 -435.506 505.103L-505.836 504.403C-505.897 503.794 -506.08 503.185 -506.384 502.607C-507.265 500.903 -508.907 499.868 -510.671 499.716L-511.249 484.104C-510.732 484.013 -510.215 483.83 -509.698 483.586ZM-515.384 483.039C-514.593 483.647 -513.62 484.013 -512.647 484.104L-512.07 499.746C-512.587 499.838 -513.103 499.99 -513.62 500.264C-514.897 500.903 -515.81 501.998 -516.235 503.277L-532.138 499.959L-515.384 483.039ZM-515.931 507.476C-515.87 507.568 -515.81 507.659 -515.779 507.75L-619.952 588.58L-533.293 501.116L-516.509 504.616C-516.57 505.589 -516.387 506.563 -515.931 507.476ZM-585.623 563.686L-514.928 508.846C-514.229 509.546 -513.316 510.033 -512.374 510.246L-522.499 610.37L-622.536 595.701C-622.536 594.849 -622.719 593.997 -623.114 593.175C-623.175 593.084 -623.236 592.993 -623.266 592.902L-585.623 563.686ZM-585.684 488.364L-517.3 480.117C-517.208 480.482 -517.056 480.878 -516.874 481.243C-516.722 481.547 -516.539 481.852 -516.327 482.095L-533.689 499.625L-585.684 488.73C-585.714 488.608 -585.684 488.486 -585.684 488.364ZM-592.13 493.568C-590.974 493.812 -589.758 493.66 -588.633 493.112C-587.356 492.473 -586.444 491.347 -586.018 490.099L-534.905 500.812L-624.665 591.38C-624.939 591.167 -625.243 590.984 -625.547 590.832L-592.13 493.568ZM-626.824 590.345C-627.979 590.102 -629.195 590.223 -630.32 590.802C-631.476 591.41 -632.327 592.354 -632.814 593.48L-647.348 589.371L-594.106 495.151L-626.824 590.345ZM-683.471 656.811C-683.562 656.659 -683.653 656.476 -683.745 656.324L-631.02 599.962C-630.412 600.418 -629.712 600.723 -628.952 600.875L-634.061 673.092L-682.984 660.402C-682.741 659.215 -682.863 657.937 -683.471 656.811ZM-632.662 598.045C-632.479 598.41 -632.266 598.714 -632.023 599.019L-684.505 655.106L-648.078 590.619L-633.209 594.819C-633.331 595.884 -633.179 597.01 -632.662 598.045ZM-594.562 492.351C-594.471 492.442 -594.35 492.503 -594.258 492.595L-648.716 589.006L-686.542 578.324C-686.39 577.259 -686.542 576.133 -687.059 575.129C-687.181 574.916 -687.272 574.733 -687.394 574.55L-594.562 492.351ZM-690.89 582.798C-690.373 582.706 -689.887 582.554 -689.4 582.311C-688.245 581.702 -687.394 580.759 -686.907 579.633L-649.416 590.223L-685.721 654.498C-686.268 654.193 -686.877 654.011 -687.515 653.92L-690.89 582.798ZM-692.988 661.65C-692.684 662.258 -692.259 662.776 -691.772 663.232L-719.868 704.347L-735.193 699.812L-734.067 687.913C-731.696 687.822 -729.598 686.178 -729.05 683.774C-728.533 681.431 -729.628 679.148 -731.574 677.992L-692.684 662.289L-692.988 661.65ZM-736.591 699.417L-762.011 691.93C-761.981 691.687 -761.95 691.413 -761.95 691.169L-739.206 684.718C-738.568 686.239 -737.23 687.426 -735.496 687.822L-736.591 699.417ZM-739.48 681.4C-739.632 682.07 -739.632 682.74 -739.541 683.379L-757.693 688.552L-739.389 681.157C-739.419 681.248 -739.449 681.34 -739.48 681.4ZM-763.258 694.578C-762.893 694.182 -762.619 693.726 -762.376 693.239L-736.713 700.817L-739.237 727.263C-739.753 727.354 -740.27 727.506 -740.757 727.75L-755.93 705.534L-763.258 694.578ZM-737.838 727.232L-735.375 701.243L-720.719 705.564L-735.892 727.78C-736.5 727.476 -737.169 727.263 -737.838 727.232ZM-809.962 624.187L-739.237 679.605L-762.345 688.948C-762.406 688.857 -762.437 688.735 -762.467 688.643C-763.683 686.239 -766.481 685.174 -768.944 686.026L-810.175 624.4C-810.114 624.308 -810.053 624.247 -809.962 624.187ZM-909.452 577.411L-888.107 587.028L-818.658 618.374C-818.78 618.648 -818.871 618.891 -818.932 619.196C-819.327 620.93 -818.81 622.665 -817.716 623.913L-851.832 659.489L-910.091 578.355C-909.817 578.081 -909.604 577.746 -909.452 577.411ZM-911.033 579.328L-852.744 660.523L-902.793 712.746C-903.371 712.32 -904.04 712.016 -904.77 711.833C-905.013 711.773 -905.286 711.742 -905.53 711.712L-912.402 580.089C-911.945 579.907 -911.459 579.663 -911.033 579.328ZM-958.65 714.511L-1047.65 711.438C-1047.74 710.433 -1048.11 709.521 -1048.71 708.729L-977.259 638.551L-910.03 713.568C-910.577 714.207 -911.003 714.968 -911.185 715.881C-911.216 715.972 -911.216 716.094 -911.246 716.185L-958.65 714.511ZM-916.537 717.342L-1038.53 729.028L-1049.14 715.638C-1048.47 714.968 -1047.98 714.085 -1047.77 713.112C-1047.74 713.02 -1047.74 712.899 -1047.71 712.807L-916.537 717.342ZM-907.141 722.241C-905.864 722.515 -904.617 722.333 -903.523 721.785L-895.009 734.202L-995.715 772.395L-910.121 720.385C-909.391 721.268 -908.388 721.937 -907.141 722.241ZM-902.428 720.994C-901.638 720.294 -901.03 719.32 -900.786 718.194C-900.695 717.798 -900.665 717.433 -900.665 717.037L-824.8 707.542L-893.732 733.684L-902.428 720.994ZM-917.145 579.511C-916.628 579.846 -916.05 580.12 -915.381 580.272C-914.834 580.394 -914.317 580.424 -913.8 580.394L-906.928 711.803C-907.658 711.925 -908.357 712.229 -908.966 712.655L-976.255 637.577L-917.145 579.511ZM-998.665 609.153C-998.482 608.331 -998.513 607.509 -998.695 606.718L-918.909 577.624C-918.726 577.989 -918.483 578.324 -918.209 578.629L-977.198 636.573L-999.759 611.405C-999.242 610.735 -998.847 610.005 -998.665 609.153ZM-1000.76 612.318L-978.171 637.516L-1049.69 707.755C-1049.81 707.664 -1049.96 707.542 -1050.11 707.451L-1034.7 674.766L-1005.57 613.018C-1005.41 613.079 -1005.26 613.109 -1005.08 613.139C-1003.5 613.505 -1001.95 613.139 -1000.76 612.318ZM-1109.34 658.089L-1080.7 644.668L-1055.56 707.299C-1055.92 707.482 -1056.22 707.725 -1056.53 707.999L-1109.92 662.623C-1109.59 662.106 -1109.34 661.528 -1109.19 660.919C-1109.01 659.915 -1109.07 658.971 -1109.34 658.089ZM-1079.45 644.09L-1008.39 610.766C-1008 611.435 -1007.42 612.013 -1006.75 612.44L-1036.06 674.553L-1051.33 706.873C-1051.48 706.812 -1051.63 706.781 -1051.78 706.751C-1052.64 706.568 -1053.49 706.599 -1054.31 706.782L-1079.45 644.09ZM-1116 543.935L-999.699 555.073L-1004.05 602.64C-1005.63 602.701 -1007.12 603.462 -1008.06 604.71L-1116.22 544.635C-1116.13 544.391 -1116.06 544.178 -1116 543.935ZM-1116.85 545.852L-1008.76 605.896C-1008.88 606.17 -1008.97 606.475 -1009.03 606.779C-1009.25 607.722 -1009.19 608.635 -1008.94 609.487L-1079.97 642.781L-1118.34 547.222C-1117.77 546.887 -1117.25 546.4 -1116.85 545.852ZM-1166.87 483.282C-1166.69 483.343 -1166.54 483.404 -1166.36 483.434C-1165.08 483.708 -1163.83 483.526 -1162.77 482.978L-1124.76 538.761C-1125.55 539.461 -1126.16 540.435 -1126.4 541.561C-1126.55 542.261 -1126.58 542.961 -1126.46 543.631L-1203.12 564.234C-1203.51 563.26 -1204.21 562.408 -1205.12 561.83L-1166.87 483.282ZM-1308.08 512.133L-1346.88 536.144L-1369.93 495.516C-1369.17 494.999 -1368.53 494.299 -1368.1 493.416L-1309.36 507.872C-1309.54 509.454 -1309.05 511.007 -1308.08 512.133ZM-1306.99 513.076C-1306.47 513.441 -1305.86 513.685 -1305.22 513.837C-1304.86 513.928 -1304.49 513.959 -1304.13 513.959L-1323.38 572.085C-1324.41 571.903 -1325.41 571.994 -1326.33 572.359L-1346.18 537.331L-1306.99 513.076ZM-1298.75 508.176L-1220.57 491.073L-1209.53 561.19C-1210.57 561.495 -1211.51 562.103 -1212.18 562.956L-1269.74 527.836L-1298.9 510.033C-1298.87 509.972 -1298.87 509.911 -1298.84 509.85C-1298.75 509.272 -1298.72 508.694 -1298.75 508.176ZM-1212.91 564.112C-1213.06 564.416 -1213.15 564.751 -1213.24 565.086C-1213.33 565.421 -1213.37 565.755 -1213.37 566.09L-1279.74 572.329L-1300.02 512.102C-1299.81 511.859 -1299.6 511.554 -1299.42 511.28L-1212.91 564.112ZM-1281.14 572.481L-1319.21 576.072C-1319.57 574.55 -1320.64 573.242 -1322.07 572.542L-1302.64 513.776C-1302.12 513.624 -1301.6 513.411 -1301.15 513.106L-1281.14 572.481ZM-1321.25 581.672L-1256.03 653.402C-1256.33 653.737 -1256.57 654.133 -1256.79 654.559L-1307.93 637.79L-1322.37 582.311C-1321.98 582.128 -1321.61 581.915 -1321.25 581.672ZM-1320.24 580.698C-1319.73 580.089 -1319.36 579.328 -1319.18 578.507C-1319.09 578.142 -1319.06 577.776 -1319.06 577.411L-1280.69 573.79L-1254.32 652.033C-1254.57 652.154 -1254.81 652.307 -1255.02 652.459L-1320.24 580.698ZM-1279.29 573.668L-1213.24 567.46C-1212.94 568.799 -1212.12 569.986 -1210.96 570.746L-1227.32 604.497L-1250.28 651.789C-1250.43 651.728 -1250.61 651.698 -1250.8 651.637C-1251.56 651.454 -1252.32 651.485 -1253.02 651.607L-1279.29 573.668ZM-1225.8 604.436L-1209.75 571.325C-1209.59 571.385 -1209.41 571.446 -1209.23 571.477C-1207.62 571.842 -1206.01 571.446 -1204.79 570.503L-1181.01 594.241L-1248.45 652.854C-1248.64 652.672 -1248.85 652.52 -1249.06 652.398L-1225.8 604.436ZM-1203.82 569.529C-1203.36 568.92 -1203.03 568.251 -1202.84 567.46C-1202.69 566.821 -1202.69 566.181 -1202.75 565.573L-1126.07 544.97C-1125.92 545.335 -1125.7 545.639 -1125.49 545.974L-1179.98 593.358L-1203.82 569.529ZM-1168.12 482.674L-1206.34 561.221C-1206.52 561.16 -1206.68 561.099 -1206.86 561.069C-1207.31 560.977 -1207.74 560.917 -1208.2 560.947L-1219.23 490.769L-1170.19 480.026C-1169.79 481.091 -1169.06 482.034 -1168.12 482.674ZM-1234.59 385.836L-1168.88 474.365C-1169.61 475.065 -1170.13 475.978 -1170.37 477.013C-1170.49 477.561 -1170.52 478.139 -1170.49 478.656L-1219.45 489.369L-1235.68 386.292C-1235.29 386.201 -1234.92 386.049 -1234.59 385.836ZM-1238.36 386.414C-1237.9 386.505 -1237.48 386.536 -1237.02 386.536L-1220.78 489.704L-1299.05 506.837C-1299.42 505.802 -1300.08 504.92 -1301 504.281L-1239.03 386.201C-1238.82 386.262 -1238.57 386.353 -1238.36 386.414ZM-1240.85 385.045C-1240.67 385.227 -1240.46 385.41 -1240.24 385.562L-1302.21 503.642C-1302.43 503.551 -1302.64 503.49 -1302.88 503.429C-1303.16 503.368 -1303.43 503.337 -1303.7 503.307L-1307.69 439.185L-1240.85 385.045ZM-1304.19 424.394C-1303.95 423.268 -1304.07 422.142 -1304.46 421.138L-1244.53 386.262L-1307.81 437.511L-1308.39 428.442C-1306.35 428.077 -1304.68 426.525 -1304.19 424.394ZM-1305.07 503.398C-1306.8 503.733 -1308.26 504.92 -1308.96 506.563L-1367.62 492.138C-1367.34 490.769 -1367.62 489.399 -1368.32 488.304L-1308.99 440.25L-1305.07 503.398ZM-1312.49 427.56C-1311.94 427.955 -1311.27 428.259 -1310.57 428.442C-1310.3 428.503 -1310.03 428.533 -1309.75 428.564L-1309.12 438.607L-1365.58 484.347L-1312.49 427.56ZM-1481.49 371.441L-1314.65 422.355C-1314.92 423.938 -1314.47 425.46 -1313.49 426.616L-1369.75 486.752C-1370.29 486.356 -1370.96 486.052 -1371.66 485.869C-1373.33 485.504 -1375.01 485.96 -1376.25 486.965L-1482.55 373.145C-1482.1 372.689 -1481.73 372.08 -1481.49 371.441ZM-1377.2 487.999C-1377.32 488.182 -1377.44 488.395 -1377.56 488.608L-1459.23 449.775L-1488.82 435.716C-1488.76 435.563 -1488.73 435.411 -1488.7 435.259C-1488.06 432.398 -1489.82 429.568 -1492.65 428.898L-1486.84 374.941C-1485.69 375.002 -1484.56 374.697 -1483.62 374.089L-1377.2 487.999ZM-1377.86 492.899L-1462.12 529.023L-1491.58 438.881C-1490.7 438.454 -1489.94 437.785 -1489.4 436.963L-1428.28 466.027L-1410.34 474.548L-1378.05 489.886V489.917C-1378.29 490.951 -1378.2 491.956 -1377.86 492.899ZM-1619.69 557.843L-1708.23 560.917C-1708.23 560.825 -1708.26 560.734 -1708.29 560.643L-1634.01 533.101C-1633.31 534.44 -1632.06 535.475 -1630.48 535.809C-1628.05 536.357 -1625.65 535.17 -1624.55 533.04L-1619.69 557.843ZM-1623.21 532.705L-1526.67 554.647L-1618.32 557.812L-1623.21 532.705ZM-1546.35 393.992L-1530.6 406.287L-1583.44 451.967C-1583.72 451.723 -1584.02 451.51 -1584.32 451.328L-1552.25 395.666C-1552.06 395.727 -1551.88 395.788 -1551.67 395.848C-1549.6 396.305 -1547.56 395.514 -1546.35 393.992ZM-1550.85 326.187L-1441.6 309.601C-1441.47 309.967 -1441.35 310.332 -1441.14 310.667L-1546.59 386.992C-1547.29 386.232 -1548.23 385.684 -1549.3 385.44C-1549.48 385.41 -1549.69 385.379 -1549.87 385.349L-1550.85 326.187ZM-1545.28 389.488L-1491.4 371.685C-1491.34 371.867 -1491.25 372.05 -1491.16 372.202L-1529.56 405.374L-1545.65 392.805C-1545.5 392.501 -1545.4 392.166 -1545.31 391.801C-1545.1 391.04 -1545.1 390.249 -1545.28 389.488ZM-1678.13 308.658C-1679.74 308.628 -1681.26 309.328 -1682.29 310.514L-1714.98 289.12L-1671.83 235.893C-1671.41 236.136 -1670.95 236.349 -1670.47 236.471L-1678.13 308.658ZM-1670.86 253.118L-1673.38 311.823C-1673.99 310.423 -1675.21 309.297 -1676.79 308.871L-1670.86 253.118ZM-1679.41 319.188C-1679.1 319.249 -1678.83 319.279 -1678.52 319.31L-1676.73 381.941C-1678.04 382.154 -1679.22 382.853 -1680.04 383.858L-1709.45 365.933L-1680.26 318.883C-1680.01 319.036 -1679.71 319.127 -1679.41 319.188ZM-1677.16 319.218C-1675.63 318.914 -1674.33 317.94 -1673.57 316.571L-1675.76 367.972L-1677.16 319.218ZM-1668.76 236.684C-1668.09 236.654 -1667.46 236.502 -1666.88 236.228L-1605.82 329.261C-1606.67 329.992 -1607.28 330.965 -1607.55 332.122C-1607.86 333.461 -1607.62 334.77 -1607.04 335.865L-1672.08 383.523C-1672.78 382.793 -1673.69 382.245 -1674.75 382.001C-1674.84 381.971 -1674.94 381.971 -1675.03 381.941L-1668.76 236.684ZM-1558.84 201.078L-1623.06 218.303L-1629.54 183.609C-1628.11 183.153 -1626.89 182.088 -1626.29 180.627L-1558.78 199.617C-1558.87 200.104 -1558.9 200.621 -1558.84 201.078ZM-1624.4 218.668L-1664.11 229.319C-1664.41 228.589 -1664.87 227.919 -1665.48 227.372L-1633.7 183.244C-1633.28 183.457 -1632.82 183.64 -1632.37 183.761C-1631.88 183.883 -1631.36 183.913 -1630.88 183.883L-1624.4 218.668ZM-1663.84 232.545C-1663.69 231.906 -1663.69 231.267 -1663.75 230.628L-1624.16 220.007L-1604 328.226C-1604.24 328.318 -1604.45 328.409 -1604.67 328.5L-1665.69 235.528C-1664.78 234.797 -1664.11 233.763 -1663.84 232.545ZM-1596.09 388.697L-1670.59 386.658C-1670.65 385.927 -1670.89 385.258 -1671.23 384.649L-1606.19 336.991C-1605.49 337.721 -1604.57 338.269 -1603.51 338.513C-1603.12 338.604 -1602.75 338.634 -1602.36 338.634L-1596.09 388.697ZM-1601.02 338.482C-1600.41 338.33 -1599.83 338.056 -1599.31 337.691L-1554.53 387.175C-1555.07 387.814 -1555.47 388.575 -1555.68 389.457C-1555.71 389.579 -1555.71 389.701 -1555.74 389.823L-1594.72 388.757L-1601.02 338.482ZM-1672.14 390.979L-1591.59 453.245C-1591.87 453.701 -1592.05 454.219 -1592.2 454.766C-1592.53 456.227 -1592.23 457.658 -1591.5 458.814L-1639 498.59L-1673.66 392.014C-1673.08 391.77 -1672.56 391.405 -1672.14 390.979ZM-1590.59 459.849C-1590.47 459.971 -1590.34 460.062 -1590.22 460.184L-1627.29 525.675C-1627.56 525.553 -1627.84 525.462 -1628.11 525.401C-1628.84 525.249 -1629.57 525.219 -1630.27 525.371L-1638.51 499.99L-1590.59 459.849ZM-1590.74 452.18L-1671.32 389.884C-1671.04 389.427 -1670.83 388.91 -1670.71 388.362C-1670.68 388.24 -1670.68 388.118 -1670.65 388.027L-1595.91 390.066L-1588.31 450.78C-1589.25 451.023 -1590.07 451.51 -1590.74 452.18ZM-1594.54 390.127L-1555.77 391.192C-1555.62 392.775 -1554.77 394.175 -1553.46 395.057L-1585.6 450.81C-1585.66 450.78 -1585.72 450.78 -1585.81 450.749C-1586.21 450.658 -1586.57 450.628 -1586.97 450.628L-1594.54 390.127ZM-1553.52 386.262L-1598.31 336.778C-1597.76 336.139 -1597.37 335.378 -1597.16 334.496C-1597.06 334.07 -1597.03 333.613 -1597.03 333.187L-1552.21 326.4L-1551.24 385.379C-1552.06 385.501 -1552.82 385.805 -1553.52 386.262ZM-1597.22 331.848C-1597.61 330.448 -1598.55 329.292 -1599.86 328.592L-1554.8 205.795C-1554.77 205.795 -1554.74 205.825 -1554.71 205.825C-1554.53 205.856 -1554.31 205.886 -1554.13 205.917L-1552.18 325.001L-1597.22 331.848ZM-1601.17 328.105C-1601.66 327.983 -1602.17 327.953 -1602.63 327.983L-1622.82 219.642L-1558.54 202.417C-1558.11 203.634 -1557.23 204.638 -1556.08 205.277L-1601.17 328.105ZM-1557.9 197.517L-1702.85 127.217C-1702.79 127.065 -1702.76 126.882 -1702.7 126.7C-1702.7 126.639 -1702.67 126.578 -1702.67 126.517L-1588.13 133.456L-1556.47 196.117C-1557.02 196.513 -1557.51 196.969 -1557.9 197.517ZM-1560.82 197.639L-1625.92 179.318C-1625.53 176.579 -1627.29 173.962 -1629.99 173.353C-1631.94 172.897 -1633.89 173.597 -1635.13 174.997L-1700.14 130.047L-1560.82 197.639ZM-1634.83 182.422L-1666.63 226.611C-1667 226.428 -1667.43 226.276 -1667.85 226.154C-1668.64 225.972 -1669.46 226.002 -1670.22 226.154L-1680.41 198.46L-1635.89 181.114C-1635.59 181.601 -1635.26 182.057 -1634.83 182.422ZM-1671.5 226.641C-1672.84 227.341 -1673.87 228.589 -1674.24 230.172C-1674.3 230.476 -1674.33 230.78 -1674.36 231.054L-1785.19 239.484C-1785.19 239.423 -1785.22 239.362 -1785.22 239.301L-1681.66 198.947L-1671.5 226.641ZM-1785.19 241.766C-1785.13 241.462 -1785.1 241.158 -1785.07 240.853L-1674.24 232.424C-1674.02 233.397 -1673.57 234.31 -1672.87 235.01L-1716.14 288.359L-1785.62 242.892C-1785.43 242.558 -1785.28 242.162 -1785.19 241.766ZM-1715.86 290.185L-1683.05 311.671C-1683.24 312.036 -1683.36 312.401 -1683.45 312.797C-1683.6 313.527 -1683.63 314.227 -1683.51 314.927L-1751.07 336.23C-1751.32 335.713 -1751.65 335.226 -1752.05 334.8L-1715.86 290.185ZM-1750.68 339.669C-1750.53 338.939 -1750.5 338.239 -1750.62 337.539L-1683.05 316.236C-1682.69 317.027 -1682.14 317.697 -1681.47 318.214L-1710.63 365.233L-1751.01 340.643C-1750.89 340.339 -1750.77 340.004 -1750.68 339.669ZM-1710.21 367.12L-1680.77 385.045C-1680.9 385.349 -1681.02 385.684 -1681.11 386.019C-1681.29 386.84 -1681.26 387.662 -1681.08 388.423L-1733.47 408.356C-1733.8 407.748 -1734.26 407.2 -1734.81 406.743L-1710.21 367.12ZM-1732.98 412.069C-1732.8 411.247 -1732.83 410.426 -1733.01 409.665L-1683.66 390.888L-1735.84 421.016L-1736.66 415.995C-1734.87 415.447 -1733.41 413.986 -1732.98 412.069ZM-1680.14 390.431C-1679.53 391.223 -1678.68 391.862 -1677.67 392.227L-1712.85 556.139L-1713.25 556.443C-1713.37 556.443 -1713.52 556.443 -1713.64 556.443L-1735.54 422.447L-1680.14 390.431ZM-1676.33 392.501C-1675.85 392.531 -1675.36 392.531 -1674.91 392.44L-1640.09 499.533L-1709.81 557.904C-1710.33 557.417 -1710.91 557.021 -1711.61 556.778L-1676.33 392.501ZM-1639.66 500.933L-1631.58 525.797C-1633.01 526.466 -1634.1 527.775 -1634.49 529.419C-1634.68 530.24 -1634.65 531.031 -1634.49 531.792L-1655.26 539.492L-1708.78 559.334C-1708.84 559.212 -1708.9 559.091 -1708.99 558.969L-1639.66 500.933ZM-1626.07 526.345L-1588.98 460.853C-1588.7 460.975 -1588.43 461.066 -1588.16 461.127C-1586.82 461.431 -1585.48 461.188 -1584.35 460.579L-1567.72 485.869L-1625.37 526.984C-1625.59 526.74 -1625.83 526.558 -1626.07 526.345ZM-1583.29 459.758C-1582.56 459.058 -1582.04 458.145 -1581.8 457.11C-1581.68 456.532 -1581.65 455.953 -1581.71 455.375L-1498.88 435.898C-1498.79 436.111 -1498.7 436.324 -1498.61 436.537L-1566.66 485.047L-1583.29 459.758ZM-1499.06 432.855C-1499.19 433.433 -1499.22 434.011 -1499.16 434.559L-1582.07 453.793C-1582.2 453.519 -1582.35 453.245 -1582.5 453.001L-1529.44 407.139L-1498.43 431.333C-1498.73 431.79 -1498.94 432.307 -1499.06 432.855ZM-1528.41 406.226L-1490.31 373.298C-1489.73 373.906 -1489 374.363 -1488.18 374.637L-1494.02 428.716C-1495.39 428.746 -1496.69 429.325 -1497.64 430.268L-1528.41 406.226ZM-1440.35 311.793L-1483.68 365.05C-1484.17 364.746 -1484.71 364.502 -1485.29 364.381C-1488.15 363.711 -1491.01 365.537 -1491.68 368.398C-1491.83 369.067 -1491.83 369.706 -1491.74 370.346L-1545.71 388.179C-1545.74 388.149 -1545.74 388.118 -1545.77 388.058L-1440.35 311.793ZM-1550 204.577L-1440.81 305.037C-1441.2 305.584 -1441.47 306.223 -1441.66 306.923C-1441.75 307.349 -1441.78 307.775 -1441.78 308.232L-1550.85 324.788L-1552.76 205.886C-1551.73 205.734 -1550.79 205.277 -1550 204.577ZM-1519.71 141.581L-1551.58 195.661C-1551.82 195.569 -1552.09 195.478 -1552.37 195.417C-1553.34 195.204 -1554.34 195.265 -1555.23 195.569L-1586.51 133.577L-1521.99 137.503C-1521.9 139.147 -1521.05 140.668 -1519.71 141.581ZM-1648.73 9.53288L-1520.77 133.79C-1521.29 134.43 -1521.69 135.19 -1521.9 136.043C-1521.9 136.073 -1521.9 136.103 -1521.93 136.134L-1587.27 132.178L-1649.03 9.74591C-1648.94 9.68504 -1648.82 9.59374 -1648.73 9.53288ZM-1653.65 10.4154C-1653.5 10.4459 -1653.38 10.5067 -1653.23 10.5372C-1652.22 10.7806 -1651.19 10.6893 -1650.28 10.3546L-1588.82 132.056L-1702.58 125.148C-1702.7 123.443 -1703.61 121.922 -1705.04 121.009L-1653.65 10.4154ZM-1703.94 129.104L-1635.92 176.092C-1636.14 176.488 -1636.29 176.914 -1636.38 177.34C-1636.56 178.192 -1636.53 179.014 -1636.35 179.805L-1680.83 197.152L-1705.43 130.26C-1704.86 129.956 -1704.37 129.591 -1703.94 129.104ZM-1710.42 130.23C-1709.99 130.443 -1709.57 130.625 -1709.08 130.747C-1708.29 130.93 -1707.47 130.93 -1706.71 130.747L-1682.14 197.669L-1785.74 238.023C-1786.01 237.536 -1786.35 237.08 -1786.77 236.684L-1710.42 130.23ZM-1757 333.278L-1787.99 245.358C-1787.35 245.053 -1786.8 244.597 -1786.35 244.079L-1717.02 289.424L-1753.11 333.917C-1753.6 333.613 -1754.14 333.4 -1754.72 333.248C-1755.48 333.096 -1756.27 333.096 -1757 333.278ZM-1753.96 343.443C-1753.08 343.108 -1752.32 342.53 -1751.74 341.799L-1711.39 366.389L-1735.99 406.013C-1736.33 405.861 -1736.66 405.739 -1737.03 405.678C-1737.63 405.556 -1738.21 405.526 -1738.79 405.587L-1753.96 343.443ZM-1742.04 414.534C-1741.34 415.265 -1740.43 415.812 -1739.37 416.056C-1738.91 416.147 -1738.45 416.208 -1738 416.178L-1737.09 421.716L-1808.39 462.923L-1742.04 414.534ZM-1814.29 467.944L-1736.84 423.177L-1715.01 556.656C-1715.77 556.869 -1716.44 557.265 -1717.02 557.782L-1814.78 472.935C-1814.44 472.418 -1814.17 471.809 -1814.01 471.17C-1813.74 470.074 -1813.89 468.948 -1814.29 467.944ZM-1815.66 473.97L-1717.93 558.817C-1718.23 559.273 -1718.48 559.791 -1718.63 560.338L-1798.08 549.048L-1817.24 474.944C-1816.66 474.73 -1816.11 474.396 -1815.66 473.97ZM-1844.09 538.153L-1820.4 475.187H-1820.37C-1819.76 475.339 -1819.12 475.339 -1818.55 475.278L-1799.54 548.835L-1841.26 542.9C-1841.26 540.922 -1842.35 539.066 -1844.09 538.153ZM-1785.65 607.479L-1842.51 546.248C-1842.05 545.67 -1841.68 545 -1841.47 544.27L-1799.18 550.295L-1784.55 606.901C-1784.95 607.053 -1785.31 607.235 -1785.65 607.479ZM-1781.39 606.627C-1782.03 606.475 -1782.64 606.475 -1783.21 606.536L-1797.69 550.478L-1719.79 561.556L-1778.83 607.996C-1779.5 607.357 -1780.39 606.84 -1781.39 606.627ZM-1777.25 611.313C-1777.34 610.522 -1777.59 609.761 -1777.98 609.122L-1718.78 562.56C-1718.48 564.69 -1716.9 566.516 -1714.68 567.003C-1712.52 567.49 -1710.33 566.577 -1709.14 564.873L-1610.35 616.609L-1777.25 611.313ZM-1708.5 563.625C-1708.41 563.412 -1708.35 563.199 -1708.29 562.956C-1708.23 562.742 -1708.2 562.499 -1708.2 562.286L-1619.44 559.212L-1608.35 616.091L-1708.5 563.625ZM-1606.92 616.152L-1618.05 559.151L-1526.61 555.986C-1526.52 556.565 -1526.31 557.143 -1526.04 557.66L-1606.92 616.152ZM-1526.37 553.308L-1624 531.123C-1623.91 530.058 -1624.13 529.023 -1624.61 528.11L-1567.02 487.025L-1524.88 551.087C-1525.52 551.695 -1526.04 552.426 -1526.37 553.308ZM-1523.69 550.356L-1565.87 486.234L-1497.79 437.663C-1497.24 438.272 -1496.51 438.728 -1495.72 439.033L-1520.87 549.809C-1521.87 549.748 -1522.84 549.93 -1523.69 550.356ZM-1519.53 550.143L-1494.38 439.367C-1493.86 439.428 -1493.38 439.398 -1492.89 439.307L-1463.4 529.571L-1516.76 552.456C-1517.37 551.391 -1518.34 550.569 -1519.53 550.143ZM-1445.58 592.384L-1516.3 556.899C-1516.24 556.717 -1516.18 556.534 -1516.15 556.321C-1515.94 555.408 -1515.97 554.526 -1516.21 553.673L-1462.94 530.849L-1443.45 590.558C-1444.3 590.954 -1445.06 591.593 -1445.58 592.384ZM-1439.98 590.163C-1440.71 589.98 -1441.44 589.98 -1442.14 590.132L-1461.69 530.331L-1377.23 494.116C-1376.95 494.542 -1376.59 494.908 -1376.19 495.242L-1387.66 512.65L-1438.83 590.558C-1439.19 590.406 -1439.59 590.254 -1439.98 590.163ZM-1437.7 591.319L-1387.05 514.202L-1375.07 495.942C-1374.76 496.094 -1374.43 496.216 -1374.06 496.277C-1373.06 496.49 -1372.06 496.429 -1371.17 496.125L-1348.07 536.875L-1437.1 592.019C-1437.25 591.776 -1437.46 591.532 -1437.7 591.319ZM-1436.34 593.175L-1347.37 538.061L-1327.54 573.029C-1328.54 573.759 -1329.31 574.855 -1329.61 576.163C-1329.7 576.559 -1329.73 576.985 -1329.73 577.381L-1436.09 593.906C-1436.12 593.632 -1436.21 593.388 -1436.34 593.175ZM-1435.85 595.245L-1329.52 578.72C-1329.03 580.576 -1327.54 582.098 -1325.57 582.524C-1324.93 582.676 -1324.32 582.676 -1323.71 582.615L-1309.48 637.273L-1435.85 595.854C-1435.85 595.641 -1435.85 595.458 -1435.85 595.245ZM-1282.27 747.562L-1433.42 598.106L-1309.08 638.855L-1280.99 746.831C-1281.45 747.014 -1281.87 747.257 -1282.27 747.562ZM-1279.65 746.496L-1307.53 639.373L-1257.21 655.867C-1257.67 658.332 -1256.33 660.797 -1254.08 661.741L-1278.19 746.496C-1278.68 746.436 -1279.16 746.436 -1279.65 746.496ZM-1274.73 748.596C-1275.27 747.866 -1276 747.257 -1276.88 746.862L-1252.77 662.106C-1250.04 662.502 -1247.42 660.767 -1246.78 658.028C-1246.75 657.906 -1246.72 657.785 -1246.72 657.663L-1119.71 660.31C-1119.65 660.797 -1119.53 661.254 -1119.35 661.71L-1274.73 748.596ZM-1119.62 658.515C-1119.65 658.637 -1119.68 658.758 -1119.68 658.911L-1246.69 656.263C-1246.78 655.411 -1247.09 654.589 -1247.54 653.889L-1180.04 595.184L-1118.65 656.445C-1119.1 657.054 -1119.44 657.754 -1119.62 658.515ZM-1117.68 655.502L-1179.01 594.301L-1124.55 546.948C-1123.94 547.435 -1123.21 547.8 -1122.42 547.983C-1122.05 548.074 -1121.66 548.104 -1121.29 548.104L-1115.43 654.498C-1116.22 654.62 -1117.01 654.985 -1117.68 655.502ZM-1113.24 654.498C-1113.51 654.437 -1113.75 654.406 -1114.03 654.376L-1119.9 547.891C-1119.8 547.861 -1119.68 547.83 -1119.59 547.8L-1081.22 643.359L-1109.92 656.811C-1110.65 655.715 -1111.81 654.833 -1113.24 654.498ZM-1066.23 728.024C-1066.68 727.75 -1067.2 727.567 -1067.72 727.415C-1068.9 727.141 -1070.09 727.293 -1071.12 727.78L-1111.02 663.81C-1110.96 663.749 -1110.86 663.688 -1110.8 663.628L-1057.41 709.003C-1057.74 709.521 -1057.99 710.099 -1058.14 710.707C-1058.57 712.564 -1057.96 714.39 -1056.71 715.638L-1066.23 728.024ZM-1065.13 728.876L-1055.62 716.55C-1055.16 716.824 -1054.64 717.007 -1054.1 717.159C-1052.7 717.463 -1051.3 717.22 -1050.17 716.52L-1040.11 729.211L-1063.67 731.463C-1063.95 730.458 -1064.43 729.576 -1065.13 728.876ZM-1006.51 772.212L-1064.1 734.932C-1063.95 734.567 -1063.8 734.202 -1063.7 733.806C-1063.64 733.471 -1063.58 733.136 -1063.58 732.802L-1039.14 730.458L-1006.27 771.938C-1006.36 772.03 -1006.45 772.121 -1006.51 772.212ZM-1001.28 770.447C-1002.68 770.143 -1004.08 770.386 -1005.2 771.086L-1037.49 730.306L-911.155 718.224C-911.064 718.559 -910.972 718.894 -910.82 719.198L-998.269 772.334C-999.03 771.421 -1000.06 770.752 -1001.28 770.447ZM-873.724 770.447C-873.785 770.66 -873.816 770.873 -873.816 771.086L-997.175 774.799C-997.205 774.677 -997.236 774.556 -997.266 774.404L-894.218 735.328L-872.083 767.617C-872.873 768.347 -873.481 769.321 -873.724 770.447ZM-865.88 766.978C-866.336 766.734 -866.822 766.521 -867.339 766.4C-868.616 766.126 -869.863 766.308 -870.927 766.856L-892.881 734.841L-824.192 708.79C-823.949 709.368 -823.615 709.916 -823.189 710.373L-865.88 766.978ZM-824.496 705.595C-824.527 705.777 -824.557 705.96 -824.588 706.142L-900.817 715.668C-900.999 714.938 -901.364 714.268 -901.82 713.659L-851.953 661.619L-822.581 702.551C-823.523 703.312 -824.223 704.347 -824.496 705.595ZM-819.51 701.456C-820.179 701.486 -820.787 701.638 -821.395 701.882L-850.98 660.645L-816.651 624.826C-816.135 625.16 -815.526 625.434 -814.888 625.586C-814.645 625.647 -814.401 625.678 -814.188 625.708L-819.51 701.456ZM-814.401 704.682C-815.04 703.16 -816.378 701.973 -818.111 701.578H-818.141L-812.79 625.647C-812.273 625.556 -811.786 625.404 -811.33 625.16L-770.221 686.635C-772.197 687.974 -773.079 690.439 -772.349 692.721L-814.401 704.682ZM-813.884 707.299L-814.097 707.938C-813.945 707.268 -813.945 706.599 -814.036 705.96L-771.741 693.939C-770.282 696.191 -767.302 697.073 -764.839 695.795C-764.687 695.704 -764.535 695.643 -764.383 695.552L-756.69 706.812L-742.034 728.693C-742.247 728.906 -742.429 729.119 -742.612 729.363C-742.794 729.576 -742.946 729.789 -743.068 730.002L-813.884 707.299ZM-642.422 728.967L-733.034 731.676C-733.125 731.128 -733.277 730.61 -733.551 730.093C-733.855 729.484 -734.28 728.967 -734.767 728.541L-719.32 705.96L-642.361 728.663C-642.392 728.784 -642.392 728.876 -642.422 728.967ZM-641.997 727.354L-718.53 704.773L-690.677 664.023C-689.218 664.754 -687.424 664.845 -685.812 664.023H-685.782L-641.176 726.076C-641.51 726.441 -641.784 726.867 -641.997 727.354ZM-637.679 724.189C-638.317 724.25 -638.926 724.433 -639.534 724.737C-639.746 724.859 -639.959 724.98 -640.142 725.102L-684.657 663.202C-684.17 662.776 -683.775 662.228 -683.471 661.68L-634.182 674.492L-637.679 724.189ZM-558.257 707.421L-631.993 727.872C-632.084 727.598 -632.175 727.324 -632.327 727.08C-633.148 725.467 -634.638 724.463 -636.311 724.22L-632.814 674.827L-535.787 700.025C-535.787 700.391 -535.726 700.786 -535.635 701.151L-558.257 707.421ZM-535.604 698.625L-632.692 673.427L-627.584 600.966C-626.854 600.936 -626.155 600.753 -625.455 600.388C-625.212 600.266 -624.999 600.114 -624.786 599.992L-534.996 697.165C-535.3 697.591 -535.483 698.108 -535.604 698.625ZM-531.013 694.578C-531.651 694.639 -532.26 694.821 -532.837 695.126C-533.324 695.369 -533.749 695.704 -534.145 696.069L-623.783 599.049C-623.297 598.471 -622.962 597.801 -622.749 597.071L-522.651 611.77L-531.013 694.578ZM-528.428 694.913C-528.793 694.76 -529.219 694.639 -529.614 694.578L-521.252 611.922L-487.684 616.852C-487.684 617.674 -487.501 618.496 -487.106 619.287C-486.711 620.048 -486.163 620.687 -485.525 621.143L-528.428 694.913ZM-484.795 612.105C-486.194 612.835 -487.167 614.083 -487.532 615.513L-521.131 610.583L-511.005 510.398C-510.853 510.398 -510.671 510.367 -510.488 510.367L-501.427 545.517L-484.308 611.892C-484.491 611.953 -484.643 612.013 -484.795 612.105ZM-480.629 611.8C-481.39 611.557 -482.18 611.466 -482.971 611.557L-500.211 544.757L-509.181 510.002C-509.029 509.941 -508.877 509.881 -508.755 509.82C-507.965 509.424 -507.326 508.846 -506.84 508.176L-447.152 540.374L-480.629 611.8ZM-445.936 541.044L-354.99 590.132C-355.203 590.771 -355.294 591.471 -355.233 592.171L-477.224 615.3C-477.315 614.996 -477.437 614.722 -477.558 614.418C-477.984 613.565 -478.623 612.866 -479.383 612.379L-445.936 541.044ZM-451.622 660.371L-478.775 620.839C-477.589 619.774 -476.95 618.222 -477.011 616.639L-354.959 593.48C-354.868 593.693 -354.807 593.936 -354.686 594.149L-451.622 660.371ZM-354.412 588.884L-445.358 539.796L-431.827 510.946C-430.519 511.341 -429.09 511.28 -427.783 510.611C-427.54 510.489 -427.327 510.337 -427.114 510.185L-354.26 588.611C-354.321 588.702 -354.382 588.793 -354.412 588.884ZM-352.344 586.967C-352.709 587.15 -353.013 587.363 -353.317 587.606L-426.11 509.272C-425.563 508.602 -425.198 507.842 -424.985 507.02L-338.388 514.841L-350.033 586.419C-350.824 586.419 -351.615 586.602 -352.344 586.967ZM-347.571 586.937C-347.935 586.785 -348.27 586.632 -348.665 586.541L-336.989 514.932L-303.299 517.976C-303.268 518.737 -303.086 519.467 -302.721 520.197C-302.417 520.776 -302.022 521.293 -301.565 521.719L-347.571 586.937ZM-276.997 608.514C-278.152 609.122 -279.004 610.066 -279.49 611.161L-344.651 592.536C-344.5 591.471 -344.651 590.345 -345.168 589.31C-345.503 588.671 -345.929 588.124 -346.445 587.667L-300.501 522.48C-299.559 522.967 -298.494 523.18 -297.4 523.058L-276.511 608.27C-276.663 608.361 -276.815 608.453 -276.997 608.514ZM-275.173 607.966L-296.062 522.754C-295.91 522.693 -295.727 522.632 -295.575 522.541C-295.18 522.328 -294.785 522.084 -294.481 521.78L-240.905 568.859L-271.858 608.666C-272.831 608.118 -273.987 607.844 -275.173 607.966ZM-161.726 639.981L-269.243 613.87C-269.122 612.866 -269.304 611.831 -269.791 610.857C-270.064 610.34 -270.369 609.914 -270.764 609.518L-239.84 569.773L-161.148 638.916C-161.392 639.251 -161.574 639.616 -161.726 639.981ZM-159.142 637.151C-159.537 637.364 -159.932 637.607 -160.236 637.912L-238.989 568.707L-189.578 505.163C-188.636 505.711 -187.541 505.985 -186.416 505.894L-158.473 636.877C-158.716 636.938 -158.959 637.029 -159.142 637.151ZM-156.375 636.573C-156.648 636.542 -156.891 636.542 -157.165 636.573L-185.109 505.59C-184.896 505.498 -184.683 505.437 -184.47 505.316C-184.227 505.194 -183.984 505.042 -183.771 504.89L-139.56 551.817L-156.375 636.573ZM-154.307 633.256L-138.344 553.034L-132.08 559.669C-133.387 561.282 -133.691 563.534 -132.718 565.481C-132.201 566.516 -131.38 567.307 -130.407 567.794L-154.307 633.256ZM-128.34 557.691C-129.039 557.752 -129.739 557.934 -130.377 558.269C-130.62 558.391 -130.864 558.543 -131.076 558.695L-138.009 551.361L-123.779 479.752L-128.34 557.691ZM-123.353 560.369C-124.144 558.969 -125.512 558.086 -126.972 557.812L-122.137 475.217C-121.438 475.157 -120.738 474.974 -120.1 474.639C-118.549 473.848 -117.576 472.418 -117.272 470.835L37.8013 490.343C37.7709 491.012 37.8622 491.712 38.1055 492.382L-123.353 560.369ZM38.0446 489.004L-117.181 469.466C-117.211 469.222 -117.241 469.009 -117.302 468.766L-29.3666 446.245L2.49939 438.089C2.56018 438.241 2.62109 438.394 2.71228 438.546C4.05017 441.163 7.2124 442.228 9.85767 440.92L39.9906 486.295C39.0481 486.965 38.379 487.938 38.0446 489.004ZM41.2068 485.595L11.0132 440.128C12.047 439.215 12.6857 437.937 12.8376 436.598L52.0011 435.35L43.7002 485.26C42.8792 485.169 42.0278 485.291 41.2068 485.595ZM44.6427 564.873L43.913 495.912C44.4907 495.821 45.0685 495.668 45.5853 495.394C48.2307 494.055 49.2645 490.83 47.9268 488.182C47.6227 487.573 47.1969 487.056 46.7408 486.63L76.9648 438.15C76.9952 438.15 77.056 438.181 77.0864 438.181L44.6427 564.873ZM47.0145 565.755C46.6801 565.542 46.3455 565.36 45.9806 565.208L78.394 438.515C79.4279 438.637 80.4919 438.485 81.465 437.968C81.6475 437.876 81.83 437.785 81.9821 437.663L120.689 482.704L47.0145 565.755ZM198.074 577.137L49.3254 569.773C49.2646 569.103 49.0822 568.403 48.7477 567.764C48.5349 567.368 48.2915 567.003 48.0178 566.668L121.571 483.769L199.381 574.307C198.682 575.129 198.226 576.103 198.074 577.137ZM200.932 573.151C200.75 573.242 200.598 573.333 200.415 573.455L122.514 482.765L152.859 448.558C154.045 449.38 155.566 449.684 156.995 449.349L201.023 573.12C200.993 573.12 200.963 573.12 200.932 573.151ZM202.331 572.664L158.302 448.893C158.758 448.65 159.154 448.376 159.519 448.041L244.626 518.676L206.071 573.303C204.946 572.633 203.638 572.42 202.331 572.664ZM215.132 645.216L205.007 582.98C205.28 582.889 205.523 582.798 205.797 582.676C206.709 582.22 207.409 581.52 207.926 580.728L271.84 608.453L219.51 646.92C218.385 645.703 216.774 645.094 215.132 645.216ZM399.487 664.236L220.97 650.572C220.97 649.75 220.788 648.929 220.392 648.137C220.362 648.107 220.362 648.076 220.332 648.046L273.3 609.092L399.578 663.841C399.517 663.993 399.487 664.115 399.487 664.236ZM402.284 660.554C401.341 661.041 400.612 661.741 400.125 662.593L274.607 608.148L366.83 540.344C368.016 541.592 369.719 542.17 371.391 541.957L402.71 660.371C402.558 660.432 402.406 660.493 402.284 660.554Z" fill="url(#paint0_linear_7773_8)"/>
<defs>
<linearGradient id="paint0_linear_7773_8" x1="-1390.49" y1="390.502" x2="117.639" y2="390.502" gradientUnits="userSpaceOnUse">
<stop stop-color="#B6FBFF"/>
<stop offset="0.1801" stop-color="#8ECAE5"/>
<stop offset="0.486" stop-color="#4570B4"/>
<stop offset="0.9994" stop-color="#B6FBFF"/>
</linearGradient>
</defs>
</svg>
