<svg width="22" height="16" viewBox="0 0 22 16" fill="none" xmlns="http://www.w3.org/2000/svg">
<path d="M21.7004 7.2766L15.1536 0.729755C14.7541 0.330316 14.1063 0.330316 13.7069 0.729755C13.3074 1.12928 13.3074 1.77692 13.7069 2.17644L18.5074 6.977H1.02294C0.458033 6.977 0 7.43503 0 7.99994C0 8.56477 0.458033 9.02288 1.02294 9.02288H18.5074L13.707 13.8234C13.3075 14.223 13.3075 14.8706 13.707 15.2701C13.9067 15.4697 14.1686 15.5697 14.4304 15.5697C14.6922 15.5697 14.954 15.4697 15.1537 15.2701L21.7004 8.72328C22.0999 8.32376 22.0999 7.67612 21.7004 7.2766Z" fill="#C7CDD9"/>
</svg>
