<svg width="22" height="16" viewBox="0 0 22 16" fill="none" xmlns="http://www.w3.org/2000/svg">
<path d="M0.299601 7.2766L6.84644 0.729755C7.24588 0.330316 7.89369 0.330316 8.29313 0.729755C8.69265 1.12928 8.69265 1.77692 8.29313 2.17644L3.49257 6.977H20.9771C21.542 6.977 22 7.43503 22 7.99994C22 8.56477 21.542 9.02288 20.9771 9.02288H3.49257L8.29296 13.8234C8.69248 14.223 8.69248 14.8706 8.29296 15.2701C8.09329 15.4697 7.83141 15.5697 7.56962 15.5697C7.30783 15.5697 7.04604 15.4697 6.84628 15.2701L0.299601 8.72328C-0.0999203 8.32376 -0.0999203 7.67612 0.299601 7.2766Z" fill="#C7CDD9"/>
</svg>
