<svg width="91" height="91" viewBox="0 0 91 91" fill="none" xmlns="http://www.w3.org/2000/svg">
<path d="M45.6939 90.3682C36.828 90.3682 28.1612 87.7392 20.7895 82.8136C13.4178 77.888 7.67226 70.887 4.27944 62.696C0.88661 54.505 -0.00110775 45.4918 1.72854 36.7963C3.45819 28.1008 7.72752 20.1134 13.9966 13.8443C20.2658 7.57517 28.2531 3.30584 36.9486 1.5762C45.6442 -0.153452 54.6573 0.734267 62.8483 4.12709C71.0393 7.51992 78.0403 13.2655 82.9659 20.6372C87.8915 28.0089 90.5206 36.6757 90.5206 45.5415C90.5206 57.4303 85.7978 68.8322 77.3912 77.2388C68.9845 85.6454 57.5827 90.3682 45.6939 90.3682ZM45.6939 8.86517C38.44 8.86517 31.349 11.0162 25.3176 15.0463C19.2862 19.0763 14.5853 24.8044 11.8093 31.5061C9.03339 38.2078 8.30707 45.5822 9.72224 52.6968C11.1374 59.8113 14.6305 66.3464 19.7598 71.4757C24.8891 76.6049 31.4242 80.098 38.5387 81.5132C45.6532 82.9284 53.0276 82.2021 59.7293 79.4261C66.4311 76.6502 72.1591 71.9493 76.1892 65.9179C80.2192 59.8865 82.3703 52.7955 82.3703 45.5415C82.3703 35.8144 78.5062 26.4856 71.628 19.6074C64.7499 12.7293 55.4211 8.86517 45.6939 8.86517ZM69.2075 55.1589L48.8318 30.708C48.4494 30.2465 47.9699 29.8751 47.4275 29.6201C46.8851 29.3652 46.2932 29.233 45.6939 29.233C45.0946 29.233 44.5026 29.3652 43.9603 29.6201C43.4179 29.8751 42.9384 30.2465 42.556 30.708L22.1803 55.1589L28.456 60.3751L45.6939 39.6733L62.9318 60.3751L69.2075 55.1589Z" fill="#18A0FB"/>
</svg>
