<svg width="536" height="537" viewBox="0 0 536 537" fill="none" xmlns="http://www.w3.org/2000/svg">
<path d="M268 512.867C391.632 512.867 491.855 454.896 491.855 383.386C491.855 311.875 391.632 253.904 268 253.904C144.368 253.904 44.145 311.875 44.145 383.386C44.145 454.896 144.368 512.867 268 512.867Z" fill="#F5F5F5"/>
<path d="M303.129 474.064C329.866 474.064 351.541 461.528 351.541 446.064C351.541 430.601 329.866 418.065 303.129 418.065C276.392 418.065 254.718 430.601 254.718 446.064C254.718 461.528 276.392 474.064 303.129 474.064Z" fill="#E0E0E0"/>
<path d="M277.97 351.252L148.483 426.163C144.838 428.311 138.481 428.011 134.268 425.573L88.3007 398.98C84.0985 396.553 83.6375 392.869 87.2287 390.764L216.716 315.853C220.36 313.705 226.717 314.005 230.93 316.443L276.898 343.036C281.154 345.463 281.614 349.147 277.97 351.252Z" fill="#E0E0E0"/>
<path d="M417.394 377.404L427.599 383.343C427.599 383.343 422.453 366.889 425.305 350.328C425.994 346.429 427.401 342.692 429.454 339.309C430.258 337.633 436.411 327.312 430.997 322.544C425.584 317.775 412.88 327.259 413.449 352.755C413.721 361.105 415.046 369.387 417.394 377.404Z" fill="#18A0FB"/>
<path opacity="0.5" d="M417.394 377.404L427.599 383.343C427.599 383.343 422.453 366.889 425.305 350.328C425.994 346.429 427.401 342.692 429.454 339.309C430.258 337.633 436.411 327.312 430.997 322.544C425.584 317.775 412.88 327.259 413.449 352.755C413.721 361.105 415.046 369.387 417.394 377.404Z" fill="black"/>
<path d="M422.143 380.636C422.047 380.636 421.953 380.605 421.874 380.55C421.796 380.494 421.736 380.416 421.703 380.325C421.703 380.218 417.812 369.488 418.016 352.283C418.219 335.077 427.299 325.733 427.396 325.648C427.437 325.605 427.488 325.571 427.543 325.547C427.598 325.524 427.657 325.512 427.717 325.512C427.777 325.512 427.836 325.524 427.892 325.547C427.947 325.571 427.997 325.605 428.039 325.648C428.082 325.69 428.116 325.742 428.139 325.798C428.163 325.854 428.175 325.914 428.175 325.975C428.175 326.036 428.163 326.096 428.139 326.153C428.116 326.209 428.082 326.26 428.039 326.303C427.953 326.389 419.141 335.378 418.937 352.294C418.734 369.209 422.539 379.906 422.572 380.013C422.594 380.07 422.604 380.13 422.603 380.191C422.601 380.251 422.588 380.311 422.563 380.366C422.538 380.421 422.502 380.47 422.457 380.511C422.413 380.552 422.36 380.584 422.304 380.604L422.143 380.636Z" fill="white"/>
<path d="M425.305 382.043L442.157 392.01C442.157 392.01 449.875 390.872 449.296 383.59C448.718 376.308 445.577 374.601 449.479 371.4C453.381 368.199 454.388 367.995 454.195 364.859C454.002 361.723 451.912 360.359 450.915 359.124C449.918 357.889 447.174 355.269 449.114 351.499C451.054 347.729 453.681 344.067 449.779 342.327C447.442 341.253 443.518 342.595 440.924 345.356C438.33 348.116 436.175 350.113 433.72 350.726C431.265 351.338 426.12 351.413 426.291 355.666C426.463 359.919 427.567 361.39 426.538 363.27C424.598 366.825 416.311 368.747 425.305 382.043Z" fill="#18A0FB"/>
<path opacity="0.2" d="M425.305 382.043L442.157 392.01C442.157 392.01 449.875 390.872 449.296 383.59C448.718 376.308 445.577 374.601 449.479 371.4C453.381 368.199 454.388 367.995 454.195 364.859C454.002 361.723 451.912 360.359 450.915 359.124C449.918 357.889 447.174 355.269 449.114 351.499C451.054 347.729 453.681 344.067 449.779 342.327C447.442 341.253 443.518 342.595 440.924 345.356C438.33 348.116 436.175 350.113 433.72 350.726C431.265 351.338 426.12 351.413 426.291 355.666C426.463 359.919 427.567 361.39 426.538 363.27C424.598 366.825 416.311 368.747 425.305 382.043Z" fill="black"/>
<path d="M432.166 386.554C432.049 386.554 431.936 386.51 431.851 386.43C431.765 386.351 431.713 386.241 431.705 386.124C431.705 385.877 429.861 360.703 447.313 344.174C447.403 344.09 447.522 344.045 447.645 344.049C447.767 344.053 447.883 344.106 447.967 344.196C448.051 344.285 448.096 344.405 448.092 344.528C448.088 344.65 448.035 344.767 447.946 344.851C430.794 361.068 432.616 385.802 432.638 386.049C432.647 386.173 432.607 386.295 432.526 386.39C432.446 386.484 432.332 386.543 432.209 386.554H432.166Z" fill="white"/>
<path d="M435.232 364.978C435.115 364.978 435.003 364.934 434.917 364.854C434.831 364.774 434.779 364.665 434.771 364.548C434.641 362.615 434.119 360.729 433.238 359.005C432.357 357.28 431.135 355.753 429.647 354.517C429.598 354.481 429.556 354.435 429.524 354.383C429.492 354.331 429.471 354.273 429.462 354.213C429.452 354.153 429.455 354.091 429.469 354.032C429.483 353.972 429.509 353.916 429.545 353.867C429.581 353.818 429.626 353.776 429.678 353.744C429.73 353.712 429.788 353.691 429.848 353.681C429.908 353.672 429.97 353.674 430.029 353.689C430.088 353.703 430.144 353.729 430.194 353.765C431.801 355.077 433.12 356.709 434.066 358.558C435.013 360.406 435.567 362.431 435.693 364.505C435.702 364.626 435.663 364.745 435.585 364.838C435.507 364.93 435.395 364.988 435.275 364.999L435.232 364.978Z" fill="white"/>
<path d="M433.945 369.274C433.831 369.275 433.719 369.233 433.635 369.155C433.55 369.067 433.503 368.95 433.503 368.828C433.503 368.706 433.55 368.588 433.635 368.5C433.817 368.296 438.212 363.538 448.375 364.935C448.495 364.956 448.603 365.022 448.676 365.119C448.75 365.217 448.784 365.339 448.771 365.461C448.753 365.583 448.687 365.692 448.589 365.767C448.491 365.841 448.368 365.874 448.246 365.858C438.598 364.537 434.364 369.08 434.31 369.08C434.27 369.141 434.216 369.19 434.152 369.224C434.089 369.257 434.018 369.275 433.945 369.274Z" fill="white"/>
<path d="M108.4 362.948L103.373 373.634C103.373 373.634 98.2807 357.159 86.553 345.141C83.7856 342.317 80.5127 340.04 76.905 338.428C75.3078 337.504 64.3948 332.5 66.185 325.54C67.9753 318.581 83.7658 319.096 97.7447 340.436C102.23 347.46 105.81 355.024 108.4 362.948Z" fill="#18A0FB"/>
<path opacity="0.5" d="M108.4 362.948L103.373 373.634C103.373 373.634 98.2807 357.159 86.553 345.141C83.7856 342.317 80.5127 340.04 76.905 338.428C75.3078 337.504 64.3948 332.5 66.185 325.54C67.9753 318.581 83.7658 319.096 97.7447 340.436C102.23 347.46 105.81 355.024 108.4 362.948Z" fill="black"/>
<path d="M106.063 368.382C105.961 368.381 105.862 368.347 105.781 368.285C105.7 368.223 105.641 368.137 105.613 368.038C105.613 367.931 102.719 357.051 92.9099 343.143C83.1011 329.235 70.8267 326.936 70.7516 326.915C70.6917 326.905 70.6344 326.882 70.5831 326.85C70.5317 326.817 70.4873 326.775 70.4525 326.725C70.4176 326.675 70.3929 326.618 70.3799 326.559C70.3668 326.499 70.3657 326.438 70.3765 326.378C70.3999 326.258 70.4689 326.152 70.5688 326.082C70.6688 326.012 70.7919 325.983 70.9125 326.002C71.0411 326.002 83.7765 328.472 93.7246 342.606C103.673 356.74 106.589 367.695 106.589 367.802C106.618 367.922 106.6 368.048 106.538 368.154C106.476 368.261 106.375 368.339 106.256 368.371L106.063 368.382Z" fill="white"/>
<path d="M104.52 371.271L96.2655 389.024C96.2655 389.024 89.2653 392.472 85.6312 386.146C81.9972 379.82 83.5944 376.63 78.5775 376.211C73.5605 375.793 72.5957 376.211 70.977 373.516C69.3583 370.82 70.3124 368.5 70.4303 366.921C70.5482 365.343 71.3415 361.616 67.6002 359.607C63.8589 357.599 59.6245 356.095 61.865 352.444C63.1943 350.296 67.1607 349.104 70.8698 349.909C74.5789 350.715 77.4626 351.123 79.8532 350.253C82.2437 349.383 86.4996 346.505 88.7722 350.103C91.0448 353.7 90.9162 355.537 92.878 356.547C96.4799 358.329 104.391 355.193 104.52 371.271Z" fill="#18A0FB"/>
<path opacity="0.2" d="M104.52 371.271L96.2655 389.024C96.2655 389.024 89.2653 392.472 85.6312 386.146C81.9972 379.82 83.5944 376.63 78.5775 376.211C73.5605 375.793 72.5957 376.211 70.977 373.516C69.3583 370.82 70.3124 368.5 70.4303 366.921C70.5482 365.343 71.3415 361.616 67.6002 359.607C63.8589 357.599 59.6245 356.095 61.865 352.444C63.1943 350.296 67.1607 349.104 70.8698 349.909C74.5789 350.715 77.4626 351.123 79.8532 350.253C82.2437 349.383 86.4996 346.505 88.7722 350.103C91.0448 353.7 90.9162 355.537 92.878 356.547C96.4799 358.329 104.391 355.193 104.52 371.271Z" fill="black"/>
<path d="M101.154 378.961C101.072 378.961 100.993 378.939 100.923 378.898C100.853 378.856 100.796 378.796 100.757 378.725C100.628 378.51 88.0967 357.127 64.8129 353.507C64.752 353.498 64.6935 353.477 64.6409 353.445C64.5884 353.413 64.5428 353.37 64.5068 353.32C64.4708 353.27 64.4452 353.214 64.4315 353.153C64.4178 353.093 64.4162 353.031 64.4269 352.97C64.4347 352.91 64.4547 352.851 64.4856 352.799C64.5165 352.746 64.5578 352.7 64.6069 352.664C64.656 352.628 64.712 352.602 64.7713 352.588C64.8307 352.575 64.8922 352.573 64.9522 352.584C88.6863 356.278 101.4 378.048 101.561 378.263C101.6 378.334 101.619 378.415 101.618 378.496C101.617 378.577 101.595 378.657 101.554 378.727C101.513 378.797 101.454 378.856 101.384 378.897C101.314 378.938 101.235 378.96 101.154 378.961Z" fill="white"/>
<path d="M86.4565 362.915C86.3739 362.915 86.2928 362.893 86.2213 362.852C86.1498 362.81 86.0905 362.751 86.0492 362.679C84.9845 360.9 84.2988 358.92 84.035 356.863C83.7711 354.806 83.935 352.716 84.5162 350.725C84.5366 350.668 84.5681 350.616 84.6087 350.571C84.6494 350.526 84.6985 350.489 84.7533 350.464C84.808 350.438 84.8673 350.423 84.9278 350.42C84.9883 350.417 85.0488 350.426 85.1058 350.446C85.1628 350.467 85.2153 350.498 85.2601 350.539C85.305 350.58 85.3414 350.629 85.3673 350.684C85.3932 350.739 85.408 350.798 85.411 350.859C85.4139 350.919 85.4049 350.98 85.3845 351.037C84.8604 352.902 84.7184 354.854 84.9671 356.775C85.2158 358.697 85.8501 360.548 86.8317 362.217C86.8623 362.27 86.8821 362.328 86.8901 362.389C86.898 362.45 86.8939 362.511 86.8779 362.57C86.862 362.629 86.8345 362.684 86.7971 362.732C86.7598 362.781 86.7132 362.821 86.6602 362.851C86.599 362.89 86.5288 362.912 86.4565 362.915Z" fill="white"/>
<path d="M76.1763 371.078C76.112 371.077 76.0486 371.063 75.9897 371.037C75.9308 371.011 75.8776 370.974 75.8333 370.927C75.7902 370.884 75.756 370.833 75.7326 370.777C75.7093 370.721 75.6973 370.661 75.6973 370.6C75.6973 370.539 75.7093 370.479 75.7326 370.422C75.756 370.366 75.7902 370.315 75.8333 370.272C83.4016 363.345 89.7693 364.763 89.9837 364.827C90.0429 364.841 90.0989 364.866 90.1482 364.902C90.1976 364.938 90.2394 364.983 90.2713 365.035C90.3032 365.087 90.3245 365.144 90.334 365.205C90.3436 365.265 90.3411 365.326 90.3267 365.386C90.3142 365.446 90.2896 365.503 90.2544 365.553C90.2192 365.603 90.1741 365.646 90.1219 365.678C90.0697 365.71 90.0116 365.731 89.9509 365.74C89.8903 365.749 89.8285 365.745 89.7693 365.729C89.705 365.729 83.6375 364.387 76.4551 370.96C76.3768 371.027 76.2793 371.069 76.1763 371.078Z" fill="white"/>
<path d="M104.638 146.601C104.639 143.474 105.461 140.402 107.02 137.693C108.58 134.984 110.823 132.734 113.525 131.168L226.642 65.7395C227.397 65.3036 228.239 65.0426 229.108 64.9757C229.977 64.9088 230.849 65.0377 231.661 65.353C232.474 65.6682 233.205 66.1617 233.802 66.7973C234.399 67.433 234.846 68.1945 235.111 69.026C234.807 67.6938 234.239 66.4366 233.439 65.3295C232.64 64.2223 231.626 63.2879 230.458 62.582L230.051 62.3457C227.236 60.6678 224.022 59.7811 220.746 59.7788C219.699 59.7689 218.669 60.0436 217.766 60.5736L104.649 126.034C101.943 127.596 99.6958 129.846 98.1338 132.555C96.5718 135.264 95.7499 138.338 95.751 141.467V386.543C95.7523 387.567 96.0221 388.573 96.5335 389.459C97.0449 390.346 97.7798 391.082 98.6647 391.594C99.5495 392.107 100.553 392.377 101.575 392.378C102.597 392.38 103.602 392.112 104.488 391.602L104.638 391.516V146.601Z" fill="#37474F"/>
<path d="M226.492 331.307L113.374 396.736C112.49 397.249 111.486 397.519 110.463 397.52C109.441 397.521 108.436 397.252 107.551 396.74C106.665 396.228 105.93 395.492 105.418 394.605C104.907 393.718 104.638 392.712 104.638 391.688V146.601C104.639 143.474 105.46 140.402 107.02 137.693C108.58 134.984 110.823 132.734 113.525 131.168L226.642 65.7395C227.528 65.2294 228.533 64.9616 229.555 64.9629C230.577 64.9642 231.58 65.2346 232.465 65.7469C233.35 66.2592 234.085 66.9955 234.596 67.882C235.108 68.7685 235.378 69.7741 235.379 70.798V315.874C235.38 319.002 234.559 322.074 232.999 324.784C231.439 327.493 229.195 329.743 226.492 331.307Z" fill="#455A64"/>
<path d="M104.638 391.688V146.601C104.639 143.931 105.24 141.296 106.396 138.89L97.6484 133.52C96.4026 136.002 95.7528 138.742 95.751 141.521V388.648C95.7512 389.621 96.0032 390.576 96.4823 391.421C96.9615 392.266 97.6514 392.973 98.4846 393.471L102.998 396.156C104.56 397.09 106.345 397.584 108.165 397.584H110.416C109.65 397.577 108.893 397.419 108.188 397.119C107.483 396.819 106.844 396.383 106.308 395.835C105.771 395.287 105.348 394.639 105.061 393.928C104.775 393.216 104.631 392.455 104.638 391.688Z" fill="#263238"/>
<path d="M222.601 89.303V295.35C222.599 298.112 221.872 300.826 220.492 303.218C219.113 305.61 217.131 307.597 214.743 308.979L114.854 366.749C114.101 367.187 113.249 367.424 112.378 367.437C112.666 368.105 113.092 368.704 113.628 369.195C114.164 369.686 114.797 370.058 115.487 370.286C116.176 370.514 116.906 370.594 117.629 370.519C118.351 370.445 119.05 370.218 119.678 369.853L219.567 312.072C221.954 310.69 223.936 308.703 225.313 306.311C226.691 303.918 227.415 301.205 227.414 298.443V94.4367C227.417 93.1274 226.92 91.8667 226.025 90.9124C225.13 89.9582 223.905 89.3824 222.601 89.303Z" fill="#37474F"/>
<path d="M112.378 367.383C113.248 367.37 114.101 367.134 114.854 366.696L214.743 308.925C217.122 307.548 219.1 305.569 220.479 303.187C221.857 300.806 222.589 298.103 222.601 295.35V89.303C221.598 89.3115 220.609 89.5425 219.706 89.9796L119.817 147.75C117.428 149.131 115.444 151.117 114.065 153.509C112.686 155.902 111.96 158.616 111.959 161.379V365.332C111.958 366.048 112.104 366.758 112.388 367.415L112.378 367.383Z" fill="#18A0FB"/>
<g opacity="0.5">
<path d="M112.378 367.383C113.248 367.37 114.101 367.134 114.854 366.696L214.743 308.925C217.122 307.548 219.1 305.569 220.479 303.187C221.857 300.806 222.589 298.103 222.601 295.35V89.303C221.598 89.3115 220.609 89.5425 219.706 89.9796L119.817 147.75C117.428 149.131 115.444 151.117 114.065 153.509C112.686 155.902 111.96 158.616 111.959 161.379V365.332C111.958 366.048 112.104 366.758 112.388 367.415L112.378 367.383Z" fill="white"/>
</g>
<path d="M154.175 117.56C154.141 118.185 153.961 118.793 153.651 119.336C153.34 119.878 152.906 120.341 152.385 120.685C151.388 121.255 150.584 120.793 150.584 119.611C150.618 118.985 150.799 118.376 151.112 117.833C151.425 117.29 151.861 116.829 152.385 116.486C153.371 115.992 154.175 116.411 154.175 117.56Z" fill="#263238"/>
<path d="M160.875 113.694C160.839 114.319 160.657 114.928 160.344 115.47C160.032 116.013 159.597 116.475 159.074 116.819C158.077 117.388 157.273 116.926 157.273 115.745C157.307 115.119 157.488 114.51 157.801 113.967C158.114 113.424 158.55 112.963 159.074 112.62C160.06 112.083 160.875 112.545 160.875 113.694Z" fill="#263238"/>
<path d="M187.879 100.15L166.16 112.77C165.292 113.264 164.595 112.77 164.595 111.589C164.604 111.003 164.75 110.427 165.022 109.909C165.294 109.39 165.684 108.943 166.16 108.603L187.911 96.0263C188.768 95.5216 189.465 96.0263 189.465 97.197C189.448 97.7789 189.295 98.3488 189.02 98.8615C188.745 99.3741 188.354 99.8155 187.879 100.15Z" fill="#263238"/>
<path d="M184.202 339.04C185.499 339.04 186.346 340.426 186.346 342.563C186.346 345.914 184.255 349.963 181.768 351.402L171.359 357.427C170.894 357.717 170.363 357.884 169.816 357.911C168.518 357.911 167.672 356.525 167.672 354.388C167.672 351.026 169.815 346.977 172.249 345.549L182.658 339.524C183.126 339.232 183.662 339.065 184.212 339.04M184.212 338.149C183.505 338.17 182.816 338.382 182.219 338.761L171.809 344.775C169.033 346.376 166.782 350.682 166.782 354.441C166.782 357.202 168.036 358.856 169.816 358.856C170.523 358.834 171.212 358.623 171.809 358.243L182.219 352.229C184.984 350.629 187.236 346.322 187.236 342.563C187.236 339.803 185.992 338.149 184.212 338.149Z" fill="#263238"/>
<path d="M126.7 175.825V406.734C126.7 410.923 128.233 413.726 130.57 414.65H130.634L140.604 420.117L140.539 411.245L139.467 171.818L128.951 166.448C127.54 169.376 126.772 172.574 126.7 175.825Z" fill="#E6E6E6"/>
<path d="M141.15 421.008L130.366 415.09C127.697 414.016 126.164 410.869 126.164 406.681V175.771C126.221 172.422 126.999 169.124 128.447 166.105L128.683 165.6L139.982 171.389V171.711L141.054 411.138L141.15 421.008ZM130.913 414.167L140.067 419.193V411.224L138.995 172.119L129.272 167.136C128.042 169.859 127.378 172.804 127.321 175.792V406.702C127.321 410.483 128.64 413.254 130.859 414.124L130.988 414.188L130.913 414.167Z" fill="#E6E6E6"/>
<path d="M128.929 166.47L139.446 171.84L252.006 106.229L259.51 101.848L249.122 95.9835L248.832 95.8116C247.171 94.8128 245.005 94.8772 242.615 96.2627L136.079 157.878C132.897 159.967 130.408 162.958 128.929 166.47Z" fill="#E0E0E0"/>
<path d="M139.446 172.366C139.359 172.365 139.275 172.343 139.199 172.302L128.683 166.932C128.621 166.902 128.566 166.86 128.52 166.809C128.475 166.758 128.44 166.698 128.418 166.633C128.396 166.568 128.388 166.499 128.392 166.43C128.397 166.362 128.416 166.295 128.447 166.234C129.979 162.634 132.542 159.569 135.812 157.427L242.368 95.7901C244.834 94.3724 247.235 94.2113 249.122 95.3498H249.208L249.422 95.4787L259.799 101.332C259.88 101.381 259.947 101.451 259.994 101.533C260.041 101.616 260.066 101.709 260.067 101.805C260.069 101.899 260.045 101.992 259.997 102.073C259.95 102.154 259.882 102.221 259.799 102.266L139.735 172.259C139.651 172.321 139.55 172.359 139.446 172.366ZM129.637 166.191L139.435 171.217L258.427 101.847L248.554 96.2627L248.479 96.1982C246.946 95.3176 244.963 95.5001 242.883 96.703L136.326 158.34C133.397 160.267 131.077 162.991 129.637 166.191Z" fill="#E0E0E0"/>
<path d="M137.012 181.624V411.46C137.012 415.079 138.17 417.679 140.003 418.903L140.614 419.236C142.211 419.988 144.216 419.827 146.392 418.559L197.902 388.788L252.992 355.601C255.813 353.833 258.149 351.388 259.789 348.486C261.429 345.585 262.32 342.32 262.383 338.987V109.151C262.383 105.649 261.311 103.115 259.574 101.837C259.281 101.617 258.96 101.436 258.62 101.3C257.69 100.97 256.697 100.865 255.719 100.992C254.741 101.119 253.807 101.474 252.992 102.03L146.435 164.709C143.429 166.285 140.997 168.774 139.489 171.819C137.942 174.86 137.096 178.211 137.012 181.624Z" fill="#FAFAFA"/>
<path d="M252.992 355.601C231.069 368.704 174.028 402.804 145.792 419.848C144.949 420.353 143.988 420.625 143.007 420.637C142.025 420.649 141.058 420.4 140.204 419.915C139.35 419.431 138.639 418.728 138.144 417.878C137.649 417.029 137.388 416.063 137.387 415.079V178.735C137.387 176.045 138.09 173.401 139.425 171.067C140.76 168.732 142.681 166.788 144.998 165.428L253.463 101.719C254.306 101.226 255.263 100.965 256.239 100.961C257.214 100.957 258.174 101.21 259.02 101.696C259.867 102.182 260.571 102.882 261.061 103.727C261.552 104.572 261.812 105.531 261.814 106.509V339.953C261.815 343.102 261.004 346.198 259.458 348.94C257.912 351.682 255.684 353.977 252.992 355.601Z" fill="#FAFAFA"/>
<path d="M252.681 355.129C235.465 365.396 218.256 375.692 201.054 386.017L170.502 404.329L156.566 412.706L150.466 416.379C148.59 417.507 146.596 419.118 144.516 419.837C141.075 421.04 137.977 418.28 137.891 414.875C137.891 414.328 137.891 413.802 137.891 413.232V196.542C137.891 190.775 137.891 184.997 137.891 179.229C137.852 176.499 138.541 173.807 139.886 171.432C141.232 169.057 143.185 167.084 145.545 165.718C148.033 164.247 150.53 162.797 153.049 161.336L188.061 140.694L229.601 116.303C237.48 111.685 245.338 107.024 253.185 102.427C255.629 101.01 258.706 101.149 260.41 103.716C261.013 104.741 261.297 105.923 261.225 107.11V339.051C261.333 342.254 260.597 345.429 259.091 348.257C257.586 351.085 255.364 353.466 252.649 355.161C252.059 355.526 252.595 356.461 253.185 356.095C256.04 354.324 258.385 351.837 259.987 348.88C261.589 345.922 262.392 342.598 262.318 339.234V123.628C262.318 118.022 262.372 112.405 262.318 106.788C262.346 105.663 262.067 104.553 261.513 103.575C260.958 102.597 260.148 101.788 259.17 101.237C258.191 100.685 257.082 100.41 255.959 100.442C254.837 100.474 253.745 100.811 252.799 101.418C250.183 102.932 247.589 104.479 244.995 106.004L209.04 127.194L167.125 151.81C159.728 156.16 152.224 160.477 144.859 164.859C142.38 166.321 140.33 168.412 138.916 170.922C137.503 173.432 136.776 176.272 136.809 179.154C136.809 181.087 136.809 183.02 136.809 184.954V413.963C136.809 414.328 136.809 414.704 136.809 415.037C136.82 415.997 137.056 416.942 137.496 417.795C137.937 418.648 138.57 419.386 139.346 419.951C140.122 420.515 141.018 420.89 141.964 421.046C142.911 421.201 143.88 421.133 144.795 420.847C146.821 420.17 148.729 418.645 150.552 417.55L156.769 413.802L170.705 405.446C190.973 393.274 211.259 381.123 231.563 368.994L253.249 356.031C253.807 355.709 253.271 354.774 252.681 355.129Z" fill="#EBEBEB"/>
<path d="M144.956 165.396L253.463 101.719C254.306 101.226 255.263 100.965 256.239 100.961C257.214 100.957 258.174 101.21 259.02 101.696C259.867 102.182 260.571 102.882 261.061 103.727C261.552 104.572 261.812 105.531 261.814 106.509V116.765L137.376 188.723V178.714C137.371 176.024 138.068 173.381 139.397 171.045C140.727 168.708 142.643 166.761 144.956 165.396Z" fill="#EBEBEB"/>
<path d="M219.504 221.305C230.507 202.212 230.507 181.574 219.504 175.209C208.5 168.845 190.661 179.164 179.657 198.257C168.654 217.351 168.654 237.989 179.657 244.354C190.661 250.718 208.5 240.399 219.504 221.305Z" fill="#18A0FB"/>
<path opacity="0.5" d="M219.504 221.305C230.507 202.212 230.507 181.574 219.504 175.209C208.5 168.845 190.661 179.164 179.657 198.257C168.654 217.351 168.654 237.989 179.657 244.354C190.661 250.718 208.5 240.399 219.504 221.305Z" fill="white"/>
<path d="M194.525 209.903C194.359 209.903 194.195 209.87 194.041 209.806C193.888 209.742 193.748 209.649 193.631 209.531C193.513 209.414 193.42 209.274 193.357 209.12C193.293 208.966 193.26 208.802 193.26 208.635V200.29C193.353 198.31 193.917 196.381 194.905 194.664C195.894 192.947 197.278 191.492 198.942 190.42C199.615 189.864 200.442 189.527 201.312 189.455C202.182 189.382 203.053 189.577 203.81 190.014C204.566 190.45 205.171 191.108 205.545 191.898C205.918 192.688 206.042 193.574 205.899 194.437V202.793C205.899 203.129 205.766 203.451 205.529 203.689C205.291 203.926 204.97 204.06 204.634 204.06C204.299 204.06 203.977 203.926 203.74 203.689C203.502 203.451 203.369 203.129 203.369 202.793V194.394C203.537 193.974 203.547 193.508 203.397 193.082C203.248 192.655 202.949 192.297 202.557 192.075C202.164 191.852 201.705 191.779 201.263 191.87C200.821 191.961 200.427 192.209 200.153 192.568C198.877 193.422 197.815 194.559 197.049 195.891C196.283 197.223 195.834 198.713 195.737 200.247V208.592C195.748 208.927 195.627 209.252 195.4 209.498C195.173 209.743 194.859 209.889 194.525 209.903Z" fill="#37474F"/>
<path d="M209.79 197.412C209.494 197.289 209.171 197.243 208.853 197.279C208.534 197.315 208.23 197.431 207.968 197.616L191.116 207.368C190.377 207.833 189.765 208.475 189.336 209.237C188.662 210.333 188.292 211.59 188.264 212.878V227.495C188.227 227.905 188.282 228.318 188.427 228.703C188.572 229.088 188.802 229.435 189.101 229.718C189.192 229.789 189.293 229.847 189.401 229.89C189.686 229.996 189.993 230.032 190.295 229.995C190.598 229.958 190.886 229.848 191.137 229.675L207.968 219.912C208.846 219.285 209.564 218.459 210.065 217.502C210.566 216.545 210.835 215.483 210.851 214.403V199.764C210.911 199.312 210.843 198.852 210.655 198.437C210.468 198.021 210.168 197.666 209.79 197.412Z" fill="#18A0FB"/>
<path d="M201.536 212.652L203.165 217.335L197.452 220.632L198.877 214.854L199.081 214.038C198.116 214.038 197.452 213.318 197.452 212.008C197.459 211.474 197.549 210.945 197.72 210.44C198.165 209.044 199.077 207.845 200.303 207.046C201.879 206.133 203.165 206.874 203.165 208.7C203.087 210.165 202.512 211.559 201.536 212.652Z" fill="#455A64"/>
<path d="M198.834 214.8L199.038 213.984C198.073 213.984 197.409 213.264 197.409 211.954C197.416 211.421 197.506 210.891 197.677 210.386L201.536 212.652L203.165 217.335L198.834 214.8Z" fill="#37474F"/>
<path d="M241.2 263.839L158.012 311.922C154.571 313.909 151.784 311.793 151.784 307.207V294.588C151.784 289.991 154.571 284.653 158.012 282.666L241.2 234.583C244.641 232.596 247.428 234.701 247.428 239.298V251.918C247.374 256.514 244.587 261.841 241.2 263.839Z" fill="#18A0FB"/>
<path d="M172.967 281.528H171.359V294.877H172.967V281.528Z" fill="#FAFAFA"/>
<path d="M178.234 285.342L166.642 292.017L167.446 293.419L179.038 286.744L178.234 285.342Z" fill="#FAFAFA"/>
<path d="M168.478 285.16L167.674 286.555L175.834 291.275L176.638 289.88L168.478 285.16Z" fill="#FAFAFA"/>
<path d="M176.689 279.98L168.526 294.21L169.925 295.016L178.088 280.785L176.689 279.98Z" fill="#FAFAFA"/>
<path d="M200.378 266.578H198.77V279.927H200.378V266.578Z" fill="#FAFAFA"/>
<path d="M204.934 269.241L193.394 275.916L194.198 277.311L205.738 270.636L204.934 269.241Z" fill="#FAFAFA"/>
<path d="M195.9 270.205L195.096 271.6L203.256 276.32L204.06 274.925L195.9 270.205Z" fill="#FAFAFA"/>
<path d="M204.042 264.911L195.879 279.141L197.278 279.947L205.441 265.716L204.042 264.911Z" fill="#FAFAFA"/>
<path d="M227.789 251.617H226.181V264.967H227.789V251.617Z" fill="#FAFAFA"/>
<path d="M233.278 255.303L221.686 261.978L222.49 263.38L234.082 256.705L233.278 255.303Z" fill="#FAFAFA"/>
<path d="M223.312 255.245L222.508 256.64L230.669 261.36L231.473 259.965L223.312 255.245Z" fill="#FAFAFA"/>
<path d="M230.372 250.794L222.209 264.959L223.602 265.765L231.765 251.599L230.372 250.794Z" fill="#FAFAFA"/>
<path d="M243.612 281.216C244.684 281.216 245.23 282.881 245.23 284.535V297.154C245.23 300.988 242.861 305.596 240.074 307.218L156.94 355.301C156.519 355.57 156.036 355.729 155.536 355.762C154.464 355.762 153.928 354.098 153.928 352.444V339.824C153.928 335.99 156.287 331.383 159.084 329.761L242.272 281.678C242.69 281.409 243.169 281.25 243.665 281.216M243.665 279.068C242.792 279.1 241.943 279.359 241.2 279.82L158.012 327.903C154.571 329.89 151.784 335.228 151.784 339.824V352.444C151.784 355.859 153.328 357.91 155.536 357.91C156.413 357.88 157.266 357.621 158.012 357.159L241.2 309.076C244.641 307.089 247.428 301.751 247.428 297.154V284.535C247.428 281.119 245.874 279.068 243.665 279.068Z" fill="#18A0FB"/>
<path d="M200.978 313.602V314.923L197.668 316.829V315.508L200.978 313.602ZM198.419 313.555L199.944 312.678V318.591C199.944 318.753 199.965 318.868 200.008 318.934C200.051 318.997 200.111 319.025 200.187 319.017C200.266 319.007 200.356 318.973 200.459 318.914C200.531 318.872 200.602 318.824 200.674 318.769C200.745 318.712 200.8 318.668 200.838 318.637L201.078 319.808C201.002 319.88 200.894 319.973 200.756 320.089C200.618 320.207 200.449 320.327 200.251 320.45C199.884 320.678 199.562 320.807 199.285 320.837C199.011 320.865 198.797 320.787 198.645 320.603C198.492 320.418 198.417 320.117 198.419 319.7V313.555ZM204.417 318.088C203.852 318.414 203.365 318.562 202.957 318.533C202.551 318.499 202.239 318.302 202.019 317.941C201.8 317.577 201.69 317.061 201.69 316.392C201.69 315.74 201.8 315.104 202.019 314.485C202.239 313.865 202.548 313.303 202.946 312.799C203.347 312.293 203.817 311.884 204.356 311.574C204.719 311.365 205.056 311.238 205.369 311.193C205.684 311.144 205.958 311.186 206.192 311.318C206.428 311.449 206.612 311.679 206.743 312.008C206.874 312.335 206.94 312.768 206.94 313.307V313.79L202.298 316.463V315.373L205.505 313.526C205.505 313.273 205.457 313.076 205.362 312.936C205.266 312.795 205.134 312.719 204.965 312.706C204.798 312.689 204.603 312.745 204.381 312.873C204.15 313.006 203.945 313.186 203.766 313.413C203.589 313.636 203.451 313.879 203.351 314.143C203.25 314.405 203.199 314.661 203.197 314.913V315.95C203.197 316.264 203.247 316.506 203.347 316.677C203.45 316.846 203.594 316.939 203.78 316.956C203.966 316.973 204.187 316.908 204.442 316.761C204.611 316.663 204.766 316.546 204.907 316.41C205.048 316.274 205.168 316.122 205.269 315.954C205.369 315.787 205.445 315.608 205.498 315.418L206.908 314.713C206.836 315.145 206.689 315.571 206.468 315.991C206.248 316.406 205.964 316.795 205.616 317.158C205.27 317.517 204.87 317.827 204.417 318.088ZM207.935 315.939V309.596L209.413 308.745V309.852L209.47 309.819C209.57 309.367 209.738 308.973 209.975 308.636C210.211 308.297 210.483 308.038 210.791 307.861C210.867 307.817 210.949 307.775 211.037 307.735C211.126 307.695 211.203 307.666 211.27 307.647V309.208C211.198 309.224 211.099 309.259 210.973 309.313C210.847 309.366 210.731 309.423 210.626 309.484C210.402 309.613 210.201 309.785 210.025 309.999C209.851 310.209 209.712 310.443 209.61 310.701C209.509 310.956 209.459 311.214 209.459 311.473V315.061L207.935 315.939Z" fill="#18A0FB"/>
<path d="M365.97 137.805C366.02 138.655 366.27 139.481 366.7 140.214C367.131 140.948 367.729 141.569 368.447 142.026C369.819 142.799 370.923 142.165 370.923 140.619C370.874 139.769 370.623 138.943 370.193 138.209C369.762 137.475 369.164 136.854 368.447 136.398C367.085 135.625 365.97 136.248 365.97 137.805Z" fill="#455A64"/>
<path d="M332.77 147.804C330.591 147.731 328.468 147.095 326.606 145.956L318.749 141.499C318.683 141.467 318.625 141.422 318.578 141.366C318.531 141.311 318.495 141.246 318.474 141.176C318.452 141.107 318.445 141.033 318.453 140.961C318.46 140.888 318.483 140.818 318.519 140.754C318.554 140.691 318.603 140.635 318.661 140.591C318.719 140.546 318.785 140.514 318.856 140.497C318.926 140.479 319 140.476 319.072 140.488C319.144 140.499 319.212 140.526 319.274 140.565L327.132 145.022C330.53 146.945 333.671 147.256 335.997 145.903C338.323 144.55 339.535 141.768 339.535 137.998C339.535 133.842 340.982 130.706 343.598 129.17C346.213 127.634 349.805 127.924 353.535 130.04L366.238 137.246C366.36 137.318 366.449 137.434 366.487 137.57C366.525 137.707 366.509 137.852 366.442 137.977C366.372 138.1 366.256 138.191 366.12 138.23C365.983 138.268 365.837 138.25 365.713 138.181L353.01 131.028C349.622 129.105 346.471 128.794 344.144 130.158C341.818 131.522 340.607 134.293 340.607 138.052C340.607 142.219 339.16 145.355 336.544 146.88C335.39 147.518 334.088 147.837 332.77 147.804Z" fill="#455A64"/>
<path d="M315.5 139.094C315.538 139.78 315.74 140.448 316.089 141.041C316.438 141.633 316.923 142.133 317.505 142.498C318.577 143.132 319.51 142.616 319.51 141.36C319.472 140.673 319.27 140.005 318.922 139.413C318.573 138.82 318.087 138.32 317.505 137.955C316.401 137.321 315.5 137.837 315.5 139.094Z" fill="#455A64"/>
<path d="M442.297 127.677L389.769 97.8842C389.217 97.4785 388.55 97.2598 387.866 97.2598C387.182 97.2598 386.515 97.4785 385.963 97.8842L381.418 101.02L384.516 104.855V160.305C384.516 164.182 386.874 168.682 389.769 170.369L440.978 199.367L441.214 203.491L445.995 200.204C446.547 199.689 446.972 199.055 447.24 198.349C447.508 197.643 447.61 196.885 447.539 196.134V137.74C447.56 133.863 445.202 129.363 442.297 127.677Z" fill="#18A0FB"/>
<path opacity="0.3" d="M442.297 127.677L389.769 97.8842C389.217 97.4785 388.55 97.2598 387.866 97.2598C387.182 97.2598 386.515 97.4785 385.963 97.8842L381.418 101.02L384.516 104.855V160.305C384.516 164.182 386.874 168.682 389.769 170.369L440.978 199.367L441.214 203.491L445.995 200.204C446.547 199.689 446.972 199.055 447.24 198.349C447.508 197.643 447.61 196.885 447.539 196.134V137.74C447.56 133.863 445.202 129.363 442.297 127.677Z" fill="black"/>
<path d="M437.837 203.233L385.309 173.44C382.404 171.765 380.056 167.254 380.056 163.377V104.951C380.056 101.063 382.404 99.2805 385.309 100.967L437.837 130.759C440.742 132.435 443.09 136.946 443.09 140.823V199.259C443.09 203.136 440.742 204.919 437.837 203.233Z" fill="#18A0FB"/>
<path d="M426.806 152.669C426.687 152.671 426.571 152.632 426.476 152.56C426.381 152.489 426.312 152.387 426.281 152.271C425.162 148.128 423.431 144.175 421.146 140.543C421.07 140.424 421.044 140.278 421.074 140.14C421.104 140.001 421.188 139.879 421.307 139.802C421.366 139.763 421.433 139.737 421.503 139.724C421.573 139.712 421.644 139.714 421.714 139.73C421.783 139.746 421.848 139.776 421.905 139.818C421.962 139.86 422.011 139.913 422.047 139.974C424.393 143.694 426.17 147.745 427.321 151.992C427.355 152.13 427.335 152.276 427.265 152.4C427.195 152.523 427.081 152.616 426.946 152.658L426.806 152.669Z" fill="white"/>
<path d="M428.007 163.592C427.864 163.581 427.73 163.514 427.636 163.405C427.542 163.297 427.494 163.155 427.503 163.012C427.503 162.442 427.567 161.841 427.567 161.229C427.562 159.393 427.4 157.56 427.085 155.751C427.061 155.609 427.094 155.463 427.177 155.345C427.261 155.227 427.388 155.147 427.53 155.123C427.672 155.099 427.818 155.132 427.935 155.216C428.053 155.3 428.133 155.426 428.157 155.569C428.485 157.438 428.653 159.331 428.661 161.229C428.661 161.863 428.661 162.485 428.596 163.087C428.591 163.159 428.571 163.229 428.539 163.294C428.506 163.358 428.461 163.415 428.406 163.462C428.352 163.509 428.288 163.545 428.219 163.567C428.151 163.589 428.079 163.598 428.007 163.592Z" fill="white"/>
<path d="M395.214 145.763C395.082 145.764 394.955 145.714 394.857 145.625C394.76 145.535 394.7 145.412 394.689 145.28C394.603 144.346 394.561 143.411 394.561 142.509C394.561 137.3 395.965 133.004 398.516 130.394C398.565 130.344 398.624 130.305 398.688 130.277C398.752 130.25 398.822 130.236 398.891 130.236C398.961 130.236 399.03 130.25 399.095 130.277C399.159 130.305 399.218 130.344 399.267 130.394C399.317 130.444 399.357 130.504 399.384 130.569C399.411 130.634 399.425 130.705 399.425 130.776C399.425 130.846 399.411 130.917 399.384 130.982C399.357 131.048 399.317 131.107 399.267 131.157C396.919 133.563 395.622 137.601 395.622 142.52C395.622 143.39 395.622 144.292 395.74 145.194C395.747 145.264 395.74 145.335 395.72 145.402C395.7 145.469 395.666 145.532 395.621 145.586C395.576 145.64 395.521 145.685 395.458 145.717C395.396 145.749 395.327 145.769 395.257 145.774L395.214 145.763Z" fill="white"/>
<path d="M418.927 137.074C418.848 137.075 418.769 137.058 418.696 137.025C418.624 136.992 418.56 136.942 418.509 136.881C416.523 134.347 414.084 132.206 411.316 130.566C407.757 128.547 404.412 128.16 401.668 129.492C401.54 129.551 401.394 129.557 401.262 129.509C401.129 129.46 401.021 129.362 400.961 129.234C400.93 129.17 400.912 129.101 400.908 129.03C400.905 128.959 400.915 128.888 400.939 128.821C400.963 128.754 401 128.692 401.048 128.64C401.096 128.587 401.153 128.545 401.218 128.515C404.305 127.086 407.982 127.441 411.863 129.685C414.747 131.395 417.291 133.623 419.367 136.258C419.456 136.368 419.498 136.509 419.484 136.65C419.47 136.79 419.401 136.92 419.292 137.01C419.182 137.074 419.053 137.097 418.927 137.074Z" fill="white"/>
<path d="M398.913 146.182C398.774 146.182 398.641 146.128 398.541 146.032C398.441 145.936 398.382 145.805 398.377 145.666C398.377 145.334 398.377 145.001 398.377 144.668C398.377 140.855 399.31 137.74 401.078 135.668C401.123 135.613 401.178 135.568 401.24 135.535C401.302 135.503 401.37 135.483 401.44 135.477C401.51 135.471 401.58 135.479 401.647 135.5C401.714 135.522 401.776 135.557 401.829 135.603C401.937 135.697 402.004 135.829 402.016 135.971C402.028 136.114 401.984 136.255 401.893 136.366C400.296 138.245 399.449 141.113 399.449 144.668C399.449 144.979 399.449 145.301 399.449 145.613C399.452 145.683 399.441 145.754 399.416 145.82C399.392 145.886 399.355 145.947 399.307 145.999C399.259 146.051 399.202 146.093 399.138 146.122C399.074 146.152 399.005 146.168 398.934 146.171L398.913 146.182Z" fill="white"/>
<path d="M403.072 135.12C402.954 135.121 402.839 135.083 402.745 135.012C402.651 134.941 402.582 134.841 402.551 134.727C402.519 134.614 402.525 134.493 402.569 134.383C402.613 134.273 402.692 134.181 402.793 134.121C404.167 133.303 405.775 132.97 407.36 133.176C407.5 133.189 407.63 133.258 407.72 133.367C407.81 133.475 407.854 133.615 407.842 133.756C407.826 133.897 407.756 134.027 407.645 134.117C407.535 134.208 407.395 134.251 407.253 134.239C405.902 134.078 404.537 134.373 403.372 135.077C403.277 135.117 403.174 135.131 403.072 135.12Z" fill="white"/>
<path d="M426.806 170.497C426.699 170.497 426.594 170.466 426.505 170.407C426.415 170.348 426.345 170.263 426.303 170.164L425.681 168.607C424.435 165.596 423.776 162.373 423.741 159.113C423.741 150.005 418.166 139.469 411.316 135.582C411.255 135.547 411.201 135.501 411.158 135.445C411.115 135.389 411.083 135.325 411.065 135.257C411.047 135.189 411.043 135.118 411.053 135.048C411.063 134.979 411.087 134.912 411.123 134.851C411.157 134.789 411.202 134.734 411.258 134.69C411.313 134.646 411.376 134.613 411.444 134.594C411.512 134.575 411.584 134.57 411.654 134.579C411.724 134.588 411.791 134.611 411.852 134.647C418.992 138.707 424.813 149.683 424.813 159.07C424.84 162.205 425.473 165.305 426.678 168.199L427.3 169.756C427.327 169.821 427.342 169.891 427.343 169.961C427.343 170.032 427.329 170.102 427.302 170.167C427.275 170.232 427.236 170.291 427.185 170.34C427.135 170.39 427.076 170.428 427.01 170.454C426.946 170.483 426.877 170.498 426.806 170.497Z" fill="white"/>
<path d="M402.193 164.322C402.083 164.322 401.975 164.288 401.885 164.224C401.795 164.161 401.727 164.071 401.689 163.968C399.958 158.893 398.838 153.628 398.355 148.287C398.349 148.216 398.358 148.144 398.38 148.076C398.403 148.008 398.438 147.945 398.485 147.891C398.532 147.837 398.589 147.793 398.654 147.761C398.718 147.73 398.788 147.711 398.859 147.707C399 147.704 399.137 147.754 399.242 147.848C399.348 147.941 399.414 148.071 399.427 148.212C399.884 153.452 400.964 158.619 402.643 163.602C402.669 163.669 402.68 163.739 402.678 163.81C402.675 163.881 402.659 163.951 402.629 164.015C402.599 164.079 402.556 164.136 402.503 164.184C402.45 164.231 402.389 164.267 402.322 164.29C402.28 164.306 402.237 164.317 402.193 164.322Z" fill="white"/>
<path d="M423.655 174.117C423.546 174.119 423.438 174.087 423.348 174.026C423.258 173.964 423.189 173.876 423.151 173.773L421.714 169.907C420.266 166.133 419.486 162.135 419.41 158.093V153.872C419.41 148.856 415.818 142.745 411.402 140.243C409.344 139.072 407.435 138.868 406.042 139.684C404.648 140.501 403.898 142.187 403.898 144.474V148.212C404.015 154.283 405.228 160.284 407.478 165.922L409.247 170.54C409.273 170.607 409.285 170.677 409.284 170.748C409.282 170.82 409.266 170.89 409.237 170.955C409.208 171.02 409.167 171.078 409.115 171.127C409.063 171.176 409.003 171.214 408.936 171.239C408.804 171.287 408.658 171.282 408.529 171.224C408.401 171.166 408.301 171.059 408.25 170.927L406.481 166.309C404.197 160.544 402.969 154.414 402.858 148.212V144.485C402.858 141.8 403.791 139.77 405.506 138.772C407.221 137.773 409.526 137.955 411.938 139.319C416.644 141.994 420.514 148.523 420.514 153.883V158.104C420.588 162.018 421.346 165.889 422.754 169.542L424.18 173.397C424.206 173.463 424.218 173.533 424.216 173.603C424.214 173.673 424.198 173.743 424.17 173.807C424.141 173.871 424.099 173.928 424.047 173.976C423.996 174.024 423.935 174.061 423.869 174.085L423.655 174.117Z" fill="white"/>
<path d="M418.927 175.653C418.812 175.653 418.701 175.617 418.608 175.549C418.515 175.482 418.447 175.386 418.413 175.277L417.662 172.742C416.295 168.293 415.573 163.671 415.518 159.016V152.508C415.435 151.034 415.003 149.6 414.257 148.327C413.512 147.053 412.474 145.975 411.23 145.183C410.842 144.898 410.387 144.721 409.909 144.668C409.431 144.615 408.948 144.689 408.507 144.882C408.131 145.156 407.833 145.525 407.645 145.951C407.457 146.378 407.384 146.846 407.435 147.31C407.435 154.57 409.644 162.936 413.642 170.873L415.154 173.87C415.185 173.933 415.204 174.002 415.209 174.073C415.214 174.144 415.205 174.215 415.183 174.282C415.161 174.35 415.125 174.412 415.079 174.465C415.032 174.519 414.976 174.563 414.912 174.595C414.849 174.626 414.78 174.645 414.709 174.65C414.639 174.655 414.568 174.646 414.501 174.624C414.433 174.602 414.371 174.566 414.318 174.52C414.264 174.473 414.221 174.416 414.189 174.353L412.688 171.357C408.604 163.269 406.363 154.731 406.363 147.31C406.303 146.658 406.418 146.003 406.697 145.411C406.977 144.82 407.409 144.315 407.95 143.948C408.551 143.658 409.218 143.532 409.883 143.585C410.547 143.638 411.186 143.867 411.734 144.249C413.139 145.141 414.313 146.355 415.157 147.791C416.002 149.227 416.493 150.844 416.59 152.508V159.038C416.639 163.59 417.343 168.112 418.681 172.463L419.431 174.987C419.452 175.054 419.459 175.126 419.453 175.196C419.446 175.267 419.424 175.335 419.39 175.397C419.356 175.46 419.31 175.514 419.254 175.558C419.199 175.602 419.135 175.634 419.066 175.653C419.02 175.662 418.973 175.662 418.927 175.653Z" fill="white"/>
<path d="M412.913 164.322C412.791 164.321 412.674 164.279 412.579 164.203C412.483 164.127 412.416 164.021 412.388 163.903L411.895 161.605C411.423 159.395 411.186 157.141 411.187 154.881V148.835C411.187 148.692 411.243 148.556 411.344 148.455C411.445 148.354 411.581 148.298 411.723 148.298C411.865 148.298 412.001 148.354 412.102 148.455C412.203 148.556 412.259 148.692 412.259 148.835V154.881C412.265 157.047 412.495 159.207 412.945 161.325L413.438 163.624C413.454 163.692 413.456 163.763 413.444 163.832C413.432 163.902 413.406 163.968 413.368 164.027C413.33 164.086 413.281 164.137 413.223 164.176C413.165 164.216 413.1 164.244 413.031 164.257L412.913 164.322Z" fill="white"/>
<path d="M396.383 152.669C396.25 152.667 396.123 152.617 396.024 152.528C395.926 152.44 395.863 152.318 395.847 152.186L395.536 149.05C395.524 148.908 395.568 148.767 395.658 148.656C395.748 148.546 395.877 148.475 396.019 148.459C396.089 148.45 396.161 148.456 396.23 148.475C396.298 148.495 396.362 148.529 396.417 148.574C396.472 148.619 396.517 148.675 396.55 148.738C396.583 148.802 396.603 148.871 396.608 148.942L396.919 152.078C396.926 152.149 396.92 152.22 396.9 152.288C396.879 152.356 396.846 152.42 396.801 152.475C396.756 152.529 396.701 152.575 396.638 152.608C396.576 152.642 396.507 152.662 396.437 152.669H396.383Z" fill="white"/>
<path d="M442.297 227.194L389.769 197.39C389.217 196.985 388.55 196.766 387.866 196.766C387.182 196.766 386.515 196.985 385.963 197.39L381.418 200.526L384.516 204.361V259.811C384.516 263.688 386.874 268.188 389.769 269.875L440.978 298.873L441.214 302.997L445.995 299.721C446.547 299.204 446.973 298.568 447.24 297.86C447.508 297.153 447.61 296.393 447.539 295.64V237.214C447.56 233.369 445.202 228.869 442.297 227.194Z" fill="#18A0FB"/>
<path opacity="0.3" d="M442.297 227.194L389.769 197.39C389.217 196.985 388.55 196.766 387.866 196.766C387.182 196.766 386.515 196.985 385.963 197.39L381.418 200.526L384.516 204.361V259.811C384.516 263.688 386.874 268.188 389.769 269.875L440.978 298.873L441.214 302.997L445.995 299.721C446.547 299.204 446.973 298.568 447.24 297.86C447.508 297.153 447.61 296.393 447.539 295.64V237.214C447.56 233.369 445.202 228.869 442.297 227.194Z" fill="black"/>
<path d="M437.837 302.739L385.309 272.946C382.404 271.271 380.056 266.771 380.056 262.883V204.457C380.056 200.58 382.404 198.797 385.309 200.473L437.837 230.265C440.742 231.952 443.09 236.452 443.09 240.329V298.765C443.09 302.642 440.742 304.425 437.837 302.739Z" fill="#18A0FB"/>
<path d="M391.763 220.761C391.62 220.761 391.484 220.704 391.384 220.603C391.283 220.503 391.227 220.366 391.227 220.224V216.604C391.224 216.245 391.316 215.891 391.495 215.579C391.674 215.268 391.933 215.01 392.245 214.832C392.569 214.637 392.939 214.534 393.317 214.534C393.695 214.534 394.065 214.637 394.389 214.832L398.173 216.98C398.298 217.05 398.391 217.167 398.43 217.305C398.469 217.442 398.452 217.59 398.382 217.716C398.313 217.841 398.196 217.934 398.058 217.973C397.921 218.012 397.773 217.995 397.648 217.925L393.853 215.777C393.69 215.683 393.505 215.633 393.317 215.633C393.129 215.633 392.944 215.683 392.781 215.777C392.633 215.86 392.51 215.982 392.425 216.13C392.34 216.277 392.296 216.445 392.299 216.615V220.234C392.296 220.375 392.238 220.509 392.138 220.607C392.038 220.705 391.903 220.761 391.763 220.761Z" fill="white"/>
<path d="M397.852 270.562C397.762 270.561 397.674 270.539 397.594 270.498L394.057 268.489C393.211 268.001 392.509 267.299 392.022 266.452C391.534 265.605 391.278 264.644 391.28 263.667V260.327C391.28 260.184 391.337 260.048 391.437 259.947C391.538 259.846 391.674 259.79 391.816 259.79C391.958 259.79 392.095 259.846 392.195 259.947C392.296 260.048 392.352 260.184 392.352 260.327V263.667C392.355 264.459 392.569 265.237 392.97 265.92C393.371 266.603 393.946 267.167 394.636 267.555L398.173 269.563C398.274 269.623 398.352 269.714 398.396 269.823C398.44 269.931 398.448 270.051 398.417 270.164C398.387 270.278 398.321 270.378 398.228 270.45C398.136 270.521 398.022 270.561 397.905 270.562H397.852Z" fill="white"/>
<path d="M429.872 288.509C429.496 288.516 429.125 288.419 428.8 288.229L425.016 286.081C424.892 286.011 424.802 285.895 424.763 285.758C424.725 285.621 424.743 285.475 424.812 285.351C424.884 285.229 425 285.14 425.136 285.102C425.272 285.064 425.417 285.08 425.541 285.147L429.336 287.295C429.499 287.389 429.684 287.439 429.872 287.439C430.06 287.439 430.245 287.389 430.408 287.295C430.556 287.212 430.679 287.09 430.764 286.943C430.849 286.795 430.893 286.627 430.89 286.457V282.838C430.89 282.695 430.947 282.559 431.047 282.458C431.148 282.357 431.284 282.301 431.426 282.301C431.569 282.301 431.705 282.357 431.805 282.458C431.906 282.559 431.962 282.695 431.962 282.838V286.457C431.965 286.815 431.872 287.167 431.692 287.477C431.513 287.786 431.255 288.042 430.944 288.218C430.62 288.411 430.249 288.512 429.872 288.509Z" fill="white"/>
<path d="M431.405 243.261C431.263 243.261 431.127 243.204 431.026 243.104C430.926 243.003 430.869 242.866 430.869 242.724V239.384C430.866 238.593 430.653 237.817 430.252 237.135C429.851 236.454 429.276 235.892 428.586 235.507L425.048 233.498C424.924 233.426 424.833 233.308 424.795 233.17C424.757 233.031 424.775 232.883 424.845 232.757C424.879 232.696 424.925 232.642 424.981 232.599C425.037 232.556 425.1 232.524 425.168 232.506C425.236 232.488 425.307 232.484 425.377 232.494C425.446 232.504 425.513 232.528 425.574 232.564L429.111 234.572C429.965 235.052 430.677 235.75 431.174 236.596C431.671 237.441 431.936 238.403 431.941 239.384V242.724C431.941 242.866 431.885 243.003 431.784 243.104C431.684 243.204 431.547 243.261 431.405 243.261Z" fill="white"/>
<path d="M396.511 238.825C396.631 244.924 397.502 250.984 399.106 256.868C403.179 272.27 419.248 281.732 423.665 271.303C425.74 266.172 426.757 260.674 426.656 255.139C426.656 245.688 419.902 234.196 411.584 229.471C403.072 224.648 396.393 229.127 396.511 238.825Z" fill="white"/>
<path d="M411.048 247.428V257.545L406.664 254.259L411.048 247.428Z" fill="#E0E0E0"/>
<path d="M402.89 241.381C402.919 241.877 403.064 242.359 403.313 242.789C403.563 243.218 403.91 243.582 404.327 243.852C405.131 244.303 405.774 243.937 405.774 243.025C405.746 242.529 405.6 242.047 405.348 241.619C405.096 241.191 404.746 240.83 404.327 240.565C403.533 240.114 402.89 240.479 402.89 241.381Z" fill="#E0E0E0"/>
<path d="M416.312 249.093C416.342 249.588 416.489 250.069 416.741 250.496C416.992 250.924 417.341 251.286 417.759 251.552C418.563 252.003 419.206 251.638 419.206 250.736C419.178 250.239 419.032 249.755 418.78 249.326C418.529 248.896 418.178 248.533 417.759 248.266C417.008 247.815 416.312 248.18 416.312 249.093Z" fill="#E0E0E0"/>
<path d="M409.601 262.496L414.5 261.669C414.5 261.669 413.46 266.91 409.601 262.496Z" fill="#E0E0E0"/>
<path d="M365.97 231.683C366.021 232.531 366.272 233.355 366.703 234.087C367.133 234.819 367.731 235.438 368.447 235.893C369.819 236.677 370.923 236.044 370.923 234.497C370.874 233.647 370.623 232.821 370.193 232.087C369.762 231.354 369.164 230.733 368.447 230.276C367.085 229.492 365.97 230.126 365.97 231.683Z" fill="#455A64"/>
<path d="M366.067 232.854C365.974 232.853 365.882 232.831 365.799 232.79L353.106 225.54C345.677 221.33 339.631 211.03 339.631 202.599C339.631 194.501 333.832 184.631 326.703 180.582L318.749 176.072C318.625 176.002 318.535 175.885 318.496 175.749C318.458 175.612 318.476 175.465 318.545 175.341C318.579 175.279 318.624 175.224 318.68 175.18C318.735 175.136 318.798 175.103 318.866 175.084C318.934 175.065 319.006 175.06 319.076 175.069C319.146 175.078 319.213 175.101 319.274 175.137L327.228 179.648C334.657 183.869 340.703 194.158 340.703 202.599C340.703 210.687 346.503 220.557 353.632 224.606L366.335 231.823C366.458 231.893 366.549 232.009 366.587 232.146C366.626 232.283 366.608 232.429 366.539 232.553C366.493 232.641 366.426 232.714 366.343 232.767C366.26 232.82 366.165 232.85 366.067 232.854Z" fill="#455A64"/>
<path d="M315.5 173.494C315.542 174.181 315.745 174.849 316.093 175.443C316.442 176.036 316.926 176.539 317.505 176.909C318.577 177.532 319.51 177.027 319.51 175.771C319.469 175.083 319.265 174.415 318.917 173.822C318.569 173.228 318.085 172.726 317.505 172.355C316.401 171.733 315.5 172.237 315.5 173.494Z" fill="#455A64"/>
<path d="M330.583 271.937C330.583 271.937 338.398 271.41 342.826 282.29C345.581 289.056 348.936 299.474 351.08 306.455C351.731 308.563 351.746 310.817 351.125 312.933C350.503 315.05 349.272 316.936 347.585 318.355L333.96 329.815L329.104 320.933C331.936 317.147 335.05 313.582 338.42 310.268L329.104 282.29L330.583 271.937Z" fill="#FFA8A7"/>
<path d="M334.185 305.166C334.185 305.166 346.599 306.809 349.697 297.219C349.697 297.219 344.337 283.181 341.936 278.52C339.535 273.859 334.518 270.465 330.584 271.937C326.649 273.408 334.185 305.166 334.185 305.166Z" fill="#18A0FB"/>
<path opacity="0.4" d="M334.185 305.166C334.185 305.166 346.599 306.809 349.697 297.219C349.697 297.219 344.337 283.181 341.936 278.52C339.535 273.859 334.518 270.465 330.584 271.937C326.649 273.408 334.185 305.166 334.185 305.166Z" fill="white"/>
<path d="M325.888 431.103C325.888 431.103 319.992 426.045 317.698 425.809C315.404 425.572 311.437 429.503 314.793 436.323C315.725 438.224 319.52 440.275 321.889 443.916C324.258 447.557 326.381 450.296 330.015 449.791C333.649 449.286 334.121 447.246 333.885 444.872C333.578 442.701 333.144 440.549 332.588 438.428L325.888 431.103Z" fill="#37474F"/>
<path d="M330.176 448.706C326.435 449.222 324.237 446.397 321.793 442.649C319.349 438.901 315.447 436.774 314.482 434.82C314.096 434.037 313.78 433.221 313.539 432.382C313.717 433.756 314.13 435.089 314.761 436.323C315.693 438.224 319.488 440.275 321.857 443.916C324.226 447.557 326.349 450.296 329.983 449.791C332.77 449.415 333.692 448.116 333.864 446.462C333.392 447.579 332.374 448.416 330.176 448.706Z" fill="#263238"/>
<path d="M322.758 437.612C322.663 437.614 322.57 437.588 322.49 437.537C322.423 437.502 322.364 437.454 322.317 437.396C322.269 437.338 322.233 437.271 322.211 437.199C322.189 437.128 322.181 437.052 322.189 436.977C322.196 436.902 322.218 436.83 322.254 436.764C323.454 434.634 325.446 433.066 327.796 432.403C327.941 432.381 328.088 432.415 328.209 432.497C328.33 432.579 328.415 432.704 328.447 432.847C328.48 432.99 328.458 433.14 328.384 433.267C328.311 433.393 328.193 433.488 328.053 433.531C326.031 434.122 324.315 435.473 323.261 437.301C323.213 437.393 323.141 437.471 323.052 437.526C322.964 437.581 322.862 437.61 322.758 437.612Z" fill="#EBEBEB"/>
<path d="M320.528 435.571C320.435 435.571 320.343 435.549 320.26 435.507C320.194 435.472 320.135 435.424 320.087 435.366C320.039 435.308 320.003 435.242 319.981 435.17C319.959 435.098 319.952 435.022 319.959 434.947C319.967 434.873 319.989 434.8 320.024 434.734C320.618 433.677 321.414 432.747 322.367 431.999C323.32 431.251 324.411 430.698 325.577 430.373C325.654 430.333 325.739 430.311 325.826 430.309C325.913 430.307 325.999 430.325 326.078 430.362C326.156 430.398 326.226 430.452 326.28 430.519C326.335 430.587 326.374 430.666 326.393 430.751C326.413 430.835 326.412 430.923 326.393 431.008C326.373 431.093 326.334 431.172 326.279 431.239C326.224 431.306 326.154 431.36 326.076 431.396C325.997 431.432 325.911 431.45 325.824 431.447C323.802 432.045 322.086 433.399 321.032 435.228C320.99 435.328 320.921 435.414 320.831 435.475C320.742 435.536 320.636 435.569 320.528 435.571Z" fill="#EBEBEB"/>
<path d="M318.03 433.542C317.937 433.541 317.846 433.519 317.762 433.477C317.627 433.404 317.527 433.281 317.483 433.134C317.438 432.987 317.454 432.828 317.526 432.693C318.73 430.564 320.727 429 323.079 428.343C323.153 428.326 323.229 428.323 323.303 428.335C323.377 428.348 323.448 428.374 323.512 428.414C323.576 428.454 323.631 428.507 323.675 428.568C323.718 428.63 323.749 428.699 323.765 428.773C323.797 428.922 323.769 429.079 323.687 429.207C323.605 429.336 323.475 429.427 323.326 429.46C321.304 430.058 319.589 431.412 318.534 433.241C318.486 433.333 318.414 433.41 318.325 433.463C318.236 433.516 318.134 433.543 318.03 433.542Z" fill="#EBEBEB"/>
<path d="M294.511 447.697C294.511 447.697 286.61 445.13 284.252 445.839C281.893 446.548 279.589 452.068 285.699 457.427C287.393 458.909 291.981 459.382 295.819 462.003C299.656 464.623 302.872 466.438 306.26 464.451C309.647 462.464 309.369 460.155 308.758 457.707C307.996 454.549 307.375 452.251 307.375 452.251L294.511 447.697Z" fill="#37474F"/>
<path d="M306.003 463.302C302.519 465.353 299.185 463.474 295.283 460.767C291.38 458.061 286.599 457.545 284.852 456.053C284.145 455.436 283.495 454.757 282.912 454.023C283.652 455.313 284.609 456.465 285.742 457.427C287.435 458.909 292.024 459.382 295.861 462.003C299.699 464.623 302.915 466.438 306.303 464.451C308.886 462.937 309.272 461.229 308.768 459.565C308.736 460.864 308.007 462.121 306.003 463.302Z" fill="#263238"/>
<path d="M292.656 455.011H292.602C292.45 454.995 292.311 454.919 292.215 454.8C292.118 454.681 292.073 454.529 292.088 454.377C292.399 451.792 293.721 449.435 295.765 447.826C295.825 447.782 295.894 447.751 295.966 447.734C296.039 447.716 296.114 447.714 296.188 447.726C296.262 447.738 296.332 447.764 296.396 447.803C296.459 447.843 296.514 447.894 296.558 447.955C296.647 448.079 296.683 448.233 296.659 448.384C296.635 448.535 296.552 448.67 296.429 448.76C294.662 450.188 293.511 452.241 293.213 454.495C293.2 454.635 293.136 454.765 293.033 454.86C292.93 454.955 292.796 455.009 292.656 455.011Z" fill="#EBEBEB"/>
<path d="M295.872 456.074C295.722 456.058 295.584 455.984 295.488 455.867C295.392 455.751 295.345 455.602 295.357 455.451C295.672 452.864 296.994 450.506 299.034 448.889C299.16 448.801 299.314 448.767 299.465 448.793C299.616 448.819 299.75 448.904 299.838 449.029C299.881 449.09 299.912 449.159 299.928 449.232C299.945 449.305 299.946 449.381 299.933 449.455C299.921 449.529 299.893 449.599 299.853 449.663C299.813 449.726 299.76 449.78 299.699 449.823C297.928 451.247 296.775 453.302 296.483 455.558C296.469 455.708 296.398 455.846 296.283 455.942C296.169 456.039 296.021 456.086 295.872 456.074Z" fill="#EBEBEB"/>
<path d="M289.612 453.905H289.558C289.408 453.888 289.271 453.814 289.174 453.698C289.078 453.581 289.031 453.432 289.043 453.282C289.353 450.693 290.675 448.332 292.72 446.72C292.844 446.631 292.998 446.596 293.147 446.621C293.297 446.646 293.431 446.73 293.519 446.854C293.607 446.978 293.642 447.132 293.617 447.282C293.592 447.432 293.509 447.566 293.385 447.654C291.614 449.078 290.461 451.133 290.169 453.389C290.156 453.529 290.092 453.659 289.989 453.754C289.886 453.849 289.752 453.903 289.612 453.905Z" fill="#EBEBEB"/>
<path d="M332.963 432.607C333.671 424.767 335.204 412.48 335.847 406.735C336.713 399.473 336.504 392.122 335.225 384.922C334.897 383.224 334.814 381.488 334.979 379.766C336.533 364.15 337.541 338.836 336.683 333.273L314.804 337.913C314.804 337.913 317.484 373.43 318.663 385.244C319.842 397.058 324.237 432.715 324.237 432.715C325.543 433.552 327.066 433.988 328.616 433.969C330.167 433.95 331.678 433.476 332.963 432.607Z" fill="#455A64"/>
<path d="M329.812 440.673C330.416 440.532 330.98 440.256 331.463 439.865C331.946 439.474 332.334 438.98 332.599 438.418C332.599 437.182 332.738 435.12 332.963 432.607C331.678 433.476 330.167 433.95 328.616 433.969C327.066 433.988 325.543 433.552 324.237 432.715L325.009 439.309C325.652 439.889 326.42 440.314 327.252 440.55C328.085 440.786 328.96 440.829 329.812 440.673Z" fill="#FFA8A7"/>
<path d="M308.35 446.397C309.24 434.519 310.966 411.525 311.191 407.905C311.359 403.912 311.107 399.913 310.441 395.973C310.053 393.843 310.053 391.66 310.441 389.529L320.089 336.065L293.642 335.679L291.916 391.688C291.897 392.405 291.926 393.123 292.002 393.836L297.609 446.043C297.609 446.043 303.076 450.65 308.35 446.397Z" fill="#455A64"/>
<path d="M303.934 456.192C304.756 456.097 305.542 455.798 306.219 455.321C306.897 454.845 307.445 454.207 307.814 453.464L308.35 446.397C303.076 450.693 297.63 446.064 297.63 446.064L298.467 453.883C298.467 453.883 299.689 456.59 303.934 456.192Z" fill="#FFA8A7"/>
<path d="M305.863 275.502L299.624 277.65L292.914 309.452L293.246 337.644C293.246 337.644 298.038 341.478 316.755 341.478C327.26 341.478 334.111 337.504 336.683 333.284L335 316.25C335 316.25 336.683 299.463 336.683 291.161C336.683 282.859 337.059 276.061 330.584 271.948L324.816 272.431L305.863 275.502Z" fill="#18A0FB"/>
<path opacity="0.2" d="M305.863 275.502L299.624 277.65L292.914 309.452L293.246 337.644C293.246 337.644 298.038 341.478 316.755 341.478C327.26 341.478 334.111 337.504 336.683 333.284L335 316.25C335 316.25 336.683 299.463 336.683 291.161C336.683 282.859 337.059 276.061 330.584 271.948L324.816 272.431L305.863 275.502Z" fill="white"/>
<path d="M299.088 248.169L295.969 254.366C295.924 254.456 295.898 254.555 295.895 254.655C295.891 254.756 295.91 254.856 295.948 254.949C295.987 255.041 296.045 255.125 296.119 255.193C296.193 255.261 296.281 255.312 296.376 255.344L300.074 256.589L299.088 248.169Z" fill="#F28F8F"/>
<path d="M303.376 237.783C303.376 237.783 298.638 240.34 298.638 254.967C298.638 263.033 299.195 268.178 303.376 267.855C307.557 267.533 319.606 265.954 319.606 265.954V237.783H303.376Z" fill="#FFA8A7"/>
<path d="M303.376 267.909C304.845 267.791 307.289 267.523 309.808 267.222V265.729C307.509 266.712 305.107 267.432 302.647 267.877C302.889 267.906 303.132 267.916 303.376 267.909Z" fill="#F28F8F"/>
<path d="M309.165 265.106V274.31H321.74V261.379L309.165 265.106Z" fill="#FFA8A7"/>
<path d="M309.165 270.809C309.165 270.809 313.689 272.42 317.312 271.786C320.936 271.153 321.74 268.94 321.74 268.94C321.74 268.94 322.919 268.844 324.816 272.42C324.077 273.756 323.02 274.889 321.739 275.717C320.458 276.545 318.993 277.043 317.473 277.167C313.53 277.42 309.577 276.853 305.863 275.502C305.863 275.502 307.664 270.347 309.165 270.809Z" fill="#18A0FB"/>
<path opacity="0.4" d="M309.165 270.809C309.165 270.809 313.689 272.42 317.312 271.786C320.936 271.153 321.74 268.94 321.74 268.94C321.74 268.94 322.919 268.844 324.816 272.42C324.077 273.756 323.02 274.889 321.739 275.717C320.458 276.545 318.993 277.043 317.473 277.167C313.53 277.42 309.577 276.853 305.863 275.502C305.863 275.502 307.664 270.347 309.165 270.809Z" fill="white"/>
<path d="M281.111 298.132L277.734 303.33C277.734 303.33 269.533 299.667 263.798 297.444C260.458 296.201 257.35 294.408 254.6 292.139C254.805 289.901 255.163 287.679 255.672 285.491C256.337 283.235 256.562 281.356 254.6 282.355C252.638 283.353 251.277 287.231 251.159 287.725C251.159 287.725 239.635 276.115 238.198 276.372C236.762 276.63 237.126 278.37 240.192 281.946L243.29 285.534C243.29 285.534 236.226 289.604 237.373 294.05C238.52 298.497 247.836 300.494 247.836 300.494C247.836 300.494 275.097 321.48 281.132 317.678C287.167 313.876 295.711 303.018 295.711 303.018L281.111 298.132Z" fill="#FFA8A7"/>
<path d="M302.1 276.823C302.1 276.823 307.139 280.969 303.858 289.54C300.578 298.11 292.206 308.464 292.206 308.464C292.206 308.464 283.437 305.725 280.049 298.626L291.112 281.281C291.897 280.046 292.961 279.013 294.218 278.267C295.475 277.52 296.89 277.081 298.348 276.985C299.399 276.92 300.642 276.866 302.1 276.823Z" fill="#18A0FB"/>
<path opacity="0.4" d="M302.1 276.823C302.1 276.823 307.139 280.969 303.858 289.54C300.578 298.11 292.206 308.464 292.206 308.464C292.206 308.464 283.437 305.725 280.049 298.626L291.112 281.281C291.897 280.046 292.961 279.013 294.218 278.267C295.475 277.52 296.89 277.081 298.348 276.985C299.399 276.92 300.642 276.866 302.1 276.823Z" fill="white"/>
<path d="M301.607 229.149C301.607 229.149 296.633 228.483 295.368 231.909C294.575 234.057 297.105 235.711 297.105 235.711C297.105 235.711 293.889 238.729 298.681 239.663C298.598 240.178 298.644 240.706 298.815 241.199C298.986 241.692 299.276 242.135 299.659 242.488C300.043 242.841 300.507 243.094 301.012 243.223C301.516 243.352 302.045 243.354 302.551 243.229C302.551 243.229 301.993 246.451 306.185 247.621C306.185 247.621 304.041 253.271 308.05 253.346H311.77L310.269 257.706C310.269 257.706 313.056 264.429 321.74 264.429C322.692 262.387 323.766 260.404 324.956 258.49C326.028 257.148 331.388 250.263 331.388 244.808C331.388 239.352 329.297 236.119 326.392 235.399C325.472 233.395 324.036 231.671 322.233 230.405C319.306 228.429 313.153 226.668 309.68 229.095C309.68 229.095 306.603 225.046 304.47 225.046C302.336 225.046 301.607 227.248 301.607 229.149Z" fill="#263238"/>
<path d="M308.05 253.346C308.05 253.346 307.685 247.621 312.499 247.621C317.312 247.621 316.176 257.706 310.269 257.706L308.05 253.346Z" fill="#FFA8A7"/>
</svg>
