<svg width="340" height="639" viewBox="0 0 340 639" fill="none" xmlns="http://www.w3.org/2000/svg">
<path opacity="0.53" d="M339.527 96.6609C338.655 98.3539 336.838 99.2503 335.071 99.0262L309.429 195.905C309.529 195.955 309.654 196.005 309.753 196.055C311.919 197.15 312.765 199.789 311.67 201.955C310.948 203.4 309.529 204.246 308.01 204.346L300.318 311.732C300.691 311.806 301.065 311.931 301.438 312.105C303.604 313.201 304.451 315.84 303.355 318.006C302.26 320.172 299.621 321.019 297.455 319.923C296.858 319.624 296.385 319.201 296.011 318.728L230.215 357.943C230.713 359.088 230.713 360.458 230.091 361.678C228.996 363.844 226.357 364.69 224.191 363.595C223.743 363.371 223.345 363.072 223.021 362.723L180.775 393.971C181.472 395.191 181.547 396.734 180.85 398.079C180.352 399.075 179.506 399.772 178.56 400.17L196.583 471.703C197.405 471.603 198.276 471.753 199.073 472.151C201.238 473.247 202.085 475.886 200.99 478.052C200.068 479.845 198.077 480.741 196.185 480.342L178.062 532.554C178.062 532.554 178.087 532.554 178.087 532.579C180.252 533.674 181.099 536.314 180.004 538.48C178.908 540.646 176.269 541.493 174.104 540.397C172.934 539.799 172.162 538.779 171.863 537.608L103.752 546.373C103.752 547.045 103.603 547.717 103.279 548.364C102.184 550.531 99.5448 551.377 97.379 550.282C95.2133 549.186 94.3667 546.547 95.4622 544.381C95.5118 544.306 95.5616 544.231 95.5865 544.132L-14.2476 458.432L-14.5712 458.706L-14.7455 458.034L-16.5377 456.639L-15.0193 456.963L-35.3828 377.513C-36.2292 377.612 -37.1006 377.488 -37.8972 377.065C-39.5651 376.218 -40.4364 374.475 -40.2622 372.732L-103.618 357.943C-103.668 358.092 -103.743 358.242 -103.818 358.391C-104.913 360.557 -107.552 361.404 -109.718 360.308C-111.684 359.312 -112.555 357.022 -111.883 355.005L-288.036 370.068C-288.061 370.666 -288.21 371.288 -288.509 371.861C-289.604 374.027 -292.243 374.874 -294.409 373.778C-296.575 372.683 -297.421 370.043 -296.326 367.877C-295.903 367.056 -295.255 366.433 -294.509 366.01L-347.036 229.418C-348.007 229.667 -349.077 229.568 -350.048 229.07C-350.944 228.621 -351.591 227.899 -352.015 227.053L-410.84 246.449C-410.666 247.37 -410.765 248.366 -411.238 249.262C-412.334 251.428 -414.973 252.275 -417.138 251.179C-418.657 250.407 -419.528 248.889 -419.528 247.32L-475.516 240.573C-475.59 240.871 -475.715 241.195 -475.864 241.494C-476.96 243.66 -479.598 244.507 -481.764 243.411C-483.93 242.315 -484.776 239.676 -483.681 237.51C-483.582 237.336 -483.507 237.186 -483.407 237.037L-559.41 169.787C-560.704 170.932 -562.621 171.231 -564.264 170.385C-566.43 169.289 -567.276 166.65 -566.181 164.484C-565.459 163.089 -564.09 162.243 -562.621 162.118L-559.883 103.981C-560.356 103.906 -560.854 103.782 -561.302 103.533C-563.293 102.512 -564.165 100.196 -563.443 98.1548L-596.478 84.8342C-597.847 85.0085 -599.166 84.5355 -600.112 83.6143L-658.315 129.178C-658.091 129.551 -657.917 129.975 -657.817 130.423C-657.295 132.763 -658.763 135.104 -661.103 135.651C-662.846 136.05 -664.564 135.353 -665.56 134.008L-676.936 139.137L-740.093 167.621C-739.62 169.936 -741.089 172.202 -743.404 172.725C-745.744 173.248 -748.084 171.779 -748.632 169.438C-748.782 168.766 -748.757 168.069 -748.607 167.447L-813.93 143.644C-814.503 144.714 -815.523 145.536 -816.793 145.835L-813.134 185.871L-909.475 195.084C-909.55 197.026 -910.894 198.744 -912.861 199.192C-913.906 199.441 -914.927 199.266 -915.798 198.843L-946.916 244.482C-946.269 245.054 -945.771 245.851 -945.572 246.772C-945.049 249.113 -946.518 251.453 -948.858 252.001C-949.953 252.25 -951.049 252.051 -951.945 251.553L-1005.74 323.982C-1005.14 324.554 -1004.72 325.301 -1004.52 326.148C-1004 328.488 -1005.47 330.829 -1007.81 331.376C-1010.15 331.899 -1012.49 330.43 -1013.04 328.09C-1013.26 327.169 -1013.14 326.247 -1012.81 325.451L-1064.29 295.398C-1064.89 296.17 -1065.76 296.768 -1066.78 296.992C-1068.85 297.465 -1070.89 296.394 -1071.74 294.527L-1208.33 336.182L-1208.51 335.659C-1208.18 337.128 -1208.63 338.597 -1209.6 339.618L-1174.13 383.19C-1173.73 382.941 -1173.28 382.741 -1172.81 382.642C-1170.47 382.119 -1168.13 383.588 -1167.58 385.928C-1167.06 388.269 -1168.53 390.609 -1170.87 391.157C-1172.26 391.481 -1173.63 391.082 -1174.63 390.236L-1264.02 472.475C-1263.75 472.898 -1263.52 473.371 -1263.4 473.919C-1263 475.662 -1263.72 477.38 -1265.07 478.4L-1238.98 522.669C-1238.8 522.595 -1238.63 522.545 -1238.45 522.52C-1236.11 521.997 -1233.77 523.466 -1233.23 525.807C-1232.7 528.147 -1234.17 530.488 -1236.51 531.035C-1237.76 531.309 -1239.03 531.035 -1240 530.338L-1344.8 632.022C-1344.45 632.496 -1344.18 633.043 -1344.03 633.666C-1343.51 636.006 -1344.98 638.347 -1347.32 638.894C-1349.66 639.417 -1352 637.948 -1352.55 635.608C-1352.97 633.765 -1352.15 631.923 -1350.63 630.952L-1392.7 540.447C-1392.82 540.472 -1392.92 540.521 -1393.05 540.546C-1395.39 541.069 -1397.73 539.6 -1398.28 537.26C-1398.62 535.691 -1398.1 534.123 -1397.01 533.102L-1459.49 446.008C-1459.84 446.182 -1460.19 446.332 -1460.59 446.431C-1462.93 446.979 -1465.27 445.485 -1465.81 443.145C-1466.34 440.804 -1464.87 438.464 -1462.53 437.916C-1461.88 437.767 -1461.26 437.767 -1460.66 437.916L-1435.29 365.985C-1436.41 365.412 -1437.29 364.367 -1437.58 363.047C-1438.11 360.707 -1436.64 358.366 -1434.3 357.818C-1433.8 357.719 -1433.33 357.694 -1432.85 357.744L-1420.41 306.926C-1421.73 306.428 -1422.75 305.283 -1423.1 303.814C-1423.35 302.743 -1423.17 301.648 -1422.67 300.752L-1482.05 257.479C-1482.62 258.076 -1483.37 258.524 -1484.24 258.723C-1486.58 259.246 -1488.92 257.777 -1489.46 255.437C-1489.91 253.47 -1488.97 251.528 -1487.25 250.607L-1506.64 199.092H-1506.67C-1509.01 199.615 -1511.35 198.146 -1511.89 195.806C-1512.42 193.465 -1510.95 191.125 -1508.61 190.577C-1507.34 190.278 -1506.09 190.577 -1505.1 191.299L-1458.55 141.204C-1458.97 140.706 -1459.29 140.083 -1459.44 139.386C-1459.96 137.046 -1458.5 134.705 -1456.16 134.158C-1453.82 133.635 -1451.48 135.104 -1450.93 137.444C-1450.9 137.544 -1450.9 137.618 -1450.88 137.718L-1312.22 133.361L-1312.14 132.938L-1311.59 133.336L-1309.33 133.261L-1310.7 133.983L-1244.5 181.813C-1243.93 181.19 -1243.16 180.742 -1242.29 180.543C-1240.47 180.145 -1238.68 180.917 -1237.71 182.361L-1179.8 153.329C-1179.85 153.18 -1179.9 153.03 -1179.93 152.856C-1180.45 150.491 -1178.98 148.175 -1176.64 147.628C-1174.5 147.13 -1172.38 148.325 -1171.61 150.317L-1046.37 26.5724C-1046.74 26.0994 -1047.02 25.5267 -1047.14 24.9042C-1047.66 22.5638 -1046.19 20.2233 -1043.85 19.6756C-1041.51 19.1527 -1039.17 20.6218 -1038.63 22.9622C-1038.43 23.8585 -1038.53 24.7548 -1038.83 25.5516L-911.641 96.636C-911.043 95.8392 -910.172 95.2168 -909.101 94.9927C-908.131 94.7686 -907.16 94.8931 -906.313 95.2915L-873.652 42.9554C-874.374 42.3578 -874.921 41.5363 -875.146 40.5403C-875.668 38.1999 -874.2 35.8594 -871.859 35.3116C-870.216 34.9382 -868.598 35.5607 -867.578 36.7557L-820.428 6.25543C-820.552 5.95667 -820.677 5.6579 -820.751 5.33423C-821.274 2.96887 -819.805 0.653381 -817.465 0.105591C-815.125 -0.417236 -812.785 1.05176 -812.237 3.39215C-812.188 3.56647 -812.163 3.74072 -812.163 3.91498L-711.166 6.95258C-710.892 5.23462 -709.623 3.79053 -707.83 3.39215C-705.49 2.86932 -703.15 4.33826 -702.602 6.67871C-702.254 8.22241 -702.752 9.74121 -703.797 10.762L-668.87 57.0229C-668.447 56.749 -667.999 56.5499 -667.501 56.4503C-665.336 55.9523 -663.195 57.1723 -662.448 59.1891L-604.618 40.6399C-604.643 40.5403 -604.668 40.4656 -604.693 40.366C-605.216 38.0007 -603.747 35.6852 -601.407 35.1374C-599.863 34.7888 -598.345 35.3117 -597.324 36.3574C-596.503 37.0795 -596.005 38.1003 -595.905 39.1709L-521.72 41.3868C-521.645 40.9387 -521.521 40.5154 -521.297 40.0922C-520.201 37.926 -517.562 37.0795 -515.397 38.175C-513.803 38.9717 -512.932 40.6399 -513.007 42.3081L-500.933 45.6693L-433.917 64.2434C-432.797 62.152 -430.208 61.3552 -428.067 62.4258C-425.901 63.5214 -425.055 66.1606 -426.15 68.3267C-426.474 68.9492 -426.922 69.472 -427.445 69.8704L-392.319 130.199C-391.198 129.751 -389.879 129.751 -388.709 130.348L-365.831 97.0842L-285.547 151.86C-284.252 150.416 -282.111 149.943 -280.294 150.864C-279.348 151.337 -278.651 152.134 -278.252 153.03L-224.904 137.793C-225.028 136.921 -224.904 136 -224.481 135.154C-223.385 132.987 -220.747 132.141 -218.581 133.236C-217.585 133.759 -216.863 134.606 -216.49 135.577L-128.463 114.214C-128.563 113.393 -128.413 112.546 -128.015 111.749C-126.92 109.583 -124.281 108.737 -122.115 109.832C-119.949 110.928 -119.103 113.567 -120.198 115.733C-120.621 116.579 -121.293 117.227 -122.09 117.625L-101.527 173.97C-100.556 173.746 -99.5358 173.87 -98.5897 174.343C-96.6978 175.314 -95.8015 177.456 -96.3492 179.423L35.84 235.02L35.6161 235.543C36.3131 234.199 37.6075 233.352 39.0016 233.178L39.5991 176.734C39.1261 176.659 38.678 176.534 38.2299 176.31C36.0641 175.215 35.2177 172.576 36.313 170.409C37.4083 168.243 40.0471 167.397 42.213 168.492C43.4825 169.14 44.3041 170.31 44.5281 171.629L166.361 165.604C166.411 165.081 166.56 164.583 166.809 164.11C167.631 162.517 169.274 161.62 170.967 161.72L179.257 110.778C179.082 110.703 178.933 110.654 178.759 110.554C176.593 109.459 175.747 106.819 176.842 104.653C177.937 102.487 180.576 101.641 182.742 102.736C183.887 103.334 184.684 104.354 184.982 105.5L331.212 94.3205C331.237 93.7229 331.386 93.1254 331.685 92.5527C332.78 90.3865 335.419 89.54 337.585 90.6355C339.751 91.8555 340.622 94.4948 339.527 96.6609ZM297.854 311.931C298.277 311.757 298.75 311.657 299.198 311.632L306.89 204.246C306.517 204.171 306.143 204.047 305.77 203.873C305.172 203.574 304.675 203.126 304.276 202.628L253.591 231.983L297.854 311.931ZM173.058 394.095C173.381 393.473 173.83 392.975 174.328 392.576L153.018 354.781L170.145 401.266L173.307 398.527C172.485 397.207 172.336 395.539 173.058 394.095ZM188.019 307.275C187.795 307.15 187.596 307.026 187.397 306.877L153.366 345.494C154.088 346.315 154.462 347.386 154.437 348.457L182.443 352.615L188.717 307.549C188.468 307.474 188.244 307.399 188.019 307.275ZM191.779 299.357L217.32 261.039L188.069 299.432C189.19 298.884 190.534 298.81 191.779 299.357ZM185.704 302.544L160.088 336.157L186.576 306.105C185.779 305.109 185.455 303.814 185.704 302.544ZM154.288 349.577C154.213 349.851 154.113 350.125 153.989 350.374C153.665 350.996 153.242 351.494 152.719 351.893L175.348 392.029C175.871 391.804 176.444 391.705 177.041 391.705L182.319 353.735L154.288 349.577ZM151.051 352.64C150.255 352.814 149.383 352.789 148.562 352.49L84.6827 474.516L84.7576 474.915C84.8572 474.989 84.9318 475.064 85.0065 475.114L169.249 402.013L151.051 352.64ZM147.566 351.967C147.242 351.743 146.944 351.469 146.695 351.171L68.4269 400.494L81.8201 474.018C82.3926 473.969 82.9652 474.043 83.5377 474.242L147.566 351.967ZM61.3069 342.456C61.755 343.079 62.0288 343.826 62.1035 344.597L145.724 347.635C145.799 347.212 145.923 346.788 146.147 346.365C146.197 346.266 146.247 346.191 146.296 346.116L98.0013 308.121L61.3069 342.456ZM128.348 278.219C128.049 277.795 127.825 277.322 127.675 276.824L73.3807 284.543C73.3807 285.215 73.2314 285.937 72.9078 286.585C72.858 286.684 72.8082 286.759 72.7584 286.833L97.9515 306.652L128.348 278.219ZM-31.7234 374.625L41.6404 411.947C42.1383 411.225 42.8353 410.677 43.6071 410.379L28.7948 354.133L-31.5243 372.434C-31.3998 373.156 -31.4745 373.903 -31.7234 374.625ZM44.7024 410.08C44.9513 410.055 45.2252 410.03 45.4741 410.055L56.4277 349.204C56.2036 349.129 55.9796 349.054 55.7555 348.93C54.7349 348.407 54.0129 347.56 53.6395 346.589L29.8405 353.81L44.7024 410.08ZM46.5695 410.254C46.7936 410.329 47.0176 410.403 47.2417 410.528C47.7893 410.802 48.2623 411.2 48.6357 411.648L67.1821 399.971L57.9712 349.428C57.8467 349.428 57.6973 349.428 57.5728 349.428L46.5695 410.254ZM68.2028 399.299L146.097 350.224C145.898 349.776 145.749 349.278 145.699 348.78L62.0787 345.743C62.0042 346.166 61.8795 346.589 61.6555 347.013C61.1078 348.108 60.1619 348.855 59.0665 349.204L68.2028 399.299ZM67.4061 401.141L49.2332 412.594C49.7809 413.765 49.8058 415.184 49.1586 416.429C48.8599 417.026 48.4117 417.549 47.9138 417.923L57.0002 433.708L80.3761 474.392C80.4757 474.342 80.6002 474.317 80.6997 474.267L67.4061 401.141ZM46.943 418.47C45.7979 418.943 44.4783 418.943 43.2834 418.321C41.4661 417.4 40.5699 415.358 40.9932 413.441L24.8866 426.562L79.231 475.064C79.2806 475.014 79.3553 474.964 79.4052 474.915L46.943 418.47ZM40.3209 412.545L-32.2212 375.621L24.04 425.815L40.3209 412.545ZM-31.8479 371.338L28.4961 353.038L10.9705 286.56C10.2983 286.634 9.60132 286.585 8.9541 286.336L-33.3665 369.521C-32.6942 369.994 -32.1715 370.641 -31.8479 371.338ZM29.5665 352.714L53.3905 345.494C53.2909 344.672 53.4403 343.826 53.8386 343.029C54.0626 342.606 54.3615 342.207 54.6851 341.883L12.5638 286.037C12.3895 286.136 12.2401 286.211 12.041 286.286L29.5665 352.714ZM55.8053 341.112C56.0294 341.012 56.2534 340.912 56.5023 340.838L47.0674 283.97L14.7794 282.949C14.7047 283.398 14.5802 283.821 14.3561 284.244C14.1321 284.667 13.8584 285.066 13.5347 285.389L55.8053 341.112ZM47.9885 282.85L64.7672 283.373C64.8419 283.099 64.9415 282.825 65.0909 282.576C65.3896 281.978 65.8129 281.505 66.3107 281.107L41.6155 241.519C41.4662 241.593 41.3168 241.643 41.1675 241.718L47.9885 282.85ZM64.6179 284.518L48.1876 283.995L57.5977 340.639C57.8964 340.639 58.1953 340.639 58.494 340.688L67.4559 288.676C67.3065 288.626 67.1572 288.551 67.0078 288.477C65.4644 287.705 64.593 286.136 64.6179 284.518ZM59.5894 341.037C59.6392 341.062 59.689 341.087 59.7386 341.112C60.0375 341.261 60.2863 341.435 60.5352 341.635L97.1051 307.424L72.0365 287.705C71.1155 288.601 69.8208 289.049 68.5264 288.925L59.5894 341.037ZM73.2065 283.398L127.526 275.704C127.526 275.007 127.675 274.31 127.999 273.662C128.173 273.339 128.372 273.04 128.597 272.766L103.852 244.905L72.2605 281.655C72.7086 282.153 73.0322 282.75 73.2065 283.398ZM98.8477 307.35L147.018 345.245C147.442 344.821 147.939 344.523 148.487 344.299L132.43 279.987C131.609 280.086 130.737 279.937 129.941 279.538C129.642 279.389 129.393 279.215 129.144 279.015L98.8477 307.35ZM149.558 344.025C150.379 343.925 151.25 344.075 152.047 344.473C152.122 344.498 152.172 344.548 152.246 344.573L224.639 249.561C224.241 249.187 223.917 248.764 223.668 248.266L136.189 274.907C136.339 275.804 136.214 276.75 135.766 277.621C135.268 278.617 134.422 279.339 133.451 279.713L149.558 344.025ZM135.891 273.837L223.32 247.196C223.12 246.249 223.245 245.254 223.693 244.332C223.942 243.834 224.266 243.436 224.639 243.087L205.197 215.55L135.592 273.289C135.716 273.488 135.791 273.662 135.891 273.837ZM235.717 194.038C235.643 194.386 235.518 194.735 235.344 195.084C235.02 195.706 234.572 196.229 234.024 196.627L253.044 230.987L303.729 201.657C303.529 201.184 303.405 200.661 303.405 200.138L235.717 194.038ZM300.492 198.719L176.941 168.119L227.701 190.801C228.871 188.859 231.361 188.137 233.427 189.183C234.896 189.93 235.767 191.374 235.817 192.917L300.492 198.719ZM233.029 197.15C232.605 197.324 232.157 197.424 231.684 197.449L228.572 242.067C228.921 242.141 229.245 242.266 229.568 242.415C230.166 242.714 230.663 243.162 231.062 243.66L252.048 231.51L233.029 197.15ZM230.564 197.374C230.191 197.3 229.817 197.175 229.444 197.001C229.07 196.802 228.747 196.577 228.448 196.304L206.068 214.853L225.56 242.465C226.133 242.166 226.78 241.992 227.452 241.967L230.564 197.374ZM205.421 213.932L227.726 195.432C227.054 194.386 226.855 193.067 227.228 191.847L174.601 168.343C174.402 168.691 174.153 169.04 173.88 169.314L205.421 213.932ZM175.149 166.525L303.679 198.37C303.729 198.246 303.778 198.096 303.853 197.972C303.878 197.922 303.903 197.897 303.928 197.847L227.875 141.976L174.95 164.907C175.124 165.405 175.174 165.978 175.149 166.525ZM296.733 312.578C296.783 312.553 296.833 312.504 296.858 312.479L252.596 232.53L231.635 244.656C232.107 245.801 232.108 247.146 231.51 248.341C231.411 248.565 231.261 248.764 231.112 248.963L296.733 312.578ZM295.937 313.375L230.315 249.76C229.668 250.283 228.896 250.582 228.099 250.681L227.402 307.101L295.19 314.919C295.265 314.595 295.389 314.296 295.538 313.997C295.663 313.773 295.812 313.574 295.937 313.375ZM228.199 355.752C228.772 356.051 229.27 356.474 229.643 356.947L295.439 317.732C295.215 317.209 295.09 316.637 295.09 316.064L227.427 308.246L226.855 355.329C227.303 355.403 227.751 355.528 228.199 355.752ZM226.979 250.681C226.581 250.631 226.182 250.507 225.809 250.333L192.724 299.93C193.77 300.752 194.343 301.997 194.368 303.291L226.282 306.976L226.979 250.681ZM224.34 355.702C224.764 355.503 225.237 355.353 225.71 355.304L226.282 308.097L194.243 304.412C194.168 304.735 194.044 305.034 193.895 305.333C193.621 305.881 193.247 306.329 192.824 306.702L224.34 355.702ZM223.394 356.324L191.878 307.325C191.231 307.624 190.534 307.773 189.837 307.748L183.563 352.789L222 358.491C222.075 358.217 222.175 357.968 222.299 357.694C222.573 357.146 222.946 356.673 223.394 356.324ZM178.958 392.153C179.406 392.377 179.804 392.676 180.128 393.024L222.374 361.777C222 361.105 221.826 360.333 221.826 359.561L183.389 353.86L178.112 391.804C178.41 391.929 178.684 392.029 178.958 392.153ZM177.489 400.419C176.668 400.519 175.796 400.369 175 399.971C174.651 399.797 174.353 399.573 174.079 399.324L170.593 402.361L194.019 465.877L177.489 400.419ZM169.672 403.158L85.7532 475.96C86.1018 476.483 86.3258 477.106 86.4254 477.728L192.774 475.537C192.824 475.014 192.974 474.516 193.222 474.018C193.646 473.172 194.318 472.524 195.089 472.126L169.672 403.158ZM86.0769 480.193L142.214 514.851L193.247 478.127C192.998 477.678 192.849 477.205 192.774 476.707L86.4254 478.898C86.4005 479.322 86.276 479.77 86.0769 480.193ZM177.041 532.156L195.164 479.944H195.139C194.666 479.695 194.268 479.396 193.944 479.023L143.284 515.474L172.784 533.674C173.78 532.405 175.448 531.832 177.041 532.156ZM103.677 545.202L171.788 536.438C171.788 535.841 171.913 535.218 172.187 534.646L142.288 516.196L103.304 544.231C103.453 544.555 103.578 544.879 103.677 545.202ZM101.437 542.414C101.91 542.663 102.308 542.962 102.657 543.335L141.243 515.549L86.1765 481.563L99.0968 541.941C99.8684 541.891 100.69 542.04 101.437 542.414ZM96.3583 543.211C96.8313 542.762 97.379 542.414 97.9764 542.19L85.0314 481.637C83.7119 482.807 81.7703 483.156 80.1023 482.285C78.4592 481.463 77.5879 479.745 77.7124 478.027L-11.8826 458.756L96.3583 543.211ZM77.9613 476.931C78.036 476.757 78.0858 476.583 78.1854 476.409C78.2849 476.234 78.3596 476.085 78.4841 475.936L23.9902 427.309L-12.9033 457.386L77.9613 476.931ZM-13.8243 456.689L23.1439 426.537L-32.9681 376.467C-33.3416 376.791 -33.7648 377.04 -34.2129 377.214L-13.8243 456.689ZM-37.3247 369.023C-36.4036 368.699 -35.3579 368.674 -34.387 369.023L7.93347 285.838C7.58496 285.614 7.28613 285.315 7.01221 285.016L-59.0575 326.496L-37.3247 369.023ZM6.06641 281.704L-47.8301 267.911L-63.6628 263.852L-92.1421 256.557C-92.1421 256.557 -92.1421 256.582 -92.167 256.582C-92.5653 257.354 -93.1627 257.952 -93.8597 258.375L-59.5803 325.5L6.38989 284.07C6.09119 283.323 5.9668 282.501 6.06641 281.704ZM-103.295 356.822L-39.9386 371.612C-39.8888 371.463 -39.8141 371.313 -39.7394 371.164C-39.3909 370.492 -38.8929 369.944 -38.3203 369.545L-59.9785 327.119L-103.668 354.557C-103.344 355.254 -103.22 356.026 -103.295 356.822ZM-105.66 352.465C-105.112 352.739 -104.639 353.138 -104.266 353.586L-60.5013 326.098L-94.8556 258.798C-95.2539 258.898 -95.6771 258.972 -96.1003 258.948L-98.0172 275.978L-106.606 352.092C-106.282 352.216 -105.958 352.316 -105.66 352.465ZM-107.726 351.992L-99.2371 276.65L-97.2206 258.823C-97.4944 258.748 -97.7682 258.649 -98.042 258.499C-98.7888 258.126 -99.3864 257.553 -99.7847 256.881L-135.782 270.45L-108.498 352.092C-108.249 352.042 -107.975 351.992 -107.726 351.992ZM-259.656 291.315C-259.432 291.315 -259.233 291.315 -259.009 291.34L-248.529 248.814L-241.284 219.459C-241.409 219.409 -241.558 219.359 -241.683 219.285C-242.902 218.662 -243.699 217.567 -243.973 216.322L-271.456 218.812L-259.656 291.315ZM-272.601 218.936L-343.6 225.335C-343.625 225.957 -343.775 226.58 -344.073 227.152C-344.123 227.252 -344.173 227.352 -344.223 227.426L-262.569 292.535C-262.046 292.037 -261.449 291.689 -260.777 291.489L-272.601 218.936ZM-247.583 249.66L-257.939 291.614C-257.814 291.664 -257.665 291.714 -257.54 291.788C-256.968 292.087 -256.495 292.485 -256.121 292.934L-198.566 257.528L-237.052 218.861C-237.949 219.534 -239.069 219.857 -240.214 219.733L-247.583 249.66ZM-176.36 283.522C-176.36 282.875 -176.21 282.202 -175.887 281.58C-175.737 281.306 -175.588 281.057 -175.389 280.808L-197.744 258.35L-255.524 293.88C-255.424 294.079 -255.35 294.303 -255.3 294.527L-176.36 283.522ZM-255.275 296.768L-214.15 313.076L-175.862 285.638C-176.036 285.315 -176.161 284.991 -176.235 284.642L-255.126 295.647C-255.126 296.021 -255.175 296.394 -255.275 296.768ZM-174.592 280.036C-173.547 279.289 -172.203 278.991 -170.933 279.314L-152.337 231.983C-152.586 231.609 -152.785 231.211 -152.909 230.788L-196.748 257.752L-174.592 280.036ZM-197.57 256.931L-153.108 229.593C-153.108 229.319 -153.084 229.02 -153.034 228.746L-235.459 216.596C-235.534 216.87 -235.633 217.118 -235.758 217.392C-235.882 217.641 -236.032 217.865 -236.206 218.09L-197.57 256.931ZM-235.31 215.45L-180.467 223.542L-152.685 227.65C-152.66 227.601 -152.635 227.551 -152.611 227.501C-152.387 227.078 -152.138 226.729 -151.814 226.406L-192.218 174.468L-236.032 212.936C-235.559 213.683 -235.31 214.579 -235.31 215.45ZM-169.862 279.738C-169.116 280.161 -168.518 280.758 -168.145 281.455L-137.176 269.778L-149.2 233.85C-149.723 233.8 -150.221 233.651 -150.719 233.402C-150.992 233.277 -151.241 233.103 -151.49 232.904L-169.862 279.738ZM-136.13 269.38L-100.233 255.835C-100.457 255.113 -100.482 254.316 -100.283 253.569L-144.993 231.808C-145.69 232.904 -146.785 233.626 -148.005 233.825L-136.13 269.38ZM-144.545 230.763L-99.8843 252.499C-99.3367 251.503 -98.4403 250.781 -97.4446 250.432L-109.693 188.909L-145.341 226.704C-144.42 227.825 -144.121 229.344 -144.545 230.763ZM-110.091 352.739C-109.917 352.615 -109.742 352.515 -109.543 352.44L-136.828 270.849L-167.722 282.501C-167.473 283.497 -167.572 284.568 -168.07 285.564C-168.219 285.862 -168.419 286.136 -168.618 286.385L-110.091 352.739ZM-111.261 353.909C-111.161 353.76 -111.062 353.635 -110.937 353.511L-169.464 287.157C-170.759 288.054 -172.476 288.253 -173.97 287.481C-174.443 287.232 -174.841 286.933 -175.19 286.56L-212.88 313.574L-111.261 353.909ZM-288.036 368.923L-113.974 354.034L-213.95 314.371L-288.434 367.778C-288.26 368.126 -288.135 368.525 -288.036 368.923ZM-289.131 366.856L-215.22 313.873L-255.673 297.814C-256.669 299.631 -258.81 300.453 -260.752 299.88L-290.052 366.085C-289.704 366.309 -289.38 366.583 -289.131 366.856ZM-293.363 365.587C-292.617 365.412 -291.845 365.412 -291.098 365.636L-261.797 299.432C-263.739 298.262 -264.486 295.772 -263.415 293.705C-263.366 293.606 -263.316 293.506 -263.266 293.432L-344.92 228.323C-345.218 228.597 -345.542 228.846 -345.866 229.02L-293.363 365.587ZM-351.865 223.169C-351.492 222.447 -350.944 221.874 -350.322 221.476L-361.375 197.922L-410.168 224.239C-410.043 224.538 -409.969 224.862 -409.919 225.186L-352.338 224.613C-352.239 224.14 -352.114 223.642 -351.865 223.169ZM-413.031 243.361C-412.135 243.809 -411.487 244.531 -411.064 245.378L-352.239 225.982C-352.264 225.908 -352.264 225.833 -352.288 225.758L-409.869 226.331C-409.919 226.829 -410.068 227.327 -410.317 227.8C-411.039 229.194 -412.384 230.041 -413.827 230.165L-414.3 242.938C-413.877 243.013 -413.454 243.162 -413.031 243.361ZM-417.686 243.809C-417.039 243.311 -416.242 243.013 -415.446 242.938L-414.973 230.14C-415.396 230.066 -415.819 229.941 -416.242 229.717C-417.288 229.194 -418.035 228.298 -418.383 227.252L-431.403 229.966L-417.686 243.809ZM-418.134 223.816C-418.084 223.741 -418.035 223.667 -418.01 223.592L-503.298 157.462L-432.349 229.02L-418.607 226.157C-418.657 225.36 -418.508 224.563 -418.134 223.816ZM-475.192 177.829L-417.313 222.696C-416.74 222.123 -415.993 221.725 -415.222 221.55L-423.511 139.635L-505.414 151.636C-505.414 152.333 -505.563 153.03 -505.887 153.703C-505.937 153.777 -505.987 153.852 -506.011 153.927L-475.192 177.829ZM-475.242 239.452L-419.254 246.2C-419.18 245.901 -419.055 245.577 -418.906 245.278C-418.781 245.029 -418.632 244.78 -418.458 244.581L-432.672 230.24L-475.242 239.153C-475.267 239.253 -475.242 239.353 -475.242 239.452ZM-480.52 235.195C-479.573 234.995 -478.578 235.12 -477.657 235.568C-476.611 236.091 -475.864 237.012 -475.516 238.033L-433.668 229.269L-507.156 155.172C-507.381 155.346 -507.63 155.495 -507.878 155.62L-480.52 235.195ZM-508.924 156.018C-509.87 156.217 -510.866 156.118 -511.787 155.645C-512.733 155.147 -513.43 154.375 -513.828 153.454L-525.728 156.815L-482.138 233.9L-508.924 156.018ZM-555.302 101.641C-555.377 101.765 -555.452 101.914 -555.526 102.039L-512.359 148.15C-511.862 147.777 -511.289 147.528 -510.667 147.403L-514.849 88.32L-554.904 98.7026C-554.705 99.6736 -554.804 100.719 -555.302 101.641ZM-513.704 149.719C-513.554 149.42 -513.38 149.171 -513.181 148.922L-556.149 103.035L-526.325 155.794L-514.152 152.358C-514.251 151.487 -514.127 150.566 -513.704 149.719ZM-482.511 236.191C-482.436 236.116 -482.337 236.066 -482.262 235.991L-526.848 157.114L-557.817 165.853C-557.692 166.724 -557.817 167.646 -558.24 168.467C-558.339 168.642 -558.414 168.791 -558.514 168.94L-482.511 236.191ZM-561.377 162.193C-560.953 162.268 -560.555 162.392 -560.157 162.591C-559.211 163.089 -558.514 163.861 -558.115 164.782L-527.421 156.118L-557.144 103.533C-557.593 103.782 -558.09 103.931 -558.613 104.006L-561.377 162.193ZM-563.094 97.6817C-562.845 97.1838 -562.497 96.7605 -562.098 96.387L-585.101 62.7495L-597.648 66.4594L-596.727 76.1946C-594.785 76.2693 -593.067 77.6138 -592.619 79.5807C-592.196 81.4979 -593.092 83.3652 -594.685 84.3114L-562.845 97.1589L-563.094 97.6817ZM-598.793 66.783L-619.604 72.908C-619.58 73.1072 -619.555 73.3312 -619.555 73.5305L-600.934 78.8088C-600.411 77.564 -599.316 76.593 -597.897 76.2693L-598.793 66.783ZM-601.158 81.5228C-601.282 80.975 -601.282 80.4272 -601.208 79.9044L-616.07 75.6717L-601.083 81.7219C-601.108 81.6473 -601.133 81.5726 -601.158 81.5228ZM-620.625 70.7419C-620.326 71.0656 -620.102 71.439 -619.903 71.8374L-598.892 65.6377L-600.959 44.0012C-601.382 43.9265 -601.805 43.8019 -602.203 43.6028L-614.626 61.7785L-620.625 70.7419ZM-599.813 44.0261L-597.797 65.2891L-585.798 61.7536L-598.22 43.5779C-598.718 43.8269 -599.266 44.0012 -599.813 44.0261ZM-658.863 128.331L-600.959 82.9918L-619.878 75.348C-619.928 75.4227 -619.953 75.5223 -619.978 75.597C-620.974 77.564 -623.264 78.4354 -625.28 77.7383L-659.037 128.157C-658.987 128.232 -658.938 128.282 -658.863 128.331ZM-740.317 166.6L-722.842 158.732L-665.983 133.087C-666.082 132.863 -666.157 132.664 -666.207 132.415C-666.53 130.996 -666.107 129.576 -665.211 128.556L-693.143 99.4495L-740.84 165.828C-740.616 166.052 -740.442 166.326 -740.317 166.6ZM-741.612 165.031L-693.889 98.603L-734.866 55.8776C-735.339 56.2262 -735.886 56.4752 -736.484 56.6246C-736.683 56.6744 -736.907 56.6993 -737.106 56.7241L-742.732 164.409C-742.359 164.558 -741.96 164.758 -741.612 165.031ZM-780.597 54.4335L-853.462 56.9482C-853.537 57.7698 -853.836 58.5168 -854.334 59.1642L-795.832 116.579L-740.79 55.2054C-741.239 54.6825 -741.587 54.0601 -741.736 53.3131C-741.761 53.2384 -741.761 53.1388 -741.786 53.0641L-780.597 54.4335ZM-746.118 52.118L-845.994 42.5571L-854.682 53.5123C-854.135 54.0601 -853.736 54.782 -853.562 55.5788C-853.537 55.6535 -853.537 55.7531 -853.512 55.8278L-746.118 52.118ZM-738.425 48.1094C-737.38 47.8853 -736.359 48.0347 -735.463 48.4828L-728.493 38.3243L-810.943 7.07709L-740.865 49.6281C-740.268 48.9061 -739.446 48.3583 -738.425 48.1094ZM-734.567 49.1302C-733.92 49.7028 -733.422 50.4996 -733.223 51.4208C-733.148 51.7445 -733.123 52.0433 -733.123 52.3669L-671.011 60.1352L-727.447 38.7476L-734.567 49.1302ZM-746.616 164.882C-746.193 164.608 -745.719 164.384 -745.172 164.26C-744.724 164.16 -744.301 164.135 -743.877 164.16L-738.251 56.6495C-738.849 56.5499 -739.421 56.3009 -739.919 55.9523L-795.01 117.376L-746.616 164.882ZM-813.358 140.631C-813.208 141.303 -813.233 141.976 -813.383 142.623L-748.06 166.426C-747.91 166.127 -747.711 165.853 -747.487 165.604L-795.782 118.198L-814.254 138.789C-813.831 139.336 -813.507 139.934 -813.358 140.631ZM-815.075 138.042L-796.579 117.426L-855.13 59.9609C-855.23 60.0356 -855.354 60.1352 -855.479 60.2099L-842.857 86.9506L-819.009 137.469C-818.884 137.419 -818.76 137.394 -818.61 137.369C-817.316 137.071 -816.046 137.37 -815.075 138.042ZM-903.973 100.595L-880.523 111.575L-859.935 60.3344C-860.234 60.185 -860.483 59.9858 -860.732 59.7617L-904.446 96.885C-904.172 97.3083 -903.973 97.7813 -903.849 98.2793C-903.699 99.101 -903.749 99.8727 -903.973 100.595ZM-879.502 112.048L-821.324 139.312C-821 138.764 -820.527 138.291 -819.979 137.942L-843.978 87.1249L-856.475 60.683C-856.599 60.7327 -856.724 60.7577 -856.848 60.7826C-857.545 60.9319 -858.242 60.907 -858.914 60.7576L-879.502 112.048ZM-909.425 193.988L-814.204 184.875L-817.764 145.959C-819.058 145.91 -820.278 145.287 -821.05 144.266L-909.599 193.415C-909.525 193.615 -909.475 193.789 -909.425 193.988ZM-910.122 192.419L-821.623 143.295C-821.722 143.071 -821.797 142.822 -821.847 142.573C-822.021 141.801 -821.971 141.054 -821.772 140.357L-879.925 113.119L-911.342 191.299C-910.869 191.573 -910.446 191.971 -910.122 192.419ZM-951.073 243.61C-950.924 243.56 -950.8 243.511 -950.65 243.486C-949.605 243.262 -948.584 243.411 -947.713 243.859L-916.595 198.221C-917.242 197.648 -917.74 196.851 -917.939 195.93C-918.063 195.357 -918.088 194.785 -917.989 194.237L-980.748 177.381C-981.071 178.178 -981.644 178.875 -982.391 179.348L-951.073 243.61ZM-1066.68 220.007L-1098.45 200.362L-1117.32 233.601C-1116.7 234.024 -1116.17 234.597 -1115.82 235.319L-1067.73 223.492C-1067.88 222.198 -1067.48 220.928 -1066.68 220.007ZM-1065.79 219.235C-1065.36 218.936 -1064.87 218.737 -1064.34 218.612C-1064.04 218.538 -1063.75 218.513 -1063.45 218.513L-1079.2 170.957C-1080.05 171.107 -1080.87 171.032 -1081.62 170.733L-1097.88 199.391L-1065.79 219.235ZM-1059.04 223.243L-995.037 237.236L-986 179.871C-986.847 179.622 -987.618 179.124 -988.166 178.427L-1035.29 207.159L-1059.16 221.725C-1059.14 221.774 -1059.14 221.824 -1059.12 221.874C-1059.04 222.347 -1059.02 222.82 -1059.04 223.243ZM-988.764 177.481C-988.888 177.232 -988.963 176.958 -989.037 176.684C-989.112 176.41 -989.137 176.136 -989.137 175.862L-1043.48 170.758L-1060.09 220.032C-1059.91 220.231 -1059.74 220.48 -1059.59 220.704L-988.764 177.481ZM-1044.63 170.634L-1075.79 167.696C-1076.09 168.94 -1076.96 170.011 -1078.13 170.584L-1062.23 218.662C-1061.8 218.787 -1061.38 218.961 -1061.01 219.21L-1044.63 170.634ZM-1077.46 163.114L-1024.06 104.429C-1024.31 104.155 -1024.51 103.832 -1024.69 103.483L-1066.56 117.202L-1078.38 162.591C-1078.06 162.741 -1077.76 162.915 -1077.46 163.114ZM-1076.64 163.911C-1076.22 164.409 -1075.92 165.031 -1075.77 165.704C-1075.69 166.002 -1075.67 166.301 -1075.67 166.6L-1044.25 169.563L-1022.67 105.55C-1022.87 105.45 -1023.07 105.326 -1023.24 105.201L-1076.64 163.911ZM-1043.11 169.662L-989.037 174.742C-988.788 173.646 -988.116 172.675 -987.17 172.053L-1000.56 144.441L-1019.36 105.749C-1019.48 105.799 -1019.63 105.823 -1019.78 105.873C-1020.4 106.023 -1021.03 105.998 -1021.6 105.898L-1043.11 169.662ZM-999.319 144.49L-986.175 171.58C-986.05 171.53 -985.901 171.48 -985.751 171.455C-984.432 171.156 -983.112 171.48 -982.117 172.252L-962.649 152.831L-1017.87 104.877C-1018.01 105.027 -1018.19 105.151 -1018.36 105.251L-999.319 144.49ZM-981.32 173.049C-980.947 173.547 -980.673 174.094 -980.523 174.742C-980.399 175.265 -980.399 175.787 -980.449 176.285L-917.665 193.141C-917.541 192.843 -917.366 192.594 -917.192 192.32L-961.803 153.553L-981.32 173.049ZM-952.094 244.108L-983.386 179.846C-983.536 179.896 -983.66 179.945 -983.81 179.97C-984.183 180.045 -984.531 180.095 -984.905 180.07L-993.942 237.485L-953.787 246.274C-953.463 245.403 -952.866 244.631 -952.094 244.108ZM-1006.51 323.334L-952.716 250.905C-953.314 250.333 -953.737 249.586 -953.936 248.739C-954.036 248.291 -954.061 247.818 -954.036 247.395L-994.116 238.631L-1007.41 322.961C-1007.09 323.036 -1006.79 323.16 -1006.51 323.334ZM-1009.6 322.861C-1009.23 322.787 -1008.88 322.762 -1008.5 322.762L-995.211 238.357L-1059.29 224.339C-1059.59 225.186 -1060.14 225.908 -1060.88 226.43L-1010.15 323.036C-1009.97 322.986 -1009.77 322.911 -1009.6 322.861ZM-1011.64 323.982C-1011.49 323.832 -1011.32 323.683 -1011.14 323.558L-1061.88 226.953C-1062.05 227.028 -1062.23 227.078 -1062.43 227.128C-1062.65 227.177 -1062.87 227.202 -1063.1 227.227L-1066.36 279.688L-1011.64 323.982ZM-1063.5 291.788C-1063.3 292.71 -1063.4 293.631 -1063.72 294.452L-1014.65 322.986L-1066.46 281.057L-1066.93 288.477C-1065.26 288.776 -1063.89 290.045 -1063.5 291.788ZM-1064.22 227.152C-1065.64 226.879 -1066.83 225.908 -1067.4 224.563L-1115.43 236.365C-1115.2 237.485 -1115.43 238.606 -1116 239.502L-1067.43 278.816L-1064.22 227.152ZM-1070.29 289.199C-1069.84 288.875 -1069.3 288.626 -1068.72 288.477C-1068.5 288.427 -1068.28 288.402 -1068.05 288.377L-1067.53 280.161L-1113.76 242.739L-1070.29 289.199ZM-1208.66 335.111L-1072.06 293.456C-1072.28 292.162 -1071.91 290.917 -1071.11 289.971L-1117.17 240.772C-1117.62 241.095 -1118.16 241.344 -1118.74 241.494C-1120.11 241.793 -1121.48 241.419 -1122.5 240.598L-1209.53 333.717C-1209.15 334.09 -1208.85 334.588 -1208.66 335.111ZM-1123.27 239.751C-1123.37 239.602 -1123.47 239.427 -1123.57 239.253L-1190.43 271.023L-1214.66 282.526C-1214.61 282.651 -1214.58 282.775 -1214.56 282.9C-1214.03 285.24 -1215.48 287.556 -1217.79 288.103L-1213.04 332.248C-1212.09 332.198 -1211.17 332.447 -1210.4 332.945L-1123.27 239.751ZM-1123.82 235.742L-1192.8 206.188L-1216.92 279.937C-1216.2 280.285 -1215.58 280.833 -1215.13 281.505L-1165.09 257.727L-1150.4 250.756L-1123.96 238.207V238.182C-1124.16 237.336 -1124.09 236.514 -1123.82 235.742ZM-1321.8 182.61L-1394.29 180.095C-1394.29 180.17 -1394.32 180.244 -1394.34 180.319L-1333.53 202.852C-1332.95 201.756 -1331.93 200.91 -1330.64 200.636C-1328.65 200.188 -1326.68 201.159 -1325.78 202.902L-1321.8 182.61ZM-1324.69 203.176L-1245.65 185.224L-1320.68 182.634L-1324.69 203.176ZM-1261.76 316.662L-1248.86 306.603L-1292.13 269.23C-1292.35 269.43 -1292.6 269.604 -1292.85 269.753L-1266.59 315.292C-1266.44 315.242 -1266.29 315.193 -1266.11 315.143C-1264.42 314.769 -1262.75 315.417 -1261.76 316.662ZM-1265.44 372.135L-1175.99 385.704C-1175.89 385.406 -1175.8 385.107 -1175.62 384.833L-1261.95 322.388C-1262.53 323.011 -1263.3 323.459 -1264.17 323.658C-1264.32 323.683 -1264.49 323.708 -1264.64 323.733L-1265.44 372.135ZM-1260.88 320.347L-1216.77 334.912C-1216.72 334.763 -1216.65 334.613 -1216.57 334.489L-1248.01 307.35L-1261.18 317.633C-1261.06 317.882 -1260.98 318.155 -1260.91 318.454C-1260.73 319.077 -1260.73 319.724 -1260.88 320.347ZM-1369.65 386.476C-1370.97 386.501 -1372.21 385.928 -1373.06 384.957L-1399.82 402.461L-1364.49 446.008C-1364.15 445.809 -1363.77 445.634 -1363.37 445.535L-1369.65 386.476ZM-1363.7 431.915L-1365.76 383.887C-1366.26 385.032 -1367.26 385.953 -1368.55 386.302L-1363.7 431.915ZM-1370.69 377.861C-1370.44 377.812 -1370.22 377.787 -1369.97 377.762L-1368.5 326.521C-1369.57 326.347 -1370.54 325.774 -1371.22 324.953L-1395.29 339.618L-1371.39 378.11C-1371.19 377.986 -1370.94 377.911 -1370.69 377.861ZM-1368.85 377.837C-1367.61 378.086 -1366.54 378.882 -1365.91 380.003L-1367.71 337.95L-1368.85 377.837ZM-1361.98 445.361C-1361.43 445.385 -1360.91 445.51 -1360.44 445.734L-1310.45 369.62C-1311.15 369.023 -1311.64 368.226 -1311.87 367.28C-1312.12 366.184 -1311.92 365.114 -1311.44 364.217L-1364.69 325.227C-1365.27 325.824 -1366.01 326.272 -1366.88 326.471C-1366.96 326.496 -1367.03 326.496 -1367.11 326.521L-1361.98 445.361ZM-1271.99 474.491L-1324.56 460.399L-1329.87 488.783C-1328.7 489.156 -1327.7 490.028 -1327.2 491.223L-1271.94 475.687C-1272.01 475.288 -1272.04 474.865 -1271.99 474.491ZM-1325.66 460.1L-1358.17 451.386C-1358.42 451.983 -1358.79 452.531 -1359.29 452.979L-1333.28 489.082C-1332.93 488.907 -1332.56 488.758 -1332.18 488.659C-1331.78 488.559 -1331.36 488.534 -1330.96 488.559L-1325.66 460.1ZM-1357.95 448.747C-1357.82 449.27 -1357.82 449.792 -1357.87 450.315L-1325.46 459.005L-1308.96 370.467C-1309.15 370.392 -1309.33 370.317 -1309.5 370.243L-1359.47 446.307C-1358.72 446.904 -1358.17 447.751 -1357.95 448.747ZM-1302.48 320.994L-1363.47 322.662C-1363.52 323.26 -1363.72 323.807 -1364 324.305L-1310.75 363.296C-1310.18 362.698 -1309.43 362.25 -1308.56 362.051C-1308.23 361.976 -1307.93 361.951 -1307.61 361.951L-1302.48 320.994ZM-1306.52 362.076C-1306.02 362.2 -1305.54 362.425 -1305.12 362.723L-1268.45 322.239C-1268.9 321.716 -1269.22 321.093 -1269.4 320.371C-1269.42 320.272 -1269.42 320.172 -1269.45 320.073L-1301.36 320.944L-1306.52 362.076ZM-1364.74 319.126L-1298.8 268.185C-1299.02 267.811 -1299.17 267.388 -1299.3 266.94C-1299.57 265.745 -1299.32 264.575 -1298.72 263.628L-1337.61 231.086L-1365.99 318.28C-1365.52 318.479 -1365.09 318.778 -1364.74 319.126ZM-1297.98 262.782C-1297.88 262.682 -1297.78 262.608 -1297.68 262.508L-1328.02 208.927C-1328.25 209.027 -1328.47 209.101 -1328.7 209.151C-1329.29 209.276 -1329.89 209.3 -1330.46 209.176L-1337.21 229.941L-1297.98 262.782ZM-1298.1 269.056L-1364.07 320.023C-1363.85 320.396 -1363.67 320.82 -1363.57 321.268C-1363.55 321.367 -1363.55 321.467 -1363.52 321.542L-1302.33 319.873L-1296.11 270.202C-1296.88 270.002 -1297.55 269.604 -1298.1 269.056ZM-1301.21 319.824L-1269.47 318.952C-1269.35 317.658 -1268.65 316.512 -1267.58 315.79L-1293.89 270.177C-1293.94 270.201 -1293.99 270.202 -1294.07 270.226C-1294.39 270.301 -1294.69 270.326 -1295.01 270.326L-1301.21 319.824ZM-1267.63 322.986L-1304.3 363.47C-1303.85 363.993 -1303.53 364.616 -1303.35 365.338C-1303.28 365.686 -1303.25 366.06 -1303.25 366.408L-1266.56 371.961L-1265.76 323.708C-1266.44 323.608 -1267.06 323.359 -1267.63 322.986ZM-1303.4 367.504C-1303.73 368.649 -1304.5 369.595 -1305.57 370.168L-1268.68 470.632C-1268.65 470.632 -1268.63 470.607 -1268.6 470.607C-1268.45 470.582 -1268.28 470.557 -1268.13 470.533L-1266.54 373.106L-1303.4 367.504ZM-1306.64 370.566C-1307.04 370.666 -1307.46 370.691 -1307.84 370.666L-1324.36 459.304L-1271.74 473.396C-1271.39 472.4 -1270.67 471.578 -1269.72 471.055L-1306.64 370.566ZM-1271.22 477.405L-1389.89 534.919C-1389.84 535.044 -1389.81 535.193 -1389.76 535.343C-1389.76 535.392 -1389.74 535.442 -1389.74 535.492L-1295.96 529.815L-1270.05 478.55C-1270.49 478.226 -1270.89 477.853 -1271.22 477.405ZM-1273.61 477.305L-1326.9 492.294C-1326.58 494.534 -1328.02 496.676 -1330.24 497.174C-1331.83 497.547 -1333.43 496.975 -1334.45 495.829L-1387.67 532.604L-1273.61 477.305ZM-1334.2 489.754L-1360.24 453.602C-1360.54 453.751 -1360.88 453.876 -1361.23 453.975C-1361.88 454.125 -1362.55 454.1 -1363.18 453.975L-1371.51 476.633L-1335.07 490.825C-1334.82 490.426 -1334.55 490.053 -1334.2 489.754ZM-1364.22 453.577C-1365.32 453.004 -1366.16 451.983 -1366.46 450.689C-1366.51 450.44 -1366.54 450.191 -1366.56 449.967L-1457.3 443.07C-1457.3 443.12 -1457.33 443.169 -1457.33 443.219L-1372.54 476.234L-1364.22 453.577ZM-1457.3 441.202C-1457.25 441.451 -1457.23 441.7 -1457.2 441.949L-1366.46 448.846C-1366.29 448.05 -1365.91 447.303 -1365.34 446.73L-1400.77 403.083L-1457.65 440.281C-1457.5 440.555 -1457.38 440.879 -1457.3 441.202ZM-1400.54 401.589L-1373.68 384.011C-1373.83 383.713 -1373.93 383.414 -1374 383.09C-1374.13 382.492 -1374.15 381.92 -1374.05 381.347L-1429.37 363.918C-1429.57 364.342 -1429.84 364.74 -1430.17 365.089L-1400.54 401.589ZM-1429.05 361.105C-1428.92 361.702 -1428.9 362.275 -1429 362.848L-1373.68 380.277C-1373.38 379.629 -1372.93 379.081 -1372.39 378.658L-1396.26 340.19L-1429.32 360.308C-1429.22 360.557 -1429.12 360.831 -1429.05 361.105ZM-1395.91 338.647L-1371.81 323.982C-1371.91 323.733 -1372.01 323.459 -1372.09 323.185C-1372.24 322.513 -1372.21 321.84 -1372.06 321.218L-1414.96 304.91C-1415.23 305.408 -1415.6 305.856 -1416.05 306.229L-1395.91 338.647ZM-1414.56 301.872C-1414.41 302.544 -1414.43 303.217 -1414.58 303.839L-1374.18 319.201L-1416.9 294.552L-1417.57 298.66C-1416.1 299.108 -1414.91 300.303 -1414.56 301.872ZM-1371.29 319.575C-1370.79 318.927 -1370.1 318.404 -1369.27 318.106L-1398.08 184.004L-1398.4 183.755C-1398.5 183.755 -1398.62 183.755 -1398.72 183.755L-1416.65 293.382L-1371.29 319.575ZM-1368.18 317.882C-1367.78 317.857 -1367.38 317.857 -1367.01 317.931L-1338.5 230.315L-1395.59 182.56C-1396.01 182.958 -1396.48 183.282 -1397.06 183.481L-1368.18 317.882ZM-1338.16 229.169L-1331.53 208.827C-1332.7 208.28 -1333.6 207.209 -1333.92 205.864C-1334.07 205.192 -1334.05 204.545 -1333.92 203.922L-1350.93 197.623L-1394.74 181.39C-1394.79 181.489 -1394.84 181.589 -1394.92 181.688L-1338.16 229.169ZM-1327.03 208.379L-1296.66 261.96C-1296.43 261.861 -1296.21 261.786 -1295.99 261.736C-1294.89 261.487 -1293.79 261.686 -1292.87 262.184L-1279.26 241.494L-1326.46 207.856C-1326.63 208.056 -1326.83 208.205 -1327.03 208.379ZM-1292 262.857C-1291.4 263.429 -1290.98 264.176 -1290.78 265.023C-1290.68 265.496 -1290.66 265.969 -1290.71 266.442L-1222.9 282.377C-1222.82 282.202 -1222.75 282.028 -1222.67 281.854L-1278.38 242.166L-1292 262.857ZM-1223.04 284.867C-1223.14 284.393 -1223.17 283.92 -1223.12 283.472L-1291.01 267.737C-1291.11 267.961 -1291.23 268.185 -1291.35 268.384L-1247.91 305.906L-1222.52 286.111C-1222.77 285.738 -1222.95 285.315 -1223.04 284.867ZM-1247.07 306.652L-1215.88 333.592C-1215.4 333.094 -1214.8 332.721 -1214.13 332.497L-1218.91 288.253C-1220.03 288.228 -1221.1 287.755 -1221.87 286.983L-1247.07 306.652ZM-1174.97 383.912L-1210.45 340.34C-1210.85 340.589 -1211.29 340.788 -1211.77 340.888C-1214.11 341.435 -1216.45 339.941 -1217 337.601C-1217.12 337.053 -1217.12 336.53 -1217.05 336.008L-1261.23 321.417C-1261.26 321.442 -1261.26 321.467 -1261.28 321.517L-1174.97 383.912ZM-1264.74 471.628L-1175.35 389.439C-1175.67 388.991 -1175.89 388.468 -1176.04 387.895C-1176.12 387.547 -1176.14 387.198 -1176.14 386.825L-1265.44 373.28L-1267.01 470.558C-1266.16 470.682 -1265.39 471.055 -1264.74 471.628ZM-1239.95 523.167L-1266.04 478.923C-1266.24 478.998 -1266.46 479.073 -1266.68 479.122C-1267.48 479.297 -1268.3 479.247 -1269.02 478.998L-1294.64 529.716L-1241.82 526.504C-1241.74 525.159 -1241.04 523.914 -1239.95 523.167ZM-1345.57 631.201L-1240.82 529.541C-1241.24 529.019 -1241.57 528.396 -1241.74 527.699C-1241.74 527.674 -1241.74 527.649 -1241.77 527.624L-1295.26 530.861L-1345.82 631.027C-1345.75 631.076 -1345.65 631.151 -1345.57 631.201ZM-1349.61 630.479C-1349.48 630.454 -1349.38 630.404 -1349.26 630.379C-1348.44 630.18 -1347.59 630.255 -1346.84 630.529L-1296.53 530.961L-1389.66 536.612C-1389.76 538.007 -1390.51 539.252 -1391.68 539.999L-1349.61 630.479ZM-1390.78 533.376L-1335.09 494.933C-1335.27 494.609 -1335.39 494.261 -1335.47 493.912C-1335.62 493.215 -1335.59 492.543 -1335.44 491.895L-1371.86 477.703L-1392 532.43C-1391.53 532.679 -1391.13 532.977 -1390.78 533.376ZM-1396.09 532.454C-1395.74 532.28 -1395.39 532.131 -1394.99 532.031C-1394.34 531.882 -1393.67 531.882 -1393.05 532.031L-1372.93 477.28L-1457.75 444.265C-1457.97 444.663 -1458.25 445.037 -1458.6 445.361L-1396.09 532.454ZM-1434.22 366.334L-1459.59 438.265C-1459.07 438.513 -1458.62 438.887 -1458.25 439.31L-1401.49 402.212L-1431.04 365.811C-1431.44 366.06 -1431.88 366.234 -1432.36 366.358C-1432.98 366.483 -1433.63 366.483 -1434.22 366.334ZM-1431.73 358.018C-1431.01 358.291 -1430.39 358.764 -1429.92 359.362L-1396.88 339.244L-1417.02 306.827C-1417.3 306.951 -1417.57 307.051 -1417.87 307.101C-1418.37 307.2 -1418.84 307.225 -1419.31 307.175L-1431.73 358.018ZM-1421.98 299.855C-1421.4 299.258 -1420.66 298.81 -1419.79 298.61C-1419.41 298.536 -1419.04 298.486 -1418.66 298.511L-1417.92 293.979L-1476.3 260.267L-1421.98 299.855ZM-1481.12 256.159L-1417.72 292.784L-1399.84 183.581C-1400.47 183.406 -1401.01 183.083 -1401.49 182.659L-1481.52 252.076C-1481.25 252.499 -1481.03 252.997 -1480.9 253.52C-1480.68 254.416 -1480.8 255.337 -1481.12 256.159ZM-1482.25 251.229L-1402.23 181.813C-1402.48 181.439 -1402.68 181.016 -1402.81 180.568L-1467.86 189.805L-1483.54 250.432C-1483.07 250.607 -1482.62 250.88 -1482.25 251.229ZM-1505.52 198.719L-1486.13 250.233H-1486.1C-1485.61 250.109 -1485.08 250.109 -1484.61 250.158L-1469.05 189.979L-1503.21 194.835C-1503.21 196.453 -1504.1 197.972 -1505.52 198.719ZM-1457.67 142.001L-1504.23 192.096C-1503.85 192.569 -1503.55 193.117 -1503.38 193.714L-1468.75 188.784L-1456.78 142.474C-1457.1 142.349 -1457.4 142.2 -1457.67 142.001ZM-1454.19 142.698C-1454.71 142.822 -1455.21 142.822 -1455.68 142.772L-1467.53 188.635L-1403.75 179.572L-1452.1 141.577C-1452.65 142.1 -1453.37 142.523 -1454.19 142.698ZM-1450.8 138.863C-1450.88 139.511 -1451.08 140.133 -1451.4 140.656L-1402.93 178.75C-1402.68 177.007 -1401.39 175.514 -1399.57 175.115C-1397.8 174.717 -1396.01 175.464 -1395.04 176.858L-1314.16 134.531L-1450.8 138.863ZM-1394.52 177.879C-1394.44 178.053 -1394.39 178.227 -1394.34 178.427C-1394.29 178.601 -1394.27 178.8 -1394.27 178.974L-1321.6 181.489L-1312.52 134.954L-1394.52 177.879ZM-1311.35 134.905L-1320.46 181.539L-1245.6 184.128C-1245.52 183.655 -1245.35 183.182 -1245.13 182.759L-1311.35 134.905ZM-1245.4 186.319L-1325.34 204.47C-1325.26 205.342 -1325.44 206.188 -1325.83 206.935L-1278.68 240.548L-1244.18 188.137C-1244.7 187.639 -1245.13 187.041 -1245.4 186.319ZM-1243.21 188.735L-1277.74 241.195L-1222 280.933C-1221.55 280.435 -1220.95 280.061 -1220.31 279.812L-1240.89 189.183C-1241.72 189.232 -1242.51 189.083 -1243.21 188.735ZM-1239.8 188.909L-1219.21 279.538C-1218.79 279.489 -1218.39 279.513 -1217.99 279.588L-1193.84 205.74L-1237.53 187.017C-1238.03 187.888 -1238.83 188.56 -1239.8 188.909ZM-1179.26 154.35L-1237.16 183.381C-1237.11 183.531 -1237.06 183.68 -1237.04 183.854C-1236.86 184.601 -1236.89 185.323 -1237.09 186.021L-1193.47 204.694L-1177.51 155.844C-1178.21 155.52 -1178.83 154.997 -1179.26 154.35ZM-1174.67 156.168C-1175.27 156.317 -1175.87 156.317 -1176.44 156.193L-1192.45 205.118L-1123.29 234.746C-1123.07 234.398 -1122.77 234.099 -1122.45 233.825L-1131.83 219.583L-1173.73 155.844C-1174.03 155.968 -1174.35 156.093 -1174.67 156.168ZM-1172.81 155.221L-1131.33 218.314L-1121.53 233.253C-1121.28 233.128 -1121 233.028 -1120.7 232.979C-1119.88 232.804 -1119.06 232.854 -1118.34 233.103L-1099.42 199.764L-1172.31 154.649C-1172.43 154.848 -1172.61 155.047 -1172.81 155.221ZM-1171.69 153.703L-1098.85 198.793L-1082.62 170.185C-1083.44 169.588 -1084.06 168.691 -1084.31 167.621C-1084.38 167.297 -1084.41 166.949 -1084.41 166.625L-1171.49 153.105C-1171.51 153.329 -1171.59 153.528 -1171.69 153.703ZM-1171.29 152.01L-1084.23 165.529C-1083.84 164.011 -1082.62 162.766 -1081 162.417C-1080.47 162.293 -1079.98 162.293 -1079.48 162.342L-1067.83 117.625L-1171.29 151.512C-1171.29 151.686 -1171.29 151.835 -1171.29 152.01ZM-1045.55 27.394L-1169.3 149.669L-1067.5 116.331L-1044.5 27.9916C-1044.88 27.8422 -1045.22 27.643 -1045.55 27.394ZM-1043.41 28.2655L-1066.23 115.907L-1025.03 102.412C-1025.41 100.396 -1024.31 98.3788 -1022.47 97.607L-1042.21 28.2655C-1042.61 28.3153 -1043.01 28.3153 -1043.41 28.2655ZM-1039.37 26.5475C-1039.82 27.1451 -1040.42 27.643 -1041.14 27.9667L-1021.4 97.3083C-1019.16 96.9846 -1017.02 98.4037 -1016.5 100.645C-1016.47 100.744 -1016.45 100.844 -1016.45 100.943L-912.462 98.7772C-912.412 98.3788 -912.313 98.0054 -912.164 97.632L-1039.37 26.5475ZM-912.388 100.246C-912.412 100.147 -912.437 100.047 -912.437 99.9226L-1016.42 102.089C-1016.5 102.786 -1016.74 103.458 -1017.12 104.031L-961.853 152.059L-911.591 101.939C-911.964 101.441 -912.238 100.869 -912.388 100.246ZM-910.794 102.711L-961.006 152.781L-916.42 191.523C-915.923 191.125 -915.325 190.826 -914.678 190.677C-914.379 190.602 -914.055 190.577 -913.757 190.577L-908.952 103.533C-909.599 103.433 -910.247 103.134 -910.794 102.711ZM-907.16 103.533C-907.384 103.583 -907.583 103.607 -907.807 103.632L-912.612 190.751C-912.537 190.776 -912.437 190.801 -912.363 190.826L-880.946 112.646L-904.446 101.641C-905.044 102.537 -905.99 103.259 -907.16 103.533ZM-868.673 43.3787C-869.046 43.6028 -869.47 43.7522 -869.893 43.8766C-870.864 44.1008 -871.834 43.9763 -872.681 43.5779L-905.342 95.9139C-905.293 95.9637 -905.218 96.0135 -905.168 96.0634L-861.454 58.9401C-861.727 58.5168 -861.927 58.0438 -862.051 57.5458C-862.4 56.027 -861.902 54.5331 -860.881 53.5123L-868.673 43.3787ZM-867.777 42.6816L-859.985 52.7653C-859.611 52.5413 -859.188 52.3918 -858.74 52.2674C-857.595 52.0184 -856.45 52.2176 -855.529 52.7902L-847.289 42.4077L-866.582 40.5652C-866.806 41.3868 -867.204 42.1089 -867.777 42.6816ZM-819.78 7.2265L-866.93 37.7268C-866.806 38.0256 -866.681 38.3244 -866.607 38.6481C-866.557 38.9219 -866.507 39.1958 -866.507 39.4697L-846.492 41.3868L-819.581 7.45056C-819.656 7.37592 -819.731 7.30115 -819.78 7.2265ZM-815.498 8.67059C-816.644 8.91956 -817.789 8.7204 -818.71 8.14771L-845.148 41.5114L-741.712 51.3959C-741.637 51.1221 -741.562 50.8481 -741.438 50.5992L-813.034 7.12689C-813.656 7.87384 -814.503 8.42157 -815.498 8.67059ZM-711.067 8.67059C-711.116 8.49628 -711.141 8.32202 -711.141 8.14771L-812.138 5.11017C-812.163 5.20972 -812.188 5.30933 -812.212 5.43378L-727.845 37.4031L-709.722 10.9861C-710.369 10.3885 -710.867 9.5918 -711.067 8.67059ZM-704.644 11.509C-705.017 11.7081 -705.415 11.8824 -705.839 11.9821C-706.884 12.2061 -707.905 12.0568 -708.776 11.6086L-726.75 37.8015L-670.514 59.1144C-670.314 58.6414 -670.041 58.1932 -669.692 57.8197L-704.644 11.509ZM-670.763 61.7287C-670.787 61.5793 -670.812 61.4299 -670.837 61.2805L-733.247 53.4874C-733.397 54.085 -733.695 54.6327 -734.069 55.1307L-693.242 97.7067L-669.194 64.2185C-669.966 63.5961 -670.538 62.7495 -670.763 61.7287ZM-666.68 65.1149C-667.227 65.09 -667.725 64.9655 -668.223 64.7662L-692.445 98.5034L-664.34 127.809C-663.917 127.535 -663.419 127.311 -662.896 127.186C-662.697 127.136 -662.497 127.111 -662.323 127.087L-666.68 65.1149ZM-662.498 62.4756C-663.02 63.7205 -664.116 64.6916 -665.535 65.0153H-665.56L-661.178 127.136C-660.755 127.211 -660.357 127.336 -659.983 127.535L-626.326 77.2403C-627.944 76.1448 -628.666 74.128 -628.069 72.2607L-662.498 62.4756ZM-662.074 60.3344L-662.249 59.8115C-662.124 60.3593 -662.124 60.907 -662.199 61.4299L-627.571 71.2647C-626.376 69.4222 -623.936 68.7002 -621.92 69.7459C-621.795 69.8206 -621.671 69.8704 -621.546 69.9451L-615.248 60.7328L-603.249 42.8309C-603.423 42.6567 -603.573 42.4824 -603.722 42.2832C-603.871 42.1089 -603.996 41.9346 -604.095 41.7603L-662.074 60.3344ZM-521.695 42.6069L-595.88 40.3909C-595.955 40.8391 -596.079 41.2624 -596.303 41.6857C-596.552 42.1836 -596.901 42.6069 -597.299 42.9554L-584.653 61.4299L-521.645 42.8558C-521.67 42.7563 -521.67 42.6816 -521.695 42.6069ZM-521.346 43.9265L-584.005 62.4009L-561.202 95.7397C-560.007 95.1421 -558.539 95.0674 -557.219 95.7397H-557.194L-520.674 44.9722C-520.948 44.6734 -521.172 44.3248 -521.346 43.9265ZM-517.811 46.5159C-518.334 46.4661 -518.832 46.3167 -519.33 46.0677C-519.504 45.9681 -519.678 45.8685 -519.828 45.7689L-556.273 96.4119C-555.875 96.7605 -555.551 97.2087 -555.302 97.6569L-514.948 87.1747L-517.811 46.5159ZM-452.787 60.2348L-513.156 43.5032C-513.231 43.7273 -513.305 43.9514 -513.43 44.1505C-514.102 45.4702 -515.322 46.2918 -516.691 46.491L-513.828 86.9008L-434.39 66.285C-434.39 65.9863 -434.34 65.6626 -434.266 65.3638L-452.787 60.2348ZM-434.241 67.4304L-513.729 88.0461L-509.546 147.329C-508.949 147.354 -508.376 147.503 -507.804 147.802C-507.605 147.901 -507.43 148.026 -507.256 148.126L-433.743 68.6255C-433.992 68.2769 -434.141 67.8536 -434.241 67.4304ZM-430.482 70.7419C-431.005 70.6921 -431.502 70.5427 -431.975 70.2937C-432.374 70.0945 -432.722 69.8206 -433.046 69.5219L-506.435 148.897C-506.036 149.37 -505.762 149.918 -505.588 150.516L-423.636 138.49L-430.482 70.7419ZM-428.366 70.468C-428.665 70.5925 -429.013 70.6921 -429.337 70.7419L-422.491 138.365L-395.007 134.332C-395.007 133.66 -394.858 132.987 -394.534 132.34C-394.211 131.718 -393.762 131.195 -393.24 130.821L-428.366 70.468ZM-392.642 138.216C-393.787 137.618 -394.584 136.598 -394.883 135.427L-422.391 139.461L-414.101 221.426C-413.977 221.426 -413.827 221.451 -413.678 221.451L-406.26 192.693L-392.244 138.39C-392.393 138.341 -392.518 138.291 -392.642 138.216ZM-389.232 138.465C-389.854 138.664 -390.501 138.739 -391.149 138.664L-405.264 193.316L-412.608 221.75C-412.483 221.799 -412.359 221.849 -412.259 221.899C-411.612 222.223 -411.089 222.696 -410.691 223.243L-361.823 196.901L-389.232 138.465ZM-360.827 196.353L-286.368 156.193C-286.542 155.67 -286.617 155.097 -286.567 154.524L-386.444 135.602C-386.518 135.851 -386.618 136.075 -386.717 136.324C-387.066 137.021 -387.589 137.594 -388.211 137.992L-360.827 196.353ZM-365.483 98.7274L-387.713 131.07C-386.742 131.942 -386.219 133.211 -386.269 134.506L-286.343 153.454C-286.268 153.279 -286.219 153.08 -286.119 152.906L-365.483 98.7274ZM-285.895 157.213L-360.354 197.374L-349.276 220.978C-348.206 220.654 -347.036 220.704 -345.965 221.252C-345.766 221.351 -345.592 221.476 -345.418 221.6L-285.771 157.437C-285.82 157.363 -285.87 157.288 -285.895 157.213ZM-284.202 158.782C-284.501 158.633 -284.75 158.458 -284.999 158.259L-344.596 222.347C-344.148 222.895 -343.849 223.517 -343.675 224.19L-272.776 217.791L-282.31 159.23C-282.958 159.23 -283.605 159.081 -284.202 158.782ZM-280.294 158.807C-280.593 158.931 -280.866 159.056 -281.19 159.131L-271.631 217.716L-244.048 215.226C-244.023 214.604 -243.873 214.006 -243.575 213.409C-243.326 212.936 -243.002 212.512 -242.629 212.164L-280.294 158.807ZM-222.514 141.154C-223.46 140.656 -224.157 139.884 -224.555 138.988L-277.904 154.226C-277.78 155.097 -277.904 156.018 -278.327 156.865C-278.601 157.388 -278.95 157.836 -279.373 158.209L-241.757 211.541C-240.986 211.143 -240.114 210.969 -239.218 211.068L-222.116 141.353C-222.24 141.279 -222.365 141.204 -222.514 141.154ZM-221.02 141.602L-238.123 211.317C-237.998 211.367 -237.849 211.417 -237.724 211.492C-237.401 211.666 -237.077 211.865 -236.828 212.114L-192.964 173.596L-218.307 141.03C-219.103 141.478 -220.049 141.702 -221.02 141.602ZM-128.139 115.409L-216.166 136.772C-216.066 137.594 -216.216 138.44 -216.614 139.237C-216.838 139.66 -217.087 140.009 -217.411 140.332L-192.093 172.849L-127.666 116.281C-127.866 116.007 -128.015 115.708 -128.139 115.409ZM-126.023 117.725C-126.347 117.55 -126.671 117.351 -126.92 117.102L-191.396 173.721L-150.943 225.708C-150.171 225.26 -149.275 225.036 -148.354 225.111L-125.476 117.949C-125.675 117.899 -125.874 117.824 -126.023 117.725ZM-123.758 118.198C-123.982 118.223 -124.181 118.223 -124.405 118.198L-147.283 225.36C-147.109 225.434 -146.935 225.484 -146.76 225.584C-146.561 225.684 -146.362 225.808 -146.188 225.932L-109.991 187.539L-123.758 118.198ZM-122.065 120.912L-108.996 186.543L-103.867 181.116C-104.938 179.796 -105.187 177.954 -104.39 176.36C-103.967 175.514 -103.295 174.866 -102.498 174.468L-122.065 120.912ZM-100.805 182.734C-101.378 182.684 -101.95 182.535 -102.473 182.261C-102.672 182.161 -102.872 182.037 -103.046 181.912L-108.722 187.913L-97.0713 246.498L-100.805 182.734ZM-96.7227 180.543C-97.3699 181.688 -98.4902 182.41 -99.6851 182.634L-95.7268 250.208C-95.1543 250.258 -94.5818 250.407 -94.059 250.681C-92.7893 251.329 -91.9927 252.499 -91.7438 253.794L35.2177 237.834C35.1927 237.286 35.2675 236.713 35.4667 236.166L-96.7227 180.543ZM35.4169 238.929L-91.6691 254.914C-91.694 255.113 -91.7189 255.287 -91.7687 255.487L-19.774 273.911L6.31531 280.584C6.36511 280.46 6.41492 280.335 6.4895 280.211C7.58496 278.069 10.1738 277.198 12.3397 278.269L37.0101 241.145C36.2384 240.598 35.6907 239.801 35.4169 238.929ZM38.0057 241.718L13.2856 278.916C14.1321 279.663 14.6549 280.709 14.7794 281.804L46.8433 282.825L40.0471 241.992C39.375 242.067 38.678 241.967 38.0057 241.718ZM40.8188 176.858L40.2214 233.277C40.6945 233.352 41.1674 233.477 41.5906 233.701C43.7563 234.796 44.6029 237.435 43.5076 239.602C43.2585 240.1 42.91 240.523 42.5366 240.871L67.2816 280.534C67.3065 280.534 67.3562 280.509 67.3811 280.509L40.8188 176.858ZM42.7607 176.136C42.4868 176.31 42.213 176.46 41.9142 176.584L68.4518 280.236C69.2981 280.136 70.1693 280.26 70.9659 280.684C71.1154 280.758 71.2648 280.833 71.3893 280.933L103.08 244.083L42.7607 176.136ZM166.436 166.824L44.6527 172.849C44.6029 173.397 44.4535 173.97 44.1797 174.493C44.0055 174.816 43.8062 175.115 43.5822 175.389L103.802 243.212L167.506 169.14C166.934 168.467 166.561 167.671 166.436 166.824ZM168.776 170.086C168.627 170.011 168.502 169.936 168.353 169.837L104.573 244.033L129.418 272.019C130.389 271.347 131.634 271.098 132.804 271.372L168.851 170.111C168.826 170.111 168.801 170.111 168.776 170.086ZM169.921 170.484L133.874 271.745C134.248 271.944 134.571 272.168 134.87 272.442L204.549 214.654L172.983 169.961C172.062 170.509 170.992 170.683 169.921 170.484ZM180.402 111.127L172.112 162.044C172.336 162.118 172.535 162.193 172.759 162.293C173.506 162.666 174.079 163.239 174.502 163.886L226.83 141.204L183.987 109.732C183.065 110.728 181.746 111.226 180.402 111.127ZM331.337 95.5654L185.182 106.745C185.182 107.417 185.032 108.089 184.708 108.737C184.684 108.761 184.684 108.786 184.659 108.811L228.025 140.681L331.411 95.889C331.361 95.7645 331.337 95.665 331.337 95.5654ZM333.627 98.5781C332.855 98.1797 332.258 97.6071 331.859 96.9099L229.095 141.453L304.6 196.926C305.571 195.905 306.965 195.432 308.334 195.606L333.975 98.7274C333.851 98.6776 333.726 98.6279 333.627 98.5781Z" fill="url(#paint0_linear_7773_385)"/>
<defs>
<linearGradient id="paint0_linear_7773_385" x1="-1134.15" y1="319.517" x2="100.582" y2="319.517" gradientUnits="userSpaceOnUse">
<stop stop-color="#B6FBFF"/>
<stop offset="0.1801" stop-color="#8ECAE5"/>
<stop offset="0.486" stop-color="#4570B4"/>
<stop offset="0.9994" stop-color="#B6FBFF"/>
</linearGradient>
</defs>
</svg>
