<svg width="100" height="123" viewBox="0 0 100 123" fill="none" xmlns="http://www.w3.org/2000/svg">
<path d="M25.0504 78.9423C25.0504 76.9103 23.6404 75.6985 21.1526 75.6985C20.1367 75.6985 19.4487 75.7987 19.0889 75.8947V82.4142C19.515 82.5102 20.0388 82.5421 20.7608 82.5421C23.4125 82.5421 25.0504 81.2024 25.0504 78.9423Z" fill="#18A0FB"/>
<path d="M40.4513 75.7667C39.3372 75.7667 38.6172 75.8629 38.1914 75.9626V90.4016C38.6175 90.5016 39.3055 90.5016 39.9275 90.5016C44.4471 90.5336 47.3947 88.0458 47.3947 82.7743C47.4267 78.1903 44.7407 75.7667 40.4513 75.7667Z" fill="#18A0FB"/>
<path d="M69.0646 0.22168H19.9211C12.7417 0.22168 6.89848 6.06899 6.89848 13.2443V61.3998H5.62654C2.7289 61.3998 0.378906 63.7476 0.378906 66.6477V98.4726C0.378906 101.373 2.72864 103.72 5.62654 103.72H6.89848V109.556C6.89848 116.739 12.7417 122.578 19.9211 122.578H86.9753C94.1501 122.578 99.9941 116.739 99.9941 109.556V31.0428L69.0646 0.22168ZM14.1456 72.391C15.6835 72.1311 17.8452 71.9352 20.8908 71.9352C23.9686 71.9352 26.1623 72.5227 27.6363 73.7028C29.0442 74.8148 29.9944 76.6504 29.9944 78.8106C29.9944 80.9702 29.2744 82.8063 27.9644 84.0501C26.2605 85.654 23.7408 86.374 20.7931 86.374C20.1371 86.374 19.5491 86.3415 19.0892 86.2778V94.1693H14.1456V72.391ZM86.9753 114.603H19.9211C17.1412 114.603 14.8775 112.339 14.8775 109.556V103.72H77.3858C80.2839 103.72 82.6336 101.373 82.6336 98.4726V66.6477C82.6336 63.7476 80.2839 61.3998 77.3858 61.3998H14.8775V13.2443C14.8775 10.4685 17.1415 8.2048 19.9211 8.2048L66.0809 8.15658V25.2189C66.0809 30.2026 70.1246 34.2501 75.1122 34.2501L91.8265 34.2021L92.0146 109.555C92.0146 112.339 89.7549 114.603 86.9753 114.603ZM33.1821 94.0693V72.391C35.0156 72.0992 37.4055 71.9352 39.9275 71.9352C44.1189 71.9352 46.8369 72.6872 48.9666 74.2908C51.2585 75.9947 52.6982 78.7106 52.6982 82.6099C52.6982 86.8335 51.1603 89.7495 49.0303 91.549C46.7065 93.4808 43.169 94.3969 38.8474 94.3969C36.2594 94.3969 34.4259 94.233 33.1821 94.0693ZM68.921 81.2344V85.2939H60.9955V94.1693H55.9859V72.0992H69.4767V76.1906H60.9955V81.2344H68.921Z" fill="#18A0FB"/>
</svg>
