<svg width="45" height="45" viewBox="0 0 45 45" fill="none" xmlns="http://www.w3.org/2000/svg">
<path fill-rule="evenodd" clip-rule="evenodd" d="M22.9334 0.512695C10.8005 0.512695 0.933594 10.382 0.933594 22.5129C0.933594 34.6437 10.8005 44.5127 22.9334 44.5127C35.0623 44.5127 44.9332 34.6438 44.9332 22.5129C44.9332 10.3819 35.0623 0.512695 22.9334 0.512695Z" fill="#18A0FB"/>
<path fill-rule="evenodd" clip-rule="evenodd" d="M13.2196 31.3645V19.6248L22.3486 25.8826C22.523 26.003 22.7297 26.063 22.9324 26.063C23.135 26.063 23.3378 26.003 23.5162 25.8826L32.6412 19.6248V31.3645H13.2196ZM22.9324 12.1298L14.0668 17.7049L22.9324 23.7814L31.798 17.7049L22.9324 12.1298ZM34.2221 16.7949L23.4796 10.0385C23.1471 9.82767 22.7175 9.82767 22.3851 10.0385L11.6426 16.7949C11.3426 16.983 11.1602 17.313 11.1602 17.6677V32.3958C11.1602 32.9657 11.6182 33.4271 12.1899 33.4271H33.6748C34.2424 33.4271 34.7045 32.9657 34.7045 32.3958V17.6677C34.7045 17.3129 34.5221 16.9829 34.2221 16.7949Z" fill="white"/>
</svg>
