<svg width="139" height="80" viewBox="0 0 139 80" fill="none" xmlns="http://www.w3.org/2000/svg">
<path d="M59.0781 0.42627V14.2171H64.1152V5.46335H133.19V74.5367H64.1152V66.9821H59.0781V79.5737H138.227V0.42627H59.0781Z" fill="#18A0FB"/>
<path d="M40.7998 43.2608V43.1621H39.1547L35.5829 50.8205V43.1621H34.0693V60.2072H35.5829V52.0166L39.5144 60.2072H41.18L36.9444 51.3743L40.7998 43.2608Z" fill="#2B2A29"/>
<path d="M43.7944 60.2074H45.2967L47.4104 46.8327L47.7361 44.3614H49.6751V60.2074H51.1024L51.1137 43.2178H46.5503L43.7944 60.2074Z" fill="#2B2A29"/>
<path d="M56.5915 55.0782L58.0938 45.8425L59.5858 55.0782H56.5915ZM60.3811 60.2077H61.8834L58.8654 43.1523H57.3755L54.335 60.1635V60.2077H55.7961L56.3942 56.4181H59.781L60.3811 60.2077Z" fill="#2B2A29"/>
<path d="M66.0983 43.5012C65.8733 43.7252 65.7603 44.016 65.7603 44.3715V58.9988C65.7603 59.3533 65.8733 59.6451 66.0983 59.8702C66.3234 60.0942 66.6141 60.2072 66.9697 60.2072H71.3584C71.7139 60.2072 72.0078 60.0942 72.24 59.8702C72.4722 59.6451 72.5894 59.3533 72.5894 58.9988V54.6748H71.0645V58.8673H67.2749V44.5031H71.0645V48.3369H72.5894V44.3715C72.5894 44.016 72.4722 43.7252 72.24 43.5012C72.0078 43.2762 71.7139 43.1621 71.3584 43.1621H66.9697C66.6141 43.1621 66.3234 43.2762 66.0983 43.5012Z" fill="#2B2A29"/>
<path d="M76.1284 44.5031H78.7857V60.2072H80.2993V44.5031H82.9349V43.1621H76.1284V44.5031Z" fill="#2B2A29"/>
<path d="M86.5405 60.2072H92.1366L92.0729 58.8447L88.0531 58.8673V52.2241H91.7132V50.8636H88.0531V44.5031H92.0729V43.1621H86.5405V60.2072Z" fill="#2B2A29"/>
<path d="M101.569 52.0926H97.8447V44.5031H101.569V52.0926ZM96.3291 43.1621V60.2072H97.8447V53.4438H101.861C102.217 53.4438 102.512 53.3298 102.739 53.0996C102.968 52.8725 103.082 52.5807 103.082 52.2231V44.3715C103.082 44.017 102.968 43.7252 102.739 43.5012C102.512 43.2751 102.217 43.1621 101.861 43.1621H96.3291Z" fill="#2B2A29"/>
<path d="M121.794 12.1546V11.1538H117.658V23.8945H121.843L121.794 22.8772L118.79 22.8947V17.9275H121.525V16.9102H118.79V12.1546H121.794Z" fill="#2B2A29"/>
<path d="M119.962 28.2165L121.077 35.1206H118.839L119.962 28.2165ZM117.152 38.9555H118.244L118.692 36.1215H121.224L121.671 38.9555H122.794L120.54 26.2056H119.424L117.152 38.9216V38.9555Z" fill="#2B2A29"/>
<path d="M122.908 41.2739H122.062L118.725 50.4808V41.2739H117.658V54.0156H118.439L121.843 44.6453V54.0156H122.908V41.2739Z" fill="#2B2A29"/>
<path d="M122.762 60.2012V57.2377C122.762 56.9715 122.676 56.7547 122.502 56.5862C122.327 56.4187 122.109 56.3345 121.843 56.3345H118.561C118.296 56.3345 118.078 56.4187 117.91 56.5862C117.742 56.7547 117.658 56.9715 117.658 57.2377V68.1709C117.658 68.437 117.742 68.6549 117.91 68.8224C118.078 68.9899 118.296 69.0751 118.561 69.0751H121.843C122.109 69.0751 122.327 68.9899 122.502 68.8224C122.676 68.6549 122.762 68.437 122.762 68.1709V64.9392H121.623V68.0733H118.79V57.3343H121.623V60.2012H122.762Z" fill="#2B2A29"/>
<path d="M6.08824 37.2213H1.9174V22.856H6.08824V37.2213ZM6.38213 21.5161H1.61221C1.25668 21.5161 0.965881 21.6281 0.740847 21.8542C0.515812 22.0782 0.403809 22.37 0.403809 22.7245V37.3528C0.403809 37.7083 0.515812 37.9981 0.740847 38.2242C0.965881 38.4492 1.25668 38.5622 1.61221 38.5622H6.38213C6.73766 38.5622 7.02949 38.4492 7.25863 38.2242C7.48778 37.9981 7.60184 37.7083 7.60184 37.3528V22.7245C7.60184 22.37 7.48778 22.0782 7.25863 21.8542C7.02949 21.6281 6.73766 21.5161 6.38213 21.5161Z" fill="#2B2A29"/>
<path d="M17.3923 30.4466H13.6684V22.856H17.3923V30.4466ZM17.6862 21.5161H12.1538V38.5622H13.6684V31.7978H17.6862C18.0417 31.7978 18.3356 31.6838 18.5637 31.4546C18.7918 31.2255 18.9059 30.9337 18.9059 30.5771V22.7245C18.9059 22.37 18.7918 22.0782 18.5637 21.8542C18.3356 21.6281 18.0417 21.5161 17.6862 21.5161Z" fill="#2B2A29"/>
<path d="M27.3331 24.244L26.0497 30.7783L23.8836 21.5601H22.3916L25.5072 33.5393L24.456 38.8888H25.8483L28.7892 23.8957L29.307 21.5601H27.8582L27.3331 24.244Z" fill="#2B2A29"/>
<path d="M40.8082 29.7294L44.6626 21.6148V21.5161H43.0185L39.4457 29.1724V21.5161H37.9331V29.1724C37.3372 27.888 36.7412 26.6118 36.1462 25.3448C35.5513 24.0778 34.9553 22.8026 34.3603 21.5161H32.7152V21.6148C33.3615 22.9722 34.0038 24.3244 34.6429 25.6715C35.282 27.0176 35.9243 28.3699 36.5706 29.7294C35.8585 31.2101 35.1526 32.6815 34.4518 34.1448C33.752 35.607 33.0451 37.0795 32.334 38.5612H34.0007C34.6614 37.1812 35.316 35.8094 35.9664 34.4438C36.6158 33.0792 37.2714 31.7064 37.9331 30.3274V38.5612H39.4457V30.3274L43.3781 38.5612H45.0438L40.8082 29.7294Z" fill="#2B2A29"/>
<path d="M54.3229 37.1997L50.3041 37.2213V30.5771H53.9632V29.2156H50.3041V22.856H54.3229V21.5161H48.7905V38.5622H54.3876L54.3229 37.1997Z" fill="#2B2A29"/>
<path d="M60.2896 18.9688V20.0898C60.2896 20.6272 60.5947 20.8954 61.2051 20.8954H63.1986C63.8089 20.8954 64.1131 20.6272 64.1131 20.0898V18.9688H63.0773V20.058H61.3356V18.9688H60.2896Z" fill="#2B2A29"/>
<path d="M64.1777 26.0261V38.5622H65.6049V21.5161H64.4715L60.0078 33.8334V21.5161H58.5806V38.5622H59.6266L64.1777 26.0261Z" fill="#2B2A29"/>
<path d="M70.1582 21.5161V38.5622H71.6718V30.3716H75.7779V38.5622H77.2915V21.5161H75.7779V29.009H71.6718V21.5161H70.1582Z" fill="#2B2A29"/>
<path d="M89.8154 38.5622H91.2417V21.5161H89.8154V38.5622Z" fill="#2B2A29"/>
<path d="M87.0813 37.2213H83.3574V29.6307H87.0813V37.2213ZM81.8428 21.5161V38.5622H87.3762C87.7317 38.5622 88.0235 38.4492 88.2516 38.2242C88.4808 37.9981 88.5959 37.7083 88.5959 37.3528V29.5002C88.5959 29.1447 88.4808 28.8518 88.2516 28.6237C88.0235 28.3946 87.7317 28.2795 87.3762 28.2795H83.3574V21.5161H81.8428Z" fill="#2B2A29"/>
<path d="M97.3071 18.9688V20.0898C97.3071 20.6272 97.6123 20.8954 98.2227 20.8954H100.216C100.827 20.8954 101.131 20.6272 101.131 20.0898V18.9688H100.095V20.058H98.3522V18.9688H97.3071Z" fill="#2B2A29"/>
<path d="M95.5986 21.5161V38.5622H96.6447L101.196 26.0261V38.5622H102.622V21.5161H101.49L97.0249 33.8344V21.5161H95.5986Z" fill="#2B2A29"/>
</svg>
