<svg width="45" height="46" viewBox="0 0 45 46" fill="none" xmlns="http://www.w3.org/2000/svg">
<path d="M22.9316 45.0503C35.0819 45.0503 44.9316 34.9767 44.9316 22.5503C44.9316 10.1239 35.0819 0.050293 22.9316 0.050293C10.7814 0.050293 0.931641 10.1239 0.931641 22.5503C0.931641 34.9767 10.7814 45.0503 22.9316 45.0503Z" fill="#18A0FB"/>
<path d="M33.9316 27.2022C31.5584 27.2022 29.2951 26.6734 27.2079 25.63C26.8806 25.4697 26.5011 25.4444 26.1546 25.5653C25.8081 25.689 25.5249 25.9478 25.3654 26.2825L24.3754 28.3778C21.4054 26.634 18.9414 24.1112 17.2336 21.0737L19.2851 20.0612C19.6151 19.8981 19.8654 19.6084 19.9864 19.254C20.1046 18.8997 20.0826 18.5115 19.9231 18.1769C18.9001 16.045 18.3831 13.7303 18.3831 11.3003C18.3831 10.524 17.7671 9.89404 17.0081 9.89404H11.9316C11.1726 9.89404 10.5566 10.524 10.5566 11.3003C10.5566 24.4825 21.0424 35.2065 33.9316 35.2065C34.6906 35.2065 35.3066 34.5765 35.3066 33.8003V28.6084C35.3066 27.8322 34.6906 27.2022 33.9316 27.2022Z" fill="#FAFAFA"/>
</svg>
