<svg width="642" height="644" viewBox="0 0 642 644" fill="none" xmlns="http://www.w3.org/2000/svg">
<path d="M330.206 553.325C488.499 553.325 616.821 484.666 616.821 399.97C616.821 315.274 488.499 246.614 330.206 246.614C171.913 246.614 43.5918 315.274 43.5918 399.97C43.5918 484.666 171.913 553.325 330.206 553.325Z" fill="#F5F5F5"/>
<path d="M214.864 485.335L123.482 432.12L278.05 342.653L214.864 485.335Z" fill="#E0E0E0"/>
<path d="M82.9591 428.853L120.195 450.355C120.969 450.749 121.825 450.953 122.692 450.953C123.56 450.953 124.416 450.749 125.19 450.355L176.55 420.34C176.852 420.24 177.115 420.047 177.301 419.788C177.488 419.529 177.588 419.219 177.588 418.9C177.588 418.581 177.488 418.27 177.301 418.012C177.115 417.753 176.852 417.56 176.55 417.459L139.314 395.945C138.54 395.552 137.684 395.347 136.816 395.347C135.949 395.347 135.093 395.552 134.319 395.945L82.9591 425.96C82.6584 426.064 82.3976 426.259 82.213 426.518C82.0284 426.778 81.9292 427.088 81.9292 427.407C81.9292 427.725 82.0284 428.036 82.213 428.295C82.3976 428.554 82.6584 428.75 82.9591 428.853Z" fill="#E0E0E0"/>
<path d="M86.9909 425.51C84.4229 421.369 76.5006 416.816 66.1002 414.566C55.6998 412.315 45.2481 409.563 47.6363 403.481C50.2043 396.961 59.8857 396.639 69.3488 400.523C79.685 404.767 87.3248 415.26 87.466 421.87L86.9909 425.51Z" fill="#407BFF"/>
<g opacity="0.1">
<path d="M86.9909 425.51C84.4229 421.369 76.5006 416.816 66.1002 414.566C55.6998 412.315 45.2481 409.563 47.6363 403.481C50.2043 396.961 59.8857 396.639 69.3488 400.523C79.685 404.767 87.3248 415.26 87.466 421.87L86.9909 425.51Z" fill="black"/>
</g>
<path d="M87.7996 423.632C87.6533 423.631 87.5104 423.588 87.3876 423.508C87.2648 423.428 87.1672 423.315 87.1063 423.182C78.8502 406.078 59.7057 403.313 53.7223 404.252C53.5181 404.282 53.3106 404.229 53.1447 404.107C52.9788 403.984 52.868 403.801 52.8363 403.596C52.8199 403.496 52.8234 403.393 52.8469 403.294C52.8703 403.195 52.9131 403.101 52.9727 403.019C53.0324 402.936 53.1078 402.866 53.1946 402.813C53.2814 402.76 53.3778 402.725 53.4783 402.709C59.8213 401.732 79.9159 404.599 88.5572 422.513C88.6461 422.7 88.6582 422.913 88.5909 423.108C88.5236 423.303 88.3823 423.464 88.1977 423.555C88.0732 423.613 87.9366 423.639 87.7996 423.632Z" fill="white"/>
<path d="M86.991 425.51C86.991 425.51 82.0219 405.795 69.4259 395.199C65.6894 392.048 61.7219 388.1 58.9099 385.387C52.9265 379.548 55.4303 373.182 63.7121 373.311C76.0385 373.478 85.0521 383.869 88.9555 397.462C92.8589 411.055 86.991 425.51 86.991 425.51Z" fill="#407BFF"/>
<path d="M88.9556 417.858C88.7605 417.859 88.5721 417.787 88.4273 417.656C88.2824 417.525 88.1915 417.345 88.1723 417.151C85.8611 392.074 66.7552 379.471 61.555 378.133C61.3558 378.082 61.185 377.954 61.0803 377.777C60.9755 377.599 60.9454 377.388 60.9965 377.188C61.0475 376.989 61.1757 376.818 61.3527 376.713C61.5296 376.608 61.741 376.578 61.9402 376.629C68.2575 378.249 87.3506 391.328 89.726 417.009C89.7438 417.215 89.6796 417.42 89.5474 417.579C89.4151 417.738 89.2255 417.838 89.0198 417.858H88.9556Z" fill="white"/>
<path d="M121.454 447.192L86.3746 426.899L86.3618 351.539L121.454 371.832V447.192Z" fill="#263238"/>
<path d="M121.454 371.832L171.581 342.846V418.205L121.454 447.192V371.832Z" fill="#37474F"/>
<path d="M171.581 342.846L121.454 371.832L86.3618 351.539L136.502 322.553L171.581 342.846Z" fill="#455A64"/>
<path d="M143.115 370.906L149.933 366.958C150.819 366.444 151.538 366.675 151.538 367.486C151.473 367.978 151.294 368.448 151.015 368.859C150.736 369.27 150.366 369.61 149.933 369.852L143.115 373.8C142.229 374.314 141.51 374.083 141.51 373.273C141.575 372.78 141.754 372.31 142.033 371.899C142.311 371.488 142.682 371.148 143.115 370.906Z" fill="#263238"/>
<path d="M125.549 410.052L165.649 386.866L166.573 387.393L165.649 414.772L166.573 415.312L126.474 438.499L125.549 437.958V410.052Z" fill="#263238"/>
<path d="M126.474 410.58L166.573 387.393V415.312L126.474 438.499V410.58Z" fill="#455A64"/>
<path d="M142.19 406.22L149.008 402.285C149.894 401.77 150.613 402.002 150.613 402.799C150.549 403.293 150.37 403.766 150.092 404.179C149.813 404.592 149.442 404.934 149.008 405.178L142.19 409.126C141.304 409.641 140.585 409.396 140.585 408.599C140.651 408.105 140.83 407.634 141.109 407.221C141.387 406.808 141.757 406.465 142.19 406.22Z" fill="#263238"/>
<path d="M125.549 375.33L165.649 352.144L166.573 352.671L165.649 380.05L166.573 380.59L126.474 403.776L125.549 403.236V375.33Z" fill="#263238"/>
<path d="M126.474 375.857L166.573 352.671V380.59L126.474 403.777V375.857Z" fill="#455A64"/>
<path d="M142.19 371.498L149.008 367.563C149.894 367.048 150.613 367.28 150.613 368.077C150.549 368.571 150.37 369.044 150.092 369.457C149.813 369.87 149.442 370.212 149.008 370.456L142.19 374.404C141.304 374.918 140.585 374.674 140.585 373.877C140.651 373.383 140.83 372.911 141.109 372.499C141.387 372.086 141.757 371.743 142.19 371.498Z" fill="#263238"/>
<path d="M121.454 368.63L86.3746 348.337L86.3618 272.964L121.454 293.257V368.63Z" fill="#263238"/>
<path d="M121.454 293.257L171.581 264.271V339.643L121.454 368.63V293.257Z" fill="#37474F"/>
<path d="M171.581 264.271L121.454 293.258L86.3618 272.964L136.502 243.978L171.581 264.271Z" fill="#455A64"/>
<path d="M126.474 296.151L166.573 272.964L167.498 273.504V301.411L127.399 324.61L126.474 324.07V296.151Z" fill="#263238"/>
<path d="M143.115 292.331L149.933 288.383C150.819 287.869 151.538 288.113 151.538 288.911C151.472 289.404 151.292 289.876 151.014 290.289C150.736 290.702 150.365 291.044 149.933 291.29L143.115 295.225C142.229 295.739 141.51 295.508 141.51 294.711C141.574 294.216 141.752 293.744 142.031 293.331C142.31 292.918 142.681 292.576 143.115 292.331Z" fill="#263238"/>
<path d="M125.549 331.478L165.649 308.291V336.21L166.573 336.737L126.474 359.924L125.549 359.397V331.478Z" fill="#263238"/>
<path d="M126.474 332.018L166.573 308.818V336.737L126.474 359.924V332.018Z" fill="#455A64"/>
<path d="M142.19 327.658L149.008 323.71C149.894 323.195 150.613 323.427 150.613 324.237C150.548 324.729 150.369 325.2 150.09 325.611C149.812 326.021 149.441 326.361 149.008 326.603L142.19 330.551C141.304 331.066 140.585 330.834 140.585 330.024C140.65 329.532 140.829 329.061 141.108 328.651C141.386 328.24 141.757 327.9 142.19 327.658Z" fill="#263238"/>
<path d="M126.474 296.151L166.573 272.964V300.883L126.474 324.07V296.151Z" fill="#263238"/>
<path d="M186.629 286.75L164.673 274.07V298.659L186.629 311.351V286.75Z" fill="#263238"/>
<path d="M141.51 328.044V293.257L150.113 288.268L151.538 290.364L176.601 275.858V307.751L141.51 328.044Z" fill="#407BFF"/>
<g opacity="0.2">
<path d="M141.51 328.044V293.257L150.113 288.268L151.538 290.364L176.601 275.858V307.751L141.51 328.044Z" fill="black"/>
</g>
<path d="M141.51 328.044L144.014 297.604L179.105 277.311L176.601 307.751L141.51 328.044Z" fill="#407BFF"/>
<path d="M146.517 309.95L127.386 298.89V323.478L146.517 334.538V309.95Z" fill="#37474F"/>
<path d="M146.517 307.751L186.629 284.564V312.47L146.517 335.67V307.751Z" fill="#455A64"/>
<path d="M162.246 303.391L169.064 299.443C169.95 298.929 170.669 299.173 170.669 299.97C170.603 300.464 170.424 300.936 170.145 301.348C169.867 301.761 169.497 302.104 169.064 302.349L162.246 306.285C161.36 306.799 160.641 306.567 160.641 305.77C160.707 305.276 160.887 304.805 161.165 304.392C161.443 303.979 161.813 303.637 162.246 303.391Z" fill="#263238"/>
<path d="M146.517 307.751L145.182 306.979V334.898L146.517 335.67V307.751Z" fill="#263238"/>
<path d="M145.182 306.979L185.294 283.792L186.629 284.564L146.517 307.751L145.182 306.979Z" fill="#37474F"/>
<path d="M481.5 106.453L476.287 103.418L210.255 257.224V479.997C210.184 480.687 210.296 481.383 210.58 482.016C210.865 482.648 211.31 483.194 211.873 483.598L217.086 486.633C217.718 486.924 218.416 487.042 219.109 486.974C219.802 486.906 220.464 486.655 221.028 486.247L475.902 338.833C477.52 337.776 478.866 336.351 479.832 334.676C480.798 333 481.356 331.12 481.462 329.188L481.5 106.453Z" fill="#E6E6E6"/>
<path d="M215.468 483.033C215.468 486.582 217.946 488.022 221.028 486.248L475.902 338.833C477.52 337.776 478.866 336.352 479.832 334.676C480.798 333 481.356 331.12 481.462 329.188V106.453L215.468 260.272V483.033Z" fill="#FAFAFA"/>
<path d="M480.216 108.639V329.214C480.111 330.921 479.612 332.58 478.758 334.062C477.905 335.543 476.721 336.807 475.298 337.753L220.425 485.129C219.869 485.481 219.232 485.684 218.576 485.72C216.958 485.72 216.791 483.843 216.791 483.033V261.005L480.216 108.639ZM481.5 106.415L215.468 260.272V483.033C215.468 485.605 216.752 487.006 218.537 487.006C219.419 486.972 220.277 486.711 221.028 486.248L475.902 338.833C477.52 337.776 478.866 336.352 479.832 334.676C480.798 333 481.356 331.12 481.462 329.188V106.453L481.5 106.415Z" fill="#E0E0E0"/>
<path d="M215.468 260.272V284.384L481.462 130.566V106.453L215.468 260.272Z" fill="#407BFF"/>
<path d="M382.362 173.209V178.353C382.362 179.408 383.12 179.845 384.031 179.318L465.809 132.019V123.017L384.031 170.367C383.554 170.681 383.156 171.101 382.866 171.593C382.577 172.086 382.404 172.639 382.362 173.209Z" fill="#FAFAFA"/>
<path d="M474.579 117.963C475.504 117.423 476.248 117.86 476.248 118.927V124.071C476.218 124.651 476.051 125.216 475.761 125.719C475.471 126.222 475.066 126.649 474.579 126.965L465.81 132.032V123.03L474.579 117.963Z" fill="#455A64"/>
<path d="M473.937 125.074L472.949 124.766C473.057 124.346 473.113 123.914 473.115 123.48C473.159 123.084 473.1 122.684 472.942 122.319C472.784 121.953 472.534 121.636 472.217 121.396C472.001 121.269 471.755 121.201 471.504 121.201C471.253 121.201 471.007 121.269 470.791 121.396C470.169 121.875 469.669 122.493 469.33 123.201C468.99 123.91 468.823 124.688 468.84 125.473C468.793 125.869 468.852 126.27 469.01 126.636C469.167 127.002 469.419 127.319 469.739 127.556C469.924 127.67 470.138 127.728 470.355 127.724C470.636 127.718 470.91 127.638 471.151 127.492C471.899 126.981 472.455 126.234 472.73 125.37L473.719 125.679H473.796C473.872 125.68 473.947 125.657 474.009 125.613C474.071 125.569 474.118 125.507 474.143 125.435C474.148 125.361 474.131 125.287 474.095 125.223C474.058 125.159 474.003 125.107 473.937 125.074ZM470.791 126.952C470.694 127.027 470.577 127.073 470.454 127.084C470.331 127.095 470.208 127.072 470.098 127.016C469.899 126.835 469.747 126.608 469.655 126.355C469.564 126.102 469.535 125.83 469.572 125.563C469.559 124.907 469.694 124.256 469.968 123.659C470.241 123.062 470.646 122.535 471.151 122.117C471.287 122.032 471.441 121.984 471.6 121.975C471.692 121.975 471.781 122.002 471.857 122.052C472.053 122.236 472.204 122.463 472.295 122.715C472.387 122.968 472.417 123.239 472.384 123.506C472.394 124.163 472.256 124.814 471.981 125.411C471.705 126.008 471.298 126.534 470.791 126.952Z" fill="#FAFAFA"/>
<path d="M474.669 88.1792C474.036 87.8688 473.33 87.7383 472.629 87.8018C471.927 87.8653 471.256 88.1204 470.689 88.5393L215.815 235.953C214.195 237.009 212.847 238.432 211.88 240.108C210.914 241.785 210.357 243.666 210.255 245.598V257.262L215.468 260.31L481.5 106.453V94.7893C481.578 94.102 481.47 93.4064 481.188 92.7751C480.906 92.1439 480.459 91.6003 479.895 91.2013C478.932 90.6355 475.581 88.7322 474.669 88.1792Z" fill="#263238"/>
<path d="M215.468 248.608C215.569 246.675 216.125 244.793 217.091 243.116C218.057 241.44 219.407 240.016 221.028 238.963L475.902 91.5743C478.971 89.7996 481.462 91.2399 481.462 94.7893V106.453L215.468 260.272V248.608Z" fill="#37474F"/>
<path d="M479.908 91.2268C479.273 90.9095 478.563 90.7741 477.856 90.8353C477.149 90.8966 476.473 91.1522 475.902 91.574L221.028 238.95C219.385 239.976 218.033 241.406 217.099 243.103L211.86 240.081C212.799 238.379 214.155 236.945 215.802 235.915L470.689 88.5262C471.257 88.1093 471.929 87.8565 472.63 87.7953C473.332 87.7341 474.037 87.8668 474.669 88.179C475.581 88.732 478.919 90.6481 479.805 91.1882L479.908 91.2268Z" fill="#455A64"/>
<path d="M450.171 112.497C449.418 112.997 448.794 113.668 448.348 114.454C447.902 115.24 447.647 116.121 447.603 117.024C447.603 118.683 448.771 119.364 450.171 118.528C450.923 118.028 451.547 117.358 451.993 116.571C452.439 115.785 452.694 114.905 452.739 114.002C452.777 112.317 451.609 111.635 450.171 112.497Z" fill="#407BFF"/>
<path d="M459.3 107.212C458.548 107.71 457.924 108.378 457.478 109.162C457.032 109.946 456.776 110.824 456.732 111.726C456.732 113.398 457.9 114.066 459.3 113.243C460.051 112.741 460.674 112.071 461.12 111.285C461.565 110.499 461.822 109.619 461.868 108.717C461.906 107.045 460.738 106.376 459.3 107.212Z" fill="#407BFF"/>
<path d="M468.416 101.939C467.664 102.44 467.04 103.11 466.594 103.896C466.148 104.682 465.892 105.563 465.848 106.466C465.848 108.138 467.017 108.806 468.416 107.97C469.17 107.472 469.796 106.802 470.243 106.016C470.689 105.229 470.943 104.348 470.984 103.444C471.036 101.785 469.867 101.103 468.416 101.939Z" fill="#407BFF"/>
<path d="M221.028 486.247L267.624 459.306V254.214L215.468 284.384V483.032C215.468 486.582 217.946 488.009 221.028 486.247Z" fill="#F5F5F5"/>
<path d="M266.34 256.439V458.56L220.386 485.129C219.83 485.481 219.194 485.684 218.537 485.72C216.919 485.72 216.752 483.843 216.752 483.032V285.117L266.34 256.439ZM267.624 254.214L215.468 284.384V483.032C215.468 485.604 216.752 487.006 218.537 487.006C219.419 486.972 220.277 486.71 221.028 486.247L267.624 459.306V254.214Z" fill="#E0E0E0"/>
<path d="M232.777 286.429L257.738 271.961C258.649 271.421 259.394 271.858 259.394 272.926V275.099C259.362 275.677 259.196 276.24 258.908 276.742C258.62 277.245 258.22 277.673 257.738 277.993L232.777 292.434C231.852 292.975 231.107 292.537 231.107 291.47V289.322C231.142 288.743 231.311 288.18 231.6 287.678C231.89 287.175 232.293 286.748 232.777 286.429Z" fill="#E0E0E0"/>
<path d="M225.894 292.345V294.518C225.863 295.098 225.695 295.662 225.405 296.165C225.115 296.667 224.711 297.095 224.225 297.411L222.35 298.492C221.426 299.032 220.681 298.595 220.681 297.527V295.354C220.713 294.774 220.88 294.21 221.17 293.707C221.46 293.204 221.864 292.777 222.35 292.46L224.225 291.38C225.149 290.84 225.894 291.251 225.894 292.345Z" fill="#407BFF"/>
<path d="M232.777 298.453L257.738 284.011C258.649 283.471 259.394 283.908 259.394 284.963V287.136C259.362 287.716 259.196 288.28 258.908 288.785C258.621 289.289 258.22 289.72 257.738 290.042L232.777 304.484C231.852 305.011 231.107 304.587 231.107 303.52V301.346C231.14 300.767 231.308 300.203 231.598 299.7C231.888 299.198 232.291 298.77 232.777 298.453Z" fill="#E0E0E0"/>
<path d="M225.894 304.356V306.529C225.864 307.109 225.697 307.674 225.407 308.176C225.117 308.679 224.712 309.106 224.225 309.422L222.35 310.515C221.426 311.043 220.681 310.618 220.681 309.551V307.378C220.711 306.798 220.879 306.233 221.169 305.73C221.459 305.227 221.864 304.8 222.35 304.484L224.225 303.391C225.149 302.825 225.894 303.288 225.894 304.356Z" fill="#407BFF"/>
<path d="M232.777 310.464L257.738 296.023C258.649 295.495 259.394 295.92 259.394 296.987V299.16C259.364 299.739 259.198 300.303 258.911 300.805C258.623 301.308 258.221 301.736 257.738 302.054L232.777 316.496C231.852 317.036 231.107 316.599 231.107 315.544V313.358C231.143 312.779 231.312 312.216 231.602 311.714C231.891 311.212 232.294 310.784 232.777 310.464Z" fill="#E0E0E0"/>
<path d="M225.894 316.38V318.553C225.864 319.133 225.697 319.698 225.407 320.201C225.117 320.703 224.712 321.13 224.225 321.446L222.35 322.54C221.426 323.067 220.681 322.63 220.681 321.575V319.389C220.715 318.81 220.883 318.246 221.173 317.744C221.463 317.241 221.866 316.814 222.35 316.495L224.225 315.415C225.149 314.888 225.894 315.312 225.894 316.38Z" fill="#407BFF"/>
<path d="M232.777 350.33L257.738 335.876C258.649 335.348 259.394 335.773 259.394 336.84V339.013C259.364 339.592 259.198 340.156 258.911 340.658C258.623 341.161 258.221 341.589 257.738 341.907L232.777 356.362C231.852 356.889 231.107 356.464 231.107 355.397V353.224C231.14 352.644 231.308 352.08 231.598 351.578C231.888 351.075 232.291 350.648 232.777 350.33Z" fill="#E0E0E0"/>
<path d="M225.894 356.233V358.406C225.864 358.986 225.697 359.551 225.407 360.054C225.117 360.556 224.712 360.983 224.225 361.299L222.35 362.393C221.426 362.92 220.681 362.495 220.681 361.428V359.255C220.711 358.675 220.879 358.11 221.169 357.607C221.459 357.104 221.864 356.677 222.35 356.361L224.225 355.268C225.149 354.741 225.894 355.165 225.894 356.233Z" fill="#407BFF"/>
<path d="M232.777 360.965L257.738 346.549C258.649 346.022 259.394 346.447 259.394 347.514V349.687C259.364 350.266 259.198 350.829 258.911 351.332C258.623 351.835 258.221 352.263 257.738 352.581L232.777 366.997C231.852 367.537 231.107 367.1 231.107 366.032V363.859C231.143 363.28 231.312 362.717 231.602 362.215C231.891 361.713 232.294 361.285 232.777 360.965Z" fill="#E0E0E0"/>
<path d="M225.894 366.881V369.054C225.864 369.634 225.697 370.199 225.407 370.702C225.117 371.205 224.712 371.632 224.225 371.948L222.35 373.028C221.426 373.568 220.681 373.131 220.681 372.063V369.89C220.715 369.311 220.883 368.747 221.173 368.245C221.463 367.742 221.866 367.315 222.35 366.997L224.225 365.916C225.149 365.389 225.894 365.839 225.894 366.881Z" fill="#407BFF"/>
<path d="M232.777 371.613L257.738 357.172C258.649 356.632 259.394 357.069 259.394 358.136V360.31C259.362 360.888 259.196 361.45 258.908 361.953C258.62 362.455 258.22 362.883 257.738 363.203L232.777 377.645C231.852 378.185 231.107 377.748 231.107 376.68V374.507C231.142 373.928 231.311 373.365 231.6 372.863C231.89 372.36 232.293 371.933 232.777 371.613Z" fill="#E0E0E0"/>
<path d="M225.894 377.529V379.702C225.863 380.282 225.695 380.846 225.405 381.349C225.115 381.852 224.711 382.279 224.225 382.596L222.35 383.676C221.426 384.216 220.681 383.779 220.681 382.711V380.538C220.713 379.958 220.88 379.394 221.17 378.891C221.46 378.388 221.864 377.961 222.35 377.645L224.225 376.564C225.149 376.024 225.894 376.461 225.894 377.529Z" fill="#407BFF"/>
<path d="M231.107 323.594V327.337L234.356 323.594H231.107Z" fill="#407BFF"/>
<path d="M236.333 322.81C236.333 323.517 236.821 323.787 237.437 323.427L258.289 311.416C258.612 311.204 258.88 310.919 259.072 310.584C259.264 310.248 259.374 309.873 259.394 309.487C259.394 308.779 258.906 308.497 258.289 308.857L237.437 320.906C237.117 321.114 236.85 321.395 236.658 321.726C236.466 322.056 236.355 322.428 236.333 322.81Z" fill="#E0E0E0"/>
<path d="M231.107 329.613V333.368L234.356 329.613H231.107Z" fill="#407BFF"/>
<path d="M236.333 328.841C236.333 329.535 236.821 329.818 237.437 329.458L258.289 317.434C258.612 317.226 258.881 316.943 259.073 316.61C259.265 316.277 259.375 315.902 259.394 315.518C259.394 314.811 258.906 314.528 258.289 314.888L237.437 326.938C237.117 327.146 236.85 327.426 236.658 327.757C236.466 328.088 236.355 328.459 236.333 328.841Z" fill="#E0E0E0"/>
<path d="M231.107 335.644V339.399L234.356 335.644H231.107Z" fill="#407BFF"/>
<path d="M236.333 334.872C236.333 335.567 236.821 335.85 237.437 335.489L258.289 323.465C258.612 323.257 258.881 322.975 259.073 322.641C259.265 322.308 259.375 321.934 259.394 321.549C259.394 320.842 258.906 320.559 258.289 320.919L237.437 332.969C237.117 333.177 236.85 333.457 236.658 333.788C236.466 334.119 236.355 334.49 236.333 334.872Z" fill="#E0E0E0"/>
<path d="M231.107 341.675V345.43L234.356 341.675H231.107Z" fill="#407BFF"/>
<path d="M236.333 340.903C236.333 341.598 236.821 341.881 237.437 341.521L258.289 329.497C258.612 329.288 258.881 329.006 259.073 328.672C259.265 328.339 259.375 327.965 259.394 327.581C259.394 326.873 258.906 326.59 258.289 326.95L237.437 339C237.117 339.208 236.85 339.489 236.658 339.819C236.466 340.15 236.355 340.522 236.333 340.903Z" fill="#E0E0E0"/>
<path d="M283.263 261.403V292.833C283.263 294.119 284.188 294.685 285.33 294.029L319.832 274.07C320.434 273.681 320.935 273.154 321.295 272.532C321.654 271.911 321.861 271.213 321.899 270.495V244.66C321.899 243.374 320.974 242.808 319.832 243.464L299.814 255.038C298.671 255.693 297.747 255.166 297.747 253.855V253.031C297.747 251.745 296.835 251.18 295.692 251.836L285.33 257.815C284.729 258.209 284.228 258.738 283.868 259.362C283.509 259.985 283.302 260.685 283.263 261.403Z" fill="#407BFF"/>
<path d="M290.056 298.761V300.78C290.056 301.758 290.749 302.156 291.596 301.668L317.482 286.699C317.931 286.406 318.304 286.011 318.572 285.546C318.84 285.081 318.994 284.56 319.023 284.024V282.005C319.023 281.027 318.329 280.629 317.482 281.117L291.596 296.087C291.148 296.379 290.774 296.774 290.506 297.239C290.238 297.704 290.084 298.226 290.056 298.761Z" fill="#E0E0E0"/>
<path d="M331.272 233.819V265.248C331.272 266.534 332.196 267.087 333.326 266.431L367.827 246.486C368.428 246.094 368.928 245.566 369.287 244.945C369.646 244.324 369.854 243.627 369.895 242.911V217.062C369.895 215.776 368.97 215.21 367.827 215.866L347.81 227.44C346.667 228.096 345.755 227.556 345.755 226.244V225.421C345.755 224.135 344.831 223.582 343.688 224.238L333.326 230.231C332.726 230.624 332.227 231.155 331.87 231.778C331.513 232.402 331.308 233.101 331.272 233.819Z" fill="#407BFF"/>
<path d="M338.026 271.177V273.247C338.026 274.237 338.719 274.636 339.567 274.147L365.452 259.101C365.901 258.805 366.274 258.407 366.541 257.941C366.809 257.474 366.963 256.951 366.993 256.413V254.407C366.993 253.417 366.3 253.018 365.452 253.52L339.567 268.489C339.118 268.785 338.745 269.183 338.478 269.65C338.21 270.116 338.055 270.639 338.026 271.177Z" fill="#E0E0E0"/>
<path d="M283.263 324.546V355.976C283.263 357.262 284.188 357.828 285.33 357.172L319.832 337.213C320.426 336.827 320.922 336.307 321.281 335.696C321.64 335.084 321.851 334.397 321.899 333.689V307.841C321.899 306.555 320.974 306.002 319.832 306.658L299.814 318.232C298.671 318.887 297.747 318.36 297.747 317.048V316.225C297.747 314.939 296.835 314.374 295.692 315.029L285.33 321.022C284.736 321.408 284.24 321.928 283.881 322.539C283.522 323.151 283.311 323.838 283.263 324.546Z" fill="#407BFF"/>
<path d="M290.056 361.904V363.923C290.056 364.9 290.749 365.299 291.596 364.81L317.482 349.841C317.929 349.547 318.302 349.152 318.569 348.687C318.837 348.223 318.992 347.702 319.023 347.166V345.147C319.023 344.17 318.329 343.771 317.482 344.26L291.596 359.229C291.148 359.522 290.774 359.917 290.506 360.382C290.238 360.847 290.084 361.368 290.056 361.904Z" fill="#E0E0E0"/>
<path d="M331.272 296.948V328.378C331.272 329.664 332.196 330.23 333.326 329.574L367.827 309.615C368.428 309.227 368.929 308.702 369.288 308.083C369.647 307.464 369.855 306.768 369.895 306.053V280.205C369.895 278.919 368.97 278.353 367.827 279.009L347.81 290.583C346.667 291.238 345.755 290.698 345.755 289.387V288.564C345.755 287.278 344.831 286.712 343.688 287.38L333.326 293.373C332.727 293.765 332.229 294.293 331.872 294.914C331.515 295.536 331.309 296.232 331.272 296.948Z" fill="#407BFF"/>
<path d="M338.026 334.319V336.326C338.026 337.316 338.719 337.714 339.567 337.213L365.452 322.257C365.901 321.96 366.274 321.563 366.541 321.096C366.809 320.629 366.963 320.106 366.993 319.569V317.563C366.993 316.573 366.3 316.174 365.452 316.663L339.567 331.632C339.118 331.928 338.745 332.326 338.478 332.792C338.21 333.259 338.055 333.782 338.026 334.319Z" fill="#E0E0E0"/>
<path d="M379.782 204.704V236.133C379.782 237.419 380.706 237.985 381.836 237.329L416.35 217.371C416.949 216.978 417.446 216.45 417.803 215.829C418.16 215.208 418.366 214.511 418.404 213.796V187.96C418.404 186.674 417.48 186.108 416.35 186.764L396.32 198.338C395.19 199.007 394.265 198.467 394.265 197.155V196.332C394.265 195.046 393.341 194.48 392.198 195.136L381.836 201.141C381.239 201.532 380.741 202.058 380.384 202.677C380.027 203.296 379.821 203.99 379.782 204.704Z" fill="#407BFF"/>
<path d="M385.996 243.579V245.598C385.996 246.576 386.689 246.974 387.55 246.486L413.448 231.517C413.9 231.226 414.277 230.832 414.547 230.367C414.817 229.902 414.973 229.379 415.002 228.842V226.836C415.002 225.846 414.308 225.447 413.448 225.936L387.575 240.905C387.119 241.192 386.737 241.585 386.462 242.05C386.188 242.516 386.028 243.04 385.996 243.579Z" fill="#E0E0E0"/>
<path d="M427.187 178.636V210.066C427.187 211.352 428.111 211.905 429.254 211.249L463.755 191.304C464.354 190.911 464.852 190.383 465.209 189.762C465.566 189.141 465.771 188.444 465.81 187.728V161.88C465.81 160.594 464.898 160.028 463.755 160.684L443.738 172.258C442.595 172.914 441.671 172.374 441.671 171.062V170.239C441.671 168.953 440.759 168.4 439.616 169.056L429.254 175.048C428.65 175.439 428.148 175.969 427.788 176.593C427.429 177.216 427.223 177.917 427.187 178.636Z" fill="#407BFF"/>
<path d="M433.992 215.995V217.949C433.992 218.94 434.673 219.338 435.533 218.85L461.418 203.881C461.865 203.585 462.237 203.19 462.505 202.726C462.772 202.261 462.928 201.741 462.959 201.206V199.187C462.959 198.196 462.266 197.798 461.418 198.299L435.533 213.255C435.076 213.555 434.698 213.961 434.43 214.437C434.162 214.914 434.012 215.448 433.992 215.995Z" fill="#E0E0E0"/>
<path d="M385.996 306.683V308.702C385.996 309.68 386.689 310.078 387.55 309.59L413.448 294.633C413.9 294.343 414.277 293.949 414.547 293.484C414.817 293.019 414.973 292.496 415.002 291.959V289.965C415.002 288.988 414.308 288.589 413.448 289.078L387.575 304.047C387.124 304.331 386.745 304.718 386.471 305.176C386.196 305.634 386.034 306.15 385.996 306.683Z" fill="#E0E0E0"/>
<path d="M386.651 262.522L413.448 247C414.668 246.293 415.669 246.872 415.669 248.286V279.33C415.628 280.103 415.405 280.855 415.019 281.525C414.633 282.195 414.095 282.765 413.448 283.188L386.651 298.71C385.367 299.417 384.43 298.852 384.43 297.424V266.38C384.472 265.608 384.696 264.856 385.081 264.186C385.467 263.516 386.005 262.946 386.651 262.522Z" fill="#FAFAFA"/>
<path d="M385.65 299.662C385.335 299.665 385.025 299.585 384.751 299.43C384.426 299.213 384.165 298.912 383.995 298.559C383.826 298.206 383.754 297.814 383.788 297.424V266.38C383.833 265.493 384.089 264.629 384.536 263.861C384.983 263.094 385.607 262.445 386.356 261.969L413.204 246.447C413.524 246.224 413.898 246.091 414.287 246.064C414.676 246.037 415.065 246.116 415.413 246.293C415.737 246.508 415.999 246.807 416.17 247.157C416.342 247.507 416.417 247.897 416.389 248.286V279.33C416.344 280.217 416.087 281.081 415.641 281.848C415.194 282.616 414.57 283.265 413.821 283.741L386.972 299.276C386.572 299.517 386.117 299.65 385.65 299.662ZM414.488 247.347C414.25 247.356 414.019 247.432 413.821 247.566L386.972 263.088C386.422 263.451 385.963 263.937 385.633 264.509C385.303 265.08 385.111 265.721 385.072 266.38V297.424C385.072 297.874 385.187 298.196 385.393 298.311C385.55 298.363 385.717 298.376 385.88 298.349C386.044 298.322 386.198 298.256 386.33 298.157L413.179 282.635C413.727 282.267 414.184 281.778 414.514 281.205C414.843 280.631 415.037 279.99 415.079 279.33V248.286C415.098 248.122 415.078 247.956 415.02 247.801C414.962 247.647 414.868 247.509 414.745 247.399C414.665 247.36 414.577 247.343 414.488 247.347Z" fill="#EBEBEB"/>
<path d="M416.658 251.192L410.675 254.652C410.025 255.074 409.485 255.643 409.097 256.313C408.708 256.983 408.484 257.736 408.44 258.51V265.429C408.44 266.856 409.442 267.435 410.675 266.715L416.658 263.255C417.305 262.832 417.843 262.262 418.229 261.592C418.615 260.922 418.838 260.17 418.879 259.397V252.478C418.879 251.064 417.878 250.485 416.658 251.192Z" fill="#407BFF"/>
<path d="M388.692 265.878L402.149 258.162C402.752 257.815 403.253 258.098 403.253 258.818V259.243C403.23 259.628 403.119 260.003 402.927 260.337C402.736 260.672 402.469 260.958 402.149 261.172L388.692 268.888C388.076 269.248 387.575 268.965 387.588 268.245V267.807C387.608 267.422 387.718 267.046 387.91 266.711C388.102 266.375 388.37 266.09 388.692 265.878Z" fill="#EBEBEB"/>
<path d="M388.692 271.961L402.149 264.245C402.752 263.885 403.253 264.181 403.253 264.888V265.312C403.233 265.698 403.123 266.074 402.931 266.409C402.739 266.744 402.471 267.03 402.149 267.241L388.692 274.957C388.076 275.318 387.575 274.957 387.588 274.314V273.864C387.612 273.483 387.724 273.112 387.915 272.782C388.107 272.451 388.373 272.17 388.692 271.961Z" fill="#EBEBEB"/>
<path d="M388.692 277.928L402.149 270.212C402.752 269.865 403.253 270.148 403.253 270.855V271.292C403.23 271.677 403.119 272.052 402.927 272.387C402.736 272.722 402.469 273.007 402.149 273.221L388.692 280.937C388.076 281.297 387.575 281.014 387.588 280.294V279.857C387.607 279.471 387.717 279.095 387.909 278.759C388.1 278.424 388.369 278.139 388.692 277.928Z" fill="#EBEBEB"/>
<path d="M388.692 283.947L411.034 271.087C411.65 270.74 412.151 271.087 412.151 271.73V272.167C412.129 272.554 412.016 272.93 411.822 273.265C411.628 273.6 411.358 273.885 411.034 274.096L388.692 286.956C388.076 287.303 387.575 287.02 387.588 286.313V285.863C387.61 285.479 387.721 285.106 387.913 284.773C388.104 284.441 388.372 284.158 388.692 283.947Z" fill="#EBEBEB"/>
<path d="M388.692 289.965L411.034 277.105C411.65 276.745 412.151 277.105 412.151 277.748V278.173C412.13 278.56 412.018 278.936 411.824 279.271C411.63 279.607 411.359 279.891 411.034 280.102L388.692 292.962C388.076 293.322 387.575 293.026 387.588 292.319V291.881C387.607 291.497 387.717 291.123 387.909 290.789C388.101 290.456 388.369 290.174 388.692 289.965Z" fill="#EBEBEB"/>
<path d="M432.939 279.562V281.568C432.939 282.558 433.633 282.957 434.48 282.468L460.366 267.499C460.816 267.204 461.19 266.807 461.457 266.34C461.725 265.873 461.879 265.349 461.906 264.811V262.805C461.906 261.815 461.226 261.416 460.366 261.905L434.48 276.874C434.032 277.17 433.659 277.568 433.391 278.034C433.124 278.501 432.969 279.024 432.939 279.562Z" fill="#E0E0E0"/>
<path d="M433.594 235.388L460.43 219.865C461.714 219.145 462.664 219.724 462.664 221.151V252.196C462.619 252.969 462.393 253.721 462.005 254.391C461.617 255.061 461.077 255.63 460.43 256.054L433.594 271.576C432.31 272.283 431.36 271.704 431.36 270.29V239.246C431.402 238.472 431.626 237.718 432.015 237.048C432.403 236.377 432.944 235.808 433.594 235.388Z" fill="#FAFAFA"/>
<path d="M432.592 272.514C432.278 272.517 431.968 272.437 431.694 272.283C431.369 272.067 431.108 271.769 430.936 271.418C430.765 271.068 430.689 270.678 430.718 270.289V239.245C430.76 238.356 431.016 237.49 431.463 236.72C431.91 235.95 432.535 235.299 433.286 234.821L460.121 219.299C460.434 219.054 460.813 218.908 461.209 218.88C461.605 218.853 462.001 218.944 462.345 219.143C462.689 219.342 462.965 219.64 463.139 219.998C463.312 220.356 463.375 220.757 463.319 221.151V252.195C463.275 253.083 463.019 253.947 462.572 254.715C462.125 255.482 461.5 256.131 460.751 256.606L433.915 272.128C433.515 272.37 433.059 272.503 432.592 272.514ZM433.876 235.94C433.323 236.305 432.862 236.793 432.53 237.366C432.198 237.94 432.004 238.583 431.963 239.245V270.289C431.944 270.453 431.964 270.619 432.022 270.774C432.08 270.928 432.174 271.066 432.297 271.177C432.455 271.229 432.623 271.241 432.787 271.212C432.95 271.183 433.104 271.113 433.234 271.009L460.07 255.487C460.622 255.125 461.083 254.639 461.415 254.068C461.747 253.496 461.941 252.855 461.983 252.195V221.151C462.053 220.983 462.059 220.796 462 220.624C461.941 220.452 461.822 220.307 461.664 220.217C461.507 220.127 461.321 220.098 461.144 220.135C460.966 220.172 460.808 220.273 460.699 220.418L433.876 235.94Z" fill="#EBEBEB"/>
<path d="M463.588 224.058L457.605 227.517C456.958 227.94 456.42 228.51 456.034 229.18C455.648 229.851 455.425 230.603 455.383 231.375V238.294C455.383 239.709 456.385 240.287 457.605 239.58L463.588 236.121C464.236 235.697 464.775 235.128 465.163 234.458C465.551 233.788 465.777 233.036 465.822 232.263V225.344C465.822 223.916 464.808 223.338 463.588 224.058Z" fill="#407BFF"/>
<path d="M435.636 238.731L449.079 231.015C449.695 230.655 450.196 231.015 450.196 231.658V232.095C450.177 232.483 450.066 232.86 449.872 233.195C449.677 233.531 449.406 233.815 449.079 234.024L435.636 241.74C435.019 242.1 434.519 241.804 434.519 241.097V240.647C434.543 240.262 434.656 239.889 434.85 239.556C435.044 239.223 435.313 238.941 435.636 238.731Z" fill="#EBEBEB"/>
<path d="M435.636 244.762L449.079 237.046C449.695 236.699 450.196 237.046 450.196 237.689V238.127C450.174 238.513 450.062 238.89 449.867 239.225C449.673 239.56 449.403 239.844 449.079 240.056L435.636 247.772C435.019 248.132 434.519 247.849 434.519 247.129V246.691C434.54 246.304 434.652 245.928 434.846 245.593C435.04 245.257 435.311 244.973 435.636 244.762Z" fill="#EBEBEB"/>
<path d="M435.636 250.781L449.079 243.065C449.695 242.705 450.196 243.065 450.196 243.708V244.132C450.175 244.519 450.063 244.896 449.869 245.231C449.675 245.566 449.404 245.851 449.079 246.061L435.636 253.777C435.019 254.124 434.519 253.841 434.519 253.134V252.671C434.546 252.291 434.662 251.923 434.856 251.595C435.049 251.267 435.316 250.988 435.636 250.781Z" fill="#EBEBEB"/>
<path d="M435.636 256.812L457.977 243.952C458.594 243.592 459.094 243.888 459.094 244.595V244.955C459.072 245.342 458.96 245.718 458.766 246.053C458.572 246.388 458.301 246.673 457.977 246.884L435.636 259.744C435.019 260.104 434.519 259.808 434.519 259.101V258.664C434.549 258.29 434.666 257.928 434.86 257.607C435.054 257.285 435.319 257.013 435.636 256.812Z" fill="#EBEBEB"/>
<path d="M435.636 262.831L457.977 249.971C458.594 249.624 459.094 249.907 459.094 250.614V251.051C459.072 251.438 458.96 251.814 458.766 252.149C458.572 252.484 458.301 252.769 457.977 252.98L435.636 265.84C435.019 266.187 434.519 265.904 434.519 265.197V264.747C434.543 264.362 434.656 263.989 434.85 263.656C435.044 263.323 435.313 263.041 435.636 262.831Z" fill="#EBEBEB"/>
<path d="M385.996 370.765V372.784C385.996 373.761 386.689 374.16 387.55 373.671L413.448 358.702C413.9 358.412 414.277 358.017 414.547 357.552C414.817 357.087 414.973 356.565 415.002 356.027V354.008C415.002 353.031 414.308 352.632 413.448 353.121L387.575 368.09C387.119 368.378 386.737 368.771 386.462 369.236C386.188 369.701 386.028 370.225 385.996 370.765Z" fill="#E0E0E0"/>
<path d="M386.651 326.59L413.448 311.068C414.668 310.361 415.67 310.94 415.67 312.354V343.398C415.626 344.171 415.402 344.922 415.016 345.592C414.631 346.262 414.094 346.832 413.448 347.256L386.6 362.779C385.316 363.486 384.378 362.92 384.378 361.493V330.449C384.425 329.671 384.655 328.916 385.05 328.245C385.445 327.574 385.994 327.007 386.651 326.59Z" fill="#FAFAFA"/>
<path d="M385.649 363.73C385.335 363.733 385.025 363.653 384.751 363.499C384.427 363.279 384.168 362.978 383.999 362.626C383.83 362.273 383.757 361.882 383.788 361.492V330.448C383.832 329.561 384.089 328.697 384.536 327.93C384.983 327.162 385.607 326.513 386.356 326.037L413.178 310.541C413.491 310.302 413.867 310.16 414.259 310.134C414.651 310.108 415.043 310.2 415.383 310.396C415.724 310.593 415.999 310.887 416.173 311.24C416.347 311.593 416.413 311.99 416.363 312.38V343.424C416.318 344.312 416.062 345.175 415.615 345.943C415.168 346.71 414.544 347.359 413.795 347.835L386.946 363.357C386.552 363.589 386.106 363.717 385.649 363.73ZM414.488 311.403C414.251 311.418 414.021 311.493 413.82 311.621L386.972 327.156C386.421 327.518 385.962 328.005 385.632 328.576C385.302 329.148 385.11 329.789 385.072 330.448V361.492C385.002 361.66 384.996 361.848 385.055 362.02C385.114 362.192 385.233 362.337 385.391 362.427C385.548 362.517 385.733 362.546 385.911 362.509C386.089 362.472 386.247 362.371 386.356 362.225L413.204 346.703C413.753 346.336 414.21 345.846 414.539 345.273C414.869 344.7 415.062 344.058 415.104 343.398V312.354C415.124 312.191 415.104 312.024 415.046 311.87C414.988 311.715 414.893 311.577 414.771 311.467C414.684 311.42 414.586 311.398 414.488 311.403Z" fill="#EBEBEB"/>
<path d="M416.658 315.261L410.675 318.72C410.025 319.142 409.485 319.711 409.097 320.381C408.708 321.052 408.484 321.804 408.44 322.578V329.497C408.44 330.924 409.442 331.49 410.675 330.783L416.658 327.324C417.305 326.9 417.843 326.331 418.229 325.66C418.615 324.99 418.838 324.238 418.879 323.466V316.547C418.879 315.132 417.878 314.554 416.658 315.261Z" fill="#407BFF"/>
<path d="M388.692 329.947L402.149 322.231C402.752 321.884 403.253 322.167 403.253 322.874V323.311C403.23 323.697 403.119 324.071 402.927 324.406C402.736 324.741 402.469 325.026 402.149 325.24L388.692 332.956C388.076 333.316 387.575 333.034 387.588 332.313V331.876C387.607 331.49 387.717 331.114 387.909 330.779C388.1 330.443 388.369 330.158 388.692 329.947Z" fill="#EBEBEB"/>
<path d="M388.692 335.965L402.149 328.249C402.752 327.889 403.253 328.185 403.253 328.892V329.317C403.232 329.702 403.122 330.078 402.93 330.413C402.738 330.748 402.471 331.033 402.149 331.246L388.692 338.962C388.076 339.309 387.575 339.026 387.588 338.319V337.869C387.612 337.487 387.724 337.117 387.915 336.786C388.107 336.456 388.373 336.175 388.692 335.965Z" fill="#EBEBEB"/>
<path d="M388.692 341.997L402.149 334.281C402.752 333.934 403.253 334.217 403.253 334.924V335.361C403.23 335.746 403.119 336.121 402.927 336.456C402.736 336.79 402.469 337.076 402.149 337.29L388.692 345.006C388.076 345.366 387.575 345.07 387.588 344.363V343.977C387.596 343.582 387.701 343.195 387.894 342.849C388.086 342.504 388.361 342.211 388.692 341.997Z" fill="#EBEBEB"/>
<path d="M388.692 348.015L411.034 335.155C411.65 334.808 412.151 335.091 412.151 335.798V336.261C412.129 336.648 412.016 337.024 411.822 337.359C411.628 337.695 411.358 337.979 411.034 338.19L388.692 351.05C388.076 351.398 387.575 351.115 387.588 350.407V349.957C387.606 349.569 387.715 349.191 387.907 348.853C388.099 348.516 388.368 348.229 388.692 348.015Z" fill="#EBEBEB"/>
<path d="M388.692 354.047L411.034 341.187C411.65 340.827 412.151 341.11 412.151 341.83V342.254C412.129 342.641 412.016 343.017 411.822 343.352C411.628 343.687 411.358 343.972 411.034 344.183L388.692 357.043C388.076 357.403 387.575 357.108 387.588 356.4V355.963C387.607 355.579 387.717 355.204 387.909 354.871C388.101 354.538 388.369 354.255 388.692 354.047Z" fill="#EBEBEB"/>
<path d="M432.939 343.617V345.636C432.939 346.626 433.633 347.025 434.48 346.523L460.366 331.567C460.816 331.272 461.19 330.875 461.457 330.408C461.725 329.941 461.879 329.417 461.906 328.879V326.873C461.906 325.883 461.226 325.484 460.366 325.973L434.48 340.942C434.033 341.237 433.661 341.633 433.394 342.097C433.127 342.561 432.971 343.082 432.939 343.617Z" fill="#E0E0E0"/>
<path d="M433.594 299.456L460.43 283.934C461.714 283.214 462.664 283.792 462.664 285.22V316.251C462.622 317.025 462.397 317.778 462.009 318.449C461.621 319.119 461.079 319.688 460.43 320.109L433.594 335.644C432.31 336.351 431.36 335.773 431.36 334.358V303.314C431.402 302.54 431.626 301.787 432.015 301.116C432.403 300.446 432.944 299.877 433.594 299.456Z" fill="#FAFAFA"/>
<path d="M432.592 336.583C432.278 336.586 431.968 336.506 431.694 336.351C431.369 336.136 431.108 335.838 430.936 335.487C430.765 335.137 430.689 334.747 430.718 334.358V303.314C430.759 302.424 431.015 301.558 431.462 300.788C431.909 300.018 432.534 299.367 433.286 298.89L460.121 283.368C460.434 283.123 460.813 282.977 461.209 282.949C461.605 282.921 462.001 283.013 462.345 283.212C462.689 283.411 462.965 283.709 463.139 284.067C463.312 284.425 463.375 284.826 463.319 285.22V316.251C463.277 317.141 463.022 318.008 462.575 318.778C462.128 319.548 461.502 320.199 460.751 320.675L433.915 336.261C433.509 336.481 433.054 336.591 432.592 336.583ZM433.876 300.009C433.323 300.373 432.862 300.862 432.53 301.435C432.198 302.009 432.004 302.652 431.963 303.314V334.358C431.941 334.52 431.961 334.685 432.019 334.838C432.077 334.991 432.173 335.127 432.297 335.233C432.454 335.288 432.622 335.303 432.785 335.276C432.949 335.249 433.104 335.181 433.234 335.078L460.109 319.543C460.662 319.179 461.123 318.691 461.455 318.117C461.787 317.544 461.981 316.9 462.022 316.238V285.22C462.091 285.052 462.097 284.865 462.039 284.693C461.98 284.521 461.86 284.376 461.703 284.286C461.545 284.196 461.36 284.167 461.182 284.204C461.005 284.241 460.846 284.342 460.738 284.487L433.876 300.009Z" fill="#EBEBEB"/>
<path d="M463.588 288.127L457.605 291.586C456.958 292.009 456.42 292.579 456.034 293.249C455.648 293.919 455.425 294.671 455.383 295.444V302.363C455.383 303.777 456.385 304.356 457.605 303.649L463.588 300.189C464.236 299.766 464.775 299.196 465.163 298.526C465.551 297.856 465.777 297.104 465.822 296.331V289.413C465.822 287.985 464.808 287.393 463.588 288.127Z" fill="#407BFF"/>
<path d="M435.636 302.825L449.079 295.109C449.695 294.749 450.196 295.045 450.196 295.752V296.177C450.175 296.564 450.063 296.94 449.869 297.275C449.675 297.611 449.404 297.895 449.079 298.106L435.636 305.822C435.019 306.169 434.519 305.822 434.519 305.179V304.729C434.545 304.346 434.659 303.975 434.853 303.645C435.047 303.315 435.315 303.034 435.636 302.825Z" fill="#EBEBEB"/>
<path d="M435.636 308.831L449.079 301.115C449.695 300.768 450.196 301.115 450.196 301.758V302.195C450.174 302.582 450.062 302.958 449.867 303.293C449.673 303.628 449.403 303.913 449.079 304.124L435.636 311.84C435.019 312.2 434.519 311.904 434.519 311.197V310.76C434.538 310.372 434.649 309.995 434.843 309.659C435.037 309.324 435.309 309.04 435.636 308.831Z" fill="#EBEBEB"/>
<path d="M435.636 314.849L449.079 307.133C449.695 306.773 450.196 307.056 450.196 307.776V308.2C450.174 308.587 450.062 308.963 449.867 309.299C449.673 309.634 449.403 309.918 449.079 310.129L435.636 317.845C435.019 318.193 434.519 317.91 434.519 317.202V316.752C434.545 316.37 434.659 315.999 434.853 315.669C435.047 315.338 435.315 315.058 435.636 314.849Z" fill="#EBEBEB"/>
<path d="M435.636 320.829L457.977 307.969C458.594 307.609 459.094 307.892 459.094 308.612V309.036C459.072 309.423 458.96 309.799 458.766 310.134C458.572 310.47 458.301 310.754 457.977 310.965L435.636 323.825C435.019 324.186 434.519 323.89 434.519 323.182V322.745C434.54 322.36 434.652 321.985 434.846 321.652C435.04 321.319 435.311 321.037 435.636 320.829Z" fill="#EBEBEB"/>
<path d="M435.636 326.899L457.977 314.039C458.594 313.679 459.094 313.975 459.094 314.682V315.106C459.075 315.494 458.964 315.871 458.77 316.207C458.575 316.542 458.304 316.826 457.977 317.035L435.636 329.895C435.019 330.243 434.519 329.96 434.519 329.252V328.802C434.545 328.42 434.659 328.049 434.853 327.719C435.047 327.388 435.315 327.108 435.636 326.899Z" fill="#EBEBEB"/>
<path d="M290.056 426.281V428.287C290.056 429.277 290.749 429.676 291.609 429.187L317.482 414.218C317.933 413.927 318.309 413.533 318.579 413.068C318.849 412.603 319.006 412.081 319.036 411.544V409.563C319.036 408.573 318.342 408.174 317.482 408.676L291.609 423.632C291.163 423.922 290.79 424.313 290.52 424.773C290.25 425.233 290.091 425.749 290.056 426.281Z" fill="#E0E0E0"/>
<path d="M290.711 382.107L317.559 366.585C318.843 365.878 319.78 366.443 319.78 367.871V398.915C319.736 399.687 319.512 400.438 319.126 401.107C318.74 401.777 318.204 402.348 317.559 402.773L290.711 418.295C289.427 419.002 288.489 418.424 288.489 417.009V385.965C288.529 385.192 288.751 384.439 289.137 383.769C289.523 383.098 290.062 382.529 290.711 382.107Z" fill="#FAFAFA"/>
<path d="M289.709 419.234C289.395 419.237 289.085 419.157 288.81 419.002C288.487 418.786 288.228 418.487 288.058 418.137C287.889 417.786 287.816 417.397 287.847 417.009V385.965C287.892 385.078 288.149 384.214 288.595 383.447C289.042 382.679 289.666 382.03 290.415 381.554L317.264 366.032C317.574 365.786 317.952 365.638 318.347 365.609C318.742 365.58 319.136 365.671 319.479 365.869C319.822 366.067 320.098 366.364 320.271 366.721C320.444 367.078 320.505 367.478 320.448 367.871V398.915C320.403 399.802 320.147 400.666 319.7 401.434C319.253 402.201 318.629 402.85 317.88 403.326L291.032 418.848C290.632 419.09 290.176 419.223 289.709 419.234ZM290.711 382.107L291.032 382.66C290.481 383.026 290.022 383.515 289.693 384.088C289.363 384.662 289.171 385.304 289.131 385.965V417.009C289.062 417.177 289.056 417.365 289.114 417.537C289.173 417.709 289.293 417.853 289.45 417.943C289.608 418.033 289.793 418.062 289.971 418.025C290.149 417.988 290.307 417.888 290.415 417.742L317.264 402.207C317.812 401.842 318.269 401.355 318.599 400.784C318.928 400.213 319.122 399.573 319.164 398.915V367.871C319.234 367.703 319.24 367.516 319.181 367.344C319.122 367.172 319.003 367.027 318.845 366.937C318.688 366.847 318.502 366.818 318.325 366.855C318.147 366.892 317.989 366.992 317.88 367.138L291.032 382.66L290.711 382.107Z" fill="#EBEBEB"/>
<path d="M320.718 370.777L314.734 374.237C314.084 374.658 313.543 375.227 313.155 375.897C312.766 376.568 312.542 377.321 312.5 378.095V385.013C312.5 386.428 313.502 387.007 314.734 386.299L320.718 382.84C321.363 382.415 321.9 381.845 322.286 381.175C322.672 380.505 322.895 379.754 322.939 378.982V372.063C322.939 370.636 321.937 370.07 320.718 370.777Z" fill="#407BFF"/>
<path d="M292.752 385.464L306.209 377.748C306.812 377.387 307.313 377.683 307.313 378.391V378.815C307.293 379.201 307.183 379.577 306.991 379.912C306.799 380.247 306.531 380.532 306.209 380.744L292.752 388.46C292.136 388.82 291.648 388.46 291.648 387.817V387.38C291.666 386.995 291.776 386.621 291.968 386.288C292.16 385.954 292.429 385.672 292.752 385.464Z" fill="#EBEBEB"/>
<path d="M292.752 391.482L306.209 383.766C306.812 383.419 307.313 383.702 307.313 384.422V384.846C307.29 385.231 307.179 385.606 306.987 385.941C306.795 386.275 306.529 386.561 306.209 386.775L292.752 394.491C292.136 394.838 291.648 394.491 291.648 393.848V393.398C291.67 393.014 291.781 392.641 291.972 392.308C292.164 391.976 292.431 391.693 292.752 391.482Z" fill="#EBEBEB"/>
<path d="M292.752 397.513L306.209 389.797C306.812 389.437 307.313 389.733 307.313 390.44V390.865C307.293 391.251 307.183 391.626 306.991 391.962C306.799 392.297 306.531 392.582 306.209 392.794L292.752 400.561C292.136 400.921 291.648 400.561 291.648 399.918V399.468C291.66 399.077 291.767 398.695 291.96 398.354C292.152 398.014 292.424 397.725 292.752 397.513Z" fill="#EBEBEB"/>
<path d="M292.752 403.532L315.094 390.672C315.71 390.312 316.211 390.672 316.211 391.315V391.739C316.192 392.127 316.081 392.504 315.886 392.84C315.692 393.175 315.42 393.46 315.094 393.668L292.752 406.528C292.136 406.889 291.648 406.606 291.648 405.885V405.448C291.67 405.065 291.781 404.691 291.972 404.359C292.164 404.026 292.431 403.743 292.752 403.532Z" fill="#EBEBEB"/>
<path d="M292.752 409.563L315.094 396.703C315.71 396.356 316.211 396.703 316.211 397.346V397.783C316.189 398.17 316.076 398.546 315.882 398.881C315.688 399.216 315.418 399.501 315.094 399.712L292.752 412.572C292.136 412.92 291.648 412.637 291.648 411.929V411.479C291.67 411.096 291.781 410.722 291.972 410.39C292.164 410.057 292.431 409.774 292.752 409.563Z" fill="#EBEBEB"/>
<path d="M336.999 399.134V401.153C336.999 402.13 337.692 402.542 338.539 402.04L364.425 387.071C364.876 386.78 365.251 386.386 365.519 385.921C365.787 385.455 365.94 384.933 365.966 384.396V382.39C365.966 381.4 365.285 381.001 364.425 381.49L338.539 396.459C338.092 396.753 337.719 397.148 337.452 397.613C337.184 398.077 337.029 398.598 336.999 399.134Z" fill="#E0E0E0"/>
<path d="M337.692 354.96L364.528 339.438C365.812 338.73 366.762 339.309 366.762 340.724V371.768C366.72 372.542 366.495 373.295 366.107 373.965C365.719 374.636 365.178 375.205 364.528 375.626L337.692 391.148C336.408 391.868 335.458 391.289 335.458 389.862V358.818C335.503 358.044 335.729 357.292 336.117 356.622C336.505 355.952 337.044 355.383 337.692 354.96Z" fill="#FAFAFA"/>
<path d="M336.652 392.1C336.337 392.103 336.027 392.023 335.753 391.868C335.428 391.649 335.167 391.349 334.996 390.996C334.824 390.644 334.749 390.253 334.777 389.862V358.818C334.823 357.931 335.08 357.068 335.527 356.3C335.973 355.533 336.597 354.884 337.345 354.407L364.168 338.833C364.48 338.589 364.857 338.444 365.252 338.416C365.647 338.388 366.041 338.479 366.384 338.676C366.727 338.873 367.004 339.169 367.179 339.524C367.353 339.88 367.418 340.28 367.365 340.672V371.717C367.324 372.605 367.068 373.469 366.621 374.237C366.174 375.005 365.548 375.654 364.797 376.127L337.962 391.662C337.571 391.92 337.119 392.071 336.652 392.1ZM365.491 339.785C365.248 339.792 365.012 339.868 364.81 340.004L337.974 355.551C337.422 355.914 336.962 356.4 336.63 356.971C336.298 357.543 336.103 358.184 336.061 358.844V389.888C336.038 390.052 336.057 390.219 336.115 390.374C336.174 390.529 336.27 390.667 336.395 390.775C336.552 390.827 336.719 390.84 336.883 390.813C337.046 390.786 337.2 390.72 337.332 390.621L364.168 375.099C364.721 374.734 365.181 374.245 365.513 373.672C365.845 373.098 366.039 372.455 366.081 371.794V340.724C366.101 340.56 366.08 340.394 366.022 340.239C365.964 340.085 365.87 339.947 365.747 339.837C365.667 339.8 365.579 339.782 365.491 339.785Z" fill="#EBEBEB"/>
<path d="M367.648 343.63L361.664 347.089C361.02 347.515 360.483 348.085 360.097 348.755C359.712 349.425 359.488 350.175 359.443 350.947V357.866C359.443 359.293 360.444 359.872 361.664 359.152L367.648 355.693C368.298 355.272 368.839 354.703 369.227 354.032C369.615 353.362 369.84 352.609 369.882 351.835V344.916C369.882 343.501 368.88 342.923 367.648 343.63Z" fill="#407BFF"/>
<path d="M339.695 358.316L353.139 350.6C353.755 350.253 354.256 350.536 354.256 351.256V351.693C354.234 352.08 354.121 352.456 353.927 352.791C353.733 353.126 353.463 353.411 353.139 353.622L339.695 361.338C339.079 361.685 338.578 361.402 338.578 360.682V360.245C338.6 359.858 338.713 359.482 338.907 359.147C339.101 358.812 339.371 358.527 339.695 358.316Z" fill="#EBEBEB"/>
<path d="M339.695 364.347L353.139 356.631C353.755 356.271 354.256 356.567 354.256 357.274V357.699C354.237 358.086 354.125 358.463 353.931 358.799C353.737 359.135 353.465 359.419 353.139 359.628L339.695 367.344C339.079 367.704 338.578 367.408 338.578 366.701V366.251C338.601 365.868 338.714 365.495 338.908 365.165C339.103 364.834 339.372 364.554 339.695 364.347Z" fill="#EBEBEB"/>
<path d="M339.695 370.366L353.139 362.65C353.755 362.303 354.256 362.586 354.256 363.293V363.73C354.234 364.117 354.121 364.493 353.927 364.828C353.733 365.163 353.463 365.448 353.139 365.659L339.695 373.375C339.079 373.735 338.578 373.452 338.578 372.732V372.269C338.604 371.887 338.719 371.516 338.912 371.186C339.106 370.855 339.374 370.575 339.695 370.366Z" fill="#EBEBEB"/>
<path d="M339.695 376.385L362.037 363.525C362.653 363.177 363.154 363.46 363.154 364.168V364.553C363.132 364.94 363.019 365.316 362.825 365.651C362.631 365.986 362.361 366.271 362.037 366.482L339.695 379.342C339.079 379.69 338.578 379.407 338.578 378.699V378.249C338.61 377.874 338.727 377.51 338.921 377.187C339.114 376.864 339.379 376.589 339.695 376.385Z" fill="#EBEBEB"/>
<path d="M339.695 382.416L362.037 369.556C362.653 369.196 363.154 369.491 363.154 370.199V370.623C363.133 371.01 363.021 371.387 362.827 371.722C362.632 372.057 362.362 372.342 362.037 372.552L339.695 385.412C339.079 385.772 338.578 385.412 338.578 384.769V384.332C338.599 383.946 338.711 383.572 338.906 383.239C339.1 382.905 339.371 382.623 339.695 382.416Z" fill="#EBEBEB"/>
<path d="M215.468 260.271L210.255 257.224V281.362L215.468 284.384V260.271Z" fill="#407BFF"/>
<path opacity="0.1" d="M215.468 260.271L210.255 257.224V281.362L215.468 284.384V260.271Z" fill="black"/>
<path d="M523.525 360.014C522.931 359.745 522.277 359.636 521.628 359.699C520.979 359.762 520.358 359.995 519.827 360.374C518.312 361.36 517.049 362.688 516.139 364.251C515.229 365.815 514.698 367.57 514.588 369.376C514.52 370.026 514.624 370.682 514.89 371.278C515.156 371.874 515.575 372.389 516.104 372.771L581.1 413.923C582.384 414.823 584.323 414.772 586.441 413.55C588.57 412.17 590.344 410.305 591.618 408.109C592.892 405.912 593.63 403.445 593.773 400.909C593.773 398.465 592.874 396.781 591.436 396.074L523.525 360.014Z" fill="#407BFF"/>
<path opacity="0.15" d="M514.588 369.427C514.588 372.758 516.912 374.121 519.801 372.462C521.316 371.476 522.58 370.148 523.489 368.585C524.399 367.022 524.93 365.266 525.04 363.46C525.04 360.129 522.716 358.766 519.827 360.425C518.312 361.411 517.049 362.739 516.139 364.302C515.229 365.866 514.698 367.621 514.588 369.427Z" fill="black"/>
<path d="M500.208 351.359C499.286 351.957 498.518 352.766 497.967 353.718C497.415 354.67 497.097 355.739 497.037 356.838C496.996 357.229 497.059 357.623 497.219 357.982C497.379 358.341 497.63 358.652 497.948 358.882L517.568 370.289C517.924 370.455 518.317 370.522 518.708 370.484C519.099 370.445 519.472 370.303 519.789 370.071C520.721 369.472 521.496 368.659 522.05 367.699C522.604 366.74 522.921 365.661 522.973 364.554C523.019 364.16 522.959 363.762 522.798 363.4C522.638 363.038 522.384 362.726 522.062 362.496L502.442 351.089C502.079 350.931 501.681 350.872 501.288 350.92C500.896 350.967 500.523 351.119 500.208 351.359Z" fill="#263238"/>
<path opacity="0.1" d="M522.254 370.328L589.125 411.48C588.333 412.303 587.435 413.016 586.454 413.602C584.336 414.823 582.435 414.888 581.1 413.974L516.117 372.822C516.707 373.096 517.36 373.207 518.008 373.144C518.656 373.08 519.275 372.845 519.802 372.462C520.735 371.897 521.565 371.175 522.254 370.328Z" fill="black"/>
<path d="M533.476 311.737C533.476 311.184 533.476 310.657 533.399 310.117C533.322 309.577 533.335 309.05 533.271 308.522C533.207 307.995 533.207 307.828 533.168 307.481C533.078 306.555 532.937 305.655 532.796 304.793C532.719 304.407 532.655 303.996 532.578 303.61C532.501 303.224 532.423 302.877 532.346 302.504C532.115 301.514 531.884 300.536 531.602 299.61C531.448 299.173 531.319 298.723 531.165 298.324C531.14 298.257 531.118 298.189 531.101 298.119C530.934 297.681 530.793 297.27 530.626 296.833C530.452 296.36 530.255 295.897 530.035 295.444C529.895 295.105 529.737 294.775 529.56 294.454C529.468 294.211 529.352 293.978 529.213 293.759C529.085 293.476 528.931 293.193 528.777 292.923L528.661 292.73C528.533 292.486 528.379 292.255 528.238 292.01C528.096 291.766 528.032 291.702 527.942 291.547C527.25 290.462 526.478 289.43 525.631 288.461C525.477 288.307 525.336 288.139 525.195 287.985C525.053 287.831 524.951 287.728 524.835 287.599L524.36 287.136C523.923 286.677 523.455 286.247 522.96 285.85C522.736 285.652 522.5 285.467 522.254 285.297C522.01 285.104 521.766 284.924 521.509 284.757C521.127 284.472 520.729 284.21 520.315 283.973L519.994 283.767H519.93L505.806 275.549L505.703 275.485C502.048 273.443 497.922 272.397 493.737 272.45C487.496 272.45 480.46 274.508 473 278.816C447.32 293.631 426.596 329.664 426.596 359.319C426.596 374.096 431.732 384.487 440.104 389.36H440.181L454.305 397.565H454.382L454.613 397.694C454.985 397.899 455.345 398.092 455.717 398.272C456.09 398.452 456.642 398.697 457.117 398.89C457.592 399.083 457.964 399.224 458.401 399.353C458.626 399.439 458.858 399.508 459.094 399.558C459.331 399.655 459.576 399.728 459.826 399.777L460.584 399.97C460.765 400.021 460.949 400.059 461.136 400.086L462.137 400.266H462.368L463.575 400.42C470.496 401.153 478.534 399.198 487.137 394.234C512.817 379.407 533.541 343.36 533.541 313.731C533.515 313.113 533.502 312.445 533.476 311.737ZM502.391 290.776C503.395 294.463 503.888 298.271 503.854 302.092C503.854 328.237 484.749 361.364 462.15 374.43C458.851 376.397 455.288 377.883 451.57 378.841C450.565 375.15 450.072 371.337 450.106 367.511C450.106 341.367 469.199 308.24 491.811 295.174C495.109 293.208 498.672 291.727 502.391 290.776Z" fill="#407BFF"/>
<path opacity="0.1" d="M453.637 397.243L440.027 389.347C431.681 384.461 426.519 374.057 426.519 359.306C426.519 346.086 430.654 331.606 437.497 318.296L451.621 326.513C444.765 339.811 440.63 354.304 440.63 367.524C440.682 381.979 445.548 392.228 453.637 397.243Z" fill="black"/>
<path opacity="0.4" d="M533.476 311.737C533.476 311.184 533.476 310.657 533.399 310.117C533.322 309.577 533.335 309.05 533.271 308.522C533.207 307.995 533.207 307.828 533.168 307.481C533.078 306.555 532.937 305.655 532.796 304.793C532.719 304.407 532.654 303.996 532.577 303.61C532.5 303.224 532.423 302.877 532.346 302.504C532.115 301.514 531.884 300.536 531.602 299.61C531.448 299.173 531.319 298.723 531.165 298.324C531.14 298.257 531.118 298.188 531.101 298.119C530.934 297.681 530.793 297.27 530.626 296.833C530.452 296.36 530.255 295.897 530.035 295.444C529.895 295.105 529.736 294.775 529.56 294.454C529.468 294.211 529.352 293.978 529.213 293.759C529.085 293.476 528.931 293.193 528.777 292.923L528.661 292.73C528.533 292.486 528.379 292.254 528.238 292.01C528.096 291.766 528.032 291.702 527.942 291.547C527.25 290.462 526.477 289.43 525.631 288.461C525.477 288.306 525.336 288.139 525.194 287.985C525.053 287.831 524.951 287.728 524.835 287.599L524.36 287.136C523.922 286.677 523.455 286.247 522.96 285.85C522.736 285.652 522.5 285.467 522.254 285.297C522.01 285.104 521.766 284.924 521.509 284.757C521.127 284.472 520.729 284.21 520.315 283.973C511.892 278.829 499.771 278.957 487.111 286.969C461.675 303.018 440.823 338.602 440.694 367.473C440.63 382.493 446.01 392.974 454.6 397.745C454.972 397.951 455.332 398.144 455.704 398.324C456.077 398.504 456.629 398.748 457.104 398.941C457.579 399.134 457.951 399.275 458.388 399.404C458.613 399.49 458.845 399.559 459.081 399.61C459.318 399.706 459.563 399.779 459.813 399.828L460.571 400.021C460.752 400.072 460.936 400.111 461.123 400.137L462.124 400.317H462.355L463.562 400.471C470.483 401.204 478.521 399.25 487.124 394.286C512.804 379.458 533.528 343.412 533.528 313.782C533.515 313.113 533.502 312.445 533.476 311.737ZM482.399 386.197C476.646 389.528 471.112 391.277 466.374 391.277C457.489 391.277 453.406 385.207 451.57 378.841C450.564 375.15 450.072 371.337 450.106 367.511C450.106 341.367 469.199 308.239 491.81 295.174C495.109 293.208 498.672 291.727 502.391 290.776C504.173 290.338 506 290.11 507.835 290.094C522.524 290.094 524.09 306.709 524.09 313.859C524.09 340.004 505.01 373.131 482.399 386.197Z" fill="white"/>
<path opacity="0.1" d="M524.09 313.86C524.09 339.991 505.01 373.131 482.399 386.197C476.646 389.528 471.112 391.277 466.387 391.277C464.322 391.36 462.265 390.971 460.371 390.14C458.478 389.309 456.799 388.057 455.46 386.48C455.229 386.21 455.011 385.927 454.793 385.644C454.574 385.361 454.369 385.065 454.189 384.757C454.044 384.546 453.911 384.327 453.791 384.101C453.701 383.959 453.611 383.818 453.534 383.676C453.457 383.535 453.354 383.316 453.252 383.136C453.149 382.956 453.085 382.802 453.008 382.635C452.931 382.468 452.841 382.3 452.764 382.12L452.379 381.194C452.225 380.809 452.083 380.423 451.955 380.024C451.826 379.626 451.685 379.24 451.583 378.841C455.301 377.883 458.864 376.397 462.163 374.43C484.761 361.364 503.867 328.237 503.867 302.093C503.9 298.271 503.408 294.463 502.403 290.776C504.186 290.339 506.012 290.11 507.847 290.094C508.564 290.097 509.28 290.14 509.992 290.223L510.659 290.326C522.716 292.332 524.09 307.198 524.09 313.86Z" fill="black"/>
<path opacity="0.7" d="M515.975 309.255C515.975 335.4 496.895 368.527 474.284 381.593C468.531 384.924 462.997 386.737 458.259 386.737C457.317 386.741 456.376 386.663 455.447 386.505C455.216 386.235 454.998 385.952 454.78 385.669C454.562 385.387 454.356 385.091 454.176 384.782C454.032 384.571 453.899 384.352 453.778 384.126C453.688 383.985 453.599 383.843 453.521 383.702C453.444 383.56 453.342 383.342 453.239 383.162C453.136 382.982 453.072 382.827 452.995 382.66C452.918 382.493 452.828 382.326 452.751 382.146L452.366 381.22C452.212 380.834 452.071 380.448 451.942 380.05C451.814 379.651 451.673 379.265 451.57 378.867C455.288 377.908 458.851 376.423 462.15 374.456C484.748 361.39 503.854 328.262 503.854 302.118C503.888 298.296 503.395 294.488 502.391 290.801C504.173 290.364 506 290.135 507.835 290.12C508.551 290.122 509.267 290.165 509.979 290.248L510.647 290.351C515.295 295.804 515.975 304.587 515.975 309.255Z" fill="white"/>
</svg>
