<svg width="47" height="47" viewBox="0 0 47 47" fill="none" xmlns="http://www.w3.org/2000/svg">
<g clip-path="url(#clip0_7773_375)">
<path d="M23.2394 46.4789C36.0742 46.4789 46.4789 36.0742 46.4789 23.2394C46.4789 10.4047 36.0742 0 23.2394 0C10.4047 0 0 10.4047 0 23.2394C0 36.0742 10.4047 46.4789 23.2394 46.4789Z" fill="#039BE5"/>
<path d="M10.6374 22.7357L33.0441 14.0965C34.084 13.7208 34.9923 14.3502 34.6553 15.9227L34.6573 15.9208L30.8421 33.8945C30.5594 35.1688 29.8022 35.4787 28.7428 34.8783L22.933 30.5965L20.1307 33.2961C19.8208 33.606 19.5594 33.8674 18.959 33.8674L19.3715 27.9549L30.1391 18.2273C30.6078 17.8148 30.0346 17.5824 29.4168 17.9929L16.1103 26.3708L10.374 24.5813C9.12876 24.1862 9.10164 23.3361 10.6374 22.7357Z" fill="white"/>
</g>
<defs>
<clipPath id="clip0_7773_375">
<rect width="46.4789" height="46.4789" fill="white"/>
</clipPath>
</defs>
</svg>
