<svg width="374" height="782" viewBox="0 0 374 782" fill="none" xmlns="http://www.w3.org/2000/svg">
<path opacity="0.53" d="M2261.49 662.897C2260.43 660.828 2258.21 659.732 2256.05 660.006L2224.73 541.592C2224.85 541.531 2225 541.47 2225.12 541.409C2227.77 540.07 2228.8 536.844 2227.47 534.196C2226.58 532.431 2224.85 531.397 2223 531.275L2213.6 400.018C2214.06 399.926 2214.51 399.774 2214.97 399.561C2217.61 398.222 2218.65 394.996 2217.31 392.349C2215.97 389.701 2212.75 388.666 2210.1 390.005C2209.37 390.37 2208.8 390.888 2208.34 391.466L2127.98 343.534C2128.58 342.134 2128.58 340.46 2127.82 338.969C2126.49 336.322 2123.26 335.287 2120.62 336.626C2120.07 336.9 2119.58 337.265 2119.19 337.691L2067.59 299.498C2068.44 298.007 2068.53 296.12 2067.68 294.476C2067.07 293.259 2066.04 292.407 2064.88 291.92L2086.9 204.486C2087.9 204.608 2088.96 204.425 2089.94 203.938C2092.58 202.599 2093.62 199.373 2092.28 196.726C2091.15 194.535 2088.72 193.439 2086.41 193.926L2064.27 130.108C2064.27 130.108 2064.3 130.108 2064.3 130.078C2066.95 128.739 2067.98 125.513 2066.65 122.865C2065.31 120.217 2062.08 119.183 2059.44 120.522C2058.01 121.252 2057.07 122.5 2056.7 123.93L1973.51 113.218C1973.51 112.396 1973.33 111.574 1972.93 110.783C1971.59 108.136 1968.37 107.101 1965.73 108.44C1963.08 109.779 1962.05 113.005 1963.39 115.652C1963.45 115.744 1963.51 115.835 1963.54 115.957L1829.38 220.707L1828.99 220.372L1828.78 221.194L1826.59 222.898L1828.44 222.502L1803.57 319.614C1802.53 319.492 1801.47 319.644 1800.5 320.162C1798.46 321.196 1797.4 323.327 1797.61 325.457L1720.22 343.534C1720.16 343.352 1720.07 343.169 1719.98 342.986C1718.64 340.339 1715.42 339.304 1712.77 340.643C1710.37 341.86 1709.31 344.66 1710.13 347.125L1494.97 328.713C1494.94 327.983 1494.76 327.222 1494.4 326.522C1493.06 323.875 1489.83 322.84 1487.19 324.179C1484.54 325.518 1483.51 328.744 1484.85 331.391C1485.36 332.396 1486.16 333.157 1487.07 333.674L1422.91 500.629C1421.72 500.325 1420.42 500.446 1419.23 501.055C1418.14 501.603 1417.35 502.485 1416.83 503.52L1344.98 479.813C1345.19 478.687 1345.07 477.469 1344.49 476.374C1343.15 473.726 1339.93 472.691 1337.29 474.031C1335.43 474.974 1334.37 476.83 1334.37 478.748L1265.98 486.995C1265.89 486.63 1265.74 486.234 1265.56 485.869C1264.22 483.221 1261 482.187 1258.35 483.526C1255.7 484.865 1254.67 488.091 1256.01 490.738C1256.13 490.951 1256.22 491.134 1256.34 491.316L1163.51 573.516C1161.93 572.116 1159.59 571.751 1157.58 572.785C1154.94 574.124 1153.9 577.35 1155.24 579.998C1156.12 581.702 1157.8 582.737 1159.59 582.889L1162.93 653.95C1162.36 654.041 1161.75 654.193 1161.2 654.498C1158.77 655.745 1157.7 658.576 1158.59 661.071L1118.24 677.353C1116.56 677.14 1114.95 677.718 1113.8 678.844L1042.71 623.152C1042.98 622.695 1043.19 622.178 1043.32 621.63C1043.95 618.77 1042.16 615.909 1039.3 615.239C1037.17 614.752 1035.07 615.604 1033.86 617.248L1019.96 610.979L942.822 576.163C943.399 573.333 941.605 570.564 938.777 569.925C935.919 569.286 933.061 571.081 932.392 573.942C932.21 574.763 932.24 575.616 932.423 576.376L852.636 605.47C851.937 604.162 850.69 603.157 849.139 602.792L853.609 553.856L735.936 542.596C735.844 540.222 734.203 538.122 731.8 537.574C730.523 537.27 729.277 537.483 728.212 538.001L690.204 482.217C690.995 481.517 691.603 480.543 691.846 479.417C692.485 476.556 690.691 473.696 687.833 473.026C686.495 472.722 685.157 472.965 684.062 473.574L618.354 385.045C619.084 384.345 619.6 383.432 619.844 382.397C620.482 379.536 618.688 376.676 615.83 376.006C612.972 375.367 610.114 377.163 609.445 380.023C609.171 381.149 609.323 382.275 609.718 383.249L546.838 419.982C546.108 419.038 545.044 418.308 543.797 418.034C541.273 417.456 538.78 418.764 537.746 421.047L370.906 370.133L370.693 370.772C371.088 368.976 370.541 367.181 369.355 365.933L412.684 312.675C413.171 312.98 413.718 313.223 414.296 313.345C417.154 313.984 420.012 312.188 420.681 309.328C421.32 306.467 419.526 303.606 416.668 302.937C414.965 302.541 413.292 303.028 412.076 304.063L302.886 203.543C303.221 203.025 303.495 202.447 303.647 201.778C304.133 199.647 303.251 197.547 301.609 196.3L333.475 142.19C333.688 142.281 333.901 142.342 334.114 142.373C336.972 143.012 339.83 141.216 340.499 138.355C341.138 135.495 339.344 132.634 336.486 131.965C334.965 131.63 333.415 131.965 332.229 132.817L204.217 8.52859C204.643 7.95036 204.978 7.28084 205.16 6.52002C205.799 3.65932 204.005 0.798627 201.146 0.129103C198.288 -0.509989 195.43 1.28555 194.761 4.14625C194.244 6.39828 195.247 8.65032 197.102 9.8372L145.715 120.461C145.563 120.43 145.442 120.37 145.29 120.339C142.431 119.7 139.573 121.496 138.904 124.356C138.479 126.274 139.117 128.191 140.455 129.439L64.1347 235.893C63.709 235.68 63.2833 235.497 62.7968 235.376C59.9386 234.706 57.0804 236.532 56.4114 239.393C55.7729 242.253 57.5669 245.114 60.4251 245.784C61.2156 245.966 61.9758 245.966 62.7056 245.784L93.6898 333.704C92.3215 334.404 91.2573 335.682 90.8924 337.295C90.2538 340.156 92.0478 343.017 94.906 343.686C95.5142 343.808 96.0919 343.839 96.6696 343.778L111.873 405.891C110.261 406.5 109.015 407.9 108.589 409.695C108.285 411.004 108.498 412.343 109.106 413.439L36.5864 466.331C35.887 465.601 34.9748 465.053 33.9106 464.809C31.0524 464.17 28.1942 465.966 27.5252 468.827C26.9779 471.231 28.1334 473.605 30.2314 474.731L6.54476 537.696H6.51435C3.65614 537.057 0.797934 538.853 0.128991 541.713C-0.509546 544.574 1.28444 547.435 4.14265 548.104C5.69338 548.469 7.2137 548.104 8.42996 547.222L65.2901 608.453C64.7732 609.061 64.3779 609.822 64.1955 610.674C63.5569 613.535 65.3509 616.396 68.2091 617.065C71.0673 617.704 73.9256 615.909 74.5945 613.048C74.6249 612.926 74.6249 612.835 74.6553 612.713L244.019 618.039L244.111 618.557L244.78 618.07L247.547 618.161L245.874 617.278L326.725 558.817C327.424 559.577 328.367 560.125 329.431 560.369C331.651 560.856 333.84 559.912 335.026 558.147L405.752 593.632C405.691 593.815 405.63 593.997 405.6 594.21C404.961 597.101 406.755 599.932 409.613 600.601C412.228 601.21 414.813 599.749 415.755 597.314L568.73 748.566C568.274 749.144 567.94 749.844 567.788 750.605C567.149 753.466 568.943 756.326 571.801 756.996C574.66 757.635 577.518 755.839 578.187 752.979C578.43 751.883 578.308 750.788 577.944 749.814L733.29 662.928C734.02 663.902 735.084 664.662 736.392 664.936C737.578 665.21 738.764 665.058 739.797 664.571L779.691 728.541C778.809 729.271 778.14 730.276 777.866 731.493C777.228 734.354 779.022 737.214 781.88 737.884C783.887 738.341 785.863 737.58 787.11 736.119L844.7 773.399C844.548 773.764 844.396 774.13 844.305 774.525C843.666 777.416 845.46 780.247 848.318 780.916C851.176 781.555 854.035 779.76 854.704 776.899C854.764 776.686 854.795 776.473 854.795 776.26L978.154 772.547C978.488 774.647 980.039 776.412 982.228 776.899C985.087 777.538 987.945 775.743 988.614 772.882C989.039 770.995 988.431 769.139 987.154 767.891L1029.81 711.346C1030.33 711.681 1030.88 711.925 1031.49 712.046C1034.13 712.655 1036.75 711.164 1037.66 708.699L1108.29 731.371C1108.26 731.493 1108.23 731.584 1108.2 731.706C1107.56 734.597 1109.36 737.427 1112.22 738.097C1114.1 738.523 1115.96 737.884 1117.2 736.606C1118.21 735.723 1118.81 734.476 1118.94 733.167L1209.55 730.458C1209.64 731.006 1209.79 731.523 1210.06 732.041C1211.4 734.688 1214.63 735.723 1217.27 734.384C1219.22 733.41 1220.28 731.371 1220.19 729.332L1234.94 725.224L1316.79 702.521C1318.16 705.077 1321.32 706.051 1323.94 704.743C1326.58 703.404 1327.62 700.178 1326.28 697.53C1325.88 696.769 1325.34 696.13 1324.7 695.643L1367.6 621.904C1368.97 622.452 1370.58 622.452 1372.01 621.721L1399.95 662.38L1498.01 595.427C1499.59 597.193 1502.21 597.771 1504.43 596.645C1505.58 596.067 1506.44 595.093 1506.92 593.997L1572.08 612.622C1571.93 613.687 1572.08 614.813 1572.6 615.848C1573.94 618.496 1577.16 619.53 1579.81 618.191C1581.02 617.552 1581.91 616.518 1582.36 615.331L1689.88 641.442C1689.76 642.446 1689.94 643.481 1690.43 644.455C1691.76 647.103 1694.99 648.137 1697.63 646.798C1700.28 645.459 1701.31 642.233 1699.97 639.586C1699.46 638.551 1698.64 637.76 1697.66 637.273L1722.78 568.403C1723.96 568.677 1725.21 568.525 1726.37 567.947C1728.68 566.76 1729.77 564.142 1729.1 561.738L1890.56 493.782L1890.29 493.142C1891.14 494.786 1892.72 495.821 1894.42 496.034L1895.15 565.025C1894.58 565.116 1894.03 565.268 1893.48 565.542C1890.84 566.881 1889.8 570.107 1891.14 572.755C1892.48 575.403 1895.7 576.437 1898.35 575.098C1899.9 574.307 1900.9 572.877 1901.17 571.264L2049.98 578.629C2050.04 579.268 2050.23 579.876 2050.53 580.454C2051.53 582.402 2053.54 583.498 2055.61 583.376L2065.73 645.642C2065.52 645.733 2065.34 645.794 2065.13 645.916C2062.48 647.255 2061.45 650.481 2062.78 653.128C2064.12 655.776 2067.34 656.811 2069.99 655.472C2071.39 654.741 2072.36 653.493 2072.73 652.094L2251.33 665.758C2251.36 666.488 2251.55 667.219 2251.91 667.919C2253.25 670.566 2256.47 671.601 2259.12 670.262C2261.76 668.771 2262.83 665.545 2261.49 662.897ZM2210.59 399.774C2211.11 399.987 2211.68 400.109 2212.23 400.139L2221.63 531.397C2221.17 531.488 2220.72 531.64 2220.26 531.853C2219.53 532.218 2218.92 532.766 2218.43 533.375L2156.53 497.494L2210.59 399.774ZM2058.16 299.346C2058.56 300.106 2059.1 300.715 2059.71 301.202L2033.68 347.399L2054.6 290.581L2058.47 293.928C2057.46 295.541 2057.28 297.58 2058.16 299.346ZM2076.44 405.465C2076.16 405.617 2075.92 405.77 2075.68 405.952L2034.11 358.751C2034.99 357.746 2035.45 356.438 2035.42 355.129L2069.63 350.047L2077.29 405.13C2076.98 405.222 2076.71 405.313 2076.44 405.465ZM2081.03 415.143L2112.22 461.979L2076.5 415.052C2077.87 415.721 2079.51 415.812 2081.03 415.143ZM2073.61 411.247L2042.32 370.163L2074.67 406.896C2073.7 408.113 2073.3 409.695 2073.61 411.247ZM2035.24 353.76C2035.14 353.425 2035.02 353.09 2034.87 352.786C2034.48 352.025 2033.96 351.416 2033.32 350.929L2060.96 301.871C2061.6 302.145 2062.3 302.267 2063.03 302.267L2069.47 348.677L2035.24 353.76ZM2031.28 350.016C2030.31 349.803 2029.25 349.834 2028.24 350.199L1950.22 201.047L1950.31 200.56C1950.43 200.469 1950.52 200.378 1950.61 200.317L2053.51 289.668L2031.28 350.016ZM2027.03 350.838C2026.63 351.112 2026.27 351.447 2025.96 351.812L1930.36 291.524L1946.72 201.656C1947.42 201.717 1948.12 201.625 1948.82 201.382L2027.03 350.838ZM1921.67 362.463C1922.21 361.703 1922.55 360.79 1922.64 359.846L2024.78 356.133C2024.87 356.651 2025.02 357.168 2025.29 357.685C2025.35 357.807 2025.41 357.898 2025.48 357.99L1966.49 404.43L1921.67 362.463ZM2003.55 440.98C2003.19 441.498 2002.91 442.076 2002.73 442.685L1936.41 433.25C1936.41 432.429 1936.23 431.546 1935.84 430.755C1935.78 430.633 1935.72 430.542 1935.65 430.451L1966.43 406.226L2003.55 440.98ZM1808.04 323.144L1897.65 277.525C1898.25 278.408 1899.11 279.077 1900.05 279.442L1881.96 348.19L1808.28 325.822C1808.43 324.94 1808.34 324.027 1808.04 323.144ZM1901.39 279.808C1901.69 279.838 1902.02 279.868 1902.33 279.838L1915.71 354.216C1915.43 354.307 1915.16 354.399 1914.89 354.551C1913.64 355.19 1912.76 356.225 1912.3 357.412L1883.23 348.586L1901.39 279.808ZM1903.67 279.595C1903.94 279.503 1904.21 279.412 1904.49 279.26C1905.16 278.925 1905.73 278.438 1906.19 277.89L1928.84 292.163L1917.59 353.942C1917.44 353.942 1917.26 353.942 1917.11 353.942L1903.67 279.595ZM1930.09 292.985L2025.23 352.968C2024.99 353.516 2024.81 354.125 2024.75 354.733L1922.61 358.446C1922.52 357.929 1922.37 357.412 1922.09 356.894C1921.42 355.555 1920.27 354.642 1918.93 354.216L1930.09 292.985ZM1929.12 290.733L1906.92 276.734C1907.59 275.304 1907.62 273.569 1906.83 272.047C1906.46 271.317 1905.92 270.678 1905.31 270.221L1916.41 250.927L1944.96 201.199C1945.08 201.26 1945.23 201.291 1945.35 201.352L1929.12 290.733ZM1904.12 269.552C1902.72 268.974 1901.11 268.974 1899.65 269.734C1897.43 270.86 1896.34 273.356 1896.86 275.699L1877.18 259.661L1943.56 200.378C1943.62 200.439 1943.71 200.499 1943.77 200.56L1904.12 269.552ZM1896.03 276.795L1807.43 321.927L1876.15 260.574L1896.03 276.795ZM1807.89 327.161L1881.59 349.529L1860.19 430.785C1859.36 430.694 1858.51 430.755 1857.72 431.059L1806.03 329.383C1806.85 328.805 1807.49 328.013 1807.89 327.161ZM1882.9 349.925L1912 358.751C1911.88 359.755 1912.06 360.79 1912.55 361.763C1912.82 362.281 1913.18 362.768 1913.58 363.163L1862.13 431.424C1861.92 431.303 1861.74 431.211 1861.49 431.12L1882.9 349.925ZM1914.95 364.107C1915.22 364.229 1915.49 364.35 1915.8 364.442L1904.27 433.95L1864.84 435.198C1864.75 434.65 1864.59 434.133 1864.32 433.616C1864.05 433.098 1863.71 432.611 1863.32 432.216L1914.95 364.107ZM1905.4 435.32L1925.89 434.681C1925.98 435.016 1926.11 435.35 1926.29 435.655C1926.65 436.385 1927.17 436.963 1927.78 437.45L1897.62 485.839C1897.43 485.747 1897.25 485.686 1897.07 485.595L1905.4 435.32ZM1925.71 433.281L1905.64 433.92L1917.14 364.685C1917.5 364.685 1917.87 364.685 1918.23 364.624L1929.18 428.199C1929 428.259 1928.81 428.351 1928.63 428.442C1926.75 429.385 1925.68 431.303 1925.71 433.281ZM1919.57 364.198C1919.63 364.168 1919.69 364.137 1919.75 364.107C1920.12 363.924 1920.42 363.711 1920.72 363.468L1965.39 405.283L1934.77 429.385C1933.65 428.29 1932.07 427.742 1930.49 427.894L1919.57 364.198ZM1936.2 434.65L2002.55 444.054C2002.55 444.906 2002.73 445.758 2003.13 446.55C2003.34 446.945 2003.58 447.31 2003.86 447.645L1973.63 481.7L1935.05 436.781C1935.59 436.172 1935.99 435.442 1936.2 434.65ZM1967.52 405.374L2026.36 359.055C2026.87 359.572 2027.48 359.938 2028.15 360.211L2008.54 438.82C2007.54 438.698 2006.47 438.881 2005.5 439.367C2005.13 439.55 2004.83 439.763 2004.52 440.007L1967.52 405.374ZM2029.46 360.546C2030.46 360.668 2031.53 360.485 2032.5 359.998C2032.59 359.968 2032.65 359.907 2032.74 359.877L2121.16 476.009C2120.68 476.465 2120.28 476.983 2119.98 477.591L2013.13 445.028C2013.31 443.932 2013.16 442.776 2012.61 441.711C2012.01 440.493 2010.97 439.611 2009.79 439.154L2029.46 360.546ZM2012.77 446.337L2119.55 478.9C2119.31 480.056 2119.46 481.274 2120.01 482.4C2120.31 483.008 2120.71 483.495 2121.16 483.921L2097.42 517.58L2012.4 447.006C2012.55 446.763 2012.64 446.55 2012.77 446.337ZM2134.7 543.874C2134.6 543.448 2134.45 543.022 2134.24 542.596C2133.84 541.835 2133.3 541.196 2132.63 540.709L2155.86 498.712L2217.77 534.562C2217.52 535.14 2217.37 535.779 2217.37 536.418L2134.7 543.874ZM2213.81 538.153L2062.91 575.555L2124.9 547.83C2126.33 550.204 2129.37 551.087 2131.9 549.809C2133.69 548.896 2134.76 547.13 2134.82 545.244L2213.81 538.153ZM2131.41 540.07C2130.89 539.857 2130.35 539.735 2129.77 539.705L2125.97 485.169C2126.39 485.078 2126.79 484.926 2127.18 484.743C2127.91 484.378 2128.52 483.83 2129.01 483.221L2154.64 498.073L2131.41 540.07ZM2128.4 539.796C2127.95 539.887 2127.49 540.04 2127.03 540.253C2126.58 540.496 2126.18 540.77 2125.82 541.105L2098.48 518.432L2122.29 484.682C2122.99 485.047 2123.78 485.26 2124.6 485.291L2128.4 539.796ZM2097.69 519.558L2124.93 542.17C2124.11 543.448 2123.87 545.061 2124.33 546.552L2060.05 575.281C2059.8 574.855 2059.5 574.429 2059.17 574.094L2097.69 519.558ZM2060.72 577.502L2217.71 538.579C2217.77 538.731 2217.83 538.914 2217.92 539.066C2217.95 539.127 2217.98 539.157 2218.01 539.218L2125.12 607.509L2060.47 579.481C2060.69 578.872 2060.75 578.172 2060.72 577.502ZM2209.22 398.983C2209.28 399.013 2209.34 399.074 2209.37 399.105L2155.31 496.825L2129.71 482.004C2130.29 480.604 2130.29 478.961 2129.56 477.5C2129.44 477.226 2129.25 476.983 2129.07 476.739L2209.22 398.983ZM2208.25 398.009L2128.1 475.765C2127.31 475.126 2126.36 474.761 2125.39 474.639L2124.54 405.678L2207.34 396.122C2207.43 396.518 2207.58 396.883 2207.76 397.248C2207.91 397.522 2208.1 397.766 2208.25 398.009ZM2125.51 346.212C2126.21 345.847 2126.82 345.33 2127.28 344.751L2207.64 392.683C2207.37 393.322 2207.21 394.022 2207.21 394.722L2124.57 404.278L2123.87 346.73C2124.42 346.638 2124.97 346.486 2125.51 346.212ZM2124.02 474.639C2123.54 474.7 2123.05 474.852 2122.59 475.065L2082.18 414.443C2083.46 413.439 2084.16 411.917 2084.19 410.334L2123.17 405.83L2124.02 474.639ZM2120.8 346.273C2121.32 346.517 2121.89 346.699 2122.47 346.76L2123.17 404.461L2084.04 408.965C2083.95 408.569 2083.79 408.204 2083.61 407.839C2083.28 407.169 2082.82 406.622 2082.3 406.165L2120.8 346.273ZM2119.64 345.512L2081.15 405.404C2080.36 405.039 2079.51 404.857 2078.66 404.887L2070.99 349.834L2117.94 342.865C2118.03 343.199 2118.15 343.504 2118.31 343.839C2118.64 344.508 2119.1 345.086 2119.64 345.512ZM2065.37 301.719C2065.92 301.445 2066.4 301.08 2066.8 300.654L2118.4 338.847C2117.94 339.669 2117.73 340.613 2117.73 341.556L2070.78 348.525L2064.33 302.145C2064.7 301.993 2065.03 301.871 2065.37 301.719ZM2063.57 291.616C2062.57 291.494 2061.51 291.676 2060.53 292.163C2060.11 292.376 2059.74 292.65 2059.41 292.955L2055.15 289.242L2083.76 211.607L2063.57 291.616ZM2054.03 288.268L1951.53 199.282C1951.95 198.643 1952.23 197.882 1952.35 197.121L2082.24 199.799C2082.3 200.439 2082.49 201.047 2082.79 201.656C2083.31 202.691 2084.13 203.482 2085.07 203.969L2054.03 288.268ZM1951.92 194.109L2020.49 151.746L2082.82 196.634C2082.52 197.182 2082.34 197.76 2082.24 198.369L1952.35 195.691C1952.32 195.174 1952.17 194.626 1951.92 194.109ZM2063.03 130.595L2085.16 194.413H2085.13C2084.55 194.717 2084.07 195.082 2083.67 195.539L2021.8 150.985L2057.83 128.739C2059.04 130.291 2061.08 130.991 2063.03 130.595ZM1973.42 114.648L2056.61 125.361C2056.61 126.091 2056.76 126.852 2057.1 127.552L2020.58 150.103L1972.96 115.835C1973.15 115.439 1973.3 115.044 1973.42 114.648ZM1970.68 118.057C1971.26 117.752 1971.75 117.387 1972.17 116.931L2019.3 150.894L1952.04 192.435L1967.82 118.635C1968.77 118.696 1969.77 118.513 1970.68 118.057ZM1964.48 117.083C1965.06 117.631 1965.73 118.057 1966.46 118.331L1950.64 192.343C1949.03 190.913 1946.66 190.487 1944.62 191.552C1942.62 192.556 1941.55 194.656 1941.71 196.756L1832.27 220.311L1964.48 117.083ZM1942.01 198.095C1942.1 198.308 1942.16 198.521 1942.28 198.734C1942.4 198.947 1942.5 199.13 1942.65 199.313L1876.09 258.748L1831.03 221.985L1942.01 198.095ZM1829.9 222.837L1875.05 259.691L1806.52 320.892C1806.06 320.496 1805.54 320.192 1805 319.979L1829.9 222.837ZM1801.2 329.992C1802.32 330.387 1803.6 330.418 1804.78 329.992L1856.48 431.668C1856.05 431.942 1855.69 432.307 1855.35 432.672L1774.65 381.971L1801.2 329.992ZM1854.2 436.72L1788.37 453.58L1769.03 458.54L1734.24 467.457C1734.24 467.457 1734.24 467.427 1734.21 467.427C1733.72 466.483 1733 465.753 1732.14 465.235L1774.01 383.188L1854.59 433.829C1854.23 434.742 1854.07 435.746 1854.2 436.72ZM1720.62 344.904L1798 326.826C1798.06 327.009 1798.16 327.192 1798.25 327.374C1798.67 328.196 1799.28 328.866 1799.98 329.352L1773.53 381.21L1720.16 347.673C1720.56 346.821 1720.71 345.878 1720.62 344.904ZM1717.73 350.229C1718.4 349.895 1718.98 349.408 1719.43 348.86L1772.89 382.458L1730.93 464.718C1730.44 464.596 1729.92 464.505 1729.41 464.535L1727.07 443.719L1716.58 350.686C1716.97 350.534 1717.37 350.412 1717.73 350.229ZM1715.21 350.808L1725.58 442.898L1728.04 464.688C1727.7 464.779 1727.37 464.901 1727.04 465.083C1726.12 465.54 1725.39 466.24 1724.91 467.061L1680.94 450.475L1714.26 350.686C1714.57 350.747 1714.9 350.808 1715.21 350.808ZM1529.64 424.973C1529.91 424.973 1530.15 424.973 1530.43 424.942L1543.23 476.922L1552.08 512.802C1551.92 512.863 1551.74 512.924 1551.59 513.015C1550.1 513.776 1549.13 515.115 1548.79 516.637L1515.22 513.593L1529.64 424.973ZM1513.83 513.441L1427.11 505.62C1427.08 504.859 1426.89 504.098 1426.53 503.398C1426.47 503.277 1426.41 503.155 1426.35 503.064L1526.08 423.481C1526.72 424.09 1527.45 424.516 1528.27 424.76L1513.83 513.441ZM1544.38 475.887L1531.73 424.608C1531.89 424.547 1532.07 424.486 1532.22 424.394C1532.92 424.029 1533.5 423.542 1533.95 422.995L1604.25 466.27L1557.25 513.532C1556.15 512.711 1554.78 512.315 1553.38 512.467L1544.38 475.887ZM1631.38 434.498C1631.38 435.289 1631.56 436.111 1631.95 436.872C1632.14 437.207 1632.32 437.511 1632.56 437.815L1605.26 465.266L1534.68 421.838C1534.81 421.595 1534.9 421.321 1534.96 421.047L1631.38 434.498ZM1534.99 418.308L1585.22 398.374L1631.98 431.911C1631.77 432.307 1631.62 432.703 1631.53 433.129L1535.17 419.677C1535.17 419.221 1535.11 418.764 1534.99 418.308ZM1633.54 438.759C1634.81 439.672 1636.45 440.037 1638.01 439.641L1660.72 497.494C1660.41 497.951 1660.17 498.438 1660.02 498.955L1606.47 465.996L1633.54 438.759ZM1605.47 467.001L1659.78 500.416C1659.78 500.751 1659.81 501.116 1659.87 501.451L1559.19 516.302C1559.1 515.967 1558.98 515.663 1558.83 515.328C1558.67 515.024 1558.49 514.75 1558.28 514.476L1605.47 467.001ZM1559.37 517.702L1626.36 507.811L1660.29 502.79C1660.32 502.851 1660.35 502.911 1660.38 502.972C1660.66 503.49 1660.96 503.916 1661.36 504.311L1612.01 567.794L1558.49 520.776C1559.07 519.862 1559.37 518.767 1559.37 517.702ZM1639.31 439.124C1640.22 438.607 1640.95 437.876 1641.41 437.024L1679.24 451.297L1664.55 495.212C1663.91 495.273 1663.3 495.455 1662.7 495.76C1662.36 495.912 1662.06 496.125 1661.75 496.368L1639.31 439.124ZM1680.51 451.784L1724.36 468.34C1724.09 469.222 1724.06 470.196 1724.3 471.109L1669.69 497.707C1668.84 496.368 1667.5 495.486 1666.01 495.242L1680.51 451.784ZM1670.24 498.986L1724.79 472.418C1725.45 473.635 1726.55 474.517 1727.77 474.944L1712.81 550.143L1669.26 503.946C1670.39 502.577 1670.75 500.72 1670.24 498.986ZM1712.32 349.895C1712.53 350.047 1712.74 350.169 1712.99 350.26L1679.66 449.989L1641.93 435.746C1642.23 434.529 1642.11 433.22 1641.5 432.003C1641.32 431.637 1641.08 431.303 1640.83 430.998L1712.32 349.895ZM1710.89 348.464C1711.01 348.647 1711.13 348.799 1711.28 348.951L1639.8 430.055C1638.22 428.959 1636.12 428.716 1634.3 429.659C1633.72 429.964 1633.23 430.329 1632.81 430.785L1586.77 397.766L1710.89 348.464ZM1494.97 330.113L1707.58 348.312L1585.46 396.792L1494.49 331.513C1494.7 331.087 1494.85 330.6 1494.97 330.113ZM1493.64 332.639L1583.91 397.4L1534.5 417.03C1533.29 414.808 1530.67 413.804 1528.3 414.504L1492.51 333.583C1492.94 333.309 1493.33 332.974 1493.64 332.639ZM1488.47 334.191C1489.38 334.404 1490.32 334.404 1491.23 334.13L1527.02 415.052C1524.65 416.482 1523.74 419.525 1525.05 422.051C1525.11 422.173 1525.17 422.295 1525.23 422.386L1425.49 501.968C1425.13 501.633 1424.73 501.329 1424.34 501.116L1488.47 334.191ZM1417.01 508.268C1417.47 509.15 1418.14 509.85 1418.9 510.337L1405.4 539.127L1345.8 506.959C1345.95 506.594 1346.04 506.198 1346.1 505.803L1416.43 506.502C1416.55 507.081 1416.71 507.689 1417.01 508.268ZM1342.3 483.586C1343.4 483.039 1344.19 482.156 1344.7 481.121L1416.55 504.829C1416.52 504.92 1416.52 505.011 1416.49 505.103L1346.16 504.403C1346.1 503.794 1345.92 503.185 1345.62 502.607C1344.73 500.903 1343.09 499.868 1341.33 499.716L1340.75 484.104C1341.27 484.013 1341.79 483.83 1342.3 483.586ZM1336.62 483.039C1337.41 483.647 1338.38 484.013 1339.35 484.104L1339.93 499.746C1339.41 499.838 1338.9 499.99 1338.38 500.264C1337.1 500.903 1336.19 501.998 1335.76 503.277L1319.86 499.959L1336.62 483.039ZM1336.07 507.476C1336.13 507.568 1336.19 507.659 1336.22 507.75L1232.05 588.58L1318.71 501.116L1335.49 504.616C1335.43 505.589 1335.61 506.563 1336.07 507.476ZM1266.38 563.686L1337.07 508.846C1337.77 509.546 1338.68 510.033 1339.63 510.246L1329.5 610.37L1229.46 595.701C1229.46 594.849 1229.28 593.997 1228.89 593.175C1228.83 593.084 1228.76 592.993 1228.73 592.902L1266.38 563.686ZM1266.32 488.364L1334.7 480.117C1334.79 480.482 1334.94 480.878 1335.13 481.243C1335.28 481.547 1335.46 481.852 1335.67 482.095L1318.31 499.625L1266.32 488.73C1266.29 488.608 1266.32 488.486 1266.32 488.364ZM1259.87 493.568C1261.03 493.812 1262.24 493.66 1263.37 493.112C1264.64 492.473 1265.56 491.347 1265.98 490.099L1317.1 500.812L1227.34 591.38C1227.06 591.167 1226.76 590.984 1226.45 590.832L1259.87 493.568ZM1225.18 590.345C1224.02 590.102 1222.8 590.223 1221.68 590.802C1220.52 591.41 1219.67 592.354 1219.19 593.48L1204.65 589.371L1257.89 495.151L1225.18 590.345ZM1168.53 656.811C1168.44 656.659 1168.35 656.476 1168.26 656.324L1220.98 599.962C1221.59 600.418 1222.29 600.723 1223.05 600.875L1217.94 673.092L1169.02 660.402C1169.26 659.215 1169.14 657.937 1168.53 656.811ZM1219.34 598.045C1219.52 598.41 1219.73 598.714 1219.98 599.019L1167.5 655.106L1203.92 590.619L1218.79 594.819C1218.67 595.884 1218.82 597.01 1219.34 598.045ZM1257.44 492.351C1257.53 492.442 1257.65 492.503 1257.74 492.595L1203.28 589.006L1165.46 578.324C1165.61 577.259 1165.46 576.133 1164.94 575.129C1164.82 574.916 1164.73 574.733 1164.61 574.55L1257.44 492.351ZM1161.11 582.798C1161.63 582.706 1162.11 582.554 1162.6 582.311C1163.76 581.702 1164.61 580.759 1165.09 579.633L1202.58 590.223L1166.28 654.498C1165.73 654.193 1165.12 654.011 1164.48 653.92L1161.11 582.798ZM1159.01 661.65C1159.32 662.258 1159.74 662.776 1160.23 663.232L1132.13 704.347L1116.81 699.812L1117.93 687.913C1120.3 687.822 1122.4 686.178 1122.95 683.774C1123.47 681.431 1122.37 679.148 1120.43 677.992L1159.32 662.289L1159.01 661.65ZM1115.41 699.417L1089.99 691.93C1090.02 691.687 1090.05 691.413 1090.05 691.169L1112.79 684.718C1113.43 686.239 1114.77 687.426 1116.5 687.822L1115.41 699.417ZM1112.52 681.4C1112.37 682.07 1112.37 682.74 1112.46 683.379L1094.31 688.552L1112.61 681.157C1112.58 681.248 1112.55 681.34 1112.52 681.4ZM1088.74 694.578C1089.11 694.182 1089.38 693.726 1089.62 693.239L1115.29 700.817L1112.76 727.263C1112.25 727.354 1111.73 727.506 1111.24 727.75L1096.07 705.534L1088.74 694.578ZM1114.16 727.232L1116.62 701.243L1131.28 705.564L1116.11 727.78C1115.5 727.476 1114.83 727.263 1114.16 727.232ZM1042.04 624.187L1112.76 679.605L1089.65 688.948C1089.59 688.857 1089.56 688.735 1089.53 688.643C1088.32 686.239 1085.52 685.174 1083.06 686.026L1041.83 624.4C1041.89 624.308 1041.95 624.247 1042.04 624.187ZM942.548 577.411L963.893 587.028L1033.34 618.374C1033.22 618.648 1033.13 618.891 1033.07 619.196C1032.67 620.93 1033.19 622.665 1034.28 623.913L1000.17 659.489L941.909 578.355C942.183 578.081 942.396 577.746 942.548 577.411ZM940.967 579.328L999.256 660.523L949.207 712.746C948.629 712.32 947.96 712.016 947.23 711.833C946.987 711.773 946.714 711.742 946.47 711.712L939.598 580.089C940.055 579.907 940.541 579.663 940.967 579.328ZM893.35 714.511L804.35 711.438C804.259 710.433 803.894 709.521 803.286 708.729L874.741 638.551L941.97 713.568C941.423 714.207 940.997 714.968 940.815 715.881C940.784 715.972 940.784 716.094 940.754 716.185L893.35 714.511ZM935.463 717.342L813.472 729.028L802.86 715.638C803.529 714.968 804.016 714.085 804.229 713.112C804.259 713.02 804.259 712.899 804.29 712.807L935.463 717.342ZM944.859 722.241C946.136 722.515 947.383 722.333 948.477 721.785L956.991 734.202L856.285 772.395L941.879 720.385C942.609 721.268 943.612 721.937 944.859 722.241ZM949.572 720.994C950.362 720.294 950.97 719.32 951.214 718.194C951.305 717.798 951.335 717.433 951.335 717.037L1027.2 707.542L958.268 733.684L949.572 720.994ZM934.855 579.511C935.372 579.846 935.95 580.12 936.619 580.272C937.166 580.394 937.683 580.424 938.2 580.394L945.072 711.803C944.342 711.925 943.643 712.229 943.034 712.655L875.745 637.577L934.855 579.511ZM853.335 609.153C853.518 608.331 853.487 607.509 853.305 606.718L933.091 577.624C933.274 577.989 933.517 578.324 933.791 578.629L874.802 636.573L852.241 611.405C852.758 610.735 853.153 610.005 853.335 609.153ZM851.237 612.318L873.829 637.516L802.313 707.755C802.192 707.664 802.04 707.542 801.888 707.451L817.304 674.766L846.433 613.018C846.585 613.079 846.737 613.109 846.919 613.139C848.501 613.505 850.051 613.139 851.237 612.318ZM742.656 658.089L771.298 644.668L796.445 707.299C796.08 707.482 795.776 707.725 795.472 707.999L742.078 662.623C742.412 662.106 742.656 661.528 742.808 660.919C742.99 659.915 742.929 658.971 742.656 658.089ZM772.545 644.09L843.605 610.766C844 611.435 844.578 612.013 845.247 612.44L815.935 674.553L800.671 706.873C800.519 706.812 800.367 706.781 800.215 706.751C799.364 706.568 798.512 706.599 797.691 706.782L772.545 644.09ZM735.997 543.935L852.301 555.073L847.953 602.64C846.372 602.701 844.882 603.462 843.94 604.71L735.784 544.635C735.875 544.391 735.936 544.178 735.997 543.935ZM735.145 545.852L843.24 605.896C843.119 606.17 843.027 606.475 842.967 606.779C842.754 607.722 842.815 608.635 843.058 609.487L772.028 642.781L733.655 547.222C734.233 546.887 734.75 546.4 735.145 545.852ZM685.126 483.282C685.309 483.343 685.461 483.404 685.643 483.434C686.92 483.708 688.167 483.526 689.231 482.978L727.239 538.761C726.449 539.461 725.841 540.435 725.598 541.561C725.445 542.261 725.415 542.961 725.537 543.631L648.882 564.234C648.487 563.26 647.787 562.408 646.875 561.83L685.126 483.282ZM543.919 512.133L505.12 536.144L482.072 495.516C482.832 494.999 483.471 494.299 483.896 493.416L542.642 507.872C542.459 509.454 542.946 511.007 543.919 512.133ZM545.013 513.076C545.53 513.441 546.138 513.685 546.777 513.837C547.142 513.928 547.507 513.959 547.872 513.959L528.624 572.085C527.59 571.903 526.587 571.994 525.675 572.359L505.819 537.331L545.013 513.076ZM553.253 508.176L631.429 491.073L642.466 561.19C641.432 561.495 640.49 562.103 639.821 562.956L582.261 527.836L553.102 510.033C553.132 509.972 553.132 509.911 553.162 509.85C553.253 509.272 553.284 508.694 553.253 508.176ZM639.091 564.112C638.939 564.416 638.848 564.751 638.757 565.086C638.665 565.421 638.635 565.755 638.635 566.09L572.258 572.329L551.976 512.102C552.189 511.859 552.402 511.554 552.585 511.28L639.091 564.112ZM570.859 572.481L532.79 576.072C532.425 574.55 531.361 573.242 529.932 572.542L549.361 513.776C549.878 513.624 550.395 513.411 550.851 513.106L570.859 572.481ZM530.753 581.672L595.975 653.402C595.671 653.737 595.427 654.133 595.214 654.559L544.071 637.79L529.628 582.311C530.023 582.128 530.388 581.915 530.753 581.672ZM531.756 580.698C532.273 580.089 532.638 579.328 532.82 578.507C532.912 578.142 532.942 577.776 532.942 577.411L571.315 573.79L597.677 652.033C597.434 652.154 597.191 652.307 596.978 652.459L531.756 580.698ZM572.714 573.668L638.757 567.46C639.061 568.799 639.882 569.986 641.037 570.746L624.678 604.497L601.721 651.789C601.569 651.728 601.387 651.698 601.205 651.637C600.444 651.454 599.684 651.485 598.985 651.607L572.714 573.668ZM626.199 604.436L642.253 571.325C642.405 571.385 642.588 571.446 642.77 571.477C644.382 571.842 645.993 571.446 647.21 570.503L670.987 594.241L603.546 652.854C603.363 652.672 603.151 652.52 602.938 652.398L626.199 604.436ZM648.183 569.529C648.639 568.92 648.973 568.251 649.156 567.46C649.308 566.821 649.308 566.181 649.247 565.573L725.932 544.97C726.084 545.335 726.297 545.639 726.51 545.974L672.021 593.358L648.183 569.529ZM683.88 482.674L645.659 561.221C645.476 561.16 645.324 561.099 645.142 561.069C644.686 560.977 644.26 560.917 643.804 560.947L632.766 490.769L681.812 480.026C682.207 481.091 682.937 482.034 683.88 482.674ZM617.411 385.836L683.12 474.365C682.39 475.065 681.873 475.978 681.63 477.013C681.508 477.561 681.478 478.139 681.508 478.656L632.554 489.369L616.317 386.292C616.712 386.201 617.077 386.049 617.411 385.836ZM613.641 386.414C614.097 386.505 614.523 386.536 614.979 386.536L631.216 489.704L552.949 506.837C552.585 505.802 551.916 504.92 551.003 504.281L612.972 386.201C613.185 386.262 613.428 386.353 613.641 386.414ZM611.147 385.045C611.33 385.227 611.543 385.41 611.756 385.562L549.787 503.642C549.574 503.551 549.362 503.49 549.118 503.429C548.845 503.368 548.571 503.337 548.297 503.307L544.314 439.185L611.147 385.045ZM547.811 424.394C548.054 423.268 547.932 422.142 547.537 421.138L607.468 386.262L544.192 437.511L543.615 428.442C545.652 428.077 547.324 426.525 547.811 424.394ZM546.929 503.398C545.196 503.733 543.736 504.92 543.037 506.563L484.383 492.138C484.656 490.769 484.383 489.399 483.683 488.304L543.007 440.25L546.929 503.398ZM539.51 427.56C540.057 427.955 540.726 428.259 541.425 428.442C541.699 428.503 541.973 428.533 542.246 428.564L542.885 438.607L486.42 484.347L539.51 427.56ZM370.51 371.441L537.351 422.355C537.077 423.938 537.533 425.46 538.506 426.616L482.254 486.752C481.707 486.356 481.038 486.052 480.339 485.869C478.666 485.504 476.994 485.96 475.747 486.965L369.446 373.145C369.902 372.689 370.267 372.08 370.51 371.441ZM474.805 487.999C474.683 488.182 474.561 488.395 474.44 488.608L392.768 449.775L363.183 435.716C363.243 435.563 363.274 435.411 363.304 435.259C363.943 432.398 362.179 429.568 359.351 428.898L365.159 374.941C366.314 375.002 367.439 374.697 368.382 374.089L474.805 487.999ZM474.136 492.899L389.879 529.023L360.416 438.881C361.297 438.454 362.057 437.785 362.605 436.963L423.722 466.027L441.662 474.548L473.953 489.886V489.917C473.71 490.951 473.801 491.956 474.136 492.899ZM232.313 557.843L143.769 560.917C143.769 560.825 143.739 560.734 143.708 560.643L217.992 533.101C218.691 534.44 219.938 535.475 221.519 535.809C223.951 536.357 226.353 535.17 227.448 533.04L232.313 557.843ZM228.786 532.705L325.326 554.647L233.681 557.812L228.786 532.705ZM305.653 393.992L321.404 406.287L268.558 451.967C268.284 451.723 267.98 451.51 267.676 451.328L299.755 395.666C299.937 395.727 300.119 395.788 300.332 395.848C302.4 396.305 304.437 395.514 305.653 393.992ZM301.153 326.187L410.404 309.601C410.525 309.967 410.647 310.332 410.86 310.667L305.41 386.992C304.711 386.232 303.768 385.684 302.704 385.44C302.522 385.41 302.309 385.379 302.126 385.349L301.153 326.187ZM306.718 389.488L360.598 371.685C360.659 371.867 360.75 372.05 360.841 372.202L322.438 405.374L306.353 392.805C306.505 392.501 306.596 392.166 306.687 391.801C306.9 391.04 306.9 390.249 306.718 389.488ZM173.872 308.658C172.26 308.628 170.74 309.328 169.706 310.514L137.019 289.12L180.166 235.893C180.592 236.136 181.048 236.349 181.534 236.471L173.872 308.658ZM181.139 253.118L178.615 311.823C178.007 310.423 176.791 309.297 175.21 308.871L181.139 253.118ZM172.595 319.188C172.899 319.249 173.172 319.279 173.476 319.31L175.27 381.941C173.963 382.154 172.777 382.853 171.956 383.858L142.553 365.933L171.743 318.883C171.986 319.036 172.291 319.127 172.595 319.188ZM174.845 319.218C176.365 318.914 177.673 317.94 178.433 316.571L176.243 367.972L174.845 319.218ZM183.237 236.684C183.906 236.654 184.544 236.502 185.122 236.228L246.178 329.261C245.327 329.992 244.719 330.965 244.445 332.122C244.141 333.461 244.384 334.77 244.962 335.865L179.923 383.523C179.223 382.793 178.311 382.245 177.247 382.001C177.156 381.971 177.064 381.971 176.973 381.941L183.237 236.684ZM293.156 201.078L228.938 218.303L222.461 183.609C223.89 183.153 225.107 182.088 225.715 180.627L293.217 199.617C293.126 200.104 293.096 200.621 293.156 201.078ZM227.6 218.668L187.889 229.319C187.585 228.589 187.129 227.919 186.521 227.372L218.296 183.244C218.721 183.457 219.177 183.64 219.633 183.761C220.12 183.883 220.637 183.913 221.123 183.883L227.6 218.668ZM188.163 232.545C188.315 231.906 188.315 231.267 188.254 230.628L227.843 220.007L248.003 328.226C247.759 328.318 247.547 328.409 247.334 328.5L186.308 235.528C187.22 234.797 187.889 233.763 188.163 232.545ZM255.908 388.697L181.413 386.658C181.352 385.927 181.108 385.258 180.774 384.649L245.813 336.991C246.513 337.721 247.425 338.269 248.489 338.513C248.885 338.604 249.249 338.634 249.645 338.634L255.908 388.697ZM250.983 338.482C251.591 338.33 252.168 338.056 252.685 337.691L297.474 387.175C296.927 387.814 296.531 388.575 296.319 389.457C296.288 389.579 296.288 389.701 296.258 389.823L257.277 388.757L250.983 338.482ZM179.862 390.979L260.409 453.245C260.135 453.701 259.952 454.219 259.8 454.766C259.466 456.227 259.77 457.658 260.5 458.814L213.005 498.59L178.341 392.014C178.919 391.77 179.436 391.405 179.862 390.979ZM261.412 459.849C261.534 459.971 261.655 460.062 261.777 460.184L224.711 525.675C224.438 525.553 224.164 525.462 223.89 525.401C223.161 525.249 222.431 525.219 221.732 525.371L213.491 499.99L261.412 459.849ZM261.26 452.18L180.683 389.884C180.956 389.427 181.169 388.91 181.291 388.362C181.321 388.24 181.321 388.118 181.352 388.027L256.091 390.066L263.692 450.78C262.75 451.023 261.929 451.51 261.26 452.18ZM257.459 390.127L296.227 391.192C296.379 392.775 297.231 394.175 298.538 395.057L266.399 450.81C266.338 450.78 266.277 450.78 266.186 450.749C265.791 450.658 265.426 450.628 265.03 450.628L257.459 390.127ZM298.478 386.262L253.689 336.778C254.236 336.139 254.631 335.378 254.844 334.496C254.935 334.07 254.966 333.613 254.966 333.187L299.785 326.4L300.758 385.379C299.937 385.501 299.177 385.805 298.478 386.262ZM254.783 331.848C254.388 330.448 253.445 329.292 252.138 328.592L297.2 205.795C297.231 205.795 297.261 205.825 297.292 205.825C297.474 205.856 297.687 205.886 297.869 205.917L299.815 325.001L254.783 331.848ZM250.831 328.105C250.344 327.983 249.827 327.953 249.371 327.983L229.181 219.642L293.46 202.417C293.886 203.634 294.768 204.638 295.923 205.277L250.831 328.105ZM294.099 197.517L149.151 127.217C149.212 127.065 149.242 126.882 149.303 126.7C149.303 126.639 149.334 126.578 149.334 126.517L263.875 133.456L295.528 196.117C294.981 196.513 294.494 196.969 294.099 197.517ZM291.18 197.639L226.08 179.318C226.475 176.579 224.711 173.962 222.005 173.353C220.059 172.897 218.113 173.597 216.866 174.997L151.857 130.047L291.18 197.639ZM217.171 182.422L185.365 226.611C185 226.428 184.575 226.276 184.149 226.154C183.359 225.972 182.538 226.002 181.777 226.154L171.591 198.46L216.106 181.114C216.41 181.601 216.745 182.057 217.171 182.422ZM180.5 226.641C179.162 227.341 178.129 228.589 177.764 230.172C177.703 230.476 177.673 230.78 177.642 231.054L66.8104 239.484C66.8104 239.423 66.78 239.362 66.78 239.301L170.345 198.947L180.5 226.641ZM66.8104 241.766C66.8712 241.462 66.9016 241.158 66.9321 240.853L177.764 232.424C177.977 233.397 178.433 234.31 179.132 235.01L135.864 288.359L66.3847 242.892C66.5672 242.558 66.7192 242.162 66.8104 241.766ZM136.137 290.185L168.946 311.671C168.763 312.036 168.642 312.401 168.551 312.797C168.399 313.527 168.368 314.227 168.49 314.927L100.927 336.23C100.683 335.713 100.349 335.226 99.9535 334.8L136.137 290.185ZM101.322 339.669C101.474 338.939 101.504 338.239 101.383 337.539L168.946 316.236C169.311 317.027 169.858 317.697 170.527 318.214L141.367 365.233L100.987 340.643C101.109 340.339 101.231 340.004 101.322 339.669ZM141.793 367.12L171.226 385.045C171.105 385.349 170.983 385.684 170.892 386.019C170.709 386.84 170.74 387.662 170.922 388.423L118.532 408.356C118.197 407.748 117.741 407.2 117.194 406.743L141.793 367.12ZM119.018 412.069C119.201 411.247 119.17 410.426 118.988 409.665L168.338 390.888L116.16 421.016L115.339 415.995C117.133 415.447 118.593 413.986 119.018 412.069ZM171.865 390.431C172.473 391.223 173.324 391.862 174.328 392.227L139.147 556.139L138.752 556.443C138.631 556.443 138.479 556.443 138.357 556.443L116.464 422.447L171.865 390.431ZM175.666 392.501C176.152 392.531 176.639 392.531 177.095 392.44L211.91 499.533L142.188 557.904C141.671 557.417 141.094 557.021 140.394 556.778L175.666 392.501ZM212.336 500.933L220.424 525.797C218.995 526.466 217.9 527.775 217.505 529.419C217.323 530.24 217.353 531.031 217.505 531.792L196.737 539.492L143.222 559.334C143.161 559.212 143.1 559.091 143.009 558.969L212.336 500.933ZM225.928 526.345L263.024 460.853C263.297 460.975 263.571 461.066 263.845 461.127C265.182 461.431 266.52 461.188 267.645 460.579L284.278 485.869L226.627 526.984C226.414 526.74 226.171 526.558 225.928 526.345ZM268.71 459.758C269.439 459.058 269.956 458.145 270.199 457.11C270.321 456.532 270.352 455.953 270.291 455.375L353.118 435.898C353.209 436.111 353.3 436.324 353.392 436.537L285.342 485.047L268.71 459.758ZM352.936 432.855C352.814 433.433 352.784 434.011 352.844 434.559L269.926 453.793C269.804 453.519 269.652 453.245 269.5 453.001L322.559 407.139L353.574 431.333C353.27 431.79 353.057 432.307 352.936 432.855ZM323.593 406.226L361.693 373.298C362.27 373.906 363 374.363 363.821 374.637L357.983 428.716C356.615 428.746 355.307 429.325 354.365 430.268L323.593 406.226ZM411.65 311.793L368.321 365.05C367.835 364.746 367.287 364.502 366.71 364.381C363.851 363.711 360.993 365.537 360.324 368.398C360.172 369.067 360.172 369.706 360.264 370.346L306.292 388.179C306.262 388.149 306.262 388.118 306.231 388.058L411.65 311.793ZM302.005 204.577L411.194 305.037C410.799 305.584 410.525 306.223 410.343 306.923C410.252 307.349 410.221 307.775 410.221 308.232L301.153 324.788L299.238 205.886C300.271 205.734 301.214 205.277 302.005 204.577ZM332.29 141.581L300.424 195.661C300.18 195.569 299.907 195.478 299.633 195.417C298.66 195.204 297.657 195.265 296.775 195.569L265.486 133.577L330.009 137.503C330.1 139.147 330.952 140.668 332.29 141.581ZM203.275 9.53288L331.225 133.79C330.708 134.43 330.313 135.19 330.1 136.043C330.1 136.073 330.1 136.103 330.07 136.134L264.726 132.178L202.971 9.74591C203.062 9.68504 203.184 9.59374 203.275 9.53288ZM198.349 10.4154C198.501 10.4459 198.623 10.5067 198.775 10.5372C199.778 10.7806 200.812 10.6893 201.724 10.3546L263.176 132.056L149.425 125.148C149.303 123.443 148.391 121.922 146.962 121.009L198.349 10.4154ZM148.057 129.104L216.076 176.092C215.863 176.488 215.711 176.914 215.62 177.34C215.437 178.192 215.468 179.014 215.65 179.805L171.166 197.152L146.567 130.26C147.144 129.956 147.631 129.591 148.057 129.104ZM141.58 130.23C142.006 130.443 142.431 130.625 142.918 130.747C143.708 130.93 144.529 130.93 145.29 130.747L169.858 197.669L66.2631 238.023C65.9895 237.536 65.655 237.08 65.2293 236.684L141.58 130.23ZM94.9973 333.278L64.013 245.358C64.6516 245.053 65.1989 244.597 65.655 244.079L134.982 289.424L98.8893 333.917C98.4028 333.613 97.8555 333.4 97.2777 333.248C96.5176 333.096 95.727 333.096 94.9973 333.278ZM98.0379 343.443C98.9197 343.108 99.6799 342.53 100.258 341.799L140.607 366.389L116.008 406.013C115.674 405.861 115.339 405.739 114.974 405.678C114.366 405.556 113.788 405.526 113.211 405.587L98.0379 343.443ZM109.957 414.534C110.657 415.265 111.569 415.812 112.633 416.056C113.089 416.147 113.545 416.208 114.001 416.178L114.914 421.716L43.6103 462.923L109.957 414.534ZM37.7114 467.944L115.157 423.177L136.989 556.656C136.228 556.869 135.56 557.265 134.982 557.782L37.2249 472.935C37.5594 472.418 37.833 471.809 37.9851 471.17C38.2587 470.074 38.1067 468.948 37.7114 467.944ZM36.3431 473.97L134.07 558.817C133.766 559.273 133.522 559.791 133.37 560.338L53.9181 549.048L34.762 474.944C35.3397 474.73 35.887 474.396 36.3431 473.97ZM7.91305 538.153L31.5997 475.187H31.6301C32.2382 475.339 32.8768 475.339 33.4545 475.278L52.4586 548.835L10.7409 542.9C10.7409 540.922 9.64622 539.066 7.91305 538.153ZM66.3543 607.479L9.49419 546.248C9.95029 545.67 10.3152 545 10.528 544.27L52.8234 550.295L67.449 606.901C67.0537 607.053 66.6888 607.235 66.3543 607.479ZM70.6113 606.627C69.9727 606.475 69.3646 606.475 68.7869 606.536L54.3134 550.478L132.215 561.556L73.1654 607.996C72.4965 607.357 71.6147 606.84 70.6113 606.627ZM74.7465 611.313C74.6553 610.522 74.4121 609.761 74.0168 609.122L133.218 562.56C133.522 564.69 135.103 566.516 137.323 567.003C139.482 567.49 141.671 566.577 142.857 564.873L241.648 616.609L74.7465 611.313ZM143.496 563.625C143.587 563.412 143.648 563.199 143.708 562.956C143.769 562.742 143.8 562.499 143.8 562.286L232.556 559.212L243.655 616.091L143.496 563.625ZM245.084 616.152L233.955 559.151L325.387 555.986C325.478 556.565 325.691 557.143 325.965 557.66L245.084 616.152ZM325.631 553.308L227.995 531.123C228.086 530.058 227.874 529.023 227.387 528.11L284.977 487.025L327.12 551.087C326.482 551.695 325.965 552.426 325.631 553.308ZM328.306 550.356L286.132 486.234L354.213 437.663C354.76 438.272 355.49 438.728 356.28 439.033L331.134 549.809C330.131 549.748 329.158 549.93 328.306 550.356ZM332.472 550.143L357.618 439.367C358.135 439.428 358.622 439.398 359.108 439.307L388.602 529.571L335.239 552.456C334.631 551.391 333.658 550.569 332.472 550.143ZM406.421 592.384L335.695 556.899C335.756 556.717 335.817 556.534 335.847 556.321C336.06 555.408 336.03 554.526 335.786 553.673L389.058 530.849L408.549 590.558C407.698 590.954 406.937 591.593 406.421 592.384ZM412.015 590.163C411.286 589.98 410.556 589.98 409.857 590.132L390.305 530.331L474.774 494.116C475.048 494.542 475.413 494.908 475.808 495.242L464.345 512.65L413.171 590.558C412.806 590.406 412.411 590.254 412.015 590.163ZM414.296 591.319L464.953 514.202L476.933 495.942C477.237 496.094 477.572 496.216 477.937 496.277C478.94 496.49 479.943 496.429 480.825 496.125L503.934 536.875L414.904 592.019C414.752 591.776 414.539 591.532 414.296 591.319ZM415.664 593.175L504.634 538.061L524.459 573.029C523.455 573.759 522.695 574.855 522.391 576.163C522.3 576.559 522.269 576.985 522.269 577.381L415.907 593.906C415.877 593.632 415.786 593.388 415.664 593.175ZM416.151 595.245L522.482 578.72C522.969 580.576 524.459 582.098 526.435 582.524C527.073 582.676 527.682 582.676 528.29 582.615L542.52 637.273L416.151 595.854C416.151 595.641 416.151 595.458 416.151 595.245ZM569.734 747.562L418.583 598.106L542.915 638.855L571.011 746.831C570.555 747.014 570.129 747.257 569.734 747.562ZM572.349 746.496L544.466 639.373L594.789 655.867C594.333 658.332 595.671 660.797 597.921 661.741L573.808 746.496C573.322 746.436 572.835 746.436 572.349 746.496ZM577.275 748.596C576.727 747.866 575.998 747.257 575.116 746.862L599.228 662.106C601.965 662.502 604.58 660.767 605.218 658.028C605.249 657.906 605.279 657.785 605.279 657.663L732.287 660.31C732.348 660.797 732.469 661.254 732.652 661.71L577.275 748.596ZM732.378 658.515C732.348 658.637 732.317 658.758 732.317 658.911L605.309 656.263C605.218 655.411 604.914 654.589 604.458 653.889L671.96 595.184L733.351 656.445C732.895 657.054 732.561 657.754 732.378 658.515ZM734.324 655.502L672.994 594.301L727.452 546.948C728.06 547.435 728.79 547.8 729.581 547.983C729.946 548.074 730.341 548.104 730.706 548.104L736.574 654.498C735.784 654.62 734.993 654.985 734.324 655.502ZM738.764 654.498C738.49 654.437 738.247 654.406 737.973 654.376L732.104 547.891C732.196 547.861 732.317 547.83 732.409 547.8L770.782 643.359L742.078 656.811C741.348 655.715 740.193 654.833 738.764 654.498ZM785.772 728.024C785.316 727.75 784.799 727.567 784.282 727.415C783.096 727.141 781.91 727.293 780.877 727.78L740.983 663.81C741.044 663.749 741.135 663.688 741.196 663.628L794.59 709.003C794.255 709.521 794.012 710.099 793.86 710.707C793.434 712.564 794.043 714.39 795.289 715.638L785.772 728.024ZM786.867 728.876L796.384 716.55C796.84 716.824 797.357 717.007 797.904 717.159C799.303 717.463 800.702 717.22 801.827 716.52L811.891 729.211L788.326 731.463C788.052 730.458 787.566 729.576 786.867 728.876ZM845.49 772.212L787.901 734.932C788.052 734.567 788.205 734.202 788.296 733.806C788.357 733.471 788.417 733.136 788.417 732.802L812.864 730.458L845.734 771.938C845.642 772.03 845.551 772.121 845.49 772.212ZM850.72 770.447C849.322 770.143 847.923 770.386 846.798 771.086L814.506 730.306L940.845 718.224C940.936 718.559 941.028 718.894 941.18 719.198L853.731 772.334C852.97 771.421 851.937 770.752 850.72 770.447ZM978.276 770.447C978.215 770.66 978.184 770.873 978.184 771.086L854.825 774.799C854.795 774.677 854.764 774.556 854.734 774.404L957.782 735.328L979.917 767.617C979.127 768.347 978.519 769.321 978.276 770.447ZM986.12 766.978C985.664 766.734 985.178 766.521 984.661 766.4C983.384 766.126 982.137 766.308 981.073 766.856L959.119 734.841L1027.81 708.79C1028.05 709.368 1028.39 709.916 1028.81 710.373L986.12 766.978ZM1027.5 705.595C1027.47 705.777 1027.44 705.96 1027.41 706.142L951.183 715.668C951.001 714.938 950.636 714.268 950.18 713.659L1000.05 661.619L1029.42 702.551C1028.48 703.312 1027.78 704.347 1027.5 705.595ZM1032.49 701.456C1031.82 701.486 1031.21 701.638 1030.61 701.882L1001.02 660.645L1035.35 624.826C1035.87 625.16 1036.47 625.434 1037.11 625.586C1037.36 625.647 1037.6 625.678 1037.81 625.708L1032.49 701.456ZM1037.6 704.682C1036.96 703.16 1035.62 701.973 1033.89 701.578H1033.86L1039.21 625.647C1039.73 625.556 1040.21 625.404 1040.67 625.16L1081.78 686.635C1079.8 687.974 1078.92 690.439 1079.65 692.721L1037.6 704.682ZM1038.12 707.299L1037.9 707.938C1038.05 707.268 1038.05 706.599 1037.96 705.96L1080.26 693.939C1081.72 696.191 1084.7 697.073 1087.16 695.795C1087.31 695.704 1087.47 695.643 1087.62 695.552L1095.31 706.812L1109.97 728.693C1109.75 728.906 1109.57 729.119 1109.39 729.363C1109.21 729.576 1109.05 729.789 1108.93 730.002L1038.12 707.299ZM1209.58 728.967L1118.97 731.676C1118.88 731.128 1118.72 730.61 1118.45 730.093C1118.15 729.484 1117.72 728.967 1117.23 728.541L1132.68 705.96L1209.64 728.663C1209.61 728.784 1209.61 728.876 1209.58 728.967ZM1210 727.354L1133.47 704.773L1161.32 664.023C1162.78 664.754 1164.58 664.845 1166.19 664.023H1166.22L1210.82 726.076C1210.49 726.441 1210.22 726.867 1210 727.354ZM1214.32 724.189C1213.68 724.25 1213.07 724.433 1212.47 724.737C1212.25 724.859 1212.04 724.98 1211.86 725.102L1167.34 663.202C1167.83 662.776 1168.22 662.228 1168.53 661.68L1217.82 674.492L1214.32 724.189ZM1293.74 707.421L1220.01 727.872C1219.92 727.598 1219.82 727.324 1219.67 727.08C1218.85 725.467 1217.36 724.463 1215.69 724.22L1219.19 674.827L1316.21 700.025C1316.21 700.391 1316.27 700.786 1316.37 701.151L1293.74 707.421ZM1316.4 698.625L1219.31 673.427L1224.42 600.966C1225.15 600.936 1225.85 600.753 1226.54 600.388C1226.79 600.266 1227 600.114 1227.21 599.992L1317 697.165C1316.7 697.591 1316.52 698.108 1316.4 698.625ZM1320.99 694.578C1320.35 694.639 1319.74 694.821 1319.16 695.126C1318.68 695.369 1318.25 695.704 1317.86 696.069L1228.22 599.049C1228.7 598.471 1229.04 597.801 1229.25 597.071L1329.35 611.77L1320.99 694.578ZM1323.57 694.913C1323.21 694.76 1322.78 694.639 1322.39 694.578L1330.75 611.922L1364.32 616.852C1364.32 617.674 1364.5 618.496 1364.89 619.287C1365.29 620.048 1365.84 620.687 1366.48 621.143L1323.57 694.913ZM1367.2 612.105C1365.81 612.835 1364.83 614.083 1364.47 615.513L1330.87 610.583L1340.99 510.398C1341.15 510.398 1341.33 510.367 1341.51 510.367L1350.57 545.517L1367.69 611.892C1367.51 611.953 1367.36 612.013 1367.2 612.105ZM1371.37 611.8C1370.61 611.557 1369.82 611.466 1369.03 611.557L1351.79 544.757L1342.82 510.002C1342.97 509.941 1343.12 509.881 1343.24 509.82C1344.04 509.424 1344.67 508.846 1345.16 508.176L1404.85 540.374L1371.37 611.8ZM1406.06 541.044L1497.01 590.132C1496.8 590.771 1496.71 591.471 1496.77 592.171L1374.78 615.3C1374.68 614.996 1374.56 614.722 1374.44 614.418C1374.02 613.565 1373.38 612.866 1372.62 612.379L1406.06 541.044ZM1400.38 660.371L1373.23 620.839C1374.41 619.774 1375.05 618.222 1374.99 616.639L1497.04 593.48C1497.13 593.693 1497.19 593.936 1497.31 594.149L1400.38 660.371ZM1497.59 588.884L1406.64 539.796L1420.17 510.946C1421.48 511.341 1422.91 511.28 1424.22 510.611C1424.46 510.489 1424.67 510.337 1424.89 510.185L1497.74 588.611C1497.68 588.702 1497.62 588.793 1497.59 588.884ZM1499.66 586.967C1499.29 587.15 1498.99 587.363 1498.68 587.606L1425.89 509.272C1426.44 508.602 1426.8 507.842 1427.01 507.02L1513.61 514.841L1501.97 586.419C1501.18 586.419 1500.39 586.602 1499.66 586.967ZM1504.43 586.937C1504.06 586.785 1503.73 586.632 1503.33 586.541L1515.01 514.932L1548.7 517.976C1548.73 518.737 1548.91 519.467 1549.28 520.197C1549.58 520.776 1549.98 521.293 1550.43 521.719L1504.43 586.937ZM1575 608.514C1573.85 609.122 1573 610.066 1572.51 611.161L1507.35 592.536C1507.5 591.471 1507.35 590.345 1506.83 589.31C1506.5 588.671 1506.07 588.124 1505.55 587.667L1551.5 522.48C1552.44 522.967 1553.51 523.18 1554.6 523.058L1575.49 608.27C1575.34 608.361 1575.19 608.453 1575 608.514ZM1576.83 607.966L1555.94 522.754C1556.09 522.693 1556.27 522.632 1556.42 522.541C1556.82 522.328 1557.22 522.084 1557.52 521.78L1611.1 568.859L1580.14 608.666C1579.17 608.118 1578.01 607.844 1576.83 607.966ZM1690.27 639.981L1582.76 613.87C1582.88 612.866 1582.7 611.831 1582.21 610.857C1581.94 610.34 1581.63 609.914 1581.24 609.518L1612.16 569.773L1690.85 638.916C1690.61 639.251 1690.43 639.616 1690.27 639.981ZM1692.86 637.151C1692.46 637.364 1692.07 637.607 1691.76 637.912L1613.01 568.707L1662.42 505.163C1663.36 505.711 1664.46 505.985 1665.58 505.894L1693.53 636.877C1693.28 636.938 1693.04 637.029 1692.86 637.151ZM1695.63 636.573C1695.35 636.542 1695.11 636.542 1694.83 636.573L1666.89 505.59C1667.1 505.498 1667.32 505.437 1667.53 505.316C1667.77 505.194 1668.02 505.042 1668.23 504.89L1712.44 551.817L1695.63 636.573ZM1697.69 633.256L1713.66 553.034L1719.92 559.669C1718.61 561.282 1718.31 563.534 1719.28 565.481C1719.8 566.516 1720.62 567.307 1721.59 567.794L1697.69 633.256ZM1723.66 557.691C1722.96 557.752 1722.26 557.934 1721.62 558.269C1721.38 558.391 1721.14 558.543 1720.92 558.695L1713.99 551.361L1728.22 479.752L1723.66 557.691ZM1728.65 560.369C1727.86 558.969 1726.49 558.086 1725.03 557.812L1729.86 475.217C1730.56 475.157 1731.26 474.974 1731.9 474.639C1733.45 473.848 1734.42 472.418 1734.73 470.835L1889.8 490.343C1889.77 491.012 1889.86 491.712 1890.11 492.382L1728.65 560.369ZM1890.04 489.004L1734.82 469.466C1734.79 469.222 1734.76 469.009 1734.7 468.766L1822.63 446.245L1854.5 438.089C1854.56 438.241 1854.62 438.394 1854.71 438.546C1856.05 441.163 1859.21 442.228 1861.86 440.92L1891.99 486.295C1891.05 486.965 1890.38 487.938 1890.04 489.004ZM1893.21 485.595L1863.01 440.128C1864.05 439.215 1864.69 437.937 1864.84 436.598L1904 435.35L1895.7 485.26C1894.88 485.169 1894.03 485.291 1893.21 485.595ZM1896.64 564.873L1895.91 495.912C1896.49 495.821 1897.07 495.668 1897.59 495.394C1900.23 494.055 1901.26 490.83 1899.93 488.182C1899.62 487.573 1899.2 487.056 1898.74 486.63L1928.96 438.15C1929 438.15 1929.06 438.181 1929.09 438.181L1896.64 564.873ZM1899.01 565.755C1898.68 565.542 1898.35 565.36 1897.98 565.208L1930.39 438.515C1931.43 438.637 1932.49 438.485 1933.46 437.968C1933.65 437.876 1933.83 437.785 1933.98 437.663L1972.69 482.704L1899.01 565.755ZM2050.07 577.137L1901.33 569.773C1901.26 569.103 1901.08 568.403 1900.75 567.764C1900.53 567.368 1900.29 567.003 1900.02 566.668L1973.57 483.769L2051.38 574.307C2050.68 575.129 2050.23 576.103 2050.07 577.137ZM2052.93 573.151C2052.75 573.242 2052.6 573.333 2052.42 573.455L1974.51 482.765L2004.86 448.558C2006.05 449.38 2007.57 449.684 2008.99 449.349L2053.02 573.12C2052.99 573.12 2052.96 573.12 2052.93 573.151ZM2054.33 572.664L2010.3 448.893C2010.76 448.65 2011.15 448.376 2011.52 448.041L2096.63 518.676L2058.07 573.303C2056.95 572.633 2055.64 572.42 2054.33 572.664ZM2067.13 645.216L2057.01 582.98C2057.28 582.889 2057.52 582.798 2057.8 582.676C2058.71 582.22 2059.41 581.52 2059.93 580.728L2123.84 608.453L2071.51 646.92C2070.39 645.703 2068.77 645.094 2067.13 645.216ZM2251.49 664.236L2072.97 650.572C2072.97 649.75 2072.79 648.929 2072.39 648.137C2072.36 648.107 2072.36 648.076 2072.33 648.046L2125.3 609.092L2251.58 663.841C2251.52 663.993 2251.49 664.115 2251.49 664.236ZM2254.28 660.554C2253.34 661.041 2252.61 661.741 2252.13 662.593L2126.61 608.148L2218.83 540.344C2220.02 541.592 2221.72 542.17 2223.39 541.957L2254.71 660.371C2254.56 660.432 2254.41 660.493 2254.28 660.554Z" fill="url(#paint0_linear_7773_179)"/>
<defs>
<linearGradient id="paint0_linear_7773_179" x1="461.511" y1="390.502" x2="1969.64" y2="390.502" gradientUnits="userSpaceOnUse">
<stop stop-color="#B6FBFF"/>
<stop offset="0.1801" stop-color="#8ECAE5"/>
<stop offset="0.486" stop-color="#4570B4"/>
<stop offset="0.9994" stop-color="#B6FBFF"/>
</linearGradient>
</defs>
</svg>
