<svg width="317" height="782" viewBox="0 0 317 782" fill="none" xmlns="http://www.w3.org/2000/svg">
<path opacity="0.53" d="M315.49 662.897C314.426 660.828 312.206 659.732 310.048 660.006L278.729 541.592C278.851 541.531 279.003 541.47 279.124 541.409C281.77 540.07 282.803 536.844 281.465 534.196C280.583 532.431 278.851 531.397 276.996 531.275L267.6 400.018C268.056 399.926 268.512 399.774 268.968 399.561C271.614 398.222 272.648 394.996 271.31 392.349C269.972 389.701 266.749 388.666 264.103 390.005C263.374 390.37 262.796 390.888 262.34 391.466L181.975 343.534C182.583 342.134 182.583 340.46 181.823 338.969C180.486 336.322 177.262 335.287 174.617 336.626C174.07 336.9 173.583 337.265 173.188 337.691L121.588 299.498C122.439 298.007 122.531 296.12 121.679 294.476C121.071 293.259 120.037 292.407 118.882 291.92L140.896 204.486C141.9 204.608 142.964 204.425 143.937 203.938C146.582 202.599 147.616 199.373 146.278 196.726C145.153 194.535 142.721 193.439 140.41 193.926L118.274 130.108C118.274 130.108 118.304 130.108 118.304 130.078C120.949 128.739 121.983 125.513 120.646 122.865C119.308 120.217 116.085 119.183 113.439 120.522C112.01 121.252 111.067 122.5 110.703 123.93L27.5105 113.218C27.5105 112.396 27.328 111.574 26.9327 110.783C25.5948 108.136 22.3717 107.101 19.7264 108.44C17.0811 109.779 16.0471 113.005 17.385 115.652C17.4458 115.744 17.5066 115.835 17.537 115.957L-116.616 220.707L-117.012 220.372L-117.225 221.194L-119.414 222.898L-117.559 222.502L-142.432 319.614C-143.465 319.492 -144.53 319.644 -145.503 320.162C-147.54 321.196 -148.604 323.327 -148.391 325.457L-225.776 343.534C-225.837 343.352 -225.928 343.169 -226.019 342.986C-227.357 340.339 -230.58 339.304 -233.225 340.643C-235.627 341.86 -236.692 344.66 -235.871 347.125L-451.027 328.713C-451.057 327.983 -451.24 327.222 -451.605 326.522C-452.943 323.875 -456.166 322.84 -458.811 324.179C-461.456 325.518 -462.49 328.744 -461.152 331.391C-460.635 332.396 -459.845 333.157 -458.933 333.674L-523.09 500.629C-524.276 500.325 -525.584 500.446 -526.769 501.055C-527.864 501.603 -528.655 502.485 -529.172 503.52L-601.022 479.813C-600.809 478.687 -600.931 477.469 -601.509 476.374C-602.847 473.726 -606.07 472.691 -608.715 474.031C-610.57 474.974 -611.634 476.83 -611.634 478.748L-680.018 486.995C-680.109 486.63 -680.261 486.234 -680.444 485.869C-681.782 483.221 -685.005 482.187 -687.65 483.526C-690.296 484.865 -691.329 488.091 -689.992 490.738C-689.87 490.951 -689.779 491.134 -689.657 491.316L-782.488 573.516C-784.069 572.116 -786.411 571.751 -788.417 572.785C-791.063 574.124 -792.097 577.35 -790.759 579.998C-789.877 581.702 -788.205 582.737 -786.411 582.889L-783.066 653.95C-783.644 654.041 -784.252 654.193 -784.799 654.498C-787.232 655.745 -788.296 658.576 -787.414 661.071L-827.763 677.353C-829.436 677.14 -831.047 677.718 -832.203 678.844L-903.293 623.152C-903.02 622.695 -902.807 622.178 -902.685 621.63C-902.046 618.77 -903.84 615.909 -906.699 615.239C-908.827 614.752 -910.925 615.604 -912.141 617.248L-926.037 610.979L-1003.18 576.163C-1002.6 573.333 -1004.39 570.564 -1007.22 569.925C-1010.08 569.286 -1012.94 571.081 -1013.61 573.942C-1013.79 574.763 -1013.76 575.616 -1013.58 576.376L-1093.36 605.47C-1094.06 604.162 -1095.31 603.157 -1096.86 602.792L-1092.39 553.856L-1210.06 542.596C-1210.16 540.222 -1211.8 538.122 -1214.2 537.574C-1215.48 537.27 -1216.72 537.483 -1217.79 538.001L-1255.8 482.217C-1255.01 481.517 -1254.4 480.543 -1254.15 479.417C-1253.52 476.556 -1255.31 473.696 -1258.17 473.026C-1259.51 472.722 -1260.84 472.965 -1261.94 473.574L-1327.65 385.045C-1326.92 384.345 -1326.4 383.432 -1326.16 382.397C-1325.52 379.536 -1327.31 376.676 -1330.17 376.006C-1333.03 375.367 -1335.89 377.163 -1336.56 380.023C-1336.83 381.149 -1336.68 382.275 -1336.28 383.249L-1399.16 419.982C-1399.89 419.038 -1400.96 418.308 -1402.2 418.034C-1404.73 417.456 -1407.22 418.764 -1408.25 421.047L-1575.09 370.133L-1575.31 370.772C-1574.91 368.976 -1575.46 367.181 -1576.64 365.933L-1533.32 312.675C-1532.83 312.98 -1532.28 313.223 -1531.7 313.345C-1528.85 313.984 -1525.99 312.188 -1525.32 309.328C-1524.68 306.467 -1526.47 303.606 -1529.33 302.937C-1531.04 302.541 -1532.71 303.028 -1533.92 304.063L-1643.11 203.543C-1642.78 203.025 -1642.51 202.447 -1642.35 201.778C-1641.87 199.647 -1642.75 197.547 -1644.39 196.3L-1612.52 142.19C-1612.31 142.281 -1612.1 142.342 -1611.89 142.373C-1609.03 143.012 -1606.17 141.216 -1605.5 138.355C-1604.86 135.495 -1606.66 132.634 -1609.51 131.965C-1611.03 131.63 -1612.59 131.965 -1613.77 132.817L-1741.78 8.52859C-1741.36 7.95036 -1741.02 7.28084 -1740.84 6.52002C-1740.2 3.65932 -1742 0.798627 -1744.85 0.129103C-1747.71 -0.509989 -1750.57 1.28555 -1751.24 4.14625C-1751.76 6.39828 -1750.75 8.65032 -1748.9 9.8372L-1800.28 120.461C-1800.44 120.43 -1800.56 120.37 -1800.71 120.339C-1803.57 119.7 -1806.43 121.496 -1807.1 124.356C-1807.52 126.274 -1806.88 128.191 -1805.55 129.439L-1881.87 235.893C-1882.29 235.68 -1882.72 235.497 -1883.2 235.376C-1886.06 234.706 -1888.92 236.532 -1889.59 239.393C-1890.23 242.253 -1888.43 245.114 -1885.57 245.784C-1884.78 245.966 -1884.02 245.966 -1883.29 245.784L-1852.31 333.704C-1853.68 334.404 -1854.74 335.682 -1855.11 337.295C-1855.75 340.156 -1853.95 343.017 -1851.09 343.686C-1850.49 343.808 -1849.91 343.839 -1849.33 343.778L-1834.13 405.891C-1835.74 406.5 -1836.99 407.9 -1837.41 409.695C-1837.72 411.004 -1837.5 412.343 -1836.89 413.439L-1909.41 466.331C-1910.11 465.601 -1911.03 465.053 -1912.09 464.809C-1914.95 464.17 -1917.81 465.966 -1918.47 468.827C-1919.02 471.231 -1917.87 473.605 -1915.77 474.731L-1939.46 537.696H-1939.49C-1942.34 537.057 -1945.2 538.853 -1945.87 541.713C-1946.51 544.574 -1944.72 547.435 -1941.86 548.104C-1940.31 548.469 -1938.79 548.104 -1937.57 547.222L-1880.71 608.453C-1881.23 609.061 -1881.62 609.822 -1881.8 610.674C-1882.44 613.535 -1880.65 616.396 -1877.79 617.065C-1874.93 617.704 -1872.07 615.909 -1871.41 613.048C-1871.38 612.926 -1871.38 612.835 -1871.34 612.713L-1701.98 618.039L-1701.89 618.557L-1701.22 618.07L-1698.45 618.161L-1700.13 617.278L-1619.27 558.817C-1618.58 559.577 -1617.63 560.125 -1616.57 560.369C-1614.35 560.856 -1612.16 559.912 -1610.97 558.147L-1540.25 593.632C-1540.31 593.815 -1540.37 593.997 -1540.4 594.21C-1541.04 597.101 -1539.24 599.932 -1536.39 600.601C-1533.77 601.21 -1531.19 599.749 -1530.24 597.314L-1377.27 748.566C-1377.73 749.144 -1378.06 749.844 -1378.21 750.605C-1378.85 753.466 -1377.06 756.326 -1374.2 756.996C-1371.34 757.635 -1368.48 755.839 -1367.81 752.979C-1367.57 751.883 -1367.69 750.788 -1368.06 749.814L-1212.71 662.928C-1211.98 663.902 -1210.92 664.662 -1209.61 664.936C-1208.42 665.21 -1207.24 665.058 -1206.2 664.571L-1166.31 728.541C-1167.19 729.271 -1167.86 730.276 -1168.13 731.493C-1168.77 734.354 -1166.98 737.214 -1164.12 737.884C-1162.11 738.341 -1160.14 737.58 -1158.89 736.119L-1101.3 773.399C-1101.45 773.764 -1101.6 774.13 -1101.7 774.525C-1102.33 777.416 -1100.54 780.247 -1097.68 780.916C-1094.82 781.555 -1091.97 779.76 -1091.3 776.899C-1091.24 776.686 -1091.21 776.473 -1091.21 776.26L-967.846 772.547C-967.512 774.647 -965.961 776.412 -963.772 776.899C-960.913 777.538 -958.055 775.743 -957.386 772.882C-956.961 770.995 -957.569 769.139 -958.846 767.891L-916.185 711.346C-915.669 711.681 -915.121 711.925 -914.513 712.046C-911.868 712.655 -909.253 711.164 -908.341 708.699L-837.706 731.371C-837.737 731.493 -837.767 731.584 -837.797 731.706C-838.436 734.597 -836.642 737.427 -833.784 738.097C-831.899 738.523 -830.044 737.884 -828.797 736.606C-827.794 735.723 -827.186 734.476 -827.064 733.167L-736.453 730.458C-736.361 731.006 -736.209 731.523 -735.936 732.041C-734.598 734.688 -731.375 735.723 -728.729 734.384C-726.783 733.41 -725.719 731.371 -725.81 729.332L-711.063 725.224L-629.209 702.521C-627.841 705.077 -624.678 706.051 -622.063 704.743C-619.418 703.404 -618.384 700.178 -619.722 697.53C-620.117 696.769 -620.665 696.13 -621.303 695.643L-578.4 621.904C-577.031 622.452 -575.42 622.452 -573.991 621.721L-546.047 662.38L-447.986 595.427C-446.405 597.193 -443.79 597.771 -441.571 596.645C-440.415 596.067 -439.564 595.093 -439.077 593.997L-373.916 612.622C-374.068 613.687 -373.916 614.813 -373.399 615.848C-372.061 618.496 -368.838 619.53 -366.193 618.191C-364.977 617.552 -364.095 616.518 -363.639 615.331L-256.121 641.442C-256.243 642.446 -256.061 643.481 -255.574 644.455C-254.236 647.103 -251.013 648.137 -248.368 646.798C-245.722 645.459 -244.689 642.233 -246.026 639.586C-246.543 638.551 -247.364 637.76 -248.337 637.273L-223.222 568.403C-222.036 568.677 -220.789 568.525 -219.634 567.947C-217.323 566.76 -216.228 564.142 -216.897 561.738L-55.4386 493.782L-55.7122 493.142C-54.8607 494.786 -53.2797 495.821 -51.5769 496.034L-50.8472 565.025C-51.4249 565.116 -51.9722 565.268 -52.5194 565.542C-55.1648 566.881 -56.1987 570.107 -54.8608 572.755C-53.5229 575.403 -50.2998 576.437 -47.6545 575.098C-46.1038 574.307 -45.1003 572.877 -44.8267 571.264L103.983 578.629C104.043 579.268 104.226 579.876 104.53 580.454C105.533 582.402 107.54 583.498 109.608 583.376L119.733 645.642C119.52 645.733 119.338 645.794 119.125 645.916C116.48 647.255 115.446 650.481 116.784 653.128C118.122 655.776 121.345 656.811 123.99 655.472C125.389 654.741 126.362 653.493 126.727 652.094L305.334 665.758C305.365 666.488 305.547 667.219 305.912 667.919C307.25 670.566 310.473 671.601 313.119 670.262C315.764 668.771 316.828 665.545 315.49 662.897ZM264.59 399.774C265.107 399.987 265.685 400.109 266.232 400.139L275.627 531.397C275.171 531.488 274.715 531.64 274.259 531.853C273.529 532.218 272.921 532.766 272.435 533.375L210.527 497.494L264.59 399.774ZM112.162 299.346C112.557 300.106 113.105 300.715 113.713 301.202L87.6848 347.399L108.604 290.581L112.466 293.928C111.463 295.541 111.28 297.58 112.162 299.346ZM130.436 405.465C130.163 405.617 129.919 405.77 129.676 405.952L88.1106 358.751C88.9923 357.746 89.4485 356.438 89.4181 355.129L123.625 350.047L131.288 405.13C130.984 405.222 130.71 405.313 130.436 405.465ZM135.028 415.143L166.225 461.979L130.497 415.052C131.865 415.721 133.508 415.812 135.028 415.143ZM127.609 411.247L96.3203 370.163L128.673 406.896C127.7 408.113 127.304 409.695 127.609 411.247ZM89.2356 353.76C89.1444 353.425 89.0228 353.09 88.8707 352.786C88.4755 352.025 87.9585 351.416 87.3199 350.929L114.959 301.871C115.598 302.145 116.297 302.267 117.027 302.267L123.473 348.677L89.2356 353.76ZM85.2828 350.016C84.3098 349.803 83.2456 349.834 82.2422 350.199L4.21899 201.047L4.3103 200.56C4.43188 200.469 4.52307 200.378 4.61426 200.317L107.51 289.668L85.2828 350.016ZM81.0258 350.838C80.6305 351.112 80.2657 351.447 79.9617 351.812L-15.6364 291.524L0.72229 201.656C1.42163 201.717 2.12109 201.625 2.82043 201.382L81.0258 350.838ZM-24.3328 362.463C-23.7854 361.703 -23.4509 360.79 -23.3597 359.846L78.7758 356.133C78.8669 356.651 79.0189 357.168 79.2926 357.685C79.3534 357.807 79.4142 357.898 79.4751 357.99L20.4866 404.43L-24.3328 362.463ZM57.5521 440.98C57.1873 441.498 56.9135 442.076 56.7311 442.685L-9.58545 433.25C-9.58545 432.429 -9.76794 431.546 -10.1632 430.755C-10.224 430.633 -10.2849 430.542 -10.3457 430.451L20.4257 406.226L57.5521 440.98ZM-137.962 323.144L-48.3538 277.525C-47.7456 278.408 -46.8943 279.077 -45.9518 279.442L-64.0437 348.19L-137.719 325.822C-137.567 324.94 -137.658 324.027 -137.962 323.144ZM-44.6139 279.808C-44.3098 279.838 -43.9753 279.868 -43.6713 279.838L-30.2924 354.216C-30.566 354.307 -30.8397 354.399 -31.1134 354.551C-32.36 355.19 -33.2417 356.225 -33.6979 357.412L-62.7665 348.586L-44.6139 279.808ZM-42.3334 279.595C-42.0597 279.503 -41.786 279.412 -41.5123 279.26C-40.8434 278.925 -40.2656 278.438 -39.8096 277.89L-17.1567 292.163L-28.4071 353.942C-28.5592 353.942 -28.7417 353.942 -28.8938 353.942L-42.3334 279.595ZM-15.9102 292.985L79.2319 352.968C78.9886 353.516 78.8062 354.125 78.7454 354.733L-23.39 358.446C-23.4812 357.929 -23.6334 357.412 -23.907 356.894C-24.5759 355.555 -25.7313 354.642 -27.0692 354.216L-15.9102 292.985ZM-16.8832 290.733L-39.0798 276.734C-38.4109 275.304 -38.3804 273.569 -39.171 272.047C-39.5359 271.317 -40.0831 270.678 -40.6913 270.221L-29.593 250.927L-1.04126 201.199C-0.919678 201.26 -0.767578 201.291 -0.645996 201.352L-16.8832 290.733ZM-41.8772 269.552C-43.2759 268.974 -44.8876 268.974 -46.347 269.734C-48.5668 270.86 -49.6613 273.356 -49.1444 275.699L-68.8173 259.661L-2.44006 200.378C-2.37927 200.439 -2.28796 200.499 -2.22717 200.56L-41.8772 269.552ZM-49.9655 276.795L-138.57 321.927L-69.8512 260.574L-49.9655 276.795ZM-138.114 327.161L-64.4084 349.529L-85.8146 430.785C-86.6356 430.694 -87.4869 430.755 -88.2776 431.059L-139.969 329.383C-139.148 328.805 -138.509 328.013 -138.114 327.161ZM-63.1011 349.925L-34.002 358.751C-34.1237 359.755 -33.9412 360.79 -33.4547 361.763C-33.181 362.281 -32.816 362.768 -32.4208 363.163L-83.8685 431.424C-84.0814 431.303 -84.2639 431.211 -84.5072 431.12L-63.1011 349.925ZM-31.0525 364.107C-30.7788 364.229 -30.5052 364.35 -30.2012 364.442L-41.7252 433.95L-81.1624 435.198C-81.2535 434.65 -81.4058 434.133 -81.6793 433.616C-81.953 433.098 -82.2874 432.611 -82.6826 432.216L-31.0525 364.107ZM-40.6002 435.32L-20.1062 434.681C-20.015 435.016 -19.8933 435.35 -19.7109 435.655C-19.3461 436.385 -18.8292 436.963 -18.2211 437.45L-48.3843 485.839C-48.5667 485.747 -48.749 485.686 -48.9315 485.595L-40.6002 435.32ZM-20.2887 433.281L-40.3568 433.92L-28.8633 364.685C-28.4984 364.685 -28.1334 364.685 -27.7686 364.624L-16.8223 428.199C-17.0048 428.259 -17.1871 428.351 -17.3695 428.442C-19.2548 429.385 -20.3191 431.303 -20.2887 433.281ZM-26.4307 364.198C-26.3699 364.168 -26.309 364.137 -26.2482 364.107C-25.8833 363.924 -25.5795 363.711 -25.2754 363.468L19.3918 405.283L-11.2274 429.385C-12.3524 428.29 -13.9337 427.742 -15.5148 427.894L-26.4307 364.198ZM-9.79834 434.65L56.5486 444.054C56.5486 444.906 56.7311 445.758 57.1263 446.55C57.3392 446.945 57.5824 447.31 57.8561 447.645L27.632 481.7L-10.9539 436.781C-10.4065 436.172 -10.0112 435.442 -9.79834 434.65ZM21.5203 405.374L80.3569 359.055C80.8739 359.572 81.4819 359.938 82.1509 360.211L62.5386 438.82C61.5352 438.698 60.4709 438.881 59.4979 439.367C59.1331 439.55 58.829 439.763 58.5249 440.007L21.5203 405.374ZM83.4583 360.546C84.4617 360.668 85.5259 360.485 86.4989 359.998C86.5902 359.968 86.651 359.907 86.7422 359.877L175.164 476.009C174.678 476.465 174.282 476.983 173.979 477.591L67.13 445.028C67.3125 443.932 67.1605 442.776 66.6132 441.711C66.005 440.493 64.9712 439.611 63.7854 439.154L83.4583 360.546ZM66.7651 446.337L173.553 478.9C173.31 480.056 173.462 481.274 174.009 482.4C174.313 483.008 174.708 483.495 175.164 483.921L151.417 517.58L66.4003 447.006C66.5524 446.763 66.6436 446.55 66.7651 446.337ZM188.695 543.874C188.604 543.448 188.452 543.022 188.239 542.596C187.844 541.835 187.296 541.196 186.627 540.709L209.858 498.712L271.766 534.562C271.522 535.14 271.37 535.779 271.37 536.418L188.695 543.874ZM267.813 538.153L116.906 575.555L178.904 547.83C180.333 550.204 183.374 551.087 185.898 549.809C187.692 548.896 188.756 547.13 188.817 545.244L267.813 538.153ZM185.411 540.07C184.895 539.857 184.347 539.735 183.769 539.705L179.969 485.169C180.394 485.078 180.79 484.926 181.185 484.743C181.915 484.378 182.523 483.83 183.009 483.221L208.642 498.073L185.411 540.07ZM182.401 539.796C181.945 539.887 181.489 540.04 181.033 540.253C180.577 540.496 180.181 540.77 179.816 541.105L152.481 518.432L176.289 484.682C176.989 485.047 177.779 485.26 178.6 485.291L182.401 539.796ZM151.69 519.558L178.935 542.17C178.114 543.448 177.871 545.061 178.327 546.552L114.047 575.281C113.804 574.855 113.5 574.429 113.166 574.094L151.69 519.558ZM114.716 577.502L271.705 538.579C271.766 538.731 271.827 538.914 271.918 539.066C271.948 539.127 271.979 539.157 272.009 539.218L179.117 607.509L114.473 579.481C114.686 578.872 114.747 578.172 114.716 577.502ZM263.221 398.983C263.282 399.013 263.343 399.074 263.374 399.105L209.311 496.825L183.708 482.004C184.286 480.604 184.286 478.961 183.557 477.5C183.435 477.226 183.252 476.983 183.07 476.739L263.221 398.983ZM262.249 398.009L182.097 475.765C181.306 475.126 180.364 474.761 179.391 474.639L178.54 405.678L261.336 396.122C261.427 396.518 261.58 396.883 261.762 397.248C261.914 397.522 262.096 397.766 262.249 398.009ZM179.512 346.212C180.212 345.847 180.82 345.33 181.276 344.751L261.64 392.683C261.367 393.322 261.215 394.022 261.215 394.722L178.57 404.278L177.87 346.73C178.418 346.638 178.965 346.486 179.512 346.212ZM178.023 474.639C177.536 474.7 177.05 474.852 176.594 475.065L136.183 414.443C137.46 413.439 138.16 411.917 138.19 410.334L177.171 405.83L178.023 474.639ZM174.8 346.273C175.316 346.517 175.894 346.699 176.472 346.76L177.171 404.461L138.038 408.965C137.947 408.569 137.795 408.204 137.612 407.839C137.278 407.169 136.822 406.622 136.305 406.165L174.8 346.273ZM173.644 345.512L135.149 405.404C134.359 405.039 133.507 404.857 132.656 404.887L124.994 349.834L171.941 342.865C172.032 343.199 172.154 343.504 172.306 343.839C172.641 344.508 173.097 345.086 173.644 345.512ZM119.368 301.719C119.916 301.445 120.402 301.08 120.798 300.654L172.397 338.847C171.941 339.669 171.729 340.613 171.729 341.556L124.781 348.525L118.335 302.145C118.699 301.993 119.034 301.871 119.368 301.719ZM117.574 291.616C116.571 291.494 115.507 291.676 114.534 292.163C114.108 292.376 113.743 292.65 113.409 292.955L109.152 289.242L137.764 211.607L117.574 291.616ZM108.027 288.268L5.52649 199.282C5.95215 198.643 6.22583 197.882 6.34741 197.121L136.244 199.799C136.305 200.439 136.487 201.047 136.792 201.656C137.308 202.691 138.129 203.482 139.072 203.969L108.027 288.268ZM5.92175 194.109L74.4883 151.746L136.822 196.634C136.518 197.182 136.335 197.76 136.244 198.369L6.34741 195.691C6.31702 195.174 6.16504 194.626 5.92175 194.109ZM117.027 130.595L139.163 194.413H139.133C138.555 194.717 138.068 195.082 137.673 195.539L75.796 150.985L111.828 128.739C113.044 130.291 115.081 130.991 117.027 130.595ZM27.4192 114.648L110.611 125.361C110.611 126.091 110.763 126.852 111.098 127.552L74.5796 150.103L26.9631 115.835C27.1456 115.439 27.2975 115.044 27.4192 114.648ZM24.6826 118.057C25.2604 117.752 25.7468 117.387 26.1726 116.931L73.3026 150.894L6.04346 192.435L21.8245 118.635C22.7671 118.696 23.7705 118.513 24.6826 118.057ZM18.4796 117.083C19.0574 117.631 19.7263 118.057 20.4562 118.331L4.64465 192.343C3.0332 190.913 0.661499 190.487 -1.37573 191.552C-3.38257 192.556 -4.4469 194.656 -4.2948 196.756L-113.728 220.311L18.4796 117.083ZM-3.99084 198.095C-3.89954 198.308 -3.83875 198.521 -3.71704 198.734C-3.59546 198.947 -3.50427 199.13 -3.35217 199.313L-69.9121 258.748L-114.974 221.985L-3.99084 198.095ZM-116.099 222.837L-70.9458 259.691L-139.482 320.892C-139.938 320.496 -140.455 320.192 -141.002 319.979L-116.099 222.837ZM-144.803 329.992C-143.678 330.387 -142.401 330.418 -141.215 329.992L-89.5242 431.668C-89.9498 431.942 -90.3148 432.307 -90.6493 432.672L-171.348 381.971L-144.803 329.992ZM-91.8046 436.72L-157.635 453.58L-176.973 458.54L-211.758 467.457C-211.758 467.457 -211.758 467.427 -211.789 467.427C-212.275 466.483 -213.005 465.753 -213.856 465.235L-171.987 383.188L-91.4095 433.829C-91.7744 434.742 -91.9263 435.746 -91.8046 436.72ZM-225.38 344.904L-147.996 326.826C-147.935 327.009 -147.844 327.192 -147.753 327.374C-147.327 328.196 -146.719 328.866 -146.019 329.352L-172.473 381.21L-225.836 347.673C-225.441 346.821 -225.289 345.878 -225.38 344.904ZM-228.269 350.229C-227.6 349.895 -227.022 349.408 -226.566 348.86L-173.112 382.458L-215.073 464.718C-215.559 464.596 -216.076 464.505 -216.593 464.535L-218.934 443.719L-229.424 350.686C-229.029 350.534 -228.634 350.412 -228.269 350.229ZM-230.793 350.808L-220.424 442.898L-217.961 464.688C-218.296 464.779 -218.63 464.901 -218.965 465.083C-219.877 465.54 -220.607 466.24 -221.093 467.061L-265.061 450.475L-231.735 350.686C-231.431 350.747 -231.097 350.808 -230.793 350.808ZM-416.364 424.973C-416.09 424.973 -415.847 424.973 -415.573 424.942L-402.772 476.922L-393.923 512.802C-394.076 512.863 -394.258 512.924 -394.41 513.015C-395.9 513.776 -396.873 515.115 -397.207 516.637L-430.776 513.593L-416.364 424.973ZM-432.175 513.441L-518.894 505.62C-518.925 504.859 -519.107 504.098 -519.472 503.398C-519.533 503.277 -519.594 503.155 -519.654 503.064L-419.921 423.481C-419.283 424.09 -418.553 424.516 -417.732 424.76L-432.175 513.441ZM-401.616 475.887L-414.265 424.608C-414.113 424.547 -413.931 424.486 -413.779 424.394C-413.08 424.029 -412.502 423.542 -412.046 422.995L-341.746 466.27L-388.755 513.532C-389.849 512.711 -391.217 512.315 -392.616 512.467L-401.616 475.887ZM-314.624 434.498C-314.624 435.289 -314.441 436.111 -314.046 436.872C-313.863 437.207 -313.681 437.511 -313.438 437.815L-340.743 465.266L-411.316 421.838C-411.194 421.595 -411.103 421.321 -411.042 421.047L-314.624 434.498ZM-411.012 418.308L-360.781 398.374L-314.015 431.911C-314.228 432.307 -314.38 432.703 -314.471 433.129L-410.83 419.677C-410.83 419.221 -410.89 418.764 -411.012 418.308ZM-312.465 438.759C-311.188 439.672 -309.546 440.037 -307.995 439.641L-285.281 497.494C-285.585 497.951 -285.829 498.438 -285.981 498.955L-339.526 465.996L-312.465 438.759ZM-340.53 467.001L-286.224 500.416C-286.224 500.751 -286.193 501.116 -286.133 501.451L-386.808 516.302C-386.9 515.967 -387.021 515.663 -387.173 515.328C-387.325 515.024 -387.508 514.75 -387.721 514.476L-340.53 467.001ZM-386.626 517.702L-319.641 507.811L-285.707 502.79C-285.677 502.851 -285.646 502.911 -285.616 502.972C-285.342 503.49 -285.038 503.916 -284.643 504.311L-333.992 567.794L-387.508 520.776C-386.93 519.862 -386.626 518.767 -386.626 517.702ZM-306.687 439.124C-305.775 438.607 -305.045 437.876 -304.589 437.024L-266.764 451.297L-281.45 495.212C-282.089 495.273 -282.697 495.455 -283.305 495.76C-283.639 495.912 -283.943 496.125 -284.247 496.368L-306.687 439.124ZM-265.487 451.784L-221.64 468.34C-221.914 469.222 -221.944 470.196 -221.701 471.109L-276.311 497.707C-277.163 496.368 -278.5 495.486 -279.99 495.242L-265.487 451.784ZM-275.764 498.986L-221.215 472.418C-220.546 473.635 -219.451 474.517 -218.235 474.944L-233.195 550.143L-276.737 503.946C-275.612 502.577 -275.247 500.72 -275.764 498.986ZM-233.681 349.895C-233.469 350.047 -233.256 350.169 -233.012 350.26L-266.338 449.989L-304.073 435.746C-303.768 434.529 -303.89 433.22 -304.498 432.003C-304.681 431.637 -304.924 431.303 -305.167 430.998L-233.681 349.895ZM-235.11 348.464C-234.989 348.647 -234.867 348.799 -234.715 348.951L-306.201 430.055C-307.782 428.959 -309.88 428.716 -311.704 429.659C-312.282 429.964 -312.769 430.329 -313.194 430.785L-359.23 397.766L-235.11 348.464ZM-451.027 330.113L-238.425 348.312L-360.537 396.792L-451.513 331.513C-451.301 331.087 -451.149 330.6 -451.027 330.113ZM-452.365 332.639L-362.088 397.4L-411.498 417.03C-412.715 414.808 -415.33 413.804 -417.701 414.504L-453.49 333.583C-453.064 333.309 -452.669 332.974 -452.365 332.639ZM-457.534 334.191C-456.622 334.404 -455.679 334.404 -454.767 334.13L-418.979 415.052C-421.35 416.482 -422.262 419.525 -420.955 422.051C-420.894 422.173 -420.833 422.295 -420.772 422.386L-520.506 501.968C-520.871 501.633 -521.266 501.329 -521.661 501.116L-457.534 334.191ZM-528.989 508.268C-528.533 509.15 -527.864 509.85 -527.104 510.337L-540.604 539.127L-600.201 506.959C-600.049 506.594 -599.958 506.198 -599.897 505.803L-529.567 506.502C-529.445 507.081 -529.293 507.689 -528.989 508.268ZM-603.698 483.586C-602.603 483.039 -601.813 482.156 -601.296 481.121L-529.445 504.829C-529.476 504.92 -529.476 505.011 -529.506 505.103L-599.836 504.403C-599.897 503.794 -600.08 503.185 -600.384 502.607C-601.265 500.903 -602.907 499.868 -604.671 499.716L-605.249 484.104C-604.732 484.013 -604.215 483.83 -603.698 483.586ZM-609.384 483.039C-608.593 483.647 -607.62 484.013 -606.647 484.104L-606.07 499.746C-606.587 499.838 -607.103 499.99 -607.62 500.264C-608.897 500.903 -609.81 501.998 -610.235 503.277L-626.138 499.959L-609.384 483.039ZM-609.931 507.476C-609.87 507.568 -609.81 507.659 -609.779 507.75L-713.952 588.58L-627.293 501.116L-610.509 504.616C-610.57 505.589 -610.387 506.563 -609.931 507.476ZM-679.623 563.686L-608.928 508.846C-608.229 509.546 -607.316 510.033 -606.374 510.246L-616.499 610.37L-716.536 595.701C-716.536 594.849 -716.719 593.997 -717.114 593.175C-717.175 593.084 -717.236 592.993 -717.266 592.902L-679.623 563.686ZM-679.684 488.364L-611.3 480.117C-611.208 480.482 -611.056 480.878 -610.874 481.243C-610.722 481.547 -610.539 481.852 -610.327 482.095L-627.689 499.625L-679.684 488.73C-679.714 488.608 -679.684 488.486 -679.684 488.364ZM-686.13 493.568C-684.974 493.812 -683.758 493.66 -682.633 493.112C-681.356 492.473 -680.444 491.347 -680.018 490.099L-628.905 500.812L-718.665 591.38C-718.939 591.167 -719.243 590.984 -719.547 590.832L-686.13 493.568ZM-720.824 590.345C-721.979 590.102 -723.195 590.223 -724.32 590.802C-725.476 591.41 -726.327 592.354 -726.814 593.48L-741.348 589.371L-688.106 495.151L-720.824 590.345ZM-777.471 656.811C-777.562 656.659 -777.653 656.476 -777.745 656.324L-725.02 599.962C-724.412 600.418 -723.712 600.723 -722.952 600.875L-728.061 673.092L-776.984 660.402C-776.741 659.215 -776.863 657.937 -777.471 656.811ZM-726.662 598.045C-726.479 598.41 -726.266 598.714 -726.023 599.019L-778.505 655.106L-742.078 590.619L-727.209 594.819C-727.331 595.884 -727.179 597.01 -726.662 598.045ZM-688.562 492.351C-688.471 492.442 -688.35 492.503 -688.258 492.595L-742.716 589.006L-780.542 578.324C-780.39 577.259 -780.542 576.133 -781.059 575.129C-781.181 574.916 -781.272 574.733 -781.394 574.55L-688.562 492.351ZM-784.89 582.798C-784.373 582.706 -783.887 582.554 -783.4 582.311C-782.245 581.702 -781.394 580.759 -780.907 579.633L-743.416 590.223L-779.721 654.498C-780.268 654.193 -780.877 654.011 -781.515 653.92L-784.89 582.798ZM-786.988 661.65C-786.684 662.258 -786.259 662.776 -785.772 663.232L-813.868 704.347L-829.193 699.812L-828.067 687.913C-825.696 687.822 -823.598 686.178 -823.05 683.774C-822.533 681.431 -823.628 679.148 -825.574 677.992L-786.684 662.289L-786.988 661.65ZM-830.591 699.417L-856.011 691.93C-855.981 691.687 -855.95 691.413 -855.95 691.169L-833.206 684.718C-832.568 686.239 -831.23 687.426 -829.496 687.822L-830.591 699.417ZM-833.48 681.4C-833.632 682.07 -833.632 682.74 -833.541 683.379L-851.693 688.552L-833.389 681.157C-833.419 681.248 -833.449 681.34 -833.48 681.4ZM-857.258 694.578C-856.893 694.182 -856.619 693.726 -856.376 693.239L-830.713 700.817L-833.237 727.263C-833.753 727.354 -834.27 727.506 -834.757 727.75L-849.93 705.534L-857.258 694.578ZM-831.838 727.232L-829.375 701.243L-814.719 705.564L-829.892 727.78C-830.5 727.476 -831.169 727.263 -831.838 727.232ZM-903.962 624.187L-833.237 679.605L-856.345 688.948C-856.406 688.857 -856.437 688.735 -856.467 688.643C-857.683 686.239 -860.481 685.174 -862.944 686.026L-904.175 624.4C-904.114 624.308 -904.053 624.247 -903.962 624.187ZM-1003.45 577.411L-982.107 587.028L-912.658 618.374C-912.78 618.648 -912.871 618.891 -912.932 619.196C-913.327 620.93 -912.81 622.665 -911.716 623.913L-945.832 659.489L-1004.09 578.355C-1003.82 578.081 -1003.6 577.746 -1003.45 577.411ZM-1005.03 579.328L-946.744 660.523L-996.793 712.746C-997.371 712.32 -998.04 712.016 -998.77 711.833C-999.013 711.773 -999.286 711.742 -999.53 711.712L-1006.4 580.089C-1005.95 579.907 -1005.46 579.663 -1005.03 579.328ZM-1052.65 714.511L-1141.65 711.438C-1141.74 710.433 -1142.11 709.521 -1142.71 708.729L-1071.26 638.551L-1004.03 713.568C-1004.58 714.207 -1005 714.968 -1005.19 715.881C-1005.22 715.972 -1005.22 716.094 -1005.25 716.185L-1052.65 714.511ZM-1010.54 717.342L-1132.53 729.028L-1143.14 715.638C-1142.47 714.968 -1141.98 714.085 -1141.77 713.112C-1141.74 713.02 -1141.74 712.899 -1141.71 712.807L-1010.54 717.342ZM-1001.14 722.241C-999.864 722.515 -998.617 722.333 -997.523 721.785L-989.009 734.202L-1089.72 772.395L-1004.12 720.385C-1003.39 721.268 -1002.39 721.937 -1001.14 722.241ZM-996.428 720.994C-995.638 720.294 -995.03 719.32 -994.786 718.194C-994.695 717.798 -994.665 717.433 -994.665 717.037L-918.8 707.542L-987.732 733.684L-996.428 720.994ZM-1011.14 579.511C-1010.63 579.846 -1010.05 580.12 -1009.38 580.272C-1008.83 580.394 -1008.32 580.424 -1007.8 580.394L-1000.93 711.803C-1001.66 711.925 -1002.36 712.229 -1002.97 712.655L-1070.26 637.577L-1011.14 579.511ZM-1092.66 609.153C-1092.48 608.331 -1092.51 607.509 -1092.7 606.718L-1012.91 577.624C-1012.73 577.989 -1012.48 578.324 -1012.21 578.629L-1071.2 636.573L-1093.76 611.405C-1093.24 610.735 -1092.85 610.005 -1092.66 609.153ZM-1094.76 612.318L-1072.17 637.516L-1143.69 707.755C-1143.81 707.664 -1143.96 707.542 -1144.11 707.451L-1128.7 674.766L-1099.57 613.018C-1099.41 613.079 -1099.26 613.109 -1099.08 613.139C-1097.5 613.505 -1095.95 613.139 -1094.76 612.318ZM-1203.34 658.089L-1174.7 644.668L-1149.56 707.299C-1149.92 707.482 -1150.22 707.725 -1150.53 707.999L-1203.92 662.623C-1203.59 662.106 -1203.34 661.528 -1203.19 660.919C-1203.01 659.915 -1203.07 658.971 -1203.34 658.089ZM-1173.45 644.09L-1102.39 610.766C-1102 611.435 -1101.42 612.013 -1100.75 612.44L-1130.06 674.553L-1145.33 706.873C-1145.48 706.812 -1145.63 706.781 -1145.78 706.751C-1146.64 706.568 -1147.49 706.599 -1148.31 706.782L-1173.45 644.09ZM-1210 543.935L-1093.7 555.073L-1098.05 602.64C-1099.63 602.701 -1101.12 603.462 -1102.06 604.71L-1210.22 544.635C-1210.13 544.391 -1210.06 544.178 -1210 543.935ZM-1210.85 545.852L-1102.76 605.896C-1102.88 606.17 -1102.97 606.475 -1103.03 606.779C-1103.25 607.722 -1103.19 608.635 -1102.94 609.487L-1173.97 642.781L-1212.34 547.222C-1211.77 546.887 -1211.25 546.4 -1210.85 545.852ZM-1260.87 483.282C-1260.69 483.343 -1260.54 483.404 -1260.36 483.434C-1259.08 483.708 -1257.83 483.526 -1256.77 482.978L-1218.76 538.761C-1219.55 539.461 -1220.16 540.435 -1220.4 541.561C-1220.55 542.261 -1220.58 542.961 -1220.46 543.631L-1297.12 564.234C-1297.51 563.26 -1298.21 562.408 -1299.12 561.83L-1260.87 483.282ZM-1402.08 512.133L-1440.88 536.144L-1463.93 495.516C-1463.17 494.999 -1462.53 494.299 -1462.1 493.416L-1403.36 507.872C-1403.54 509.454 -1403.05 511.007 -1402.08 512.133ZM-1400.99 513.076C-1400.47 513.441 -1399.86 513.685 -1399.22 513.837C-1398.86 513.928 -1398.49 513.959 -1398.13 513.959L-1417.38 572.085C-1418.41 571.903 -1419.41 571.994 -1420.33 572.359L-1440.18 537.331L-1400.99 513.076ZM-1392.75 508.176L-1314.57 491.073L-1303.53 561.19C-1304.57 561.495 -1305.51 562.103 -1306.18 562.956L-1363.74 527.836L-1392.9 510.033C-1392.87 509.972 -1392.87 509.911 -1392.84 509.85C-1392.75 509.272 -1392.72 508.694 -1392.75 508.176ZM-1306.91 564.112C-1307.06 564.416 -1307.15 564.751 -1307.24 565.086C-1307.33 565.421 -1307.37 565.755 -1307.37 566.09L-1373.74 572.329L-1394.02 512.102C-1393.81 511.859 -1393.6 511.554 -1393.42 511.28L-1306.91 564.112ZM-1375.14 572.481L-1413.21 576.072C-1413.57 574.55 -1414.64 573.242 -1416.07 572.542L-1396.64 513.776C-1396.12 513.624 -1395.6 513.411 -1395.15 513.106L-1375.14 572.481ZM-1415.25 581.672L-1350.03 653.402C-1350.33 653.737 -1350.57 654.133 -1350.79 654.559L-1401.93 637.79L-1416.37 582.311C-1415.98 582.128 -1415.61 581.915 -1415.25 581.672ZM-1414.24 580.698C-1413.73 580.089 -1413.36 579.328 -1413.18 578.507C-1413.09 578.142 -1413.06 577.776 -1413.06 577.411L-1374.69 573.79L-1348.32 652.033C-1348.57 652.154 -1348.81 652.307 -1349.02 652.459L-1414.24 580.698ZM-1373.29 573.668L-1307.24 567.46C-1306.94 568.799 -1306.12 569.986 -1304.96 570.746L-1321.32 604.497L-1344.28 651.789C-1344.43 651.728 -1344.61 651.698 -1344.8 651.637C-1345.56 651.454 -1346.32 651.485 -1347.02 651.607L-1373.29 573.668ZM-1319.8 604.436L-1303.75 571.325C-1303.59 571.385 -1303.41 571.446 -1303.23 571.477C-1301.62 571.842 -1300.01 571.446 -1298.79 570.503L-1275.01 594.241L-1342.45 652.854C-1342.64 652.672 -1342.85 652.52 -1343.06 652.398L-1319.8 604.436ZM-1297.82 569.529C-1297.36 568.92 -1297.03 568.251 -1296.84 567.46C-1296.69 566.821 -1296.69 566.181 -1296.75 565.573L-1220.07 544.97C-1219.92 545.335 -1219.7 545.639 -1219.49 545.974L-1273.98 593.358L-1297.82 569.529ZM-1262.12 482.674L-1300.34 561.221C-1300.52 561.16 -1300.68 561.099 -1300.86 561.069C-1301.31 560.977 -1301.74 560.917 -1302.2 560.947L-1313.23 490.769L-1264.19 480.026C-1263.79 481.091 -1263.06 482.034 -1262.12 482.674ZM-1328.59 385.836L-1262.88 474.365C-1263.61 475.065 -1264.13 475.978 -1264.37 477.013C-1264.49 477.561 -1264.52 478.139 -1264.49 478.656L-1313.45 489.369L-1329.68 386.292C-1329.29 386.201 -1328.92 386.049 -1328.59 385.836ZM-1332.36 386.414C-1331.9 386.505 -1331.48 386.536 -1331.02 386.536L-1314.78 489.704L-1393.05 506.837C-1393.42 505.802 -1394.08 504.92 -1395 504.281L-1333.03 386.201C-1332.82 386.262 -1332.57 386.353 -1332.36 386.414ZM-1334.85 385.045C-1334.67 385.227 -1334.46 385.41 -1334.24 385.562L-1396.21 503.642C-1396.43 503.551 -1396.64 503.49 -1396.88 503.429C-1397.16 503.368 -1397.43 503.337 -1397.7 503.307L-1401.69 439.185L-1334.85 385.045ZM-1398.19 424.394C-1397.95 423.268 -1398.07 422.142 -1398.46 421.138L-1338.53 386.262L-1401.81 437.511L-1402.39 428.442C-1400.35 428.077 -1398.68 426.525 -1398.19 424.394ZM-1399.07 503.398C-1400.8 503.733 -1402.26 504.92 -1402.96 506.563L-1461.62 492.138C-1461.34 490.769 -1461.62 489.399 -1462.32 488.304L-1402.99 440.25L-1399.07 503.398ZM-1406.49 427.56C-1405.94 427.955 -1405.27 428.259 -1404.57 428.442C-1404.3 428.503 -1404.03 428.533 -1403.75 428.564L-1403.12 438.607L-1459.58 484.347L-1406.49 427.56ZM-1575.49 371.441L-1408.65 422.355C-1408.92 423.938 -1408.47 425.46 -1407.49 426.616L-1463.75 486.752C-1464.29 486.356 -1464.96 486.052 -1465.66 485.869C-1467.33 485.504 -1469.01 485.96 -1470.25 486.965L-1576.55 373.145C-1576.1 372.689 -1575.73 372.08 -1575.49 371.441ZM-1471.2 487.999C-1471.32 488.182 -1471.44 488.395 -1471.56 488.608L-1553.23 449.775L-1582.82 435.716C-1582.76 435.563 -1582.73 435.411 -1582.7 435.259C-1582.06 432.398 -1583.82 429.568 -1586.65 428.898L-1580.84 374.941C-1579.69 375.002 -1578.56 374.697 -1577.62 374.089L-1471.2 487.999ZM-1471.86 492.899L-1556.12 529.023L-1585.58 438.881C-1584.7 438.454 -1583.94 437.785 -1583.4 436.963L-1522.28 466.027L-1504.34 474.548L-1472.05 489.886V489.917C-1472.29 490.951 -1472.2 491.956 -1471.86 492.899ZM-1713.69 557.843L-1802.23 560.917C-1802.23 560.825 -1802.26 560.734 -1802.29 560.643L-1728.01 533.101C-1727.31 534.44 -1726.06 535.475 -1724.48 535.809C-1722.05 536.357 -1719.65 535.17 -1718.55 533.04L-1713.69 557.843ZM-1717.21 532.705L-1620.67 554.647L-1712.32 557.812L-1717.21 532.705ZM-1640.35 393.992L-1624.6 406.287L-1677.44 451.967C-1677.72 451.723 -1678.02 451.51 -1678.32 451.328L-1646.25 395.666C-1646.06 395.727 -1645.88 395.788 -1645.67 395.848C-1643.6 396.305 -1641.56 395.514 -1640.35 393.992ZM-1644.85 326.187L-1535.6 309.601C-1535.47 309.967 -1535.35 310.332 -1535.14 310.667L-1640.59 386.992C-1641.29 386.232 -1642.23 385.684 -1643.3 385.44C-1643.48 385.41 -1643.69 385.379 -1643.87 385.349L-1644.85 326.187ZM-1639.28 389.488L-1585.4 371.685C-1585.34 371.867 -1585.25 372.05 -1585.16 372.202L-1623.56 405.374L-1639.65 392.805C-1639.5 392.501 -1639.4 392.166 -1639.31 391.801C-1639.1 391.04 -1639.1 390.249 -1639.28 389.488ZM-1772.13 308.658C-1773.74 308.628 -1775.26 309.328 -1776.29 310.514L-1808.98 289.12L-1765.83 235.893C-1765.41 236.136 -1764.95 236.349 -1764.47 236.471L-1772.13 308.658ZM-1764.86 253.118L-1767.38 311.823C-1767.99 310.423 -1769.21 309.297 -1770.79 308.871L-1764.86 253.118ZM-1773.41 319.188C-1773.1 319.249 -1772.83 319.279 -1772.52 319.31L-1770.73 381.941C-1772.04 382.154 -1773.22 382.853 -1774.04 383.858L-1803.45 365.933L-1774.26 318.883C-1774.01 319.036 -1773.71 319.127 -1773.41 319.188ZM-1771.16 319.218C-1769.63 318.914 -1768.33 317.94 -1767.57 316.571L-1769.76 367.972L-1771.16 319.218ZM-1762.76 236.684C-1762.09 236.654 -1761.46 236.502 -1760.88 236.228L-1699.82 329.261C-1700.67 329.992 -1701.28 330.965 -1701.55 332.122C-1701.86 333.461 -1701.62 334.77 -1701.04 335.865L-1766.08 383.523C-1766.78 382.793 -1767.69 382.245 -1768.75 382.001C-1768.84 381.971 -1768.94 381.971 -1769.03 381.941L-1762.76 236.684ZM-1652.84 201.078L-1717.06 218.303L-1723.54 183.609C-1722.11 183.153 -1720.89 182.088 -1720.29 180.627L-1652.78 199.617C-1652.87 200.104 -1652.9 200.621 -1652.84 201.078ZM-1718.4 218.668L-1758.11 229.319C-1758.41 228.589 -1758.87 227.919 -1759.48 227.372L-1727.7 183.244C-1727.28 183.457 -1726.82 183.64 -1726.37 183.761C-1725.88 183.883 -1725.36 183.913 -1724.88 183.883L-1718.4 218.668ZM-1757.84 232.545C-1757.69 231.906 -1757.69 231.267 -1757.75 230.628L-1718.16 220.007L-1698 328.226C-1698.24 328.318 -1698.45 328.409 -1698.67 328.5L-1759.69 235.528C-1758.78 234.797 -1758.11 233.763 -1757.84 232.545ZM-1690.09 388.697L-1764.59 386.658C-1764.65 385.927 -1764.89 385.258 -1765.23 384.649L-1700.19 336.991C-1699.49 337.721 -1698.57 338.269 -1697.51 338.513C-1697.12 338.604 -1696.75 338.634 -1696.36 338.634L-1690.09 388.697ZM-1695.02 338.482C-1694.41 338.33 -1693.83 338.056 -1693.31 337.691L-1648.53 387.175C-1649.07 387.814 -1649.47 388.575 -1649.68 389.457C-1649.71 389.579 -1649.71 389.701 -1649.74 389.823L-1688.72 388.757L-1695.02 338.482ZM-1766.14 390.979L-1685.59 453.245C-1685.87 453.701 -1686.05 454.219 -1686.2 454.766C-1686.53 456.227 -1686.23 457.658 -1685.5 458.814L-1733 498.59L-1767.66 392.014C-1767.08 391.77 -1766.56 391.405 -1766.14 390.979ZM-1684.59 459.849C-1684.47 459.971 -1684.34 460.062 -1684.22 460.184L-1721.29 525.675C-1721.56 525.553 -1721.84 525.462 -1722.11 525.401C-1722.84 525.249 -1723.57 525.219 -1724.27 525.371L-1732.51 499.99L-1684.59 459.849ZM-1684.74 452.18L-1765.32 389.884C-1765.04 389.427 -1764.83 388.91 -1764.71 388.362C-1764.68 388.24 -1764.68 388.118 -1764.65 388.027L-1689.91 390.066L-1682.31 450.78C-1683.25 451.023 -1684.07 451.51 -1684.74 452.18ZM-1688.54 390.127L-1649.77 391.192C-1649.62 392.775 -1648.77 394.175 -1647.46 395.057L-1679.6 450.81C-1679.66 450.78 -1679.72 450.78 -1679.81 450.749C-1680.21 450.658 -1680.57 450.628 -1680.97 450.628L-1688.54 390.127ZM-1647.52 386.262L-1692.31 336.778C-1691.76 336.139 -1691.37 335.378 -1691.16 334.496C-1691.06 334.07 -1691.03 333.613 -1691.03 333.187L-1646.21 326.4L-1645.24 385.379C-1646.06 385.501 -1646.82 385.805 -1647.52 386.262ZM-1691.22 331.848C-1691.61 330.448 -1692.55 329.292 -1693.86 328.592L-1648.8 205.795C-1648.77 205.795 -1648.74 205.825 -1648.71 205.825C-1648.53 205.856 -1648.31 205.886 -1648.13 205.917L-1646.18 325.001L-1691.22 331.848ZM-1695.17 328.105C-1695.66 327.983 -1696.17 327.953 -1696.63 327.983L-1716.82 219.642L-1652.54 202.417C-1652.11 203.634 -1651.23 204.638 -1650.08 205.277L-1695.17 328.105ZM-1651.9 197.517L-1796.85 127.217C-1796.79 127.065 -1796.76 126.882 -1796.7 126.7C-1796.7 126.639 -1796.67 126.578 -1796.67 126.517L-1682.13 133.456L-1650.47 196.117C-1651.02 196.513 -1651.51 196.969 -1651.9 197.517ZM-1654.82 197.639L-1719.92 179.318C-1719.53 176.579 -1721.29 173.962 -1723.99 173.353C-1725.94 172.897 -1727.89 173.597 -1729.13 174.997L-1794.14 130.047L-1654.82 197.639ZM-1728.83 182.422L-1760.63 226.611C-1761 226.428 -1761.43 226.276 -1761.85 226.154C-1762.64 225.972 -1763.46 226.002 -1764.22 226.154L-1774.41 198.46L-1729.89 181.114C-1729.59 181.601 -1729.26 182.057 -1728.83 182.422ZM-1765.5 226.641C-1766.84 227.341 -1767.87 228.589 -1768.24 230.172C-1768.3 230.476 -1768.33 230.78 -1768.36 231.054L-1879.19 239.484C-1879.19 239.423 -1879.22 239.362 -1879.22 239.301L-1775.66 198.947L-1765.5 226.641ZM-1879.19 241.766C-1879.13 241.462 -1879.1 241.158 -1879.07 240.853L-1768.24 232.424C-1768.02 233.397 -1767.57 234.31 -1766.87 235.01L-1810.14 288.359L-1879.62 242.892C-1879.43 242.558 -1879.28 242.162 -1879.19 241.766ZM-1809.86 290.185L-1777.05 311.671C-1777.24 312.036 -1777.36 312.401 -1777.45 312.797C-1777.6 313.527 -1777.63 314.227 -1777.51 314.927L-1845.07 336.23C-1845.32 335.713 -1845.65 335.226 -1846.05 334.8L-1809.86 290.185ZM-1844.68 339.669C-1844.53 338.939 -1844.5 338.239 -1844.62 337.539L-1777.05 316.236C-1776.69 317.027 -1776.14 317.697 -1775.47 318.214L-1804.63 365.233L-1845.01 340.643C-1844.89 340.339 -1844.77 340.004 -1844.68 339.669ZM-1804.21 367.12L-1774.77 385.045C-1774.9 385.349 -1775.02 385.684 -1775.11 386.019C-1775.29 386.84 -1775.26 387.662 -1775.08 388.423L-1827.47 408.356C-1827.8 407.748 -1828.26 407.2 -1828.81 406.743L-1804.21 367.12ZM-1826.98 412.069C-1826.8 411.247 -1826.83 410.426 -1827.01 409.665L-1777.66 390.888L-1829.84 421.016L-1830.66 415.995C-1828.87 415.447 -1827.41 413.986 -1826.98 412.069ZM-1774.14 390.431C-1773.53 391.223 -1772.68 391.862 -1771.67 392.227L-1806.85 556.139L-1807.25 556.443C-1807.37 556.443 -1807.52 556.443 -1807.64 556.443L-1829.54 422.447L-1774.14 390.431ZM-1770.33 392.501C-1769.85 392.531 -1769.36 392.531 -1768.91 392.44L-1734.09 499.533L-1803.81 557.904C-1804.33 557.417 -1804.91 557.021 -1805.61 556.778L-1770.33 392.501ZM-1733.66 500.933L-1725.58 525.797C-1727.01 526.466 -1728.1 527.775 -1728.49 529.419C-1728.68 530.24 -1728.65 531.031 -1728.49 531.792L-1749.26 539.492L-1802.78 559.334C-1802.84 559.212 -1802.9 559.091 -1802.99 558.969L-1733.66 500.933ZM-1720.07 526.345L-1682.98 460.853C-1682.7 460.975 -1682.43 461.066 -1682.16 461.127C-1680.82 461.431 -1679.48 461.188 -1678.35 460.579L-1661.72 485.869L-1719.37 526.984C-1719.59 526.74 -1719.83 526.558 -1720.07 526.345ZM-1677.29 459.758C-1676.56 459.058 -1676.04 458.145 -1675.8 457.11C-1675.68 456.532 -1675.65 455.953 -1675.71 455.375L-1592.88 435.898C-1592.79 436.111 -1592.7 436.324 -1592.61 436.537L-1660.66 485.047L-1677.29 459.758ZM-1593.06 432.855C-1593.19 433.433 -1593.22 434.011 -1593.16 434.559L-1676.07 453.793C-1676.2 453.519 -1676.35 453.245 -1676.5 453.001L-1623.44 407.139L-1592.43 431.333C-1592.73 431.79 -1592.94 432.307 -1593.06 432.855ZM-1622.41 406.226L-1584.31 373.298C-1583.73 373.906 -1583 374.363 -1582.18 374.637L-1588.02 428.716C-1589.39 428.746 -1590.69 429.325 -1591.64 430.268L-1622.41 406.226ZM-1534.35 311.793L-1577.68 365.05C-1578.17 364.746 -1578.71 364.502 -1579.29 364.381C-1582.15 363.711 -1585.01 365.537 -1585.68 368.398C-1585.83 369.067 -1585.83 369.706 -1585.74 370.346L-1639.71 388.179C-1639.74 388.149 -1639.74 388.118 -1639.77 388.058L-1534.35 311.793ZM-1644 204.577L-1534.81 305.037C-1535.2 305.584 -1535.47 306.223 -1535.66 306.923C-1535.75 307.349 -1535.78 307.775 -1535.78 308.232L-1644.85 324.788L-1646.76 205.886C-1645.73 205.734 -1644.79 205.277 -1644 204.577ZM-1613.71 141.581L-1645.58 195.661C-1645.82 195.569 -1646.09 195.478 -1646.37 195.417C-1647.34 195.204 -1648.34 195.265 -1649.23 195.569L-1680.51 133.577L-1615.99 137.503C-1615.9 139.147 -1615.05 140.668 -1613.71 141.581ZM-1742.73 9.53288L-1614.77 133.79C-1615.29 134.43 -1615.69 135.19 -1615.9 136.043C-1615.9 136.073 -1615.9 136.103 -1615.93 136.134L-1681.27 132.178L-1743.03 9.74591C-1742.94 9.68504 -1742.82 9.59374 -1742.73 9.53288ZM-1747.65 10.4154C-1747.5 10.4459 -1747.38 10.5067 -1747.23 10.5372C-1746.22 10.7806 -1745.19 10.6893 -1744.28 10.3546L-1682.82 132.056L-1796.58 125.148C-1796.7 123.443 -1797.61 121.922 -1799.04 121.009L-1747.65 10.4154ZM-1797.94 129.104L-1729.92 176.092C-1730.14 176.488 -1730.29 176.914 -1730.38 177.34C-1730.56 178.192 -1730.53 179.014 -1730.35 179.805L-1774.83 197.152L-1799.43 130.26C-1798.86 129.956 -1798.37 129.591 -1797.94 129.104ZM-1804.42 130.23C-1803.99 130.443 -1803.57 130.625 -1803.08 130.747C-1802.29 130.93 -1801.47 130.93 -1800.71 130.747L-1776.14 197.669L-1879.74 238.023C-1880.01 237.536 -1880.35 237.08 -1880.77 236.684L-1804.42 130.23ZM-1851 333.278L-1881.99 245.358C-1881.35 245.053 -1880.8 244.597 -1880.35 244.079L-1811.02 289.424L-1847.11 333.917C-1847.6 333.613 -1848.14 333.4 -1848.72 333.248C-1849.48 333.096 -1850.27 333.096 -1851 333.278ZM-1847.96 343.443C-1847.08 343.108 -1846.32 342.53 -1845.74 341.799L-1805.39 366.389L-1829.99 406.013C-1830.33 405.861 -1830.66 405.739 -1831.03 405.678C-1831.63 405.556 -1832.21 405.526 -1832.79 405.587L-1847.96 343.443ZM-1836.04 414.534C-1835.34 415.265 -1834.43 415.812 -1833.37 416.056C-1832.91 416.147 -1832.45 416.208 -1832 416.178L-1831.09 421.716L-1902.39 462.923L-1836.04 414.534ZM-1908.29 467.944L-1830.84 423.177L-1809.01 556.656C-1809.77 556.869 -1810.44 557.265 -1811.02 557.782L-1908.78 472.935C-1908.44 472.418 -1908.17 471.809 -1908.01 471.17C-1907.74 470.074 -1907.89 468.948 -1908.29 467.944ZM-1909.66 473.97L-1811.93 558.817C-1812.23 559.273 -1812.48 559.791 -1812.63 560.338L-1892.08 549.048L-1911.24 474.944C-1910.66 474.73 -1910.11 474.396 -1909.66 473.97ZM-1938.09 538.153L-1914.4 475.187H-1914.37C-1913.76 475.339 -1913.12 475.339 -1912.55 475.278L-1893.54 548.835L-1935.26 542.9C-1935.26 540.922 -1936.35 539.066 -1938.09 538.153ZM-1879.65 607.479L-1936.51 546.248C-1936.05 545.67 -1935.68 545 -1935.47 544.27L-1893.18 550.295L-1878.55 606.901C-1878.95 607.053 -1879.31 607.235 -1879.65 607.479ZM-1875.39 606.627C-1876.03 606.475 -1876.64 606.475 -1877.21 606.536L-1891.69 550.478L-1813.79 561.556L-1872.83 607.996C-1873.5 607.357 -1874.39 606.84 -1875.39 606.627ZM-1871.25 611.313C-1871.34 610.522 -1871.59 609.761 -1871.98 609.122L-1812.78 562.56C-1812.48 564.69 -1810.9 566.516 -1808.68 567.003C-1806.52 567.49 -1804.33 566.577 -1803.14 564.873L-1704.35 616.609L-1871.25 611.313ZM-1802.5 563.625C-1802.41 563.412 -1802.35 563.199 -1802.29 562.956C-1802.23 562.742 -1802.2 562.499 -1802.2 562.286L-1713.44 559.212L-1702.35 616.091L-1802.5 563.625ZM-1700.92 616.152L-1712.05 559.151L-1620.61 555.986C-1620.52 556.565 -1620.31 557.143 -1620.04 557.66L-1700.92 616.152ZM-1620.37 553.308L-1718 531.123C-1717.91 530.058 -1718.13 529.023 -1718.61 528.11L-1661.02 487.025L-1618.88 551.087C-1619.52 551.695 -1620.04 552.426 -1620.37 553.308ZM-1617.69 550.356L-1659.87 486.234L-1591.79 437.663C-1591.24 438.272 -1590.51 438.728 -1589.72 439.033L-1614.87 549.809C-1615.87 549.748 -1616.84 549.93 -1617.69 550.356ZM-1613.53 550.143L-1588.38 439.367C-1587.86 439.428 -1587.38 439.398 -1586.89 439.307L-1557.4 529.571L-1610.76 552.456C-1611.37 551.391 -1612.34 550.569 -1613.53 550.143ZM-1539.58 592.384L-1610.3 556.899C-1610.24 556.717 -1610.18 556.534 -1610.15 556.321C-1609.94 555.408 -1609.97 554.526 -1610.21 553.673L-1556.94 530.849L-1537.45 590.558C-1538.3 590.954 -1539.06 591.593 -1539.58 592.384ZM-1533.98 590.163C-1534.71 589.98 -1535.44 589.98 -1536.14 590.132L-1555.69 530.331L-1471.23 494.116C-1470.95 494.542 -1470.59 494.908 -1470.19 495.242L-1481.66 512.65L-1532.83 590.558C-1533.19 590.406 -1533.59 590.254 -1533.98 590.163ZM-1531.7 591.319L-1481.05 514.202L-1469.07 495.942C-1468.76 496.094 -1468.43 496.216 -1468.06 496.277C-1467.06 496.49 -1466.06 496.429 -1465.17 496.125L-1442.07 536.875L-1531.1 592.019C-1531.25 591.776 -1531.46 591.532 -1531.7 591.319ZM-1530.34 593.175L-1441.37 538.061L-1421.54 573.029C-1422.54 573.759 -1423.31 574.855 -1423.61 576.163C-1423.7 576.559 -1423.73 576.985 -1423.73 577.381L-1530.09 593.906C-1530.12 593.632 -1530.21 593.388 -1530.34 593.175ZM-1529.85 595.245L-1423.52 578.72C-1423.03 580.576 -1421.54 582.098 -1419.57 582.524C-1418.93 582.676 -1418.32 582.676 -1417.71 582.615L-1403.48 637.273L-1529.85 595.854C-1529.85 595.641 -1529.85 595.458 -1529.85 595.245ZM-1376.27 747.562L-1527.42 598.106L-1403.08 638.855L-1374.99 746.831C-1375.45 747.014 -1375.87 747.257 -1376.27 747.562ZM-1373.65 746.496L-1401.53 639.373L-1351.21 655.867C-1351.67 658.332 -1350.33 660.797 -1348.08 661.741L-1372.19 746.496C-1372.68 746.436 -1373.16 746.436 -1373.65 746.496ZM-1368.73 748.596C-1369.27 747.866 -1370 747.257 -1370.88 746.862L-1346.77 662.106C-1344.04 662.502 -1341.42 660.767 -1340.78 658.028C-1340.75 657.906 -1340.72 657.785 -1340.72 657.663L-1213.71 660.31C-1213.65 660.797 -1213.53 661.254 -1213.35 661.71L-1368.73 748.596ZM-1213.62 658.515C-1213.65 658.637 -1213.68 658.758 -1213.68 658.911L-1340.69 656.263C-1340.78 655.411 -1341.09 654.589 -1341.54 653.889L-1274.04 595.184L-1212.65 656.445C-1213.1 657.054 -1213.44 657.754 -1213.62 658.515ZM-1211.68 655.502L-1273.01 594.301L-1218.55 546.948C-1217.94 547.435 -1217.21 547.8 -1216.42 547.983C-1216.05 548.074 -1215.66 548.104 -1215.29 548.104L-1209.43 654.498C-1210.22 654.62 -1211.01 654.985 -1211.68 655.502ZM-1207.24 654.498C-1207.51 654.437 -1207.75 654.406 -1208.03 654.376L-1213.9 547.891C-1213.8 547.861 -1213.68 547.83 -1213.59 547.8L-1175.22 643.359L-1203.92 656.811C-1204.65 655.715 -1205.81 654.833 -1207.24 654.498ZM-1160.23 728.024C-1160.68 727.75 -1161.2 727.567 -1161.72 727.415C-1162.9 727.141 -1164.09 727.293 -1165.12 727.78L-1205.02 663.81C-1204.96 663.749 -1204.86 663.688 -1204.8 663.628L-1151.41 709.003C-1151.74 709.521 -1151.99 710.099 -1152.14 710.707C-1152.57 712.564 -1151.96 714.39 -1150.71 715.638L-1160.23 728.024ZM-1159.13 728.876L-1149.62 716.55C-1149.16 716.824 -1148.64 717.007 -1148.1 717.159C-1146.7 717.463 -1145.3 717.22 -1144.17 716.52L-1134.11 729.211L-1157.67 731.463C-1157.95 730.458 -1158.43 729.576 -1159.13 728.876ZM-1100.51 772.212L-1158.1 734.932C-1157.95 734.567 -1157.8 734.202 -1157.7 733.806C-1157.64 733.471 -1157.58 733.136 -1157.58 732.802L-1133.14 730.458L-1100.27 771.938C-1100.36 772.03 -1100.45 772.121 -1100.51 772.212ZM-1095.28 770.447C-1096.68 770.143 -1098.08 770.386 -1099.2 771.086L-1131.49 730.306L-1005.15 718.224C-1005.06 718.559 -1004.97 718.894 -1004.82 719.198L-1092.27 772.334C-1093.03 771.421 -1094.06 770.752 -1095.28 770.447ZM-967.724 770.447C-967.785 770.66 -967.816 770.873 -967.816 771.086L-1091.17 774.799C-1091.21 774.677 -1091.24 774.556 -1091.27 774.404L-988.218 735.328L-966.083 767.617C-966.873 768.347 -967.481 769.321 -967.724 770.447ZM-959.88 766.978C-960.336 766.734 -960.822 766.521 -961.339 766.4C-962.616 766.126 -963.863 766.308 -964.927 766.856L-986.881 734.841L-918.192 708.79C-917.949 709.368 -917.615 709.916 -917.189 710.373L-959.88 766.978ZM-918.496 705.595C-918.527 705.777 -918.557 705.96 -918.588 706.142L-994.817 715.668C-994.999 714.938 -995.364 714.268 -995.82 713.659L-945.953 661.619L-916.581 702.551C-917.523 703.312 -918.223 704.347 -918.496 705.595ZM-913.51 701.456C-914.179 701.486 -914.787 701.638 -915.395 701.882L-944.98 660.645L-910.651 624.826C-910.135 625.16 -909.526 625.434 -908.888 625.586C-908.645 625.647 -908.401 625.678 -908.188 625.708L-913.51 701.456ZM-908.401 704.682C-909.04 703.16 -910.378 701.973 -912.111 701.578H-912.141L-906.79 625.647C-906.273 625.556 -905.786 625.404 -905.33 625.16L-864.221 686.635C-866.197 687.974 -867.079 690.439 -866.349 692.721L-908.401 704.682ZM-907.884 707.299L-908.097 707.938C-907.945 707.268 -907.945 706.599 -908.036 705.96L-865.741 693.939C-864.282 696.191 -861.302 697.073 -858.839 695.795C-858.687 695.704 -858.535 695.643 -858.383 695.552L-850.69 706.812L-836.034 728.693C-836.247 728.906 -836.429 729.119 -836.612 729.363C-836.794 729.576 -836.946 729.789 -837.068 730.002L-907.884 707.299ZM-736.422 728.967L-827.034 731.676C-827.125 731.128 -827.277 730.61 -827.551 730.093C-827.855 729.484 -828.28 728.967 -828.767 728.541L-813.32 705.96L-736.361 728.663C-736.392 728.784 -736.392 728.876 -736.422 728.967ZM-735.997 727.354L-812.53 704.773L-784.677 664.023C-783.218 664.754 -781.424 664.845 -779.812 664.023H-779.782L-735.176 726.076C-735.51 726.441 -735.784 726.867 -735.997 727.354ZM-731.679 724.189C-732.317 724.25 -732.926 724.433 -733.534 724.737C-733.746 724.859 -733.959 724.98 -734.142 725.102L-778.657 663.202C-778.17 662.776 -777.775 662.228 -777.471 661.68L-728.182 674.492L-731.679 724.189ZM-652.257 707.421L-725.993 727.872C-726.084 727.598 -726.175 727.324 -726.327 727.08C-727.148 725.467 -728.638 724.463 -730.311 724.22L-726.814 674.827L-629.787 700.025C-629.787 700.391 -629.726 700.786 -629.635 701.151L-652.257 707.421ZM-629.604 698.625L-726.692 673.427L-721.584 600.966C-720.854 600.936 -720.155 600.753 -719.455 600.388C-719.212 600.266 -718.999 600.114 -718.786 599.992L-628.996 697.165C-629.3 697.591 -629.483 698.108 -629.604 698.625ZM-625.013 694.578C-625.651 694.639 -626.26 694.821 -626.837 695.126C-627.324 695.369 -627.749 695.704 -628.145 696.069L-717.783 599.049C-717.297 598.471 -716.962 597.801 -716.749 597.071L-616.651 611.77L-625.013 694.578ZM-622.428 694.913C-622.793 694.76 -623.219 694.639 -623.614 694.578L-615.252 611.922L-581.684 616.852C-581.684 617.674 -581.501 618.496 -581.106 619.287C-580.711 620.048 -580.163 620.687 -579.525 621.143L-622.428 694.913ZM-578.795 612.105C-580.194 612.835 -581.167 614.083 -581.532 615.513L-615.131 610.583L-605.005 510.398C-604.853 510.398 -604.671 510.367 -604.488 510.367L-595.427 545.517L-578.308 611.892C-578.491 611.953 -578.643 612.013 -578.795 612.105ZM-574.629 611.8C-575.39 611.557 -576.18 611.466 -576.971 611.557L-594.211 544.757L-603.181 510.002C-603.029 509.941 -602.877 509.881 -602.755 509.82C-601.965 509.424 -601.326 508.846 -600.84 508.176L-541.152 540.374L-574.629 611.8ZM-539.936 541.044L-448.99 590.132C-449.203 590.771 -449.294 591.471 -449.233 592.171L-571.224 615.3C-571.315 614.996 -571.437 614.722 -571.558 614.418C-571.984 613.565 -572.623 612.866 -573.383 612.379L-539.936 541.044ZM-545.622 660.371L-572.775 620.839C-571.589 619.774 -570.95 618.222 -571.011 616.639L-448.959 593.48C-448.868 593.693 -448.807 593.936 -448.686 594.149L-545.622 660.371ZM-448.412 588.884L-539.358 539.796L-525.827 510.946C-524.519 511.341 -523.09 511.28 -521.783 510.611C-521.54 510.489 -521.327 510.337 -521.114 510.185L-448.26 588.611C-448.321 588.702 -448.382 588.793 -448.412 588.884ZM-446.344 586.967C-446.709 587.15 -447.013 587.363 -447.317 587.606L-520.11 509.272C-519.563 508.602 -519.198 507.842 -518.985 507.02L-432.388 514.841L-444.033 586.419C-444.824 586.419 -445.615 586.602 -446.344 586.967ZM-441.571 586.937C-441.935 586.785 -442.27 586.632 -442.665 586.541L-430.989 514.932L-397.299 517.976C-397.268 518.737 -397.086 519.467 -396.721 520.197C-396.417 520.776 -396.022 521.293 -395.565 521.719L-441.571 586.937ZM-370.997 608.514C-372.152 609.122 -373.004 610.066 -373.49 611.161L-438.651 592.536C-438.5 591.471 -438.651 590.345 -439.168 589.31C-439.503 588.671 -439.929 588.124 -440.445 587.667L-394.501 522.48C-393.559 522.967 -392.494 523.18 -391.4 523.058L-370.511 608.27C-370.663 608.361 -370.815 608.453 -370.997 608.514ZM-369.173 607.966L-390.062 522.754C-389.91 522.693 -389.727 522.632 -389.575 522.541C-389.18 522.328 -388.785 522.084 -388.481 521.78L-334.905 568.859L-365.858 608.666C-366.831 608.118 -367.987 607.844 -369.173 607.966ZM-255.726 639.981L-363.243 613.87C-363.122 612.866 -363.304 611.831 -363.791 610.857C-364.064 610.34 -364.369 609.914 -364.764 609.518L-333.84 569.773L-255.148 638.916C-255.392 639.251 -255.574 639.616 -255.726 639.981ZM-253.142 637.151C-253.537 637.364 -253.932 637.607 -254.236 637.912L-332.989 568.707L-283.578 505.163C-282.636 505.711 -281.541 505.985 -280.416 505.894L-252.473 636.877C-252.716 636.938 -252.959 637.029 -253.142 637.151ZM-250.375 636.573C-250.648 636.542 -250.891 636.542 -251.165 636.573L-279.109 505.59C-278.896 505.498 -278.683 505.437 -278.47 505.316C-278.227 505.194 -277.984 505.042 -277.771 504.89L-233.56 551.817L-250.375 636.573ZM-248.307 633.256L-232.344 553.034L-226.08 559.669C-227.387 561.282 -227.691 563.534 -226.718 565.481C-226.201 566.516 -225.38 567.307 -224.407 567.794L-248.307 633.256ZM-222.34 557.691C-223.039 557.752 -223.739 557.934 -224.377 558.269C-224.62 558.391 -224.864 558.543 -225.076 558.695L-232.009 551.361L-217.779 479.752L-222.34 557.691ZM-217.353 560.369C-218.144 558.969 -219.512 558.086 -220.972 557.812L-216.137 475.217C-215.438 475.157 -214.738 474.974 -214.1 474.639C-212.549 473.848 -211.576 472.418 -211.272 470.835L-56.1987 490.343C-56.2291 491.012 -56.1378 491.712 -55.8945 492.382L-217.353 560.369ZM-55.9554 489.004L-211.181 469.466C-211.211 469.222 -211.241 469.009 -211.302 468.766L-123.367 446.245L-91.5006 438.089C-91.4398 438.241 -91.3789 438.394 -91.2877 438.546C-89.9498 441.163 -86.7876 442.228 -84.1423 440.92L-54.0094 486.295C-54.9519 486.965 -55.621 487.938 -55.9554 489.004ZM-52.7932 485.595L-82.9868 440.128C-81.953 439.215 -81.3143 437.937 -81.1624 436.598L-41.9989 435.35L-50.2998 485.26C-51.1208 485.169 -51.9722 485.291 -52.7932 485.595ZM-49.3573 564.873L-50.087 495.912C-49.5093 495.821 -48.9315 495.668 -48.4147 495.394C-45.7693 494.055 -44.7355 490.83 -46.0732 488.182C-46.3773 487.573 -46.8031 487.056 -47.2592 486.63L-17.0352 438.15C-17.0048 438.15 -16.944 438.181 -16.9136 438.181L-49.3573 564.873ZM-46.9855 565.755C-47.3199 565.542 -47.6545 565.36 -48.0194 565.208L-15.606 438.515C-14.5721 438.637 -13.5081 438.485 -12.535 437.968C-12.3525 437.876 -12.17 437.785 -12.0179 437.663L26.6895 482.704L-46.9855 565.755ZM104.074 577.137L-44.6746 569.773C-44.7354 569.103 -44.9178 568.403 -45.2523 567.764C-45.4651 567.368 -45.7085 567.003 -45.9822 566.668L27.5712 483.769L105.381 574.307C104.682 575.129 104.226 576.103 104.074 577.137ZM106.932 573.151C106.75 573.242 106.598 573.333 106.415 573.455L28.5138 482.765L58.8595 448.558C60.0454 449.38 61.5657 449.684 62.9948 449.349L107.023 573.12C106.993 573.12 106.963 573.12 106.932 573.151ZM108.331 572.664L64.3022 448.893C64.7583 448.65 65.1537 448.376 65.5186 448.041L150.626 518.676L112.071 573.303C110.946 572.633 109.638 572.42 108.331 572.664ZM121.132 645.216L111.007 582.98C111.28 582.889 111.523 582.798 111.797 582.676C112.709 582.22 113.409 581.52 113.926 580.728L177.84 608.453L125.51 646.92C124.385 645.703 122.774 645.094 121.132 645.216ZM305.487 664.236L126.97 650.572C126.97 649.75 126.788 648.929 126.392 648.137C126.362 648.107 126.362 648.076 126.332 648.046L179.3 609.092L305.578 663.841C305.517 663.993 305.487 664.115 305.487 664.236ZM308.284 660.554C307.341 661.041 306.612 661.741 306.125 662.593L180.607 608.148L272.83 540.344C274.016 541.592 275.719 542.17 277.391 541.957L308.71 660.371C308.558 660.432 308.406 660.493 308.284 660.554Z" fill="url(#paint0_linear_7773_178)"/>
<defs>
<linearGradient id="paint0_linear_7773_178" x1="-1484.49" y1="390.502" x2="23.6391" y2="390.502" gradientUnits="userSpaceOnUse">
<stop stop-color="#B6FBFF"/>
<stop offset="0.1801" stop-color="#8ECAE5"/>
<stop offset="0.486" stop-color="#4570B4"/>
<stop offset="0.9994" stop-color="#B6FBFF"/>
</linearGradient>
</defs>
</svg>
