<svg width="128" height="128" viewBox="0 0 128 128" fill="none" xmlns="http://www.w3.org/2000/svg">
<g clip-path="url(#clip0_7_749)">
<path d="M35.6035 35.4746H92.1567V92.0278H35.6035V35.4746Z" fill="#9D9D9D"/>
<path d="M127.379 32.6197V25.1785H115.258V12.3737H105.427V0.25296H97.9862V12.3737H90.2972V0.25296H82.856V12.3737H75.1665V0.25296H67.7253V12.3737H60.036V0.25296H52.5948V12.3737H44.9053V0.25296H37.4641V12.3737H29.7751V0.25296H22.3339V12.3737H12.5031V25.1785H0.382379V32.6197H12.5031V39.1191H0.382379V46.5603H12.5031V59.9215H0.378906V67.3627H12.5031V80.9419H0.382379V88.3831H12.5031V94.8825H0.382379V102.324H12.5031V115.129H22.3339V127.249H29.7751V115.129H37.4641V127.249H44.9053V115.129H52.5948V127.249H60.036V115.129H67.7253V127.249H75.1665V115.129H82.856V127.249H90.2972V115.129H97.9862V127.249H105.427V115.129H115.258V102.324H127.379V94.8825H115.258V88.3831H127.379V80.9419H115.258V67.3627H127.379V59.9215H115.258V46.5603H127.379V39.1191H115.258V32.6197H127.379ZM99.5984 99.469H28.1629V28.0335H99.5984V99.469Z" fill="#9D9D9D"/>
</g>
<defs>
<clipPath id="clip0_7_749">
<rect width="127" height="127" fill="white" transform="translate(0.378906 0.250977)"/>
</clipPath>
</defs>
</svg>
