<svg width="127" height="128" viewBox="0 0 127 128" fill="none" xmlns="http://www.w3.org/2000/svg">
<path d="M59.7793 48.8682H67.2207V63.751H59.7793V48.8682Z" fill="#18A0FB"/>
<path d="M89.5449 48.8682H96.9863V63.751H89.5449V48.8682Z" fill="#18A0FB"/>
<path d="M0 52.5889H3.7207C5.77354 52.5889 7.44141 54.2567 7.44141 56.5422C7.44141 58.4644 5.87549 60.0303 3.7207 60.0303H0V86.0752H127V60.0303H123.047C121.125 60.0303 119.558 58.4644 119.558 56.3096C119.558 54.2567 121.226 52.5889 123.279 52.5889H127V26.5439H0V52.5889ZM82.1035 41.4268H104.428V71.1924H82.1035V41.4268ZM52.3379 41.4268H74.6621V71.1924H52.3379V41.4268ZM22.5723 41.4268H44.8965V71.1924H22.5723V41.4268Z" fill="#18A0FB"/>
<path d="M30.0137 48.8682H37.4551V63.751H30.0137V48.8682Z" fill="#18A0FB"/>
<path d="M7.44141 93.5166H52.3379V100.958H7.44141V93.5166Z" fill="#18A0FB"/>
<path d="M59.7793 93.5166H119.559V100.958H59.7793V93.5166Z" fill="#18A0FB"/>
</svg>
