<svg width="127" height="128" viewBox="0 0 127 128" fill="none" xmlns="http://www.w3.org/2000/svg">
<g clip-path="url(#clip0_7_763)">
<path fill-rule="evenodd" clip-rule="evenodd" d="M103.259 127.251C106.399 127.247 109.409 125.998 111.629 123.778C113.849 121.558 115.098 118.548 115.102 115.408V12.0937C115.098 8.95396 113.849 5.94385 111.629 3.7237C109.409 1.50355 106.399 0.254653 103.259 0.250977L23.7429 0.250977C20.603 0.254652 17.5927 1.50349 15.3723 3.72359C13.1519 5.94369 11.9026 8.9538 11.8984 12.0937V115.408C11.9026 118.548 13.1519 121.558 15.3723 123.778C17.5927 125.998 20.603 127.247 23.7429 127.251H103.259ZM86.1438 54.8387H92.947C93.8432 54.8467 94.7005 55.2062 95.3344 55.8398C95.9683 56.4734 96.3283 57.3305 96.3368 58.2267V69.2752C96.3283 70.1714 95.9683 71.0285 95.3344 71.662C94.7005 72.2956 93.8432 72.655 92.947 72.663H86.1438V54.8387ZM83.1189 78.7109C82.7219 78.7111 82.3287 78.633 81.9619 78.4812C81.5951 78.3293 81.2618 78.1066 80.9811 77.8259C80.7004 77.5451 80.4777 77.2118 80.3259 76.845C80.1741 76.4782 80.096 76.085 80.0962 75.688V51.814C80.096 51.417 80.1741 51.0238 80.3259 50.657C80.4777 50.2901 80.7004 49.9568 80.9811 49.6761C81.2618 49.3953 81.5951 49.1727 81.9619 49.0208C82.3287 48.8689 82.7219 48.7909 83.1189 48.791H92.947C95.4489 48.7934 97.8477 49.7883 99.617 51.5573C101.386 53.3262 102.382 55.7248 102.384 58.2267V69.2752C102.381 71.7771 101.386 74.1757 99.6169 75.9446C97.8476 77.7136 95.4489 78.7084 92.947 78.7109H83.1189ZM58.4028 54.8387H65.2097C66.1055 54.8474 66.9621 55.2072 67.5956 55.8407C68.229 56.4742 68.5888 57.3309 68.5975 58.2267V69.2752C68.5888 70.171 68.229 71.0277 67.5956 71.6611C66.9621 72.2946 66.1055 72.6543 65.2097 72.663H58.4028V54.8387ZM55.3798 78.7109C54.9827 78.7112 54.5894 78.6331 54.2225 78.4813C53.8555 78.3295 53.522 78.1069 53.2411 77.8261C52.9603 77.5454 52.7374 77.2121 52.5854 76.8452C52.4334 76.4783 52.3551 76.0851 52.3551 75.688V51.814C52.3551 51.4168 52.4334 51.0236 52.5854 50.6567C52.7374 50.2899 52.9603 49.9565 53.2411 49.6758C53.522 49.3951 53.8555 49.1724 54.2225 49.0206C54.5894 48.8688 54.9827 48.7908 55.3798 48.791H65.2097C67.7112 48.7942 70.1093 49.7893 71.8781 51.5582C73.647 53.327 74.642 55.7252 74.6451 58.2267V69.2752C74.642 71.7767 73.647 74.1749 71.8781 75.9438C70.1093 77.7126 67.7112 78.7078 65.2097 78.7109H55.3798ZM24.6158 75.688V51.814C24.6158 51.012 24.9344 50.2428 25.5015 49.6757C26.0686 49.1086 26.8377 48.79 27.6397 48.79C28.4417 48.79 29.2109 49.1086 29.778 49.6757C30.3451 50.2428 30.6637 51.012 30.6637 51.814V60.727H40.8584V51.814C40.8584 51.0122 41.1769 50.2433 41.7438 49.6764C42.3107 49.1095 43.0796 48.791 43.8814 48.791C44.6831 48.791 45.452 49.1095 46.0189 49.6764C46.5858 50.2433 46.9043 51.0122 46.9043 51.814V75.688C46.9043 76.4897 46.5858 77.2586 46.0189 77.8255C45.452 78.3924 44.6831 78.7109 43.8814 78.7109C43.0796 78.7109 42.3107 78.3924 41.7438 77.8255C41.1769 77.2586 40.8584 76.4897 40.8584 75.688V66.7749H30.6637V75.688C30.6637 76.49 30.3451 77.2591 29.778 77.8262C29.2109 78.3933 28.4417 78.7119 27.6397 78.7119C26.8377 78.7119 26.0686 78.3933 25.5015 77.8262C24.9344 77.2591 24.6158 76.49 24.6158 75.688Z" fill="#9D9D9D"/>
</g>
<defs>
<clipPath id="clip0_7_763">
<rect width="127" height="127" fill="white" transform="translate(0 0.250977)"/>
</clipPath>
</defs>
</svg>
