<svg width="128" height="128" viewBox="0 0 128 128" fill="none" xmlns="http://www.w3.org/2000/svg">
<g clip-path="url(#clip0_7_768)">
<path d="M75.8867 15.2363H0.976562V111.975H75.8867V15.2363ZM34.7109 71.0469C34.7109 77.2019 29.7039 82.209 23.5488 82.209C17.3938 82.209 12.3867 77.2019 12.3867 71.0469V56.1641C12.3867 50.009 17.3938 45.002 23.5488 45.002C29.7039 45.002 34.7109 50.009 34.7109 56.1641V71.0469ZM53.3145 59.8848C59.4695 59.8848 64.4766 64.8918 64.4766 71.0469C64.4766 77.2019 59.4695 82.209 53.3145 82.209C47.1594 82.209 42.1523 77.2019 42.1523 71.0469H49.5938C49.5938 73.0997 51.2616 74.7676 53.3145 74.7676C55.3673 74.7676 57.0352 73.0997 57.0352 71.0469C57.0352 68.994 55.3673 67.3262 53.3145 67.3262C47.1594 67.3262 42.1523 62.3191 42.1523 56.1641C42.1523 50.009 47.1594 45.002 53.3145 45.002C59.4695 45.002 64.4766 50.009 64.4766 56.1641H57.0352C57.0352 54.1112 55.3673 52.4434 53.3145 52.4434C51.2616 52.4434 49.5938 54.1112 49.5938 56.1641C49.5938 58.2169 51.2616 59.8848 53.3145 59.8848Z" fill="#9D9D9D"/>
<path d="M23.5488 52.4434C21.496 52.4434 19.8281 54.1112 19.8281 56.1641V71.0469C19.8281 73.0997 21.496 74.7676 23.5488 74.7676C25.6017 74.7676 27.2695 73.0997 27.2695 71.0469V56.1641C27.2695 54.1112 25.6017 52.4434 23.5488 52.4434Z" fill="#9D9D9D"/>
<path d="M98.0742 62.2533C98.1211 62.6336 98.1829 63.0091 98.1901 63.4001L126.857 72.9558C127.564 69.9473 127.977 66.8271 127.977 63.6059C127.977 58.3518 126.946 53.343 125.134 48.7236L98.0742 62.2533Z" fill="#9D9D9D"/>
<path d="M87.0488 22.6777C85.8007 22.6777 84.5721 22.9367 83.3281 23.0498V53.1287C84.4977 52.7117 85.7381 52.4434 87.0488 52.4434C90.0504 52.4434 92.7675 53.6479 94.7755 55.5819L121.79 42.0748C114.562 30.4543 101.712 22.6777 87.0488 22.6777Z" fill="#9D9D9D"/>
<path d="M83.3281 104.161C84.5721 104.274 85.8007 104.533 87.0488 104.533C103.779 104.533 118.176 94.431 124.516 80.016L95.8036 70.4453C93.759 73.056 90.6147 74.7673 87.0488 74.7673C85.7381 74.7673 84.4977 74.4989 83.3281 74.0819V104.161Z" fill="#9D9D9D"/>
<path d="M90.7695 63.6055C90.7695 61.5526 89.1017 59.8848 87.0488 59.8848C84.996 59.8848 83.3281 61.5526 83.3281 63.6055C83.3281 65.6583 84.996 67.3262 87.0488 67.3262C89.1017 67.3262 90.7695 65.6583 90.7695 63.6055Z" fill="#9D9D9D"/>
</g>
<defs>
<clipPath id="clip0_7_768">
<rect width="127" height="127" fill="white" transform="translate(0.976562 0.105469)"/>
</clipPath>
</defs>
</svg>
