<svg width="128" height="128" viewBox="0 0 128 128" fill="none" xmlns="http://www.w3.org/2000/svg">
<g clip-path="url(#clip0_7_779)">
<path d="M124.02 90.1504H112.609V78.9883C112.609 76.9317 110.945 75.2676 108.889 75.2676H67.9609V67.7016C84.7068 67.0793 97.7266 62.415 97.7266 56.6641V41.7812C97.7266 47.9574 82.7693 52.9434 64.2402 52.9434C45.7111 52.9434 30.7539 47.9574 30.7539 41.7812V56.6641C30.7539 62.415 43.7736 67.0795 60.5195 67.7016V75.2676H19.5918C17.5352 75.2676 15.8711 76.9317 15.8711 78.9883V90.1504H4.46094C2.40438 90.1504 0.740234 91.8145 0.740234 93.8711V123.885C0.740234 125.941 2.40438 127.605 4.46094 127.605H34.4746C36.5312 127.605 38.1953 125.941 38.1953 123.885V93.8711C38.1953 91.8145 36.5312 90.1504 34.4746 90.1504H23.3125V82.709H60.5195V90.1504H49.3574C47.3009 90.1504 45.6367 91.8145 45.6367 93.8711V123.885C45.6367 125.941 47.3009 127.605 49.3574 127.605H79.123C81.1796 127.605 82.8438 125.941 82.8438 123.885V93.8711C82.8438 91.8145 81.1796 90.1504 79.123 90.1504H67.9609V82.709H105.168V90.1504H94.0059C91.9493 90.1504 90.2852 91.8145 90.2852 93.8711V123.885C90.2852 125.941 91.9493 127.605 94.0059 127.605H124.02C126.076 127.605 127.74 125.941 127.74 123.885V93.8711C127.74 91.8145 126.076 90.1504 124.02 90.1504ZM19.5918 112.475C17.537 112.475 15.8711 110.809 15.8711 108.754C15.8711 106.699 17.537 105.033 19.5918 105.033C21.6466 105.033 23.3125 106.699 23.3125 108.754C23.3125 110.809 21.6466 112.475 19.5918 112.475ZM64.2402 112.475C62.1854 112.475 60.5195 110.809 60.5195 108.754C60.5195 106.699 62.1854 105.033 64.2402 105.033C66.2951 105.033 67.9609 106.699 67.9609 108.754C67.9609 110.809 66.2951 112.475 64.2402 112.475ZM108.889 112.475C106.834 112.475 105.168 110.809 105.168 108.754C105.168 106.699 106.834 105.033 108.889 105.033C110.943 105.033 112.609 106.699 112.609 108.754C112.609 110.809 110.943 112.475 108.889 112.475Z" fill="#18A0FB"/>
<path d="M64.2402 23.1777C82.7344 23.1777 97.7266 18.1803 97.7266 12.0156C97.7266 5.85092 82.7344 0.605469 64.2402 0.605469C45.7461 0.605469 30.7539 5.85092 30.7539 12.0156C30.7539 18.1803 45.7461 23.1777 64.2402 23.1777Z" fill="#18A0FB"/>
<path d="M30.7539 34.3398C30.7539 40.516 45.7111 45.502 64.2402 45.502C82.7693 45.502 97.7266 40.516 97.7266 34.3398V19.457C97.7266 25.6332 82.7693 30.6191 64.2402 30.6191C45.7111 30.6191 30.7539 25.6332 30.7539 19.457V34.3398Z" fill="#18A0FB"/>
</g>
<defs>
<clipPath id="clip0_7_779">
<rect width="127" height="127" fill="white" transform="translate(0.740234 0.605469)"/>
</clipPath>
</defs>
</svg>
