<svg width="128" height="128" viewBox="0 0 128 128" fill="none" xmlns="http://www.w3.org/2000/svg">
<g clip-path="url(#clip0_7_787)">
<path d="M110.543 0.105469H18.1795C13.5864 0.105469 9.1815 1.93006 5.93371 5.17785C2.68592 8.42564 0.861328 12.8306 0.861328 17.4237L0.861328 109.787C0.861328 114.38 2.68592 118.785 5.93371 122.033C9.1815 125.281 13.5864 127.105 18.1795 127.105H110.543C115.136 127.105 119.541 125.281 122.789 122.033C126.037 118.785 127.861 114.38 127.861 109.787V17.4237C127.861 12.8306 126.037 8.42564 122.789 5.17785C119.541 1.93006 115.136 0.105469 110.543 0.105469V0.105469ZM72.7029 60.6397C73.6843 65.3156 67.9693 69.3782 67.8033 69.4864C67.8899 69.306 69.5784 65.8208 68.9434 63.7137C68.3084 61.6067 64.1881 59.4563 64.1881 52.8898C64.1881 46.3234 78.8076 40.7816 79.2622 40.6228C78.887 40.9114 71.4834 46.5326 69.7588 49.6283C67.1322 54.4052 71.7216 55.8844 72.7029 60.6397ZM54.3456 49.0005C58.1196 40.8032 67.7961 38.0034 70.4083 33.2987C71.984 30.4415 72.5653 27.1416 72.0607 23.918C72.0607 23.918 76.4841 30.1381 72.537 36.5458C68.5899 42.9535 58.5886 47.3336 58.4515 51.7786C58.2855 58.0131 62.7089 66.5351 62.7089 66.5351C62.7089 66.5351 50.5862 57.1977 54.3456 49.0005ZM41.5735 70.4678C42.5476 67.5093 54.3456 67.5093 54.3456 67.5093C54.3456 67.5093 46.805 68.9958 46.971 70.8214C47.137 72.647 71.0721 72.7841 80.0848 70.3235C80.0848 70.3235 75.0337 74.718 61.0781 75.2159C47.1225 75.7138 40.5849 73.4191 41.5735 70.4678ZM53.0468 86.5376C53.3787 87.3025 61.7059 88.2839 65.7179 87.7355C69.73 87.1871 72.3926 86.6386 72.3926 86.6386L76.5274 89.1642C71.5827 91.1831 66.2398 92.0374 60.9121 91.6609C51.7335 91.1269 49.2079 89.3663 49.4316 87.418C49.6553 85.4697 53.3787 85.3542 53.3787 85.3542C53.1937 85.4815 53.0591 85.6696 52.9985 85.8858C52.9378 86.1021 52.9549 86.3327 53.0468 86.5376ZM57.2897 82.9297C47.6998 82.2658 43.2043 78.8455 51.3799 76.8611C51.2139 76.926 49.6337 77.5827 50.2542 78.6723C50.8748 79.7619 59.1659 80.4185 65.9849 79.6536C68.8596 79.3653 71.7116 78.8831 74.5213 78.2105L77.7901 80.5051C77.7901 80.5051 65.5303 83.4925 57.2897 82.9297ZM35.1152 94.1937C35.44 91.4156 45.4412 91.1414 46.7257 91.0259C45.9175 91.1702 39.3005 92.4258 39.7046 93.9772C40.1087 95.5286 54.0281 97.4625 66.8003 96.7987C79.5725 96.1348 87.5749 93.9772 88.448 93.0897C88.5684 92.9959 88.6691 92.8793 88.7444 92.7466C88.8197 92.6138 88.8681 92.4676 88.8869 92.3161C88.9057 92.1647 88.8944 92.011 88.8538 91.864C88.8131 91.7169 88.7439 91.5792 88.6501 91.4589C88.6501 91.4589 90.5118 92.6567 89.0975 94.1937C87.6832 95.7307 78.9952 99.3098 59.3751 99.3314C39.7551 99.3531 34.7761 97.0368 35.1152 94.1937ZM83.1227 101.944C71.0126 103.946 58.6385 103.719 46.6102 101.273C46.6102 101.273 72.84 102.377 81.4775 100.645C90.1149 98.9129 92.9508 95.8173 92.9508 95.8173C92.9508 95.8173 92.3951 100.313 83.1227 101.944ZM81.261 82.1143C81.261 82.1143 90.4396 76.0457 89.7758 71.9543C89.1119 67.8629 82.4011 67.8629 82.4011 67.8629C82.4011 67.8629 91.9189 62.7684 93.5497 71.7883C94.8774 79.2063 81.2393 82.1143 81.2393 82.1143H81.261Z" fill="#9D9D9D"/>
</g>
<defs>
<clipPath id="clip0_7_787">
<rect width="127" height="127" fill="white" transform="translate(0.861328 0.105469)"/>
</clipPath>
</defs>
</svg>
