<svg width="128" height="128" viewBox="0 0 128 128" fill="none" xmlns="http://www.w3.org/2000/svg">
<path d="M87.9844 111.73H81.8016C79.7848 109.413 77.0313 106.691 76.0781 103.793H52.2656C51.3124 106.691 48.559 109.413 46.5421 111.73H40.3594C38.1657 111.73 36.3906 113.506 36.3906 115.699C36.3906 117.893 38.1657 119.668 40.3594 119.668H87.9844C90.178 119.668 91.9531 117.893 91.9531 115.699C91.9531 113.506 90.178 111.73 87.9844 111.73Z" fill="#18A0FB"/>
<path d="M72.1094 16.4805C72.1094 12.1048 68.5476 8.54297 64.1719 8.54297C59.7962 8.54297 56.2344 12.1048 56.2344 16.4805C56.2344 19.4042 57.8426 21.9363 60.2031 23.3134V44.2617H68.1406V23.3134C70.5012 21.9363 72.1094 19.4042 72.1094 16.4805Z" fill="#18A0FB"/>
<path d="M48.2969 26.7434V23.3134C50.6574 21.9363 52.2656 19.4042 52.2656 16.4805C52.2656 12.1048 48.7038 8.54297 44.3281 8.54297C39.9524 8.54297 36.3906 12.1048 36.3906 16.4805C36.3906 19.4042 37.9988 21.9363 40.3594 23.3134V28.3867C40.3594 29.4409 40.778 30.4486 41.5221 31.1927L48.2969 37.9675V44.2617H56.2344V36.3242C56.2344 35.27 55.8158 34.2623 55.0717 33.5182L48.2969 26.7434Z" fill="#18A0FB"/>
<path d="M91.9531 16.4805C91.9531 12.1048 88.3913 8.54297 84.0156 8.54297C79.6399 8.54297 76.0781 12.1048 76.0781 16.4805C76.0781 19.4042 77.6863 21.9363 80.0469 23.3134V26.7434L73.2721 33.5182C72.528 34.2623 72.1094 35.27 72.1094 36.3242V44.2617H80.0469V37.9675L86.8217 31.1927C87.5658 30.4486 87.9844 29.4409 87.9844 28.3867V23.3134C90.3449 21.9363 91.9531 19.4042 91.9531 16.4805Z" fill="#18A0FB"/>
<path d="M64.1719 87.918C57.6064 87.918 52.2656 93.2587 52.2656 99.8242H76.0781C76.0781 93.2587 70.7374 87.918 64.1719 87.918Z" fill="#18A0FB"/>
<path d="M103.859 32.3555H90.8548C90.5126 32.9431 84.0156 39.6108 84.0156 39.6108V44.2617C84.0156 46.4534 82.2388 48.2305 80.0469 48.2305H48.2969C46.1049 48.2305 44.3281 46.4534 44.3281 44.2617V39.6108C44.3281 39.6108 37.8312 32.9431 37.4889 32.3555H24.4844C15.7167 32.3555 8.60938 39.4628 8.60938 48.2305V83.9492C8.60938 91.3378 13.6805 97.4925 20.5156 99.263V95.6694C20.5156 91.2937 24.0774 87.7319 28.4531 87.7319H32.1428C32.8366 86.3018 33.6234 84.9182 34.4993 83.5927L32.5265 80.0967C30.3871 76.2908 31.6545 71.5779 35.4023 69.361L49.1495 61.2374C50.3704 60.5165 51.7657 60.1367 53.1842 60.1367C53.8779 60.1367 54.5678 60.2259 55.2383 60.408C57.2847 60.9545 59.052 62.3265 60.0985 64.1675L61.9743 67.4967C62.7146 67.4464 63.4471 67.4231 64.1719 67.4231C64.8966 67.4231 65.633 67.4464 66.3733 67.4967L68.2453 64.1752C69.284 62.3304 71.0591 60.9545 73.1093 60.408C73.7798 60.2259 74.4697 60.1367 75.1635 60.1367C76.582 60.1367 77.9772 60.5165 79.1981 61.2374L92.9453 69.361C96.6931 71.5779 97.9566 76.2908 95.825 80.089L93.8484 83.5927C94.7204 84.9182 95.5072 86.3018 96.2048 87.7319H99.8906C104.266 87.7319 107.828 91.2937 107.828 95.6694V99.263C114.663 97.4925 119.734 91.3378 119.734 83.9492V48.2305C119.734 39.4628 112.627 32.3555 103.859 32.3555V32.3555Z" fill="#18A0FB"/>
<path d="M71.7005 66.1245L68.5456 71.7171C67.069 71.5001 65.6078 71.3916 64.1719 71.3916C62.7359 71.3916 61.2748 71.5001 59.7981 71.7171L56.6433 66.1245C56.1181 65.1943 55.2422 64.516 54.2132 64.2409C53.1822 63.9657 52.0854 64.113 51.1669 64.6556L37.4196 72.7791C35.5632 73.8759 34.9198 76.2556 35.9817 78.147L39.1928 83.8366C37.3479 86.2356 35.8403 88.8944 34.7279 91.7004H28.4531C26.2614 91.7004 24.4844 93.4755 24.4844 95.6692V99.824H48.2969C48.2969 91.0563 55.4042 83.949 64.1719 83.949C72.9395 83.949 80.0469 91.0563 80.0469 99.824H103.859V95.6692C103.859 93.4755 102.082 91.7004 99.8906 91.7004H93.6178C92.5035 88.8944 90.9939 86.2356 89.151 83.8366L92.362 78.147C93.4259 76.2556 92.7825 73.8759 90.9241 72.7791L77.1769 64.6556C76.2583 64.113 75.1615 63.9657 74.1306 64.2409C73.1016 64.516 72.2256 65.1943 71.7005 66.1245Z" fill="#18A0FB"/>
</svg>
