<svg width="123" height="124" viewBox="0 0 123 124" fill="none" xmlns="http://www.w3.org/2000/svg">
<path fill-rule="evenodd" clip-rule="evenodd" d="M14.1093 39.3602C16.7611 34.1933 17.2002 32.5212 21.0727 27.6366C29.3154 17.2399 43.3263 8.69269 57.8917 7.5487C56.8886 8.469 55.4498 9.34926 54.2878 10.2226L43.7378 19.2372C39.3041 23.4521 35.297 28.3608 31.2533 32.9299C28.5601 35.9739 21.1479 45.6622 18.7433 49.4726C17.6041 51.2766 15.2637 50.9472 11.0992 51.5976C4.25799 52.6656 3.51098 51.7964 2.00176 55.7428C0.664458 59.2396 0.86329 63.7425 1.70489 67.4036C2.06873 68.9867 2.63899 70.819 3.28797 72.1529C4.67222 75.0001 4.66118 73.4833 3.36323 76.666C-2.15307 90.1903 -1.18928 100.062 8.9458 109.932C12.0478 112.952 16.1156 116.346 19.7195 118.715C21.1169 119.633 26.5641 123.047 28.1541 123.335C27.7923 122.482 26.638 122.207 25.2889 121.204C19.2079 116.683 16.6306 109.455 19.1396 101.948C19.9259 99.5956 20.9829 95.8516 22.2111 94.0586C22.8567 94.3665 24.4149 95.7238 24.9548 96.2244C35.9018 106.368 59.2242 119.506 73.6922 122.547C87.6114 125.472 96.2331 121.503 104.416 115.007C110.516 110.165 114.486 105.445 118.717 99.1034C119.396 98.0864 122.378 93.8335 121.743 92.7738C120.899 93.1797 120.412 94.4093 119.845 95.34C115.878 101.851 110.307 108.009 102.619 110.623C87.2323 115.852 68.916 102.312 57.3718 93.4358C53.3441 90.3387 45.9982 83.7288 42.54 80.0766C41.7191 79.2101 41.1523 78.5246 40.3549 77.6533C39.4691 76.6854 38.943 76.3899 38.1083 75.3011C37.0223 73.8858 34.2821 71.5336 33.9362 69.78C44.8963 67.9705 56.5744 66.7747 67.7209 65.0632C78.6341 63.3882 89.2117 61.2418 99.4069 58.2192C104.499 56.7093 108.881 54.8321 113.268 52.8065C117.212 50.9859 121.839 47.6168 122.451 42.7211C123.074 37.7351 118.927 32.2243 116.828 29.3778L107.623 19.0231C99.1838 12.3249 94.6631 8.69614 83.3433 4.74981C63.0331 -2.33162 38.6972 0.328492 20.9166 11.9472C15.4431 15.5242 13.722 15.8929 12.3308 22.6471C11.4699 26.8261 11.6536 36.3929 14.1093 39.3602ZM48.9379 46.8166C62.4428 45.4917 76.9454 43.6359 90.0706 41.1263C99.3544 39.3506 113.307 37.2815 106.218 25.8926C103.096 20.8776 91.8725 12.2013 84.9209 12.1033C81.2383 12.0515 78.6389 13.8548 76.4883 15.4538L71.7909 19.3898C71.0715 20.0173 70.95 20.3322 70.2934 21.0481C69.3199 22.1099 68.508 22.946 67.3661 23.878C66.0654 24.9399 65.5759 25.8788 64.4906 27.0484C63.8989 27.6856 63.6103 27.8133 63.0697 28.4934C62.4981 29.2128 62.4697 29.2908 61.7435 30.0475C60.9101 30.9167 59.8794 32.3265 59.0171 33.3669C57.1054 35.6735 55.5954 37.5928 53.7935 39.934C52.8656 41.1401 49.2686 45.783 48.9379 46.8166Z" fill="#18A0FB"/>
</svg>
