<svg width="47" height="47" viewBox="0 0 47 47" fill="none" xmlns="http://www.w3.org/2000/svg">
<path d="M23.2394 46.4789C36.0742 46.4789 46.4789 36.0742 46.4789 23.2394C46.4789 10.4047 36.0742 0 23.2394 0C10.4047 0 0 10.4047 0 23.2394C0 36.0742 10.4047 46.4789 23.2394 46.4789Z" fill="#665CAC"/>
<path d="M25.6888 11.0083H20.7963C18.5255 11.0083 16.3478 11.9104 14.7421 13.516C13.1364 15.1217 12.2344 17.2994 12.2344 19.5702V23.2396C12.2337 24.8604 12.6931 26.4482 13.5592 27.8182C14.4253 29.1882 15.6625 30.2843 17.1269 30.9789V35.0672C17.1283 35.147 17.1531 35.2246 17.198 35.2905C17.2429 35.3564 17.3061 35.4078 17.3798 35.4383C17.4535 35.4688 17.5345 35.4772 17.6129 35.4623C17.6913 35.4475 17.7636 35.41 17.821 35.3547L21.3742 31.8015H25.6888C27.9595 31.8015 30.1373 30.8994 31.743 29.2938C33.3486 27.6881 34.2507 25.5103 34.2507 23.2396V19.5702C34.2507 17.2994 33.3486 15.1217 31.743 13.516C30.1373 11.9104 27.9595 11.0083 25.6888 11.0083ZM28.8934 27.0557L27.6703 28.2789C26.3676 29.554 22.9673 28.0985 19.9707 25.0376C16.974 21.9767 15.6591 18.5428 16.9128 17.2677L18.136 16.0445C18.3757 15.8293 18.6874 15.7119 19.0095 15.7153C19.3316 15.7186 19.6407 15.8427 19.8759 16.0629L21.6616 17.8976C21.8035 18.0439 21.9057 18.2239 21.9588 18.4207C22.012 18.6175 22.0141 18.8245 21.9652 19.0223C21.9163 19.2202 21.8179 19.4023 21.6792 19.5517C21.5405 19.701 21.3661 19.8126 21.1724 19.876C20.8853 19.9641 20.6431 20.1594 20.4962 20.4213C20.3493 20.6832 20.3089 20.9917 20.3835 21.2826C20.6893 22.6403 22.4139 24.3404 23.6981 24.6737C23.9877 24.7427 24.2924 24.7037 24.5553 24.5641C24.8182 24.4245 25.0212 24.1939 25.1262 23.9154C25.194 23.7211 25.3107 23.5476 25.465 23.4115C25.6193 23.2754 25.8061 23.1814 26.0073 23.1383C26.2085 23.0953 26.4173 23.1049 26.6138 23.166C26.8103 23.2271 26.9877 23.3377 27.129 23.4873L28.9117 25.322C29.1258 25.561 29.2427 25.8715 29.2393 26.1924C29.2359 26.5133 29.1125 26.8213 28.8934 27.0557ZM24.3556 16.8182C24.234 16.8176 24.1124 16.8247 23.9917 16.8396C23.9385 16.8454 23.8847 16.8407 23.8333 16.8257C23.7819 16.8107 23.734 16.7858 23.6922 16.7522C23.6505 16.7187 23.6157 16.6773 23.59 16.6304C23.5643 16.5835 23.548 16.5319 23.5422 16.4787C23.5364 16.4255 23.5411 16.3717 23.5561 16.3203C23.5711 16.2689 23.596 16.221 23.6295 16.1793C23.663 16.1375 23.7044 16.1028 23.7513 16.0771C23.7983 16.0513 23.8498 16.0351 23.903 16.0292C24.0532 16.0119 24.2044 16.0038 24.3556 16.0048C25.4377 16.004 26.4759 16.4329 27.2419 17.1972C28.008 17.9615 28.4392 18.9987 28.4408 20.0809C28.4418 20.2321 28.4337 20.3832 28.4164 20.5334C28.4105 20.5866 28.3943 20.6382 28.3686 20.6851C28.3428 20.732 28.3081 20.7734 28.2663 20.8069C28.2246 20.8404 28.1767 20.8654 28.1253 20.8804C28.0739 20.8953 28.0201 20.9001 27.9669 20.8942C27.9137 20.8884 27.8621 20.8722 27.8152 20.8464C27.7683 20.8207 27.7269 20.786 27.6934 20.7442C27.6599 20.7025 27.6349 20.6545 27.6199 20.6032C27.6049 20.5518 27.6002 20.4979 27.606 20.4447C27.6194 20.3239 27.6265 20.2024 27.6274 20.0809C27.6258 19.2144 27.2803 18.3841 26.6668 17.7723C26.0533 17.1605 25.222 16.8173 24.3556 16.8182ZM26.8018 20.0809C26.793 20.183 26.7461 20.2782 26.6706 20.3475C26.595 20.4168 26.4962 20.4552 26.3936 20.4552C26.2911 20.4552 26.1922 20.4168 26.1167 20.3475C26.0411 20.2782 25.9942 20.183 25.9854 20.0809C25.9854 19.6486 25.8137 19.234 25.508 18.9284C25.2024 18.6227 24.7878 18.451 24.3556 18.451C24.299 18.4559 24.242 18.449 24.1883 18.4307C24.1345 18.4124 24.0851 18.3832 24.0433 18.3448C24.0014 18.3064 23.968 18.2597 23.9451 18.2078C23.9223 18.1558 23.9105 18.0996 23.9105 18.0428C23.9105 17.986 23.9223 17.9299 23.9451 17.8779C23.968 17.8259 24.0014 17.7792 24.0433 17.7408C24.0851 17.7025 24.1345 17.6732 24.1883 17.6549C24.242 17.6366 24.299 17.6297 24.3556 17.6346C25.0044 17.6346 25.6266 17.8923 26.0853 18.3511C26.5441 18.8099 26.8018 19.4321 26.8018 20.0809ZM29.9116 21.4049C29.9026 21.4605 29.8822 21.5136 29.8517 21.561C29.8212 21.6083 29.7813 21.6489 29.7344 21.6801C29.6875 21.7113 29.6347 21.7325 29.5793 21.7425C29.5238 21.7524 29.4669 21.7507 29.4122 21.7377C29.3574 21.7246 29.3059 21.7004 29.2609 21.6665C29.2159 21.6327 29.1783 21.5899 29.1506 21.5409C29.1229 21.4919 29.1055 21.4376 29.0997 21.3816C29.0938 21.3256 29.0996 21.269 29.1166 21.2153C29.2049 20.8457 29.249 20.467 29.2481 20.087C29.2481 18.7894 28.7326 17.545 27.8151 16.6274C26.8976 15.7099 25.6532 15.1945 24.3556 15.1945C24.2302 15.1945 24.1018 15.1945 23.9764 15.1945C23.923 15.1985 23.8693 15.1919 23.8184 15.1752C23.7676 15.1585 23.7205 15.1319 23.6799 15.097C23.5979 15.0264 23.5472 14.9262 23.5391 14.8183C23.531 14.7105 23.5661 14.6038 23.6366 14.5218C23.7072 14.4398 23.8074 14.3892 23.9153 14.3811C24.062 14.3688 24.2088 14.3627 24.3556 14.3627C25.8705 14.3652 27.3226 14.9687 28.393 16.0408C29.4633 17.1129 30.0645 18.5659 30.0645 20.0809C30.0647 20.5266 30.0134 20.9709 29.9116 21.4049Z" fill="white"/>
</svg>
