<svg width="47" height="47" viewBox="0 0 47 47" fill="none" xmlns="http://www.w3.org/2000/svg">
<path d="M23.2394 46.4789C36.0742 46.4789 46.4789 36.0742 46.4789 23.2394C46.4789 10.4047 36.0742 0 23.2394 0C10.4047 0 0 10.4047 0 23.2394C0 36.0742 10.4047 46.4789 23.2394 46.4789Z" fill="#4065D6"/>
<path d="M33.955 29.881C33.4107 29.9574 30.7657 29.881 30.6281 29.881C29.9443 29.8879 29.2852 29.6254 28.7934 29.1502C28.2338 28.612 27.7293 28.0188 27.1942 27.4592C27.0317 27.2886 26.8569 27.1302 26.6713 26.9852C26.234 26.6519 25.8029 26.7284 25.598 27.2421C25.4375 27.7989 25.327 28.3689 25.2677 28.9453C25.2582 29.1881 25.1527 29.4172 24.9744 29.5823C24.7961 29.7474 24.5596 29.835 24.3168 29.8259C23.9559 29.8443 23.5951 29.8535 23.2373 29.8443C21.9359 29.8375 20.6545 29.5232 19.4976 28.9269C18.2488 28.2291 17.1602 27.2769 16.3022 26.1321C14.9295 24.3195 13.7432 22.373 12.7613 20.3222C12.7093 20.2183 11.6788 18.0258 11.6543 17.9249C11.5904 17.7812 11.5843 17.6185 11.6373 17.4704C11.6902 17.3224 11.7982 17.2004 11.9387 17.1299C12.1222 17.0595 15.5194 17.1299 15.5745 17.1299C15.8274 17.1275 16.0745 17.206 16.2797 17.354C16.4849 17.5019 16.6374 17.7116 16.715 17.9524C17.3433 19.5542 18.2014 21.0561 19.2622 22.4107C19.4101 22.5933 19.5843 22.753 19.779 22.8847C19.8291 22.9331 19.8913 22.9673 19.9591 22.9836C20.0269 22.9999 20.0978 22.9979 20.1645 22.9776C20.2313 22.9573 20.2914 22.9196 20.3386 22.8683C20.3859 22.8171 20.4186 22.7541 20.4333 22.6859C20.5677 22.2438 20.6468 21.7868 20.6688 21.3252C20.6871 20.4079 20.6688 19.7963 20.6168 18.8789C20.6353 18.5663 20.5297 18.259 20.3231 18.0238C20.1164 17.7885 19.8253 17.6442 19.5129 17.6222C19.2438 17.5763 19.2071 17.3562 19.3937 17.136C19.7514 16.6804 20.2468 16.607 20.785 16.5795C21.5984 16.5336 22.4148 16.5795 23.2312 16.5795H23.4086C23.767 16.5786 24.1246 16.6144 24.4758 16.6865C24.6811 16.7285 24.8673 16.8358 25.0067 16.9923C25.1461 17.1488 25.2313 17.3461 25.2494 17.5549C25.2906 17.786 25.309 18.0205 25.3044 18.2552C25.283 19.2551 25.2341 20.255 25.2219 21.2579C25.2146 21.6541 25.2505 22.0499 25.3289 22.4383C25.4482 22.9703 25.812 23.1049 26.1851 22.7165C26.65 22.2175 27.0762 21.6839 27.4602 21.1203C28.1506 20.0941 28.7191 18.991 29.1542 17.8332C29.3897 17.24 29.5701 17.1085 30.2092 17.1085H33.8144C34.0295 17.1049 34.2439 17.1337 34.4504 17.1941C34.5233 17.2135 34.5914 17.2477 34.6505 17.2946C34.7096 17.3414 34.7584 17.3999 34.794 17.4665C34.8296 17.533 34.8511 17.6061 34.8572 17.6813C34.8633 17.7565 34.8539 17.8321 34.8295 17.9035C34.6188 18.6706 34.257 19.3879 33.7654 20.0134C33.0316 21.05 32.261 22.0621 31.5088 23.0712C31.4136 23.2032 31.3268 23.3411 31.2488 23.484C30.9675 23.9916 30.9889 24.2791 31.3956 24.7072C32.05 25.3799 32.7502 26.0128 33.3801 26.7039C33.8447 27.2075 34.2642 27.7508 34.6338 28.3276C35.0986 29.0737 34.8143 29.7587 33.955 29.881Z" fill="white"/>
</svg>
