<svg width="47" height="47" viewBox="0 0 47 47" fill="none" xmlns="http://www.w3.org/2000/svg">
<path d="M23.716 46.4789C36.5508 46.4789 46.9554 36.0742 46.9554 23.2394C46.9554 10.4047 36.5508 0 23.716 0C10.8812 0 0.476562 10.4047 0.476562 23.2394C0.476562 36.0742 10.8812 46.4789 23.716 46.4789Z" fill="#2AA81A"/>
<path d="M31.9128 15.0417C29.979 13.0859 27.4097 11.8861 24.6687 11.6586C21.9278 11.4312 19.1959 12.1912 16.9662 13.8015C14.7365 15.4117 13.156 17.7661 12.51 20.4395C11.864 23.1129 12.1951 25.9292 13.4435 28.3799L12.2204 34.3182C12.2073 34.3775 12.2068 34.4389 12.2189 34.4984C12.231 34.5579 12.2555 34.6142 12.2907 34.6637C12.3412 34.7386 12.4133 34.7963 12.4975 34.8291C12.5817 34.8619 12.6738 34.8682 12.7617 34.8472L18.5715 33.4681C21.0155 34.6838 23.8115 34.9928 26.462 34.3402C29.1125 33.6875 31.4453 32.1156 33.0454 29.9041C34.6455 27.6926 35.4089 24.9851 35.1998 22.2635C34.9908 19.5419 33.8227 16.9828 31.9036 15.0417H31.9128ZM30.0964 29.5266C28.759 30.8616 27.0368 31.7439 25.1719 32.0494C23.3071 32.3549 21.3934 32.0683 19.6998 31.2298L18.8865 30.8261L15.318 31.6701V31.6242L16.0702 28.0252L15.6727 27.2424C14.8068 25.5443 14.5011 23.6155 14.7994 21.7329C15.0977 19.8502 15.9847 18.1104 17.3331 16.7632C19.0262 15.0718 21.3216 14.1218 23.7148 14.1218C26.108 14.1218 28.4033 15.0718 30.0964 16.7632L30.1362 16.8182C31.8073 18.515 32.7402 20.8034 32.7316 23.1849C32.723 25.5664 31.7736 27.848 30.0903 29.5327L30.0964 29.5266Z" fill="white"/>
<path d="M29.7795 26.909C29.3422 27.597 28.6481 28.4379 27.7827 28.6489C26.2538 29.0158 23.9268 28.6489 21.0127 25.955L20.976 25.9213C18.4411 23.5546 17.7683 21.5823 17.9182 20.0197C18.0069 19.1299 18.7469 18.3287 19.3706 17.8028C19.4698 17.7192 19.5872 17.6599 19.7134 17.6297C19.8395 17.5996 19.971 17.5993 20.0973 17.629C20.2236 17.6588 20.3412 17.7176 20.4406 17.8009C20.5401 17.8841 20.6187 17.9895 20.6702 18.1086L21.609 20.2307C21.6703 20.3673 21.6932 20.518 21.6755 20.6667C21.6577 20.8153 21.5998 20.9564 21.5081 21.0747L21.031 21.6862C20.9319 21.8132 20.8728 21.9668 20.8614 22.1275C20.85 22.2881 20.8867 22.4486 20.9668 22.5883C21.4199 23.2561 21.9621 23.859 22.5783 24.3802C23.2413 25.0182 23.9931 25.5569 24.8105 25.9794C24.9597 26.0395 25.1234 26.0539 25.2808 26.0207C25.4381 25.9875 25.5821 25.9082 25.6942 25.7929L26.2416 25.2364C26.3457 25.1244 26.4788 25.0434 26.6262 25.0024C26.7735 24.9613 26.9293 24.9619 27.0764 25.004L29.3086 25.6431C29.4351 25.679 29.5513 25.7443 29.6479 25.8336C29.7445 25.9228 29.8187 26.0335 29.8645 26.1568C29.9104 26.2801 29.9266 26.4124 29.9118 26.5431C29.897 26.6737 29.8517 26.7991 29.7795 26.909Z" fill="white"/>
</svg>
