<svg width="47" height="47" viewBox="0 0 47 47" fill="none" xmlns="http://www.w3.org/2000/svg">
<path d="M23.2394 46.4789C36.0742 46.4789 46.4789 36.0742 46.4789 23.2394C46.4789 10.4047 36.0742 0 23.2394 0C10.4047 0 0 10.4047 0 23.2394C0 36.0742 10.4047 46.4789 23.2394 46.4789Z" fill="#F20000"/>
<path d="M34.316 17.6496C33.8512 16.2064 32.3131 15.3532 30.8851 15.1545C25.7949 14.6132 20.6617 14.6132 15.5715 15.1545C14.1558 15.3532 12.6177 16.2186 12.1529 17.6496C11.4282 21.3419 11.4282 25.1398 12.1529 28.8321C12.6299 30.2723 14.168 31.1285 15.596 31.3273C20.6863 31.8655 25.8192 31.8655 30.9096 31.3273C32.3253 31.1285 33.8634 30.2601 34.3282 28.8321C35.0488 25.139 35.0447 21.3411 34.316 17.6496ZM20.461 27.6915V18.7872L27.7111 23.2393C25.2679 24.7407 22.895 26.2024 20.461 27.6915Z" fill="white"/>
</svg>
